<?xml version="1.0" standalone="no"?>
<!DOCTYPE svg PUBLIC "-//W3C//DTD SVG 1.1//EN" "http://www.w3.org/Graphics/SVG/1.1/DTD/svg11.dtd" >
<svg xmlns="http://www.w3.org/2000/svg" xmlns:xlink="http://www.w3.org/1999/xlink" version="1.1">
<metadata>
Created by FontForge 20190801 at Thu Sep 23 03:29:48 2021
 By Unknown
Copyright \(c\) 2016 by Valerio Dell'Edera. All rights reserved.
</metadata>
<defs>
<font id="Abside-ObliqueRound1" horiz-adv-x="583" >
  <font-face 
    font-family="Abside"
    font-weight="400"
    font-style="oblique"
    font-stretch="normal"
    units-per-em="1000"
    panose-1="2 0 5 3 0 0 0 0 0 0"
    ascent="800"
    descent="-200"
    x-height="487"
    cap-height="733"
    bbox="-91.2799 -347.079 1315.55 1030"
    underline-thickness="73"
    underline-position="-143"
    stemh="112"
    stemv="123"
    unicode-range="U+0020-FB06"
  />
<missing-glyph horiz-adv-x="599" 
d="M378 732c109 0 233 -85 218 -214c-12 -93 -65 -164 -163 -191c-44 -12 -73 -49 -87 -110c-2 -11 -14 -22 -24 -22h-95c-13 0 -20 13 -18 25c18 102 56 183 168 208c117 26 103 168 -45 168c-50 0 -92 -14 -126 -43c-9 -7 -25 -8 -32 0l-59 67c-7 8 -3 23 7 31
c81 63 142 81 256 81zM189 68c5 39 37 69 81 69c47 0 71 -30 66 -69c-4 -39 -37 -68 -82 -68s-69 29 -65 68z" />
    <glyph glyph-name=".notdef" horiz-adv-x="599" 
d="M378 732c109 0 233 -85 218 -214c-12 -93 -65 -164 -163 -191c-44 -12 -73 -49 -87 -110c-2 -11 -14 -22 -24 -22h-95c-13 0 -20 13 -18 25c18 102 56 183 168 208c117 26 103 168 -45 168c-50 0 -92 -14 -126 -43c-9 -7 -25 -8 -32 0l-59 67c-7 8 -3 23 7 31
c81 63 142 81 256 81zM189 68c5 39 37 69 81 69c47 0 71 -30 66 -69c-4 -39 -37 -68 -82 -68s-69 29 -65 68z" />
    <glyph glyph-name="NULL" horiz-adv-x="0" 
 />
    <glyph glyph-name="CR" horiz-adv-x="248" 
 />
    <glyph glyph-name="space" unicode=" " horiz-adv-x="342" 
 />
    <glyph glyph-name="exclam" unicode="!" horiz-adv-x="293" 
d="M180 214c-2 -10 -13 -19 -23 -19h-26c-11 0 -19 9 -19 20l31 436c6 47 24 65 72 65c51 0 62 -18 56 -65zM57 68c5 39 37 69 81 69c47 0 70 -30 65 -69c-4 -39 -36 -68 -81 -68s-69 29 -65 68z" />
    <glyph glyph-name="quotedbl" unicode="&#x22;" horiz-adv-x="391" 
d="M200 550c-3 -10 -12 -14 -22 -14h-17c-10 0 -18 4 -18 14c-4 176 -4 180 -4 182c3 29 28 43 59 43c29 0 53 -15 50 -42c0 -2 -2 -5 -48 -183zM353 550c-3 -10 -12 -14 -22 -14h-18c-10 0 -18 4 -18 14c-4 176 -3 179 -3 182c3 29 29 43 59 43c29 0 52 -15 49 -42
c0 -2 -1 -5 -47 -183z" />
    <glyph glyph-name="numbersign" unicode="#" horiz-adv-x="729" 
d="M480 401c6 14 -2 27 -17 27h-63c-8 0 -18 -7 -22 -15l-38 -89c-6 -14 2 -27 17 -27h62c8 0 19 7 22 15zM290 520c8 0 19 7 22 15l77 182c3 8 13 15 22 15h72c15 0 22 -13 16 -27l-67 -158c-6 -14 2 -27 17 -27h62c9 0 19 7 22 15l79 182c3 8 13 15 21 15h72
c15 0 22 -13 16 -27l-67 -158c-6 -14 2 -27 17 -27h85c15 0 23 -12 17 -27l-19 -48c-3 -8 -14 -15 -22 -15h-110c-8 0 -18 -7 -22 -15l-37 -88c-6 -14 2 -27 17 -27h95c15 0 23 -13 17 -27l-20 -48c-3 -8 -14 -15 -22 -15h-120c-8 0 -18 -7 -22 -15l-77 -180
c-3 -8 -13 -15 -22 -15h-71c-15 0 -23 13 -17 27l66 156c6 14 -2 27 -16 27h-62c-8 0 -18 -7 -22 -15l-78 -180c-3 -8 -13 -15 -21 -15h-72c-15 0 -23 13 -17 27l66 156c6 14 -2 27 -16 27h-78c-14 0 -22 12 -17 27l20 48c3 8 13 15 22 15h101c9 0 19 7 22 15l39 88
c6 14 -2 27 -17 27h-88c-14 0 -22 12 -17 27l20 48c3 8 13 15 22 15h112z" />
    <glyph glyph-name="dollar" unicode="$" horiz-adv-x="642" 
d="M625 650c8 -8 8 -22 -2 -30l-75 -67c-9 -8 -25 -7 -32 0c-28 29 -67 43 -116 43c-59 0 -98 -14 -117 -42c-53 -75 18 -104 98 -115c126 -17 235 -75 216 -224c-11 -93 -108 -179 -205 -204c-8 -2 -16 -12 -17 -20l-8 -68c-2 -12 -12 -21 -24 -21h-94c-12 0 -20 9 -18 21
l7 61c1 10 -8 20 -17 21c-74 11 -133 43 -180 89c-9 8 -6 19 4 28l74 67c9 7 25 7 33 0c30 -30 78 -47 143 -52c94 -10 172 48 137 124c-13 28 -52 44 -116 51c-118 15 -226 62 -208 206c12 102 108 179 206 204c8 3 16 12 17 21l8 66c2 12 12 21 24 21h94
c12 0 20 -9 18 -21l-7 -62c-2 -10 5 -20 14 -21c61 -10 101 -35 143 -76z" />
    <glyph glyph-name="percent" unicode="%" horiz-adv-x="928" 
d="M299 11c-3 -5 -13 -11 -19 -11h-72c-17 0 -25 16 -14 31l476 690c3 5 13 11 19 11h71c17 0 25 -16 14 -31zM97 554c13 104 103 184 206 184c104 0 174 -80 161 -184c-13 -103 -102 -183 -206 -183c-103 0 -174 80 -161 183zM267 458c55 0 99 43 105 97
c7 54 -26 96 -82 96c-54 0 -97 -42 -104 -96c-6 -54 26 -97 81 -97zM505 178c13 103 101 182 205 182c103 0 173 -79 160 -182s-101 -182 -204 -182c-104 0 -174 79 -161 182zM673 84c54 0 96 41 103 95c6 52 -26 94 -79 94s-97 -43 -103 -94c-7 -54 25 -95 79 -95z" />
    <glyph glyph-name="ampersand" unicode="&#x26;" horiz-adv-x="802" 
d="M622 188c-6 -7 -8 -21 -4 -28l90 -126c10 -14 -2 -34 -21 -34h-111c-4 0 -13 4 -15 8l-34 48c-7 9 -18 12 -28 5c-64 -46 -123 -64 -202 -64c-137 0 -245 72 -228 209c11 85 66 154 166 207c12 6 17 23 11 34c-31 50 -40 95 -35 136c12 105 114 155 219 155
c106 0 185 -57 172 -163c-10 -80 -58 -110 -133 -159c-10 -7 -14 -20 -8 -29l66 -105c4 -5 10 -6 13 0c10 16 21 37 32 62c5 11 18 17 28 14l76 -26c11 -3 15 -16 10 -27c-22 -53 -33 -79 -64 -117zM380 503c7 -9 21 -11 31 -4c51 38 63 55 65 74c5 35 -17 58 -62 58
c-43 0 -67 -20 -71 -49c-1 -15 4 -32 37 -79zM420 151c10 8 14 21 7 30l-98 143c-5 8 -14 11 -23 6c-58 -31 -90 -76 -95 -119c-8 -62 32 -101 95 -101c36 0 71 12 114 41z" />
    <glyph glyph-name="quotesingle" unicode="'" horiz-adv-x="244" 
d="M200 550c-3 -10 -12 -14 -22 -14h-17c-10 0 -18 4 -18 14c-4 176 -4 180 -4 182c4 30 34 43 59 43c26 0 53 -14 50 -42c0 -2 -2 -5 -48 -183z" />
    <glyph glyph-name="parenleft" unicode="(" horiz-adv-x="461" 
d="M83 293c22 176 109 342 237 470c3 3 15 10 19 10h80c19 0 30 -16 17 -31c-116 -130 -166 -293 -185 -449c-19 -157 -7 -312 69 -438c9 -15 0 -41 -18 -41h-80c-4 0 -15 7 -17 11c-98 137 -143 296 -122 468z" />
    <glyph glyph-name="parenright" unicode=")" horiz-adv-x="471" 
d="M407 293c-21 -172 -105 -331 -237 -468c-3 -4 -15 -11 -19 -11h-80c-19 0 -22 26 -9 41c107 126 158 281 177 438c19 156 9 319 -75 449c-10 15 6 31 25 31h80c4 0 14 -7 16 -10c96 -128 144 -294 122 -470z" />
    <glyph glyph-name="asterisk" unicode="*" horiz-adv-x="439" 
d="M168 499c-10 6 -12 19 -4 30l54 66c9 12 6 27 -7 32l-63 22c-11 4 -15 16 -10 27l3 8c5 11 18 17 29 13l60 -23c14 -5 28 4 30 20l8 66c2 12 12 21 24 21h7c11 0 20 -9 18 -21l-8 -66c-2 -15 11 -25 26 -19l67 24c11 4 22 -2 25 -12l2 -8c3 -11 -3 -23 -15 -28l-72 -26
c-15 -5 -21 -20 -14 -32l36 -57c5 -9 2 -22 -7 -29l-5 -4c-11 -8 -24 -7 -30 3l-37 58c-7 11 -23 11 -34 0l-52 -61c-7 -8 -20 -11 -28 -6z" />
    <glyph glyph-name="plus" unicode="+" horiz-adv-x="586" 
d="M248 130c-12 0 -20 9 -18 21l14 120c2 12 -7 21 -18 21h-130c-12 0 -20 9 -19 21l10 75c1 12 12 21 23 21h130c12 0 22 9 24 21l14 119c2 12 12 21 24 21h77c12 0 20 -9 18 -21l-14 -119c-2 -12 7 -21 18 -21h130c12 0 20 -9 19 -21l-10 -75c-1 -12 -12 -21 -23 -21h-130
c-12 0 -22 -9 -24 -21l-14 -120c-2 -12 -12 -21 -24 -21h-77z" />
    <glyph glyph-name="comma" unicode="," horiz-adv-x="290" 
d="M105 -92c-11 -7 -23 -4 -27 7l-6 14c-3 6 1 15 8 18c21 11 37 29 48 53h-5c-45 0 -70 29 -66 68c5 39 37 69 82 69c46 0 70 -31 65 -70c-9 -72 -42 -125 -99 -159z" />
    <glyph glyph-name="hyphen" unicode="-" horiz-adv-x="439" 
d="M369 217c-2 -12 -12 -21 -24 -21h-261c-12 0 -20 9 -18 21l6 55c2 12 12 21 24 21h261c12 0 20 -9 18 -21z" />
    <glyph glyph-name="period" unicode="." horiz-adv-x="284" 
d="M52 68c5 39 37 69 82 69c47 0 70 -30 65 -69c-4 -39 -36 -68 -81 -68s-70 29 -66 68z" />
    <glyph glyph-name="slash" unicode="/" horiz-adv-x="402" 
d="M413 705c15 0 23 -14 16 -28l-338 -692c-3 -7 -14 -14 -21 -14h-51c-15 0 -23 14 -16 28l338 692c3 7 14 14 21 14h51z" />
    <glyph glyph-name="zero" unicode="0" horiz-adv-x="675" 
d="M90 366c21 172 125 366 313 366s245 -193 224 -366c-21 -172 -126 -366 -314 -366s-244 194 -223 366zM331 137c92 0 140 149 150 229c10 81 -2 230 -95 230c-92 0 -140 -149 -150 -230s2 -229 95 -229z" />
    <glyph glyph-name="one" unicode="1" horiz-adv-x="462" 
d="M102 522c-7 8 -6 22 4 30l195 174c3 3 12 7 16 7h116c12 0 20 -9 18 -21l-84 -691c-2 -12 -12 -21 -24 -21h-104c-12 0 -20 9 -18 21l57 465c2 20 -19 29 -34 15l-52 -47c-10 -8 -23 -8 -30 0z" />
    <glyph glyph-name="two" unicode="2" horiz-adv-x="635" 
d="M382 732c250 0 297 -287 92 -447l-130 -102c-17 -13 -11 -37 9 -37h186c12 0 20 -9 18 -21l-12 -104c-2 -12 -12 -21 -24 -21h-451c-12 0 -20 9 -18 21l11 97c1 3 6 13 9 15l331 267c80 63 66 196 -37 196c-49 0 -104 -25 -142 -56c-9 -8 -25 -9 -32 -1l-60 67
c-7 8 -5 20 4 29c64 58 140 97 246 97z" />
    <glyph glyph-name="three" unicode="3" horiz-adv-x="684" 
d="M578 387c-8 -6 -8 -25 0 -30c48 -30 61 -76 52 -142c-16 -132 -172 -215 -296 -215c-102 0 -192 27 -258 91c-9 8 -9 22 1 31l75 67c8 7 25 7 32 0c30 -30 78 -47 144 -52c93 -10 171 48 136 124c-12 26 -60 41 -143 46c-11 1 -20 10 -19 21l11 89c2 12 12 21 24 21
c84 -3 135 7 153 33c58 83 -15 125 -106 125c-53 0 -96 -14 -131 -43c-9 -7 -25 -8 -32 0l-59 67c-7 9 -3 23 7 32c83 64 156 80 255 80c127 0 239 -85 224 -214c-7 -54 -29 -101 -70 -131z" />
    <glyph glyph-name="four" unicode="4" horiz-adv-x="689" 
d="M76 300c0 2 4 11 6 13l373 411c3 4 13 9 17 9h115c12 0 20 -9 18 -21l-47 -384c-1 -12 7 -21 19 -21h56c11 0 20 -9 18 -21l-13 -104c-1 -12 -12 -21 -23 -21h-56c-12 0 -22 -9 -24 -21l-14 -119c-2 -12 -12 -21 -24 -21h-104c-12 0 -20 9 -18 21l14 119
c2 12 -7 21 -18 21h-291c-12 0 -20 9 -19 21zM261 341c-13 -15 -6 -34 12 -34h116c11 0 22 9 23 21l19 151c2 21 -22 29 -36 13z" />
    <glyph glyph-name="five" unicode="5" horiz-adv-x="636" 
d="M153 711c2 12 12 21 24 21h407c11 0 20 -9 18 -21l-11 -94c-2 -12 -12 -21 -24 -21h-261c-11 0 -22 -9 -23 -21l-9 -66c-1 -12 7 -21 19 -21h38c182 0 288 -72 266 -254c-17 -138 -159 -234 -283 -234c-102 0 -193 27 -259 91c-9 8 -9 22 1 31l75 67c9 8 25 7 32 0
c29 -29 74 -44 134 -47c88 0 147 36 157 101c18 115 -76 113 -188 113h-135c-12 0 -20 9 -19 21z" />
    <glyph glyph-name="six" unicode="6" horiz-adv-x="678" 
d="M92 356c24 199 122 365 324 376c76 -2 136 -21 181 -60c9 -7 10 -19 1 -28l-58 -68c-7 -7 -21 -10 -29 -6c-30 14 -65 21 -105 21c-78 0 -133 -45 -158 -134c-3 -13 10 -19 22 -12c44 29 86 43 126 43c162 0 238 -87 219 -244c-18 -145 -141 -251 -294 -244
c-209 8 -254 158 -229 356zM240 249l-1 -5c-5 -68 29 -104 104 -107c75 3 118 35 129 97c7 82 -29 122 -107 122c-68 -3 -109 -39 -125 -107z" />
    <glyph glyph-name="seven" unicode="7" horiz-adv-x="616" 
d="M271 13c-4 -7 -14 -13 -21 -13h-107c-12 0 -20 9 -18 21l2 24c1 1 3 7 3 8l278 514c8 15 1 29 -15 29h-261c-11 0 -20 9 -18 21l10 94c2 12 12 21 24 21h458c11 0 20 -9 18 -21l-3 -28c0 -1 -2 -7 -3 -8z" />
    <glyph glyph-name="eight" unicode="8" horiz-adv-x="631" 
d="M325 303c-126 0 -141 -166 -20 -166c122 0 147 166 20 166zM342 437c131 0 139 158 19 158c-119 0 -149 -158 -19 -158zM516 387c-8 -6 -12 -23 -4 -28c52 -30 65 -76 56 -144c-19 -154 -137 -215 -280 -215s-247 61 -228 215c9 69 36 115 89 143c9 5 12 24 5 30
c-35 31 -43 79 -36 130c17 141 123 214 261 214c136 0 224 -74 207 -214c-7 -54 -29 -101 -70 -131z" />
    <glyph glyph-name="nine" unicode="9" horiz-adv-x="648" 
d="M608 408c-21 -157 -64 -265 -129 -325c-63 -61 -137 -87 -221 -80c-74 9 -132 35 -172 78c-8 8 -7 21 2 29l65 62c7 7 21 8 28 4c29 -18 62 -29 103 -32c74 -7 133 33 166 120c5 13 -7 20 -19 13c-46 -24 -89 -34 -129 -31c-158 16 -225 110 -190 268
c32 145 163 238 313 216c145 -25 203 -125 183 -322zM470 483l1 5c5 68 -29 104 -104 107c-75 -3 -118 -35 -129 -97c-7 -82 29 -123 107 -123c68 4 109 40 125 108z" />
    <glyph glyph-name="colon" unicode=":" horiz-adv-x="286" 
d="M55 68c5 39 37 69 81 69c47 0 70 -30 65 -69c-4 -39 -36 -68 -81 -68s-69 29 -65 68zM98 418c5 39 37 69 81 69c47 0 70 -30 65 -69c-4 -39 -36 -68 -81 -68s-69 29 -65 68z" />
    <glyph glyph-name="semicolon" unicode=";" horiz-adv-x="294" 
d="M103 -92c-11 -7 -23 -4 -27 7l-6 14c-3 6 1 15 8 18c21 11 37 29 48 53h-5c-45 0 -70 29 -66 68c5 39 37 69 82 69c47 0 70 -31 65 -70c-9 -72 -42 -125 -99 -159zM102 420c4 39 36 69 80 69c47 0 70 -30 66 -69c-5 -39 -37 -68 -82 -68s-69 29 -64 68z" />
    <glyph glyph-name="less" unicode="&#x3c;" horiz-adv-x="561" 
d="M531 618c16 8 31 -1 29 -18l-8 -66c-1 -6 -8 -15 -14 -18l-254 -132c-17 -8 -19 -28 -5 -36l223 -132c5 -3 9 -12 8 -18l-8 -65c-2 -17 -19 -26 -33 -18l-393 231c-5 3 -9 12 -8 18l1 7c0 7 7 16 13 19z" />
    <glyph glyph-name="equal" unicode="=" horiz-adv-x="586" 
d="M94 195c-12 0 -20 9 -18 21l6 55c2 12 12 21 24 21h397c11 0 20 -9 18 -21l-6 -55c-2 -12 -12 -21 -24 -21h-397zM118 391c-12 0 -20 9 -18 21l6 55c2 12 12 21 24 21h397c12 0 20 -9 18 -21l-6 -55c-2 -12 -12 -21 -24 -21h-397z" />
    <glyph glyph-name="greater" unicode="&#x3e;" horiz-adv-x="563" 
d="M123 516c-5 3 -9 12 -8 18l8 66c2 17 19 26 33 18l393 -228c5 -3 9 -12 9 -19l-1 -7c-1 -6 -8 -15 -13 -18l-450 -231c-16 -8 -31 1 -29 18l8 65c1 6 8 15 13 18l255 132c17 8 19 28 5 36z" />
    <glyph glyph-name="question" unicode="?" horiz-adv-x="610" 
d="M378 732c109 0 233 -85 218 -214c-12 -93 -65 -164 -163 -191c-44 -12 -73 -49 -87 -110c-2 -11 -14 -22 -24 -22h-95c-13 0 -20 13 -18 25c18 102 56 183 168 208c117 26 103 168 -45 168c-50 0 -92 -14 -126 -43c-9 -7 -25 -8 -32 0l-59 67c-7 8 -3 23 7 31
c81 63 142 81 256 81zM189 68c5 39 37 69 81 69c47 0 71 -30 66 -69c-4 -39 -37 -68 -82 -68s-69 29 -65 68z" />
    <glyph glyph-name="at" unicode="@" horiz-adv-x="1069" 
d="M543 -94c11 0 19 -10 18 -21l-8 -68c-2 -12 -18 -21 -30 -21c-350 11 -480 185 -445 471c33 269 254 441 533 441c294 0 438 -168 404 -445c-33 -268 -262 -304 -346 -230c-5 4 -21 7 -27 3c-38 -20 -82 -36 -124 -36c-141 0 -231 107 -214 244c16 131 134 251 274 244
c40 -3 72 -13 92 -30c4 -4 11 0 12 6v4c2 11 12 20 23 20l77 -1c11 0 20 -9 18 -21l-37 -306c-11 -90 123 -56 142 103c26 208 -80 346 -306 347c-215 0 -373 -134 -398 -345c-30 -239 78 -355 342 -359zM536 113c75 0 132 57 141 130s-34 131 -109 131s-131 -58 -140 -131
s33 -130 108 -130z" />
    <glyph glyph-name="A" unicode="A" horiz-adv-x="803" 
d="M185 13c-4 -7 -14 -13 -21 -13h-112c-16 0 -24 14 -16 29l361 690c4 7 14 13 21 13h119c7 0 16 -6 18 -13l190 -690c4 -15 -7 -29 -23 -29h-110c-7 0 -16 6 -18 13l-23 86c-1 7 -10 13 -18 13h-303c-7 0 -18 -6 -21 -13zM501 259c16 0 27 14 23 29l-53 200
c-5 18 -29 18 -39 0l-105 -200c-8 -15 0 -29 16 -29h158z" />
    <glyph glyph-name="B" unicode="B" horiz-adv-x="768" 
d="M291 606c-11 0 -22 -9 -23 -21l-14 -116c-2 -12 6 -21 18 -21h184c58 1 90 21 100 78l1 4c2 35 -23 74 -81 76h-185zM256 318c-12 0 -22 -9 -24 -21l-19 -157c-1 -12 7 -21 19 -21h213c69 1 112 31 123 101c4 47 -29 96 -97 98h-215zM697 521c-7 -54 -27 -98 -54 -123
c-7 -6 -9 -17 -3 -22c50 -42 76 -98 68 -162c-16 -138 -105 -206 -247 -214h-391c-12 0 -20 9 -18 21l84 690c2 12 12 21 24 21h348c122 0 205 -74 189 -211z" />
    <glyph glyph-name="C" unicode="C" horiz-adv-x="756" 
d="M69 368c20 205 210 364 411 364c96 0 177 -27 242 -83c9 -8 8 -21 -2 -30l-79 -77c-8 -7 -21 -8 -29 -3c-42 32 -92 47 -150 47c-129 -1 -231 -88 -247 -217c-15 -134 60 -223 194 -223c58 0 112 16 161 48c9 6 22 4 28 -4l60 -76c8 -9 5 -22 -6 -30
c-78 -56 -166 -84 -262 -84c-204 -5 -352 164 -321 368z" />
    <glyph glyph-name="D" unicode="D" horiz-adv-x="781" 
d="M226 157c-1 -12 7 -21 19 -21h114c130 1 205 84 224 230c17 147 -38 230 -168 230h-114c-11 0 -22 -9 -23 -21zM342 0h-261c-12 0 -20 9 -18 21l84 691c2 12 12 21 24 21h261c228 0 327 -122 297 -367c-30 -244 -159 -366 -387 -366z" />
    <glyph glyph-name="E" unicode="E" horiz-adv-x="684" 
d="M598 21c-2 -12 -12 -21 -24 -21h-495c-12 0 -20 9 -18 21l84 690c2 12 12 21 24 21h496c11 0 20 -9 18 -21l-11 -94c-2 -12 -12 -21 -24 -21h-349c-11 0 -22 -9 -23 -21l-15 -115c-1 -12 7 -21 19 -21h251c11 0 20 -9 18 -21l-11 -94c-2 -12 -12 -21 -24 -21h-251
c-11 0 -22 -9 -23 -21l-16 -124c-1 -12 7 -21 19 -21h348c11 0 20 -9 18 -21z" />
    <glyph glyph-name="F" unicode="F" horiz-adv-x="621" 
d="M209 21c-2 -12 -12 -21 -24 -21h-104c-12 0 -20 9 -18 21l84 690c2 12 12 21 24 21h473c11 0 20 -9 18 -21l-11 -94c-2 -12 -12 -21 -24 -21h-327c-11 0 -22 -9 -23 -21l-15 -115c-1 -12 7 -21 19 -21h230c11 0 20 -9 18 -21l-11 -94c-2 -12 -12 -21 -24 -21h-230
c-11 0 -22 -9 -23 -21z" />
    <glyph glyph-name="G" unicode="G" horiz-adv-x="743" 
d="M66 368c20 205 210 364 410 364c97 0 178 -27 242 -83c9 -8 8 -21 -1 -30l-79 -77c-8 -7 -21 -9 -29 -3c-42 32 -93 47 -151 47c-129 -1 -230 -88 -246 -217c-15 -134 60 -223 193 -223c48 0 87 9 116 26c5 3 10 11 11 17l11 88c1 12 -7 21 -18 21h-56
c-12 0 -20 9 -19 21l11 90c2 12 12 21 24 21h202c11 0 20 -9 18 -21l-37 -301c0 -5 -4 -12 -7 -15c-81 -62 -173 -93 -275 -93c-203 -5 -352 164 -320 368z" />
    <glyph glyph-name="H" unicode="H" horiz-adv-x="792" 
d="M210 21c-2 -12 -12 -21 -24 -21h-105c-12 0 -20 9 -18 21l84 690c2 12 12 21 24 21h105c11 0 20 -9 18 -21l-31 -251c-1 -12 7 -21 19 -21h299c11 0 22 9 23 21l31 252c2 12 12 21 24 21h104c12 0 20 -9 18 -21l-84 -691c-2 -12 -12 -21 -24 -21h-104c-12 0 -20 9 -18 21
l32 261c1 12 -7 21 -19 21h-299c-11 0 -22 -9 -23 -21z" />
    <glyph glyph-name="I" unicode="I" horiz-adv-x="293" 
d="M81 0c-12 0 -20 9 -18 21l84 691c2 12 12 21 24 21h104c12 0 20 -9 18 -21l-84 -691c-2 -12 -12 -21 -24 -21h-104z" />
    <glyph glyph-name="J" unicode="J" horiz-adv-x="415" 
d="M38 116c2 12 12 21 24 21h27c66 3 102 38 111 107l57 467c2 12 12 21 24 21h105c11 0 20 -9 18 -21l-63 -516c-14 -116 -103 -195 -218 -195h-78c-12 0 -20 9 -18 21z" />
    <glyph glyph-name="K" unicode="K" horiz-adv-x="705" 
d="M83 0c-12 0 -20 9 -18 21l84 690c2 12 12 21 24 21h104c11 0 20 -9 18 -21l-26 -214c-2 -20 20 -29 36 -13l230 240c3 4 13 8 17 8h110c19 0 26 -20 12 -35l-283 -292c-7 -8 -8 -20 -3 -28l262 -342c11 -14 0 -35 -20 -35h-135c-3 0 -12 4 -14 7l-203 267
c-11 15 -36 7 -38 -14l-29 -239c-2 -12 -12 -21 -24 -21h-104z" />
    <glyph glyph-name="L" unicode="L" horiz-adv-x="659" 
d="M149 711c2 12 12 21 24 21h104c11 0 20 -9 18 -21l-68 -553c-1 -12 7 -21 19 -21h349c11 0 20 -9 18 -21l-11 -95c-2 -12 -12 -21 -24 -21h-495c-12 0 -20 9 -18 21z" />
    <glyph glyph-name="M" unicode="M" horiz-adv-x="879" 
d="M691 363c2 19 -18 28 -34 15l-190 -164c-9 -8 -22 -8 -29 0l-149 164c-12 13 -35 4 -37 -16l-42 -341c-2 -12 -12 -21 -24 -21h-105c-12 0 -20 9 -18 21l85 694c1 9 9 17 19 17h8c4 0 12 -4 14 -6l273 -315c7 -8 20 -8 29 0l351 315c3 2 12 6 16 6h8c9 0 16 -8 15 -17
l-85 -694c-2 -12 -12 -21 -24 -21h-105c-12 0 -20 9 -18 21z" />
    <glyph glyph-name="N" unicode="N" horiz-adv-x="806" 
d="M210 21c-2 -12 -12 -21 -24 -21h-105c-12 0 -20 9 -18 21l84 690c2 12 12 21 24 21h117c3 0 12 -4 14 -7l278 -334c12 -14 35 -5 38 14l37 306c2 12 12 21 24 21h104c11 0 20 -9 18 -21l-84 -690c-2 -12 -12 -21 -24 -21h-106c-12 0 -20 9 -18 21l12 104c1 3 -2 12 -4 14
l-275 337c-12 15 -36 6 -38 -14z" />
    <glyph glyph-name="O" unicode="O" horiz-adv-x="804" 
d="M68 366c25 207 204 366 411 366s346 -159 321 -366s-204 -366 -411 -366s-346 160 -321 366zM407 137c130 0 231 102 247 229c16 128 -61 230 -192 230s-232 -102 -248 -230s61 -229 193 -229z" />
    <glyph glyph-name="P" unicode="P" horiz-adv-x="684" 
d="M210 21c-2 -12 -12 -21 -24 -21h-105c-12 0 -20 9 -18 21l84 690c2 12 12 21 24 21h298c171 0 248 -70 231 -211c-18 -146 -113 -218 -283 -218h-152c-11 0 -22 -9 -23 -21zM302 605c-11 0 -22 -9 -23 -21l-17 -133c-1 -12 7 -21 19 -21h184c59 1 93 37 101 90
c5 48 -21 83 -79 85h-185z" />
    <glyph glyph-name="Q" unicode="Q" horiz-adv-x="807" 
d="M629 -33c-10 -7 -22 -6 -28 3l-34 52c-4 6 -16 10 -24 6c-48 -18 -98 -28 -151 -28c-207 0 -347 160 -322 366c25 207 205 366 412 366s346 -159 321 -366c-11 -88 -45 -163 -103 -227c-6 -7 -10 -22 -6 -29l33 -50c6 -10 3 -23 -7 -30zM407 137c130 0 231 102 247 229
c16 128 -61 230 -192 230s-232 -102 -248 -230s61 -229 193 -229z" />
    <glyph glyph-name="R" unicode="R" horiz-adv-x="700" 
d="M302 605c-11 0 -22 -9 -23 -21l-17 -133c-1 -12 7 -21 19 -21h184c59 1 93 37 101 90c5 48 -21 83 -79 85h-185zM567 329c-12 -5 -22 -21 -17 -32l120 -266c7 -15 -5 -31 -22 -31h-120c-6 0 -15 5 -17 10l-129 283c-2 5 -11 10 -17 10h-100c-11 0 -22 -9 -23 -21
l-32 -261c-2 -12 -12 -21 -24 -21h-105c-12 0 -20 9 -18 21l84 690c2 12 12 21 24 21h298c171 0 248 -70 231 -211c-12 -94 -56 -159 -133 -192z" />
    <glyph glyph-name="S" unicode="S" horiz-adv-x="642" 
d="M624 651c8 -8 8 -23 -1 -32l-75 -66c-9 -8 -25 -7 -32 0c-28 29 -67 43 -116 43c-160 0 -181 -132 -19 -157c127 -19 235 -76 216 -224c-16 -132 -172 -215 -295 -215c-112 0 -190 26 -258 90c-8 9 -9 23 1 32l74 67c9 7 25 7 33 0c30 -30 78 -47 143 -52
c179 -7 197 148 21 175c-115 19 -226 62 -208 206c15 128 165 214 280 214c114 0 170 -18 236 -81z" />
    <glyph glyph-name="T" unicode="T" horiz-adv-x="707" 
d="M110 711c2 12 12 21 24 21h593c11 0 20 -9 18 -21l-11 -94c-2 -12 -12 -21 -24 -21h-202c-11 0 -22 -9 -23 -21l-68 -554c-2 -12 -12 -21 -24 -21h-105c-12 0 -20 9 -18 21l68 554c1 12 -7 21 -19 21h-202c-11 0 -20 9 -18 21z" />
    <glyph glyph-name="U" unicode="U" horiz-adv-x="782" 
d="M136 711c2 12 12 21 24 21h104c11 0 20 -9 18 -21l-49 -403c-13 -108 50 -162 151 -162s178 54 191 162l49 403c2 12 12 21 24 21h105c11 0 20 -9 18 -21l-54 -442c-20 -167 -190 -269 -351 -269c-160 0 -304 102 -284 269z" />
    <glyph glyph-name="V" unicode="V" horiz-adv-x="809" 
d="M399 216c0 -3 4 -5 6 -5c3 0 7 2 9 5l260 503c4 7 14 13 21 13h112c16 0 24 -14 16 -29l-361 -690c-4 -7 -14 -13 -21 -13h-118c-7 0 -16 6 -18 13l-192 690c-4 15 7 29 23 29h111c7 0 16 -6 17 -13z" />
    <glyph glyph-name="W" unicode="W" horiz-adv-x="1042" 
d="M574 482c0 4 -4 7 -8 7s-9 -3 -11 -7l-190 -467c-3 -8 -13 -15 -22 -15h-115c-8 0 -17 7 -18 16l-99 690c-2 14 9 26 23 26h113c8 0 17 -7 18 -16l61 -424c0 -4 5 -8 9 -8c5 0 10 4 12 8l169 425c3 8 13 15 22 15h119c8 0 17 -7 18 -16l62 -425c0 -4 4 -7 8 -7s9 3 11 7
l165 425c3 9 13 16 22 16h114c14 0 22 -12 17 -26l-270 -690c-3 -9 -14 -16 -22 -16h-114c-9 0 -17 7 -18 15z" />
    <glyph glyph-name="X" unicode="X" horiz-adv-x="789" 
d="M62 0c-18 0 -25 19 -12 33l287 336c6 6 7 18 3 24l-185 306c-9 15 3 33 21 33h120c5 0 14 -5 16 -9l123 -200c8 -12 24 -12 34 0l173 200c3 4 13 9 17 9h120c18 0 25 -18 12 -33l-260 -306c-5 -6 -7 -18 -3 -24l206 -336c9 -14 -3 -33 -21 -33h-122c-5 0 -14 5 -16 9
l-141 231c-7 12 -23 12 -34 0l-198 -231c-3 -4 -13 -9 -18 -9h-122z" />
    <glyph glyph-name="Y" unicode="Y" horiz-adv-x="749" 
d="M330 359c0 2 -1 11 -2 13l-201 327c-9 14 3 33 21 33h120c5 0 14 -5 16 -9l122 -206c7 -13 23 -13 34 0l176 206c3 4 13 9 18 9h115c19 0 26 -19 13 -33l-280 -327c-2 -2 -6 -11 -6 -13l-41 -338c-2 -12 -12 -21 -24 -21h-104c-12 0 -20 9 -18 21z" />
    <glyph glyph-name="Z" unicode="Z" horiz-adv-x="720" 
d="M630 137c11 0 20 -9 18 -21l-11 -95c-2 -12 -12 -21 -24 -21h-544c-12 0 -20 9 -18 21l2 22c0 2 4 10 5 11l381 510c11 15 4 32 -14 32h-283c-11 0 -20 9 -18 21l11 94c2 12 12 21 24 21h544c11 0 20 -9 18 -21l-3 -26c0 -2 -3 -10 -4 -11l-381 -505
c-11 -15 -4 -32 14 -32h283z" />
    <glyph glyph-name="bracketleft" unicode="[" horiz-adv-x="370" 
d="M272 -174c-2 -12 -12 -21 -24 -21h-203c-12 0 -20 9 -18 21l132 1080c2 12 12 21 24 21l203 1c11 0 20 -9 18 -21l-11 -90c-1 -12 -12 -21 -23 -21h-66c-12 0 -22 -9 -24 -21l-100 -817c-2 -12 7 -21 18 -21h66c12 0 20 -9 19 -21z" />
    <glyph glyph-name="backslash" unicode="\" horiz-adv-x="402" 
d="M296 -29c-7 0 -16 7 -18 14l-167 692c-3 14 8 28 24 28h50c7 0 16 -7 18 -14l167 -692c3 -14 -8 -28 -24 -28h-50z" />
    <glyph glyph-name="bracketright" unicode="]" horiz-adv-x="391" 
d="M272 -174c-2 -12 -12 -21 -24 -21h-202c-12 0 -20 9 -18 21l11 90c1 12 12 21 23 21h66c12 0 22 9 24 21l100 817c2 12 -7 21 -18 21h-67c-12 0 -20 9 -19 21l12 90c2 12 12 21 24 21l202 -1c11 0 20 -9 18 -21z" />
    <glyph glyph-name="asciicircum" unicode="^" horiz-adv-x="488" 
d="M181 617c-3 -2 -12 -6 -16 -6h-16c-11 0 -16 11 -8 20l165 200c10 12 27 12 34 0l115 -200c6 -9 -2 -20 -13 -20h-16c-4 0 -12 4 -14 6l-89 102c-7 8 -20 8 -30 0z" />
    <glyph glyph-name="underscore" unicode="_" horiz-adv-x="635" 
d="M58 -98c-12 0 -20 9 -18 21v7c2 12 12 21 24 21h458c12 0 20 -9 18 -21v-7c-2 -12 -12 -21 -24 -21h-458z" />
    <glyph glyph-name="grave" unicode="`" horiz-adv-x="202" 
d="M275 607c5 -8 2 -21 -6 -28l-13 -12c-8 -7 -18 -11 -25 -5c-130 108 -133 110 -133 112c-18 20 -3 50 17 68s49 28 69 10c0 -1 2 -3 2 -3z" />
    <glyph glyph-name="a" unicode="a" 
d="M432 468c2 11 12 20 23 20l91 -1c11 0 20 -9 18 -21l-54 -445c-2 -12 -12 -21 -24 -21h-91c-11 0 -19 9 -18 20c1 8 -7 13 -15 8c-33 -19 -64 -28 -94 -28c-141 0 -231 107 -214 244c16 131 134 251 274 244c40 -3 72 -13 92 -30c4 -4 11 0 12 6v4zM282 113
c74 0 132 57 141 130s-35 131 -110 131s-131 -58 -140 -131s33 -130 109 -130z" />
    <glyph glyph-name="b" unicode="b" horiz-adv-x="582" 
d="M131 711c2 12 12 21 24 21h95c11 0 20 -9 18 -21l-30 -246c-1 -6 8 -8 13 -5c24 16 57 26 98 28c142 8 230 -113 214 -244c-17 -137 -133 -244 -274 -244c-30 0 -59 9 -88 28c-7 5 -17 0 -18 -8c-1 -11 -11 -20 -21 -20h-97c-12 0 -20 9 -18 21zM306 113
c75 0 132 57 141 130s-34 131 -109 131s-132 -58 -141 -131s34 -130 109 -130z" />
    <glyph glyph-name="c" unicode="c" horiz-adv-x="496" 
d="M366 140c6 5 19 6 24 0l51 -59c8 -9 8 -20 -2 -28c-47 -36 -107 -58 -170 -58c-142 0 -235 109 -218 249c17 141 138 249 280 249c63 0 116 -22 155 -59c9 -8 6 -19 -4 -28l-67 -59c-6 -6 -18 -5 -24 0c-19 17 -45 28 -76 28c-75 0 -132 -59 -141 -131
c-9 -74 34 -131 109 -131c32 0 60 10 83 27z" />
    <glyph glyph-name="d" unicode="d" 
d="M462 711c2 12 12 21 24 21h95c11 0 20 -9 18 -21l-84 -690c-2 -12 -12 -21 -24 -21h-96c-11 0 -19 9 -18 20c1 8 -7 13 -15 8c-33 -19 -64 -28 -94 -28c-142 0 -231 107 -214 244c16 131 133 252 274 244c40 -3 72 -12 92 -29c5 -4 11 0 12 6zM280 113
c75 0 132 57 141 130s-34 131 -109 131s-131 -58 -140 -131s33 -130 108 -130z" />
    <glyph glyph-name="e" unicode="e" horiz-adv-x="560" 
d="M53 244c18 143 132 244 274 244c144 0 221 -103 204 -244l-3 -28c-2 -12 -12 -21 -24 -21h-292c-16 0 -24 -7 -21 -22c10 -39 47 -61 90 -61c38 0 75 9 109 28c8 5 23 4 29 -2l44 -50c8 -9 7 -21 -4 -29c-52 -40 -115 -59 -192 -59c-142 0 -231 102 -214 244zM313 376
c-42 0 -90 -22 -104 -64c-5 -14 2 -19 16 -19h156c14 0 22 5 21 19c-4 42 -47 64 -89 64z" />
    <glyph glyph-name="f" unicode="f" horiz-adv-x="377" 
d="M212 21c-2 -12 -12 -21 -24 -21h-95c-12 0 -20 9 -18 21l42 349c2 12 -6 21 -18 21h-31c-12 0 -20 9 -18 21l8 68c1 12 12 21 24 21h31c11 0 22 9 23 21l5 44c13 104 98 166 201 166c50 0 89 -12 117 -35c9 -7 8 -19 -1 -28l-63 -61c-2 -2 -7 -2 -9 0c-9 7 -23 10 -42 10
c-35 0 -61 -19 -68 -71l-3 -25c-1 -12 7 -21 19 -21h31c11 0 19 -9 18 -21l-8 -68c-2 -12 -12 -21 -24 -21h-31c-12 0 -22 -9 -24 -21z" />
    <glyph glyph-name="g" unicode="g" horiz-adv-x="559" 
d="M430 467c2 12 12 21 24 21h95c12 0 20 -9 18 -21l-52 -428c-18 -144 -120 -244 -275 -247c-85 -2 -150 23 -195 66c-8 8 -9 21 0 30l43 43c7 8 22 9 30 4c30 -19 66 -30 110 -33c85 -4 138 44 147 118l2 12c1 5 -3 9 -8 6c-38 -25 -79 -38 -123 -38
c-152 0 -213 97 -195 244c17 141 116 248 265 244c46 -3 80 -14 101 -33c5 -4 12 0 13 6v6zM276 113c75 0 132 57 141 130s-34 131 -109 131s-131 -58 -140 -131s33 -130 108 -130z" />
    <glyph glyph-name="h" unicode="h" horiz-adv-x="537" 
d="M232 336c-2 -2 -6 -10 -6 -13l-37 -302c-2 -12 -12 -21 -24 -21h-95c-12 0 -20 9 -18 21l84 690c2 12 12 21 24 21h95c11 0 20 -9 18 -21l-30 -245c-1 -8 9 -13 17 -8c31 20 65 30 103 30c113 0 180 -77 167 -185l-34 -282c-2 -12 -12 -21 -24 -21h-95
c-12 0 -20 9 -18 21l30 248c8 62 -17 100 -80 104h-5c-27 -2 -50 -15 -72 -37z" />
    <glyph glyph-name="i" unicode="i" horiz-adv-x="256" 
d="M189 21c-2 -12 -12 -21 -24 -21h-95c-12 0 -20 9 -18 21l54 447c2 12 12 21 24 21h95c12 0 20 -9 18 -21zM118 605c5 40 37 69 81 69c47 0 70 -29 65 -69c-5 -39 -36 -68 -81 -68s-70 29 -65 68z" />
    <glyph glyph-name="j" unicode="j" horiz-adv-x="291" 
d="M-83 -119c2 12 12 21 24 21h27c65 3 103 39 111 107l56 458c2 12 12 21 24 21h95c12 0 20 -9 18 -21l-59 -482c-14 -114 -92 -195 -209 -195h-77c-11 0 -20 9 -18 21zM147 605c5 40 37 69 81 69c47 0 70 -29 65 -69c-5 -39 -36 -68 -81 -68s-70 29 -65 68z" />
    <glyph glyph-name="k" unicode="k" horiz-adv-x="586" 
d="M83 0c-12 0 -20 9 -18 21l84 690c2 12 12 21 24 21h104c11 0 20 -9 18 -21l-41 -334c-2 -21 21 -30 36 -14l111 117c3 4 13 8 17 8h110c19 0 26 -20 12 -34l-164 -171c-7 -8 -8 -20 -3 -28l163 -220c11 -15 -1 -35 -20 -35h-135c-4 0 -13 4 -15 8l-102 143
c-12 15 -37 7 -39 -14l-14 -116c-2 -12 -12 -21 -24 -21h-104z" />
    <glyph glyph-name="l" unicode="l" horiz-adv-x="280" 
d="M189 21c-2 -12 -12 -21 -24 -21h-95c-12 0 -20 9 -18 21l84 690c2 12 12 21 24 21h95c11 0 20 -9 18 -21z" />
    <glyph glyph-name="m" unicode="m" horiz-adv-x="866" 
d="M226 318c-1 -2 -4 -10 -4 -12l-35 -285c-2 -12 -12 -21 -24 -21h-95c-12 0 -20 9 -18 21l54 447c2 12 12 21 24 21h95c12 0 20 -9 18 -21v-2c-1 -8 9 -12 16 -7c30 19 64 29 104 29c53 0 93 -13 121 -40c6 -6 24 -6 32 0c39 27 89 40 150 40c112 0 180 -77 167 -185
l-34 -282c-2 -12 -12 -21 -24 -21h-95c-12 0 -20 9 -18 21l30 248c8 62 -13 100 -75 104h-7c-26 -3 -50 -20 -73 -51c-1 -1 -3 -7 -3 -7c-3 -9 -5 -18 -6 -27l-32 -267c-2 -12 -12 -21 -24 -21h-95c-12 0 -20 9 -18 21l30 248c8 62 -12 100 -75 104h-5
c-29 -2 -55 -20 -81 -55z" />
    <glyph glyph-name="n" unicode="n" horiz-adv-x="559" 
d="M227 317c-1 -2 -4 -10 -4 -11l-35 -285c-2 -12 -12 -21 -24 -21h-95c-12 0 -20 9 -18 21l54 447c2 12 12 21 24 21h95c12 0 20 -9 18 -21v-2c-1 -8 9 -13 17 -8c31 20 65 30 103 30c113 0 180 -77 167 -185l-34 -282c-2 -12 -12 -21 -24 -21h-95c-12 0 -20 9 -18 21
l30 248c8 62 -17 100 -80 104h-7c-26 -3 -51 -22 -74 -56z" />
    <glyph glyph-name="o" unicode="o" horiz-adv-x="562" 
d="M51 244c17 141 138 249 280 249c141 0 235 -108 218 -249s-139 -249 -280 -249c-142 0 -235 109 -218 249zM283 113c75 0 132 57 141 131c9 73 -34 131 -109 131s-132 -59 -141 -131c-9 -74 34 -131 109 -131z" />
    <glyph glyph-name="p" unicode="p" horiz-adv-x="584" 
d="M161 -185c-1 -12 -12 -21 -23 -21l-95 1c-12 0 -20 9 -19 21l80 652c2 12 12 21 24 21h97c10 0 18 -9 17 -19c-1 -9 7 -14 15 -9c33 19 64 28 94 28c142 0 231 -107 214 -244c-16 -132 -133 -252 -274 -245c-39 3 -69 13 -90 29c-5 3 -13 1 -14 -5zM306 113
c75 0 132 57 141 130s-34 131 -109 131s-131 -58 -140 -131s33 -130 108 -130z" />
    <glyph glyph-name="q" unicode="q" horiz-adv-x="572" 
d="M487 -184c-1 -12 -12 -21 -23 -21l-95 -1c-12 0 -20 9 -19 21l26 209c1 6 -8 8 -13 5c-24 -16 -57 -26 -97 -29c-143 -7 -231 113 -215 245c17 137 133 244 275 244c29 0 58 -9 87 -28c7 -5 17 0 18 9c1 10 11 19 22 19h96c12 0 20 -9 18 -21zM276 113
c75 0 132 57 141 130s-34 131 -109 131s-131 -58 -140 -131s33 -130 108 -130z" />
    <glyph glyph-name="r" unicode="r" horiz-adv-x="389" 
d="M218 488c12 0 20 -9 18 -21l-1 -7c-1 -9 11 -13 19 -8c33 23 71 35 112 36c14 0 26 -1 39 -3c4 0 5 -4 4 -9l-29 -102c-4 -12 -20 -20 -31 -18c-52 7 -95 -9 -130 -51c-1 -2 -4 -8 -4 -10l-33 -274c-2 -12 -12 -21 -24 -21h-94c-12 0 -20 9 -18 21l54 446
c2 12 12 21 24 21h94z" />
    <glyph glyph-name="s" unicode="s" horiz-adv-x="453" 
d="M434 439c8 -7 8 -20 -1 -29l-58 -58c-7 -6 -18 -6 -24 0c-18 18 -40 27 -67 27c-33 0 -56 -6 -69 -19c-25 -24 -6 -44 59 -57c99 -12 159 -49 145 -162c-12 -99 -111 -146 -200 -146c-82 0 -135 23 -173 60c-8 8 -7 19 2 28l59 57c6 6 18 5 24 0c19 -18 48 -29 86 -33
c44 -5 103 18 84 55c-6 12 -30 21 -74 25c-87 10 -154 45 -141 149c12 95 106 155 192 155c76 0 113 -11 156 -52z" />
    <glyph glyph-name="t" unicode="t" horiz-adv-x="384" 
d="M270 0c-103 0 -173 62 -161 166l24 190c1 12 -7 21 -19 21h-31c-11 0 -20 9 -18 21l8 69c2 12 12 21 24 21h31c12 0 22 9 23 21l13 105c2 12 12 21 24 21h95c12 0 20 -9 18 -21l-13 -105c-1 -12 7 -21 19 -21h41c12 0 20 -9 18 -21l-8 -69c-2 -12 -12 -21 -24 -21h-41
c-11 0 -22 -9 -23 -21l-21 -170c-7 -53 15 -71 50 -71c5 0 14 1 28 4c5 1 10 -2 10 -7l13 -75c2 -8 -2 -17 -10 -21c-22 -10 -46 -16 -70 -16z" />
    <glyph glyph-name="u" unicode="u" horiz-adv-x="549" 
d="M361 168c1 1 4 9 4 10l35 290c2 12 12 21 24 21h95c12 0 20 -9 18 -21l-54 -447c-2 -12 -12 -21 -24 -21h-95c-12 0 -20 9 -18 21v1c1 9 -9 13 -17 8c-31 -20 -66 -30 -103 -30c-113 0 -180 78 -167 186l34 282c2 12 12 21 24 21h94c12 0 20 -9 18 -21l-30 -248
c-8 -63 18 -100 81 -104h7c26 3 51 20 74 52z" />
    <glyph glyph-name="v" unicode="v" horiz-adv-x="558" 
d="M76 459c-4 15 7 29 23 29h93c8 0 17 -7 18 -14l61 -239c5 -19 30 -19 40 0l121 240c4 6 14 13 21 13h94c16 0 24 -14 16 -29l-234 -446c-4 -7 -14 -13 -21 -13h-89c-7 0 -16 6 -18 13z" />
    <glyph glyph-name="w" unicode="w" horiz-adv-x="713" 
d="M428 0c-9 0 -17 7 -19 15l-29 163c-4 20 -32 20 -40 0l-69 -163c-3 -8 -13 -15 -22 -15h-90c-8 0 -17 7 -18 16l-65 447c-2 14 9 26 23 26h86c8 0 17 -7 18 -16l27 -194c3 -21 32 -21 40 0l74 194c3 9 14 16 22 16h68c9 0 18 -7 19 -16l22 -195c2 -21 32 -22 40 -1
l75 196c3 9 14 16 22 16h85c14 0 22 -12 17 -26l-174 -447c-3 -9 -14 -16 -22 -16h-90z" />
    <glyph glyph-name="x" unicode="x" horiz-adv-x="535" 
d="M46 0c-18 0 -26 18 -13 33l169 209c5 6 6 18 3 24l-105 188c-8 15 3 33 21 33h89c5 0 14 -5 16 -9l53 -96c8 -14 25 -14 35 0l77 96c4 4 14 9 19 9h88c18 0 26 -18 14 -33l-151 -188c-5 -6 -7 -18 -3 -24l118 -209c8 -15 -4 -33 -22 -33h-89c-5 0 -14 5 -16 9l-66 118
c-7 13 -24 13 -35 0l-95 -118c-3 -4 -13 -9 -18 -9h-89z" />
    <glyph glyph-name="y" unicode="y" horiz-adv-x="551" 
d="M218 -197c-3 -7 -14 -13 -21 -13h-90c-16 0 -24 14 -16 28l87 175c2 2 3 12 2 14l-106 453c-3 15 8 28 24 28h94c8 0 17 -7 18 -14l61 -239c5 -19 30 -19 40 0l121 240c4 6 14 13 21 13h94c16 0 24 -14 16 -29z" />
    <glyph glyph-name="z" unicode="z" horiz-adv-x="495" 
d="M425 115c12 0 20 -9 19 -21l-9 -73c-2 -12 -12 -21 -24 -21h-352c-10 0 -16 7 -15 17l1 10c1 2 4 10 5 11l218 302c11 15 3 32 -14 32h-145c-12 0 -20 9 -19 21l9 73c2 12 12 21 24 21h351c10 0 17 -8 16 -17l-2 -12c0 -2 -3 -10 -4 -11l-219 -300c-11 -15 -3 -32 14 -32
h146z" />
    <glyph glyph-name="bar" unicode="|" horiz-adv-x="378" 
d="M211 -174c-2 -12 -12 -21 -24 -21h-95c-12 0 -20 9 -18 21l132 1080c2 12 12 21 24 21h95c11 0 20 -9 18 -21z" />
    <glyph glyph-name="exclamdown" unicode="&#xa1;" horiz-adv-x="293" 
d="M152 502c2 10 13 19 23 19h26c11 0 19 -9 19 -20l-31 -437c-6 -46 -23 -64 -72 -64c-51 0 -62 18 -56 64zM274 647c-4 -39 -36 -68 -80 -68c-47 0 -70 29 -66 68c5 40 37 69 82 69s69 -29 64 -69z" />
    <glyph glyph-name="cent" unicode="&#xa2;" horiz-adv-x="496" 
d="M366 140c6 5 19 6 24 0l51 -59c8 -9 6 -22 -5 -30c-30 -23 -65 -40 -102 -48c-9 -2 -21 -13 -22 -22l-6 -45c-1 -12 -12 -21 -23 -21h-69c-12 0 -20 9 -19 21l6 51c1 8 -6 18 -13 21c-94 34 -151 125 -137 236c14 112 93 203 195 235c8 3 17 13 18 21l6 43
c1 12 12 21 23 21h69c12 0 20 -9 19 -21l-5 -36c-1 -9 5 -19 13 -21c37 -9 69 -26 95 -50c9 -8 8 -21 -2 -30l-67 -59c-6 -6 -18 -5 -24 0c-19 17 -45 28 -76 28c-75 0 -132 -59 -141 -131c-9 -74 34 -131 109 -131c32 0 60 10 83 27z" />
    <glyph glyph-name="sterling" unicode="&#xa3;" horiz-adv-x="667" 
d="M89 369c2 12 12 21 24 21h5c11 0 22 12 22 23c2 37 8 74 19 114c34 126 134 205 260 205c105 0 155 -19 218 -82c7 -7 4 -17 -3 -25l-67 -77c-8 -10 -25 -10 -33 -2c-27 26 -63 41 -109 45h-4c-94 -8 -133 -51 -147 -142c-3 -17 -4 -33 -4 -50c1 -6 5 -9 11 -9h182
c11 0 20 -9 18 -21l-5 -40c-1 -12 -12 -21 -23 -21h-144c-11 0 -21 -11 -20 -21c3 -38 -5 -88 -26 -150c-5 -13 4 -25 18 -25h294c11 0 20 -9 18 -21l-8 -70c-2 -12 -12 -21 -24 -21h-461c-12 0 -20 9 -18 21l10 83c0 3 3 10 5 12c56 53 74 115 57 181c-2 7 -9 11 -17 11
h-34c-12 0 -20 9 -19 21z" />
    <glyph glyph-name="yen" unicode="&#xa5;" horiz-adv-x="749" 
d="M185 156c-11 0 -20 9 -18 21l6 55c2 12 12 21 24 21h99c12 0 22 9 24 21l7 57c1 12 -7 21 -19 21h-99c-11 0 -20 9 -18 21l7 55c1 12 12 21 23 21h19c18 0 29 18 20 32l-133 218c-9 14 3 33 21 33h120c5 0 14 -5 16 -9l122 -206c7 -13 23 -13 34 0l176 206c3 4 13 9 18 9
h115c19 0 26 -19 13 -33l-185 -217c-13 -14 -6 -33 13 -33h28c12 0 20 -9 19 -21l-7 -55c-2 -12 -12 -21 -24 -21h-110c-11 0 -22 -9 -23 -21l-7 -57c-2 -12 6 -21 18 -21h110c12 0 20 -9 18 -21l-6 -55c-2 -12 -12 -21 -24 -21h-110c-11 0 -22 -9 -23 -21l-14 -114
c-2 -12 -12 -21 -24 -21h-104c-12 0 -20 9 -18 21l14 114c1 12 -7 21 -19 21h-99z" />
    <glyph glyph-name="dieresis" unicode="&#xa8;" horiz-adv-x="527" 
d="M454 600c-39 0 -65 27 -59 72c5 47 38 74 77 74s65 -28 60 -73c-6 -45 -39 -73 -78 -73zM183 600c-39 0 -66 28 -60 72c5 47 39 74 78 74s64 -28 59 -73c-6 -45 -38 -73 -77 -73z" />
    <glyph glyph-name="copyright" unicode="&#xa9;" horiz-adv-x="817" 
d="M498 714c100 0 188 -42 247 -112c29 -34 48 -73 60 -117s15 -89 9 -134c-11 -94 -57 -183 -133 -252c-78 -72 -173 -111 -275 -111c-100 0 -187 40 -247 112c-57 69 -82 156 -70 251c12 93 56 182 131 251c76 70 175 112 278 112zM248 583c-32 -28 -59 -62 -82 -103
c-22 -40 -36 -84 -42 -129c-11 -94 16 -174 73 -237c58 -59 129 -91 213 -91c86 0 167 31 237 90c73 63 121 146 132 238c5 44 2 87 -11 129s-32 78 -61 108c-56 59 -131 91 -214 91c-86 0 -166 -30 -245 -96zM215 349c12 132 136 236 266 236c61 0 111 -17 153 -52
c9 -7 6 -19 -4 -28l-40 -38c-7 -7 -21 -9 -28 -4c-27 18 -58 27 -93 27c-84 0 -149 -58 -159 -140c-10 -87 37 -144 124 -144c36 0 68 8 98 25c8 5 24 4 29 -3l31 -38c7 -10 3 -23 -8 -31c-49 -32 -103 -48 -161 -48c-131 1 -230 103 -208 238z" />
    <glyph glyph-name="guillemotleft" unicode="&#xab;" horiz-adv-x="482" 
d="M492 392c10 6 20 0 19 -11l-2 -16c-1 -4 -6 -13 -8 -15l-113 -100c-10 -8 -11 -22 -4 -30l88 -101c3 -2 5 -11 5 -15l-2 -16c-2 -11 -14 -17 -22 -11l-182 140c-12 9 -10 25 4 34zM321 392c10 6 20 0 19 -11l-2 -16c-1 -4 -6 -13 -8 -15l-113 -100c-10 -8 -11 -22 -4 -30
l88 -101c3 -2 5 -11 5 -15l-2 -16c-2 -11 -14 -17 -22 -11l-182 140c-12 9 -10 25 4 34z" />
    <glyph glyph-name="registered" unicode="&#xae;" horiz-adv-x="817" 
d="M498 714c100 0 188 -42 247 -112c29 -34 48 -73 60 -117s15 -89 9 -134c-11 -94 -57 -183 -133 -252c-78 -72 -173 -111 -275 -111c-100 0 -187 40 -247 112c-57 69 -82 156 -70 251c12 93 56 182 131 251c76 70 175 112 278 112zM248 583c-32 -28 -59 -62 -82 -103
c-22 -40 -36 -84 -42 -129c-11 -94 16 -174 73 -237c58 -59 129 -91 213 -91c86 0 167 31 237 90c73 63 121 146 132 238c5 44 2 87 -11 129s-32 78 -61 108c-56 59 -131 91 -214 91c-86 0 -166 -30 -245 -96zM402 488c-12 0 -22 -9 -24 -21l-6 -51c-1 -12 7 -21 18 -21h101
c37 1 57 17 61 48c3 29 -13 43 -48 45h-102zM560 332c-11 -5 -18 -21 -13 -31l60 -137c7 -15 -4 -31 -22 -31h-52c-5 0 -14 5 -16 10l-74 160c-2 5 -11 10 -17 10h-46c-11 0 -22 -9 -23 -21l-17 -138c-2 -12 -12 -21 -24 -21h-45c-11 0 -20 9 -18 21l48 394
c2 12 12 21 24 21h169c102 0 148 -42 138 -125c-7 -54 -31 -91 -72 -112z" />
    <glyph glyph-name="macron" unicode="&#xaf;" horiz-adv-x="312" 
d="M390 637c-1 -12 -12 -21 -23 -21h-270c-12 0 -20 9 -19 21l5 36c1 12 12 21 23 21h270c12 0 20 -9 19 -21z" />
    <glyph glyph-name="degree" unicode="&#xb0;" horiz-adv-x="377" 
d="M334 585c6 48 -29 85 -75 85c-45 0 -90 -37 -96 -85c-6 -47 30 -85 75 -85c46 0 90 37 96 85zM267 732c82 0 139 -68 129 -148c-10 -79 -85 -147 -166 -147c-83 0 -139 67 -129 147c10 81 83 148 166 148z" />
    <glyph glyph-name="acute" unicode="&#xb4;" horiz-adv-x="202" 
d="M113 562c-8 -6 -17 -2 -23 5l-11 12c-6 7 -6 20 1 28l125 142s3 2 3 3c24 18 51 8 66 -10c16 -18 22 -48 0 -68c-1 -2 -5 -4 -161 -112z" />
    <glyph glyph-name="paragraph" unicode="&#xb6;" horiz-adv-x="956" 
d="M406 732l552 1c12 0 20 -9 18 -21l-84 -691c-2 -12 -12 -21 -24 -21h-104c-12 0 -20 9 -18 21l67 553c2 12 -6 21 -18 21h-65c-12 0 -22 -9 -24 -21l-67 -553c-2 -12 -12 -21 -24 -21h-105c-12 0 -20 9 -18 21l32 261c1 12 -7 21 -19 21h-152c-170 0 -247 72 -229 218
c17 141 112 211 282 211z" />
    <glyph glyph-name="cedilla" unicode="&#xb8;" horiz-adv-x="349" 
d="M218 -200c-43 0 -74 26 -89 60c-5 11 0 22 12 27l41 19c5 2 12 0 15 -4c8 -13 18 -22 31 -22s30 12 32 27c1 13 -10 22 -29 28l-50 16c-13 4 -17 18 -9 30l50 72c3 5 13 11 19 11h42c18 0 25 -18 13 -33l-9 -10c-9 -11 -6 -28 6 -34c35 -19 52 -44 48 -78
c-8 -62 -67 -109 -123 -109z" />
    <glyph glyph-name="guillemotright" unicode="&#xbb;" horiz-adv-x="482" 
d="M98 350c-2 2 -5 11 -4 15l2 16c1 11 13 17 22 11l181 -141c12 -9 10 -25 -4 -34l-216 -140c-10 -6 -21 0 -19 11l2 16c0 4 5 13 8 15l113 101c9 8 11 22 4 30zM269 350c-2 2 -5 11 -4 15l2 16c1 11 13 17 22 11l181 -141c12 -9 10 -25 -4 -34l-216 -140
c-10 -6 -21 0 -19 11l2 16c0 4 5 13 8 15l113 101c9 8 11 22 4 30z" />
    <glyph glyph-name="questiondown" unicode="&#xbf;" horiz-adv-x="610" 
d="M269 0c-110 0 -235 85 -219 215c12 92 65 164 164 190c43 12 72 49 87 110c2 11 14 22 24 22h95c12 0 19 -13 17 -25c-17 -101 -55 -182 -168 -207c-116 -26 -102 -168 46 -168c49 0 91 14 126 42c9 7 25 8 32 0l58 -66c7 -8 3 -23 -7 -31c-81 -64 -141 -82 -255 -82z
M457 664c-5 -39 -36 -69 -81 -69c-47 0 -70 30 -65 69c4 39 36 68 81 68s69 -29 65 -68z" />
    <glyph glyph-name="Agrave" unicode="&#xc0;" horiz-adv-x="803" 
d="M185 13c-4 -7 -14 -13 -21 -13h-112c-16 0 -24 14 -16 29l361 690c4 7 14 13 21 13h119c7 0 16 -6 18 -13l190 -690c4 -15 -7 -29 -23 -29h-110c-7 0 -16 6 -18 13l-23 86c-1 7 -10 13 -18 13h-303c-7 0 -18 -6 -21 -13zM501 259c16 0 27 14 23 29l-53 200
c-5 18 -29 18 -39 0l-105 -200c-8 -15 0 -29 16 -29h158zM603 851c5 -8 2 -21 -6 -28l-13 -12c-8 -7 -18 -11 -25 -4c-130 108 -132 110 -133 111c-18 20 -3 50 17 68c19 18 49 28 68 10l3 -3z" />
    <glyph glyph-name="Aacute" unicode="&#xc1;" horiz-adv-x="803" 
d="M185 13c-4 -7 -14 -13 -21 -13h-112c-16 0 -24 14 -16 29l361 690c4 7 14 13 21 13h119c7 0 16 -6 18 -13l190 -690c4 -15 -7 -29 -23 -29h-110c-7 0 -16 6 -18 13l-23 86c-1 7 -10 13 -18 13h-303c-7 0 -18 -6 -21 -13zM501 259c16 0 27 14 23 29l-53 200
c-5 18 -29 18 -39 0l-105 -200c-8 -15 0 -29 16 -29h158zM441 807c-8 -7 -17 -3 -23 4l-11 12c-6 7 -6 20 1 28l125 142s3 2 3 3c24 18 51 8 65 -10c17 -18 23 -48 1 -68c-1 -1 -4 -3 -161 -111z" />
    <glyph glyph-name="Acircumflex" unicode="&#xc2;" horiz-adv-x="803" 
d="M185 13c-4 -7 -14 -13 -21 -13h-112c-16 0 -24 14 -16 29l361 690c4 7 14 13 21 13h119c7 0 16 -6 18 -13l190 -690c4 -15 -7 -29 -23 -29h-110c-7 0 -16 6 -18 13l-23 86c-1 7 -10 13 -18 13h-303c-7 0 -18 -6 -21 -13zM501 259c16 0 27 14 23 29l-53 200
c-5 18 -29 18 -39 0l-105 -200c-8 -15 0 -29 16 -29h158zM360 817c-8 8 -7 21 2 30l140 138c10 10 24 10 32 0l106 -139c7 -9 4 -22 -6 -30l-16 -13c-7 -6 -19 -7 -26 -2l-77 59c-6 4 -18 4 -24 0l-92 -59c-8 -5 -20 -4 -26 2z" />
    <glyph glyph-name="Atilde" unicode="&#xc3;" horiz-adv-x="803" 
d="M185 13c-4 -7 -14 -13 -21 -13h-112c-16 0 -24 14 -16 29l361 690c4 7 14 13 21 13h119c7 0 16 -6 18 -13l190 -690c4 -15 -7 -29 -23 -29h-110c-7 0 -16 6 -18 13l-23 86c-1 7 -10 13 -18 13h-303c-7 0 -18 -6 -21 -13zM501 259c16 0 27 14 23 29l-53 200
c-5 18 -29 18 -39 0l-105 -200c-8 -15 0 -29 16 -29h158zM379 850c-1 -9 -8 0 -17 0h-78c-13 0 -20 11 -17 24c38 144 179 164 279 84c49 -40 81 -38 86 -6l2 16c1 8 9 15 17 15h76c11 0 19 -13 17 -24c-16 -148 -172 -193 -270 -105c-32 28 -53 40 -68 36
c-22 -5 -26 -38 -27 -40z" />
    <glyph glyph-name="Adieresis" unicode="&#xc4;" horiz-adv-x="803" 
d="M185 13c-4 -7 -14 -13 -21 -13h-112c-16 0 -24 14 -16 29l361 690c4 7 14 13 21 13h119c7 0 16 -6 18 -13l190 -690c4 -15 -7 -29 -23 -29h-110c-7 0 -16 6 -18 13l-23 86c-1 7 -10 13 -18 13h-303c-7 0 -18 -6 -21 -13zM501 259c16 0 27 14 23 29l-53 200
c-5 18 -29 18 -39 0l-105 -200c-8 -15 0 -29 16 -29h158zM626 844c-39 0 -65 28 -60 72c6 47 39 74 78 74c40 0 65 -28 60 -73c-6 -45 -38 -73 -78 -73zM355 844c-39 0 -66 28 -60 73c5 46 39 73 78 73s64 -28 59 -73c-6 -45 -38 -73 -77 -73z" />
    <glyph glyph-name="Aring" unicode="&#xc5;" horiz-adv-x="803" 
d="M185 13c-4 -7 -14 -13 -21 -13h-112c-16 0 -24 14 -16 29l361 690c4 7 14 13 21 13h119c7 0 16 -6 18 -13l190 -690c4 -15 -7 -29 -23 -29h-110c-7 0 -16 6 -18 13l-23 86c-1 7 -10 13 -18 13h-303c-7 0 -18 -6 -21 -13zM501 259c16 0 27 14 23 29l-53 200
c-5 18 -29 18 -39 0l-105 -200c-8 -15 0 -29 16 -29h158zM497 804c-60 0 -101 44 -93 112c9 72 60 114 120 114s100 -44 92 -113c-9 -69 -59 -113 -119 -113zM505 875c22 0 41 16 45 42c3 26 -12 41 -34 41c-23 0 -41 -15 -44 -41c-4 -26 10 -42 33 -42z" />
    <glyph glyph-name="AE" unicode="&#xc6;" horiz-adv-x="998" 
d="M932 21c-2 -12 -12 -21 -24 -21h-495c-12 0 -20 9 -18 21l8 70c2 12 -7 21 -18 21h-135c-7 0 -18 -6 -21 -13l-44 -86c-4 -7 -14 -13 -21 -13h-112c-16 0 -24 14 -16 29l361 690c4 7 14 13 21 13h581c11 0 20 -9 18 -21l-11 -94c-2 -12 -12 -21 -24 -21h-350
c-11 0 -22 -9 -23 -21l-15 -115c-1 -12 7 -21 19 -21h252c11 0 20 -9 18 -21l-11 -94c-2 -12 -12 -21 -24 -21h-252c-11 0 -22 -9 -23 -21l-16 -124c-1 -12 7 -21 19 -21h349c11 0 20 -9 18 -21zM403 259c11 0 22 9 23 21l19 149c2 22 -29 28 -40 8l-78 -149
c-8 -15 0 -29 16 -29h60z" />
    <glyph glyph-name="Ccedilla" unicode="&#xc7;" horiz-adv-x="756" 
d="M347 -200c-43 0 -74 26 -89 60c-5 11 0 22 12 27l41 19c5 2 12 0 15 -4c8 -13 18 -22 31 -22s30 12 32 27c1 13 -10 22 -29 28l-50 16c-13 4 -17 17 -9 30l1 1c8 12 4 26 -9 30c-151 40 -251 185 -224 356c20 205 210 364 411 364c96 0 177 -27 242 -83
c9 -8 8 -21 -2 -30l-79 -77c-8 -7 -21 -8 -29 -3c-42 32 -92 47 -150 47c-129 -1 -231 -88 -247 -217c-15 -134 60 -223 194 -223c58 0 112 16 161 48c9 6 22 4 28 -4l60 -76c8 -9 5 -22 -5 -30c-68 -48 -144 -77 -226 -83c-5 -1 -9 -11 -5 -13c35 -19 52 -45 48 -79
c-8 -62 -67 -109 -123 -109z" />
    <glyph glyph-name="Egrave" unicode="&#xc8;" horiz-adv-x="684" 
d="M598 21c-2 -12 -12 -21 -24 -21h-495c-12 0 -20 9 -18 21l84 690c2 12 12 21 24 21h496c11 0 20 -9 18 -21l-11 -94c-2 -12 -12 -21 -24 -21h-349c-11 0 -22 -9 -23 -21l-15 -115c-1 -12 7 -21 19 -21h251c11 0 20 -9 18 -21l-11 -94c-2 -12 -12 -21 -24 -21h-251
c-11 0 -22 -9 -23 -21l-16 -124c-1 -12 7 -21 19 -21h348c11 0 20 -9 18 -21zM543 851c5 -8 3 -21 -5 -28l-14 -12c-7 -7 -17 -10 -24 -4c-131 108 -133 110 -134 111c-18 20 -3 50 17 68s49 28 68 10l3 -3z" />
    <glyph glyph-name="Eacute" unicode="&#xc9;" horiz-adv-x="684" 
d="M598 21c-2 -12 -12 -21 -24 -21h-495c-12 0 -20 9 -18 21l84 690c2 12 12 21 24 21h496c11 0 20 -9 18 -21l-11 -94c-2 -12 -12 -21 -24 -21h-349c-11 0 -22 -9 -23 -21l-15 -115c-1 -12 7 -21 19 -21h251c11 0 20 -9 18 -21l-11 -94c-2 -12 -12 -21 -24 -21h-251
c-11 0 -22 -9 -23 -21l-16 -124c-1 -12 7 -21 19 -21h348c11 0 20 -9 18 -21zM381 807c-8 -6 -17 -3 -23 4l-11 12c-6 7 -6 20 1 28l125 142s3 2 3 3c24 18 51 8 66 -10c16 -18 23 -48 1 -68c-1 -1 -4 -3 -162 -111z" />
    <glyph glyph-name="Ecircumflex" unicode="&#xca;" horiz-adv-x="684" 
d="M598 21c-2 -12 -12 -21 -24 -21h-495c-12 0 -20 9 -18 21l84 690c2 12 12 21 24 21h496c11 0 20 -9 18 -21l-11 -94c-2 -12 -12 -21 -24 -21h-349c-11 0 -22 -9 -23 -21l-15 -115c-1 -12 7 -21 19 -21h251c11 0 20 -9 18 -21l-11 -94c-2 -12 -12 -21 -24 -21h-251
c-11 0 -22 -9 -23 -21l-16 -124c-1 -12 7 -21 19 -21h348c11 0 20 -9 18 -21zM300 817c-7 8 -6 21 2 29l140 139c10 10 24 10 32 0l106 -139c7 -9 4 -22 -5 -30l-16 -13c-7 -6 -20 -7 -26 -2l-79 59c-5 4 -17 4 -23 0l-92 -58c-8 -6 -20 -5 -26 1z" />
    <glyph glyph-name="Edieresis" unicode="&#xcb;" horiz-adv-x="684" 
d="M598 21c-2 -12 -12 -21 -24 -21h-495c-12 0 -20 9 -18 21l84 690c2 12 12 21 24 21h496c11 0 20 -9 18 -21l-11 -94c-2 -12 -12 -21 -24 -21h-349c-11 0 -22 -9 -23 -21l-15 -115c-1 -12 7 -21 19 -21h251c11 0 20 -9 18 -21l-11 -94c-2 -12 -12 -21 -24 -21h-251
c-11 0 -22 -9 -23 -21l-16 -124c-1 -12 7 -21 19 -21h348c11 0 20 -9 18 -21zM582 844c-40 0 -66 28 -61 72c6 47 39 74 79 74c39 0 64 -28 59 -73c-6 -45 -38 -73 -77 -73zM310 844c-39 0 -66 28 -60 73c5 46 39 73 78 73s64 -28 59 -73c-6 -45 -38 -73 -77 -73z" />
    <glyph glyph-name="Igrave" unicode="&#xcc;" horiz-adv-x="293" 
d="M81 0c-12 0 -20 9 -18 21l84 691c2 12 12 21 24 21h104c12 0 20 -9 18 -21l-84 -691c-2 -12 -12 -21 -24 -21h-104zM348 851c5 -8 2 -21 -6 -28l-13 -12c-8 -7 -18 -11 -25 -4c-130 108 -132 110 -133 111c-18 20 -3 50 17 68c19 18 49 28 68 10l3 -3z" />
    <glyph glyph-name="Iacute" unicode="&#xcd;" horiz-adv-x="293" 
d="M81 0c-12 0 -20 9 -18 21l84 691c2 12 12 21 24 21h104c12 0 20 -9 18 -21l-84 -691c-2 -12 -12 -21 -24 -21h-104zM186 807c-8 -7 -17 -3 -23 4l-11 12c-6 7 -6 20 1 28l125 142s3 2 3 3c24 18 51 8 66 -10c16 -18 22 -48 0 -68c-1 -1 -4 -3 -161 -111z" />
    <glyph glyph-name="Icircumflex" unicode="&#xce;" horiz-adv-x="293" 
d="M81 0c-12 0 -20 9 -18 21l84 691c2 12 12 21 24 21h104c12 0 20 -9 18 -21l-84 -691c-2 -12 -12 -21 -24 -21h-104zM105 817c-8 8 -7 21 2 30l140 138c10 10 24 10 32 0l106 -139c7 -9 4 -22 -6 -30l-16 -13c-7 -6 -19 -7 -26 -2l-77 59c-6 4 -18 4 -24 0l-92 -59
c-8 -5 -20 -4 -26 2z" />
    <glyph glyph-name="Idieresis" unicode="&#xcf;" horiz-adv-x="293" 
d="M81 0c-12 0 -20 9 -18 21l84 691c2 12 12 21 24 21h104c12 0 20 -9 18 -21l-84 -691c-2 -12 -12 -21 -24 -21h-104zM377 844c-39 0 -66 28 -61 72c6 47 40 74 79 74s64 -28 59 -73c-6 -45 -38 -73 -77 -73zM105 844c-39 0 -65 28 -59 73c5 46 38 73 77 73
c40 0 65 -28 60 -73c-6 -45 -38 -73 -78 -73z" />
    <glyph glyph-name="Eth" unicode="&#xd0;" horiz-adv-x="781" 
d="M342 0h-261c-12 0 -20 9 -18 21l33 272c1 12 -7 21 -18 21h-39c-12 0 -20 9 -19 21l7 55c1 12 12 21 23 21h39c12 0 23 9 24 21l34 280c2 12 12 21 24 21h261c228 0 327 -122 297 -367c-30 -244 -159 -366 -387 -366zM228 167c-2 -12 6 -21 18 -21h114
c130 0 204 74 223 220c17 147 -39 220 -169 220h-114c-12 0 -22 -9 -24 -21l-16 -133c-1 -12 7 -21 18 -21h33c12 0 20 -9 19 -21l-7 -55c-1 -12 -12 -21 -23 -21h-33c-12 0 -23 -9 -24 -21z" />
    <glyph glyph-name="Ntilde" unicode="&#xd1;" horiz-adv-x="806" 
d="M210 21c-2 -12 -12 -21 -24 -21h-105c-12 0 -20 9 -18 21l84 690c2 12 12 21 24 21h117c3 0 12 -4 14 -7l278 -334c12 -14 35 -5 38 14l37 306c2 12 12 21 24 21h104c11 0 20 -9 18 -21l-84 -690c-2 -12 -12 -21 -24 -21h-106c-12 0 -20 9 -18 21l12 104c1 3 -2 12 -4 14
l-275 337c-12 15 -36 6 -38 -14zM376 850c-1 -9 -8 0 -17 0h-78c-13 0 -20 11 -17 24c38 144 180 164 279 84c49 -40 81 -38 86 -6l2 16c1 8 9 15 17 15h77c11 0 18 -13 17 -24c-17 -148 -173 -193 -271 -105c-31 28 -53 40 -68 36c-22 -5 -26 -38 -27 -40z" />
    <glyph glyph-name="Ograve" unicode="&#xd2;" horiz-adv-x="804" 
d="M68 366c25 207 204 366 411 366s346 -159 321 -366s-204 -366 -411 -366s-346 160 -321 366zM407 137c130 0 231 102 247 229c16 128 -61 230 -192 230s-232 -102 -248 -230s61 -229 193 -229zM604 851c5 -8 2 -21 -6 -28l-13 -12c-8 -7 -18 -11 -25 -4
c-130 108 -132 110 -133 111c-18 20 -3 50 17 68c19 18 49 28 68 10l3 -3z" />
    <glyph glyph-name="Oacute" unicode="&#xd3;" horiz-adv-x="804" 
d="M68 366c25 207 204 366 411 366s346 -159 321 -366s-204 -366 -411 -366s-346 160 -321 366zM407 137c130 0 231 102 247 229c16 128 -61 230 -192 230s-232 -102 -248 -230s61 -229 193 -229zM442 807c-8 -7 -17 -3 -23 4l-11 12c-6 7 -6 20 1 28l125 142s3 2 3 3
c24 18 51 8 65 -10c17 -18 23 -48 1 -68c-1 -1 -4 -3 -161 -111z" />
    <glyph glyph-name="Ocircumflex" unicode="&#xd4;" horiz-adv-x="804" 
d="M68 366c25 207 204 366 411 366s346 -159 321 -366s-204 -366 -411 -366s-346 160 -321 366zM407 137c130 0 231 102 247 229c16 128 -61 230 -192 230s-232 -102 -248 -230s61 -229 193 -229zM360 817c-7 8 -6 21 2 29l140 139c10 10 24 10 32 0l106 -139
c7 -9 4 -22 -5 -30l-16 -13c-7 -6 -20 -7 -26 -2l-79 59c-5 4 -17 4 -23 0l-92 -58c-8 -6 -20 -5 -26 1z" />
    <glyph glyph-name="Otilde" unicode="&#xd5;" horiz-adv-x="804" 
d="M68 366c25 207 204 366 411 366s346 -159 321 -366s-204 -366 -411 -366s-346 160 -321 366zM407 137c130 0 231 102 247 229c16 128 -61 230 -192 230s-232 -102 -248 -230s61 -229 193 -229zM380 850c-1 -9 -8 0 -17 0h-78c-13 0 -20 11 -17 24c38 144 179 164 279 84
c49 -40 81 -38 86 -6l2 16c1 8 9 15 17 15h76c11 0 19 -13 17 -24c-16 -148 -172 -193 -270 -105c-32 28 -53 40 -68 36c-22 -5 -26 -38 -27 -40z" />
    <glyph glyph-name="Odieresis" unicode="&#xd6;" horiz-adv-x="804" 
d="M68 366c25 207 204 366 411 366s346 -159 321 -366s-204 -366 -411 -366s-346 160 -321 366zM407 137c130 0 231 102 247 229c16 128 -61 230 -192 230s-232 -102 -248 -230s61 -229 193 -229zM627 844c-39 0 -65 28 -60 72c6 47 39 74 78 74s65 -28 60 -73
c-6 -45 -39 -73 -78 -73zM356 844c-39 0 -66 28 -60 73c5 46 39 73 78 73s64 -28 59 -73c-6 -45 -38 -73 -77 -73z" />
    <glyph glyph-name="multiply" unicode="&#xd7;" horiz-adv-x="541" 
d="M386 365c-10 -8 -11 -22 -4 -30l93 -106c7 -8 6 -22 -3 -30l-29 -25c-9 -8 -22 -8 -30 0l-93 106c-7 8 -20 8 -29 0l-121 -106c-9 -8 -22 -8 -29 0l-23 25c-7 8 -5 22 4 30l119 106c10 8 11 22 4 30l-93 106c-8 8 -6 22 3 30l29 26c9 8 22 8 30 0l94 -107
c7 -8 20 -8 29 0l120 107c9 8 22 8 30 0l22 -26c7 -8 5 -22 -4 -30z" />
    <glyph glyph-name="Oslash" unicode="&#xd8;" horiz-adv-x="804" 
d="M329 4c-6 1 -14 -3 -17 -9l-18 -37c-4 -7 -14 -14 -21 -14h-64c-16 0 -23 13 -16 28l23 50c5 9 0 22 -7 26c-101 63 -158 180 -141 318c25 207 204 366 411 366c23 0 45 -2 67 -6c6 -1 16 4 19 10l17 34c3 7 13 14 21 14h64c16 0 24 -14 16 -28l-24 -50
c-4 -9 0 -22 7 -27c97 -63 151 -178 134 -313c-25 -207 -204 -366 -411 -366c-21 0 -41 1 -60 4zM462 596c-131 0 -232 -102 -248 -230c-9 -73 12 -137 55 -179c11 -10 25 -6 32 9l191 392c2 3 1 5 -2 6c-9 1 -18 2 -28 2zM407 137c130 0 231 102 247 229
c8 69 -10 131 -50 173c-11 11 -24 6 -31 -9l-189 -388c-1 -2 0 -4 2 -4c7 -1 13 -1 21 -1z" />
    <glyph glyph-name="Ugrave" unicode="&#xd9;" horiz-adv-x="782" 
d="M136 711c2 12 12 21 24 21h104c11 0 20 -9 18 -21l-49 -403c-13 -108 50 -162 151 -162s178 54 191 162l49 403c2 12 12 21 24 21h105c11 0 20 -9 18 -21l-54 -442c-20 -167 -190 -269 -351 -269c-160 0 -304 102 -284 269zM509 851c5 -8 3 -21 -5 -28l-13 -12
c-8 -7 -18 -11 -25 -4c-130 108 -132 110 -133 111c-18 20 -4 50 17 68c19 18 48 28 67 10l3 -3z" />
    <glyph glyph-name="Uacute" unicode="&#xda;" horiz-adv-x="782" 
d="M136 711c2 12 12 21 24 21h104c11 0 20 -9 18 -21l-49 -403c-13 -108 50 -162 151 -162s178 54 191 162l49 403c2 12 12 21 24 21h105c11 0 20 -9 18 -21l-54 -442c-20 -167 -190 -269 -351 -269c-160 0 -304 102 -284 269zM509 807c-8 -7 -17 -3 -23 4l-11 12
c-6 7 -6 20 1 28l124 142s3 2 3 3c24 18 52 8 66 -10c16 -18 23 -48 1 -68c-1 -1 -4 -3 -161 -111z" />
    <glyph glyph-name="Ucircumflex" unicode="&#xdb;" horiz-adv-x="782" 
d="M136 711c2 12 12 21 24 21h104c11 0 20 -9 18 -21l-49 -403c-13 -108 50 -162 151 -162s178 54 191 162l49 403c2 12 12 21 24 21h105c11 0 20 -9 18 -21l-54 -442c-20 -167 -190 -269 -351 -269c-160 0 -304 102 -284 269zM329 817c-7 8 -6 21 3 29l140 139
c10 10 24 10 32 0l106 -139c7 -9 4 -22 -6 -30l-16 -13c-7 -6 -19 -7 -26 -2l-78 59c-5 4 -17 4 -23 0l-93 -59c-8 -5 -20 -4 -26 2z" />
    <glyph glyph-name="Udieresis" unicode="&#xdc;" horiz-adv-x="782" 
d="M136 711c2 12 12 21 24 21h104c11 0 20 -9 18 -21l-49 -403c-13 -108 50 -162 151 -162s178 54 191 162l49 403c2 12 12 21 24 21h105c11 0 20 -9 18 -21l-54 -442c-20 -167 -190 -269 -351 -269c-160 0 -304 102 -284 269zM606 844c-39 0 -65 28 -60 72
c6 47 39 74 78 74c40 0 65 -28 60 -73c-6 -45 -38 -73 -78 -73zM335 844c-39 0 -66 28 -60 73c5 46 39 73 78 73s64 -28 59 -73c-6 -45 -38 -73 -77 -73z" />
    <glyph glyph-name="Yacute" unicode="&#xdd;" horiz-adv-x="749" 
d="M330 359c0 2 -1 11 -2 13l-201 327c-9 14 3 33 21 33h120c5 0 14 -5 16 -9l122 -206c7 -13 23 -13 34 0l176 206c3 4 13 9 18 9h115c19 0 26 -19 13 -33l-280 -327c-2 -2 -6 -11 -6 -13l-41 -338c-2 -12 -12 -21 -24 -21h-104c-12 0 -20 9 -18 21zM497 807
c-8 -6 -17 -3 -23 4l-11 12c-6 7 -6 20 1 28l125 142s3 2 3 3c24 18 51 8 66 -10c16 -18 22 -48 0 -68c-1 -1 -4 -3 -161 -111z" />
    <glyph glyph-name="germandbls" unicode="&#xdf;" horiz-adv-x="696" 
d="M640 516c-12 -77 -104 -133 -100 -156c5 -32 124 -59 108 -193c-15 -117 -134 -167 -247 -167c-14 0 -30 1 -47 3c-6 1 -9 7 -8 13l11 89c1 11 13 21 25 21c66 1 123 10 128 52c7 62 -131 77 -119 176c7 56 37 50 103 133c2 2 6 10 6 12c7 67 -19 129 -90 129
c-86 0 -116 -65 -124 -134l-58 -473c-2 -12 -12 -21 -24 -21h-95c-12 0 -20 9 -18 21l42 349c2 12 -6 21 -18 21h-31c-12 0 -20 9 -18 21l8 68c1 12 12 21 24 21h44c4 0 8 3 8 8l1 7c20 157 150 232 274 232c125 0 235 -70 215 -232z" />
    <glyph glyph-name="agrave" unicode="&#xe0;" 
d="M432 468c2 11 12 20 23 20l91 -1c11 0 20 -9 18 -21l-54 -445c-2 -12 -12 -21 -24 -21h-91c-11 0 -19 9 -18 20c1 8 -7 13 -15 8c-33 -19 -64 -28 -94 -28c-141 0 -231 107 -214 244c16 131 134 251 274 244c40 -3 72 -13 92 -30c4 -4 11 0 12 6v4zM282 113
c74 0 132 57 141 130s-35 131 -110 131s-131 -58 -140 -131s33 -130 109 -130zM463 607c6 -8 3 -21 -5 -28l-13 -12c-8 -7 -18 -11 -25 -5c-130 108 -133 110 -133 112c-18 20 -4 50 16 68s49 28 69 10c0 -1 2 -3 2 -3z" />
    <glyph glyph-name="aacute" unicode="&#xe1;" 
d="M432 468c2 11 12 20 23 20l91 -1c11 0 20 -9 18 -21l-54 -445c-2 -12 -12 -21 -24 -21h-91c-11 0 -19 9 -18 20c1 8 -7 13 -15 8c-33 -19 -64 -28 -94 -28c-141 0 -231 107 -214 244c16 131 134 251 274 244c40 -3 72 -13 92 -30c4 -4 11 0 12 6v4zM282 113
c74 0 132 57 141 130s-35 131 -110 131s-131 -58 -140 -131s33 -130 109 -130zM302 562c-8 -6 -17 -2 -23 5l-11 12c-6 7 -6 20 1 28l124 142s3 2 3 3c24 18 52 8 66 -10c16 -18 23 -48 1 -68c-1 -2 -5 -4 -161 -112z" />
    <glyph glyph-name="acircumflex" unicode="&#xe2;" 
d="M432 468c2 11 12 20 23 20l91 -1c11 0 20 -9 18 -21l-54 -445c-2 -12 -12 -21 -24 -21h-91c-11 0 -19 9 -18 20c1 8 -7 13 -15 8c-33 -19 -64 -28 -94 -28c-141 0 -231 107 -214 244c16 131 134 251 274 244c40 -3 72 -13 92 -30c4 -4 11 0 12 6v4zM282 113
c74 0 132 57 141 130s-35 131 -110 131s-131 -58 -140 -131s33 -130 109 -130zM220 572c-8 8 -7 21 2 30l140 139c10 10 24 10 32 0l106 -139c7 -9 4 -22 -5 -30l-17 -13c-7 -6 -19 -7 -26 -2l-77 59c-6 4 -18 4 -24 0l-92 -59c-8 -5 -20 -4 -26 2z" />
    <glyph glyph-name="atilde" unicode="&#xe3;" 
d="M432 468c2 11 12 20 23 20l91 -1c11 0 20 -9 18 -21l-54 -445c-2 -12 -12 -21 -24 -21h-91c-11 0 -19 9 -18 20c1 8 -7 13 -15 8c-33 -19 -64 -28 -94 -28c-141 0 -231 107 -214 244c16 131 134 251 274 244c40 -3 72 -13 92 -30c4 -4 11 0 12 6v4zM282 113
c74 0 132 57 141 130s-35 131 -110 131s-131 -58 -140 -131s33 -130 109 -130zM240 605c-1 -10 -8 0 -18 0h-77c-13 0 -20 11 -17 24c38 145 179 165 278 85c50 -40 81 -38 87 -6l2 16c1 8 9 15 17 15h76c11 0 19 -13 17 -24c-16 -148 -172 -193 -270 -106
c-32 29 -54 40 -69 37c-21 -5 -25 -39 -26 -41z" />
    <glyph glyph-name="adieresis" unicode="&#xe4;" 
d="M432 468c2 11 12 20 23 20l91 -1c11 0 20 -9 18 -21l-54 -445c-2 -12 -12 -21 -24 -21h-91c-11 0 -19 9 -18 20c1 8 -7 13 -15 8c-33 -19 -64 -28 -94 -28c-141 0 -231 107 -214 244c16 131 134 251 274 244c40 -3 72 -13 92 -30c4 -4 11 0 12 6v4zM282 113
c74 0 132 57 141 130s-35 131 -110 131s-131 -58 -140 -131s33 -130 109 -130zM487 600c-39 0 -66 27 -60 72c5 47 39 74 78 74s64 -28 59 -73c-6 -45 -38 -73 -77 -73zM216 600c-39 0 -66 28 -60 72c5 47 39 74 78 74s64 -28 59 -73c-6 -45 -38 -73 -77 -73z" />
    <glyph glyph-name="aring" unicode="&#xe5;" 
d="M432 468c2 11 12 20 23 20l91 -1c11 0 20 -9 18 -21l-54 -445c-2 -12 -12 -21 -24 -21h-91c-11 0 -19 9 -18 20c1 8 -7 13 -15 8c-33 -19 -64 -28 -94 -28c-141 0 -231 107 -214 244c16 131 134 251 274 244c40 -3 72 -13 92 -30c4 -4 11 0 12 6v4zM282 113
c74 0 132 57 141 130s-35 131 -110 131s-131 -58 -140 -131s33 -130 109 -130zM361 560c-61 0 -101 44 -92 112c8 72 59 114 120 114c60 0 99 -44 91 -113c-9 -69 -59 -113 -119 -113zM369 631c21 0 40 16 44 42c3 26 -12 41 -33 41c-23 0 -42 -15 -45 -42
c-4 -25 11 -41 34 -41z" />
    <glyph glyph-name="ae" unicode="&#xe6;" horiz-adv-x="867" 
d="M176 361c-8 -3 -26 2 -30 9l-25 47c-6 11 -1 23 11 29c61 31 127 42 201 42c52 0 92 -13 122 -38c5 -5 22 -5 29 0c42 25 92 38 145 38c144 0 222 -103 205 -244l-3 -28c-2 -12 -12 -21 -24 -21h-293c-16 0 -24 -7 -21 -22c10 -39 48 -61 90 -61c39 0 75 9 109 28
c8 5 23 4 29 -2l45 -50c8 -9 7 -21 -4 -29c-52 -40 -116 -59 -193 -59c-58 0 -108 17 -145 47c-5 5 -18 7 -25 3c-42 -24 -101 -50 -180 -50c-130 0 -188 54 -176 151c13 111 99 176 216 176c31 0 72 -5 109 -21c2 -2 6 1 6 4l1 7c8 75 -136 65 -199 44zM351 138
c1 2 3 7 3 9l6 45c0 2 -1 7 -2 9c-12 22 -49 33 -95 33c-59 0 -97 -29 -102 -68c-4 -39 27 -63 86 -63c46 0 86 12 104 35zM615 376c-42 0 -89 -22 -103 -64c-5 -14 2 -19 16 -19h155c14 0 22 5 21 19c-4 42 -47 64 -89 64z" />
    <glyph glyph-name="ccedilla" unicode="&#xe7;" horiz-adv-x="496" 
d="M232 -200c-43 0 -74 26 -89 60c-5 11 0 22 12 27l41 19c5 2 12 0 15 -4c8 -13 18 -22 31 -22c14 0 31 12 33 27c1 13 -11 22 -30 28l-50 15c-13 5 -17 19 -8 31v0c7 11 5 26 -7 30c-90 35 -142 125 -129 233c17 141 138 249 280 249c63 0 116 -22 155 -59
c9 -8 6 -19 -4 -28l-67 -59c-6 -6 -18 -5 -24 0c-19 17 -45 28 -76 28c-75 0 -132 -59 -141 -131c-9 -74 34 -131 109 -131c32 0 60 10 83 27c6 5 19 6 24 0l51 -59c8 -9 6 -21 -4 -29c-35 -27 -77 -45 -122 -53c-5 -1 -9 -11 -5 -14c33 -18 49 -44 45 -76
c-8 -62 -67 -109 -123 -109z" />
    <glyph glyph-name="egrave" unicode="&#xe8;" horiz-adv-x="560" 
d="M53 244c18 143 132 244 274 244c144 0 221 -103 204 -244l-3 -28c-2 -12 -12 -21 -24 -21h-292c-16 0 -24 -7 -21 -22c10 -39 47 -61 90 -61c38 0 75 9 109 28c8 5 23 4 29 -2l44 -50c8 -9 7 -21 -4 -29c-52 -40 -115 -59 -192 -59c-142 0 -231 102 -214 244zM452 607
c5 -8 2 -21 -6 -28l-13 -12c-8 -7 -18 -11 -25 -5c-130 108 -133 110 -133 112c-18 20 -3 50 17 68c19 18 49 28 69 10c0 -1 2 -3 2 -3zM313 376c-42 0 -90 -22 -104 -64c-5 -14 2 -19 16 -19h156c14 0 22 5 21 19c-4 42 -47 64 -89 64z" />
    <glyph glyph-name="eacute" unicode="&#xe9;" horiz-adv-x="560" 
d="M53 244c18 143 132 244 274 244c144 0 221 -103 204 -244l-3 -28c-2 -12 -12 -21 -24 -21h-292c-16 0 -24 -7 -21 -22c10 -39 47 -61 90 -61c38 0 75 9 109 28c8 5 23 4 29 -2l44 -50c8 -9 7 -21 -4 -29c-52 -40 -115 -59 -192 -59c-142 0 -231 102 -214 244zM290 562
c-8 -6 -17 -2 -23 5l-11 12c-6 7 -6 20 1 28l125 142s3 2 3 3c23 18 51 8 65 -10c16 -18 23 -48 1 -68c-1 -2 -5 -4 -161 -112zM313 376c-42 0 -90 -22 -104 -64c-5 -14 2 -19 16 -19h156c14 0 22 5 21 19c-4 42 -47 64 -89 64z" />
    <glyph glyph-name="ecircumflex" unicode="&#xea;" horiz-adv-x="560" 
d="M53 244c18 143 132 244 274 244c144 0 221 -103 204 -244l-3 -28c-2 -12 -12 -21 -24 -21h-292c-16 0 -24 -7 -21 -22c10 -39 47 -61 90 -61c38 0 75 9 109 28c8 5 23 4 29 -2l44 -50c8 -9 7 -21 -4 -29c-52 -40 -115 -59 -192 -59c-142 0 -231 102 -214 244zM313 376
c-42 0 -90 -22 -104 -64c-5 -14 2 -19 16 -19h156c14 0 22 5 21 19c-4 42 -47 64 -89 64zM209 572c-8 8 -7 21 2 30l139 139c10 10 24 10 32 0l106 -139c7 -9 4 -22 -5 -30l-16 -13c-7 -6 -20 -7 -26 -2l-78 59c-6 4 -18 4 -24 0l-92 -59c-8 -5 -20 -4 -26 2z" />
    <glyph glyph-name="edieresis" unicode="&#xeb;" horiz-adv-x="560" 
d="M53 244c18 143 132 244 274 244c144 0 221 -103 204 -244l-3 -28c-2 -12 -12 -21 -24 -21h-292c-16 0 -24 -7 -21 -22c10 -39 47 -61 90 -61c38 0 75 9 109 28c8 5 23 4 29 -2l44 -50c8 -9 7 -21 -4 -29c-52 -40 -115 -59 -192 -59c-142 0 -231 102 -214 244zM313 376
c-42 0 -90 -22 -104 -64c-5 -14 2 -19 16 -19h156c14 0 22 5 21 19c-4 42 -47 64 -89 64zM490 600c-39 0 -66 27 -60 72c5 47 39 74 78 74s64 -28 59 -73c-6 -45 -38 -73 -77 -73zM219 600c-40 0 -66 28 -60 72c5 47 38 74 78 74c39 0 64 -28 59 -73c-6 -45 -38 -73 -77 -73
z" />
    <glyph glyph-name="igrave" unicode="&#xec;" horiz-adv-x="256" 
d="M189 21c-2 -12 -12 -21 -24 -21h-95c-12 0 -20 9 -18 21l54 447c2 12 12 21 24 21h95c12 0 20 -9 18 -21zM299 607c6 -8 3 -21 -5 -28l-14 -12c-7 -7 -17 -10 -24 -5c-131 108 -133 110 -133 112c-18 20 -4 50 16 68s49 28 69 10c0 -1 2 -3 2 -3z" />
    <glyph glyph-name="iacute" unicode="&#xed;" horiz-adv-x="256" 
d="M189 21c-2 -12 -12 -21 -24 -21h-95c-12 0 -20 9 -18 21l54 447c2 12 12 21 24 21h95c12 0 20 -9 18 -21zM138 562c-8 -6 -17 -2 -23 5l-11 12c-6 7 -6 20 1 28l124 142s3 2 3 3c24 18 51 8 66 -10c16 -18 23 -48 1 -68c-1 -2 -5 -4 -161 -112z" />
    <glyph glyph-name="icircumflex" unicode="&#xee;" horiz-adv-x="256" 
d="M189 21c-2 -12 -12 -21 -24 -21h-95c-12 0 -20 9 -18 21l54 447c2 12 12 21 24 21h95c12 0 20 -9 18 -21zM57 572c-8 8 -7 21 2 30l140 139c10 10 24 10 32 0l105 -139c7 -9 4 -22 -5 -30l-16 -13c-7 -6 -20 -7 -26 -2l-78 59c-5 4 -17 4 -23 0l-93 -59
c-8 -5 -20 -4 -26 2z" />
    <glyph glyph-name="idieresis" unicode="&#xef;" horiz-adv-x="256" 
d="M189 21c-2 -12 -12 -21 -24 -21h-95c-12 0 -20 9 -18 21l54 447c2 12 12 21 24 21h95c12 0 20 -9 18 -21zM338 600c-39 0 -66 27 -60 72c5 47 39 74 78 74s65 -28 60 -73c-6 -45 -39 -73 -78 -73zM67 600c-39 0 -66 28 -60 72c5 47 39 74 78 74s64 -28 59 -73
c-6 -45 -38 -73 -77 -73z" />
    <glyph glyph-name="ntilde" unicode="&#xf1;" horiz-adv-x="559" 
d="M227 317c-1 -2 -4 -10 -4 -11l-35 -285c-2 -12 -12 -21 -24 -21h-95c-12 0 -20 9 -18 21l54 447c2 12 12 21 24 21h95c12 0 20 -9 18 -21v-2c-1 -8 9 -13 17 -8c31 20 65 30 103 30c113 0 180 -77 167 -185l-34 -282c-2 -12 -12 -21 -24 -21h-95c-12 0 -20 9 -18 21
l30 248c8 62 -17 100 -80 104h-7c-26 -3 -51 -22 -74 -56zM228 605c-1 -10 -8 0 -18 0h-77c-13 0 -20 11 -17 24c37 145 179 165 278 85c50 -40 81 -38 87 -6l2 16c1 8 9 15 17 15h76c11 0 19 -13 17 -24c-17 -148 -172 -193 -270 -106c-32 29 -54 40 -69 37
c-21 -5 -25 -39 -26 -41z" />
    <glyph glyph-name="ograve" unicode="&#xf2;" horiz-adv-x="562" 
d="M51 244c17 141 138 249 280 249c141 0 235 -108 218 -249s-139 -249 -280 -249c-142 0 -235 109 -218 249zM283 113c75 0 132 57 141 131c9 73 -34 131 -109 131s-132 -59 -141 -131c-9 -74 34 -131 109 -131zM453 607c5 -8 2 -21 -6 -28l-13 -12c-8 -7 -18 -11 -25 -5
c-130 108 -133 110 -133 112c-18 20 -3 50 17 68c19 18 49 28 69 10c0 -1 2 -3 2 -3z" />
    <glyph glyph-name="oacute" unicode="&#xf3;" horiz-adv-x="562" 
d="M51 244c17 141 138 249 280 249c141 0 235 -108 218 -249s-139 -249 -280 -249c-142 0 -235 109 -218 249zM283 113c75 0 132 57 141 131c9 73 -34 131 -109 131s-132 -59 -141 -131c-9 -74 34 -131 109 -131zM291 562c-8 -6 -17 -2 -23 5l-11 12c-6 7 -6 20 1 28
l125 142s3 2 3 3c23 18 51 8 65 -10c16 -18 23 -48 1 -68c-1 -2 -5 -4 -161 -112z" />
    <glyph glyph-name="ocircumflex" unicode="&#xf4;" horiz-adv-x="562" 
d="M51 244c17 141 138 249 280 249c141 0 235 -108 218 -249s-139 -249 -280 -249c-142 0 -235 109 -218 249zM283 113c75 0 132 57 141 131c9 73 -34 131 -109 131s-132 -59 -141 -131c-9 -74 34 -131 109 -131zM210 572c-8 8 -7 21 2 30l140 139c10 10 24 10 32 0
l106 -139c7 -9 4 -22 -5 -30l-17 -13c-7 -6 -19 -7 -26 -2l-77 59c-6 4 -18 4 -24 0l-92 -59c-8 -5 -20 -4 -26 2z" />
    <glyph glyph-name="otilde" unicode="&#xf5;" horiz-adv-x="562" 
d="M51 244c17 141 138 249 280 249c141 0 235 -108 218 -249s-139 -249 -280 -249c-142 0 -235 109 -218 249zM283 113c75 0 132 57 141 131c9 73 -34 131 -109 131s-132 -59 -141 -131c-9 -74 34 -131 109 -131zM229 605c-1 -10 -8 0 -18 0h-77c-13 0 -20 11 -17 24
c38 145 179 165 279 85c49 -40 81 -38 86 -6l2 16c1 8 9 15 17 15h76c11 0 19 -13 17 -24c-16 -148 -172 -193 -270 -106c-32 29 -54 40 -68 37c-22 -5 -26 -39 -27 -41z" />
    <glyph glyph-name="odieresis" unicode="&#xf6;" horiz-adv-x="562" 
d="M51 244c17 141 138 249 280 249c141 0 235 -108 218 -249s-139 -249 -280 -249c-142 0 -235 109 -218 249zM283 113c75 0 132 57 141 131c9 73 -34 131 -109 131s-132 -59 -141 -131c-9 -74 34 -131 109 -131zM491 600c-39 0 -66 27 -60 72c5 47 39 74 78 74
s64 -28 59 -73c-6 -45 -38 -73 -77 -73zM220 600c-40 0 -66 28 -60 72c5 47 38 74 78 74c39 0 64 -28 59 -73c-6 -45 -38 -73 -77 -73z" />
    <glyph glyph-name="divide" unicode="&#xf7;" horiz-adv-x="541" 
d="M543 332c-2 -12 -12 -21 -24 -21h-421c-11 0 -20 9 -18 21l4 36c2 12 12 21 24 21h421c11 0 20 -9 18 -21zM258 517c5 39 37 69 82 69c46 0 70 -30 65 -69c-4 -39 -37 -68 -81 -68c-45 0 -70 29 -66 68zM216 175c5 39 37 69 82 69c46 0 70 -30 65 -69
c-4 -39 -37 -68 -81 -68c-45 0 -70 29 -66 68z" />
    <glyph glyph-name="oslash" unicode="&#xf8;" horiz-adv-x="562" 
d="M226 -1c-5 0 -11 -3 -13 -7l-13 -28c-4 -7 -14 -14 -22 -14h-31c-16 0 -24 14 -16 28l14 29c4 8 -1 22 -8 27c-64 45 -97 122 -86 210c18 145 142 249 280 249c13 0 26 -1 39 -3c4 -1 11 2 13 6l12 26c4 7 14 14 22 14h32c15 0 23 -14 16 -28l-12 -26c-5 -8 0 -22 7 -27
c65 -44 100 -122 89 -211c-18 -144 -143 -249 -280 -249c-15 0 -29 1 -43 4zM282 113h1c75 0 132 61 141 131c4 35 -5 68 -24 91c-6 9 -17 6 -22 -4l-103 -212c-1 -3 0 -5 3 -5zM316 375h-1c-75 0 -133 -63 -141 -131c-5 -37 4 -69 22 -92c6 -8 16 -6 21 4l104 214
c1 2 0 4 -2 5h-3z" />
    <glyph glyph-name="ugrave" unicode="&#xf9;" horiz-adv-x="549" 
d="M361 168c1 1 4 9 4 10l35 290c2 12 12 21 24 21h95c12 0 20 -9 18 -21l-54 -447c-2 -12 -12 -21 -24 -21h-95c-12 0 -20 9 -18 21v1c1 9 -9 13 -17 8c-31 -20 -66 -30 -103 -30c-113 0 -180 78 -167 186l34 282c2 12 12 21 24 21h94c12 0 20 -9 18 -21l-30 -248
c-8 -63 18 -100 81 -104h7c26 3 51 20 74 52zM446 607c6 -8 3 -21 -5 -28l-14 -12c-7 -7 -17 -10 -24 -5c-131 108 -133 110 -133 112c-18 20 -4 50 16 68s49 28 69 10c0 -1 2 -3 2 -3z" />
    <glyph glyph-name="uacute" unicode="&#xfa;" horiz-adv-x="549" 
d="M361 168c1 1 4 9 4 10l35 290c2 12 12 21 24 21h95c12 0 20 -9 18 -21l-54 -447c-2 -12 -12 -21 -24 -21h-95c-12 0 -20 9 -18 21v1c1 9 -9 13 -17 8c-31 -20 -66 -30 -103 -30c-113 0 -180 78 -167 186l34 282c2 12 12 21 24 21h94c12 0 20 -9 18 -21l-30 -248
c-8 -63 18 -100 81 -104h7c26 3 51 20 74 52zM285 562c-8 -6 -17 -2 -23 5l-11 12c-6 7 -6 20 1 28l124 142s3 2 3 3c24 18 51 8 66 -10c16 -18 23 -48 1 -68c-1 -2 -5 -4 -161 -112z" />
    <glyph glyph-name="ucircumflex" unicode="&#xfb;" horiz-adv-x="549" 
d="M361 168c1 1 4 9 4 10l35 290c2 12 12 21 24 21h95c12 0 20 -9 18 -21l-54 -447c-2 -12 -12 -21 -24 -21h-95c-12 0 -20 9 -18 21v1c1 9 -9 13 -17 8c-31 -20 -66 -30 -103 -30c-113 0 -180 78 -167 186l34 282c2 12 12 21 24 21h94c12 0 20 -9 18 -21l-30 -248
c-8 -63 18 -100 81 -104h7c26 3 51 20 74 52zM203 572c-8 8 -7 21 2 30l140 139c10 10 24 10 32 0l106 -139c7 -9 4 -22 -5 -30l-17 -13c-7 -6 -19 -7 -26 -2l-77 59c-6 4 -18 4 -24 0l-92 -59c-8 -5 -20 -4 -26 2z" />
    <glyph glyph-name="udieresis" unicode="&#xfc;" horiz-adv-x="549" 
d="M361 168c1 1 4 9 4 10l35 290c2 12 12 21 24 21h95c12 0 20 -9 18 -21l-54 -447c-2 -12 -12 -21 -24 -21h-95c-12 0 -20 9 -18 21v1c1 9 -9 13 -17 8c-31 -20 -66 -30 -103 -30c-113 0 -180 78 -167 186l34 282c2 12 12 21 24 21h94c12 0 20 -9 18 -21l-30 -248
c-8 -63 18 -100 81 -104h7c26 3 51 20 74 52zM485 600c-39 0 -66 27 -60 72c5 47 39 74 78 74s64 -28 59 -73c-6 -45 -38 -73 -77 -73zM213 600c-39 0 -66 28 -60 72c5 47 39 74 78 74s65 -28 60 -73c-6 -45 -39 -73 -78 -73z" />
    <glyph glyph-name="yacute" unicode="&#xfd;" horiz-adv-x="551" 
d="M218 -197c-3 -7 -14 -13 -21 -13h-90c-16 0 -24 14 -16 28l87 175c2 2 3 12 2 14l-106 453c-3 15 8 28 24 28h94c8 0 17 -7 18 -14l61 -239c5 -19 30 -19 40 0l121 240c4 6 14 13 21 13h94c16 0 24 -14 16 -29zM285 562c-8 -6 -17 -2 -23 5l-11 12c-6 7 -6 20 1 28
l125 142s3 2 3 3c24 18 51 8 65 -10c17 -18 23 -48 1 -68c-1 -2 -5 -4 -161 -112z" />
    <glyph glyph-name="ydieresis" unicode="&#xff;" horiz-adv-x="551" 
d="M218 -197c-3 -7 -14 -13 -21 -13h-90c-16 0 -24 14 -16 28l87 175c2 2 3 12 2 14l-106 453c-3 15 8 28 24 28h94c8 0 17 -7 18 -14l61 -239c5 -19 30 -19 40 0l121 240c4 6 14 13 21 13h94c16 0 24 -14 16 -29zM485 600c-39 0 -66 27 -60 72c5 47 39 74 78 74
s64 -28 59 -73c-6 -45 -38 -73 -77 -73zM214 600c-39 0 -66 28 -60 72c5 47 39 74 78 74s64 -28 59 -73c-6 -45 -38 -73 -77 -73z" />
    <glyph glyph-name="Amacron" unicode="&#x100;" horiz-adv-x="803" 
d="M185 13c-4 -7 -14 -13 -21 -13h-112c-16 0 -24 14 -16 29l361 690c4 7 14 13 21 13h119c7 0 16 -6 18 -13l190 -690c4 -15 -7 -29 -23 -29h-110c-7 0 -16 6 -18 13l-23 86c-1 7 -10 13 -18 13h-303c-7 0 -18 -6 -21 -13zM501 259c16 0 27 14 23 29l-53 200
c-5 18 -29 18 -39 0l-105 -200c-8 -15 0 -29 16 -29h158zM666 881c-1 -12 -12 -21 -23 -21h-271c-12 0 -20 9 -19 21l5 36c1 12 12 21 23 21h271c12 0 20 -9 19 -21z" />
    <glyph glyph-name="amacron" unicode="&#x101;" 
d="M432 468c2 11 12 20 23 20l91 -1c11 0 20 -9 18 -21l-54 -445c-2 -12 -12 -21 -24 -21h-91c-11 0 -19 9 -18 20c1 8 -7 13 -15 8c-33 -19 -64 -28 -94 -28c-141 0 -231 107 -214 244c16 131 134 251 274 244c40 -3 72 -13 92 -30c4 -4 11 0 12 6v4zM282 113
c74 0 132 57 141 130s-35 131 -110 131s-131 -58 -140 -131s33 -130 109 -130zM526 637c-1 -12 -12 -21 -23 -21h-271c-12 0 -20 9 -19 21l5 36c1 12 12 21 23 21h271c12 0 20 -9 19 -21z" />
    <glyph glyph-name="Abreve" unicode="&#x102;" horiz-adv-x="803" 
d="M185 13c-4 -7 -14 -13 -21 -13h-112c-16 0 -24 14 -16 29l361 690c4 7 14 13 21 13h119c7 0 16 -6 18 -13l190 -690c4 -15 -7 -29 -23 -29h-110c-7 0 -16 6 -18 13l-23 86c-1 7 -10 13 -18 13h-303c-7 0 -18 -6 -21 -13zM501 259c16 0 27 14 23 29l-53 200
c-5 18 -29 18 -39 0l-105 -200c-8 -15 0 -29 16 -29h158zM585 943c3 9 17 21 26 21h28c14 0 20 -10 17 -23c-19 -68 -82 -118 -154 -118s-122 50 -125 118c0 13 9 23 22 23h29c8 0 19 -12 20 -21c4 -31 27 -53 62 -53s63 22 75 53z" />
    <glyph glyph-name="abreve" unicode="&#x103;" 
d="M432 468c2 11 12 20 23 20l91 -1c11 0 20 -9 18 -21l-54 -445c-2 -12 -12 -21 -24 -21h-91c-11 0 -19 9 -18 20c1 8 -7 13 -15 8c-33 -19 -64 -28 -94 -28c-141 0 -231 107 -214 244c16 131 134 251 274 244c40 -3 72 -13 92 -30c4 -4 11 0 12 6v4zM282 113
c74 0 132 57 141 130s-35 131 -110 131s-131 -58 -140 -131s33 -130 109 -130zM445 699c3 9 17 21 26 21h29c14 0 20 -10 17 -23c-19 -68 -82 -118 -154 -118s-123 50 -126 118c0 13 9 23 22 23h30c8 0 19 -12 20 -21c4 -31 27 -53 62 -53s63 22 74 53z" />
    <glyph glyph-name="Aogonek" unicode="&#x104;" horiz-adv-x="803" 
d="M185 13c-4 -7 -14 -13 -21 -13h-112c-16 0 -24 14 -16 29l361 690c4 7 14 13 21 13h119c7 0 16 -6 18 -13l190 -690c4 -15 -7 -29 -23 -29h-66c-5 0 -12 -4 -14 -8c-7 -13 -12 -26 -14 -41c-6 -50 18 -70 48 -70c28 0 52 10 72 29c6 6 20 9 26 4l39 -30c9 -7 9 -20 1 -29
c-36 -39 -81 -64 -143 -64c-86 0 -142 56 -131 143c5 39 20 69 39 93c3 4 7 16 6 21l-14 51c-2 6 -10 13 -18 13h-303c-7 0 -18 -6 -21 -13zM501 259c16 0 27 14 23 29l-53 200c-5 18 -29 18 -39 0l-105 -200c-8 -15 0 -29 16 -29h158z" />
    <glyph glyph-name="aogonek" unicode="&#x105;" 
d="M432 468c2 11 12 20 23 20l91 -1c11 0 20 -9 18 -21l-54 -445c-2 -12 -12 -21 -24 -21h-23c-5 0 -12 -4 -14 -8c-7 -13 -12 -26 -14 -41c-6 -50 18 -70 48 -70c28 0 52 10 72 29c6 6 20 9 26 4l39 -30c9 -7 9 -20 1 -29c-36 -39 -81 -64 -143 -64c-86 0 -142 56 -131 143
c4 29 13 55 26 76c1 1 4 9 4 10l1 7c1 5 -5 7 -10 5c-35 -21 -68 -32 -100 -32c-141 0 -231 107 -214 244c16 131 134 251 274 244c40 -3 72 -13 92 -30c4 -4 11 0 12 6v4zM282 113c74 0 132 57 141 130s-35 131 -110 131s-131 -58 -140 -131s33 -130 109 -130z" />
    <glyph glyph-name="Cacute" unicode="&#x106;" horiz-adv-x="756" 
d="M69 368c20 205 210 364 411 364c96 0 177 -27 242 -83c9 -8 8 -21 -2 -30l-79 -77c-8 -7 -21 -8 -29 -3c-42 32 -92 47 -150 47c-129 -1 -231 -88 -247 -217c-15 -134 60 -223 194 -223c58 0 112 16 161 48c9 6 22 4 28 -4l60 -76c8 -9 5 -22 -6 -30
c-78 -56 -166 -84 -262 -84c-204 -5 -352 164 -321 368zM418 807c-8 -7 -17 -3 -23 4l-11 12c-6 7 -6 20 1 28l125 142s3 2 3 3c24 18 51 8 66 -10c16 -18 22 -48 0 -68c-1 -1 -4 -3 -161 -111z" />
    <glyph glyph-name="cacute" unicode="&#x107;" horiz-adv-x="496" 
d="M366 140c6 5 19 6 24 0l51 -59c8 -9 8 -20 -2 -28c-47 -36 -107 -58 -170 -58c-142 0 -235 109 -218 249c17 141 138 249 280 249c63 0 116 -22 155 -59c9 -8 6 -19 -4 -28l-67 -59c-6 -6 -18 -5 -24 0c-19 17 -45 28 -76 28c-75 0 -132 -59 -141 -131
c-9 -74 34 -131 109 -131c32 0 60 10 83 27zM258 562c-8 -6 -17 -2 -23 5l-11 12c-6 7 -6 20 1 28l124 142s3 2 3 3c24 18 52 8 66 -10c16 -18 23 -48 1 -68c-1 -2 -5 -4 -161 -112z" />
    <glyph glyph-name="Ccircumflex" unicode="&#x108;" horiz-adv-x="756" 
d="M69 368c20 205 210 364 411 364c96 0 177 -27 242 -83c9 -8 8 -21 -2 -30l-79 -77c-8 -7 -21 -8 -29 -3c-42 32 -92 47 -150 47c-129 -1 -231 -88 -247 -217c-15 -134 60 -223 194 -223c58 0 112 16 161 48c9 6 22 4 28 -4l60 -76c8 -9 5 -22 -6 -30
c-78 -56 -166 -84 -262 -84c-204 -5 -352 164 -321 368zM336 817c-7 8 -6 21 3 29l140 139c10 10 24 10 32 0l105 -139c7 -9 4 -22 -5 -30l-16 -13c-7 -6 -20 -7 -26 -2l-78 59c-5 4 -17 4 -23 0l-93 -59c-8 -5 -20 -4 -26 2z" />
    <glyph glyph-name="ccircumflex" unicode="&#x109;" horiz-adv-x="496" 
d="M366 140c6 5 19 6 24 0l51 -59c8 -9 8 -20 -2 -28c-47 -36 -107 -58 -170 -58c-142 0 -235 109 -218 249c17 141 138 249 280 249c63 0 116 -22 155 -59c9 -8 6 -19 -4 -28l-67 -59c-6 -6 -18 -5 -24 0c-19 17 -45 28 -76 28c-75 0 -132 -59 -141 -131
c-9 -74 34 -131 109 -131c32 0 60 10 83 27zM176 572c-8 8 -7 21 2 30l140 139c10 10 24 10 32 0l106 -139c7 -9 4 -22 -5 -30l-16 -13c-7 -6 -20 -7 -26 -2l-78 59c-6 4 -18 4 -24 0l-92 -59c-8 -5 -20 -4 -26 2z" />
    <glyph glyph-name="Cdotaccent" unicode="&#x10a;" horiz-adv-x="756" 
d="M69 368c20 205 210 364 411 364c96 0 177 -27 242 -83c9 -8 8 -21 -2 -30l-79 -77c-8 -7 -21 -8 -29 -3c-42 32 -92 47 -150 47c-129 -1 -231 -88 -247 -217c-15 -134 60 -223 194 -223c58 0 112 16 161 48c9 6 22 4 28 -4l60 -76c8 -9 5 -22 -6 -30
c-78 -56 -166 -84 -262 -84c-204 -5 -352 164 -321 368zM482 844c-39 0 -65 28 -59 73c5 46 38 73 77 73s65 -28 60 -73c-6 -45 -39 -73 -78 -73z" />
    <glyph glyph-name="cdotaccent" unicode="&#x10b;" horiz-adv-x="496" 
d="M366 140c6 5 19 6 24 0l51 -59c8 -9 8 -20 -2 -28c-47 -36 -107 -58 -170 -58c-142 0 -235 109 -218 249c17 141 138 249 280 249c63 0 116 -22 155 -59c9 -8 6 -19 -4 -28l-67 -59c-6 -6 -18 -5 -24 0c-19 17 -45 28 -76 28c-75 0 -132 -59 -141 -131
c-9 -74 34 -131 109 -131c32 0 60 10 83 27zM322 600c-39 0 -66 28 -60 72c5 47 39 74 78 74s64 -28 59 -73c-6 -45 -38 -73 -77 -73z" />
    <glyph glyph-name="Ccaron" unicode="&#x10c;" horiz-adv-x="756" 
d="M69 368c20 205 210 364 411 364c96 0 177 -27 242 -83c9 -8 8 -21 -2 -30l-79 -77c-8 -7 -21 -8 -29 -3c-42 32 -92 47 -150 47c-129 -1 -231 -88 -247 -217c-15 -134 60 -223 194 -223c58 0 112 16 161 48c9 6 22 4 28 -4l60 -76c8 -9 5 -22 -6 -30
c-78 -56 -166 -84 -262 -84c-204 -5 -352 164 -321 368zM489 810c-10 -10 -24 -10 -31 0l-107 139c-6 9 -4 22 6 30l16 13c7 6 19 7 26 2l78 -59c6 -4 17 -4 24 0l91 59c8 5 20 4 26 -2l13 -13c7 -8 7 -21 -2 -30z" />
    <glyph glyph-name="ccaron" unicode="&#x10d;" horiz-adv-x="496" 
d="M366 140c6 5 19 6 24 0l51 -59c8 -9 8 -20 -2 -28c-47 -36 -107 -58 -170 -58c-142 0 -235 109 -218 249c17 141 138 249 280 249c63 0 116 -22 155 -59c9 -8 6 -19 -4 -28l-67 -59c-6 -6 -18 -5 -24 0c-19 17 -45 28 -76 28c-75 0 -132 -59 -141 -131
c-9 -74 34 -131 109 -131c32 0 60 10 83 27zM328 566c-10 -10 -24 -10 -31 0l-106 139c-7 9 -5 22 5 30l17 13c7 6 19 7 26 2l77 -59c6 -4 17 -4 24 0l92 59c8 5 20 4 26 -2l13 -13c7 -8 7 -21 -2 -30z" />
    <glyph glyph-name="Dcaron" unicode="&#x10e;" horiz-adv-x="781" 
d="M226 157c-1 -12 7 -21 19 -21h114c130 1 205 84 224 230c17 147 -38 230 -168 230h-114c-11 0 -22 -9 -23 -21zM342 0h-261c-12 0 -20 9 -18 21l84 691c2 12 12 21 24 21h261c228 0 327 -122 297 -367c-30 -244 -159 -366 -387 -366zM501 810c-10 -10 -24 -10 -31 0
l-107 139c-6 9 -4 22 6 30l16 13c8 6 20 7 27 2l77 -59c6 -4 17 -4 24 0l92 59c8 5 20 4 26 -2l13 -13c7 -8 6 -21 -2 -30z" />
    <glyph glyph-name="dcaron" unicode="&#x10f;" horiz-adv-x="889" 
d="M462 711c2 12 12 21 24 21h95c11 0 20 -9 18 -21l-84 -690c-2 -12 -12 -21 -24 -21h-96c-11 0 -19 9 -18 20c1 8 -7 13 -15 8c-33 -19 -64 -28 -94 -28c-142 0 -231 107 -214 244c16 131 133 252 274 244c40 -3 72 -12 92 -29c5 -4 11 0 12 6zM280 113
c75 0 132 57 141 130s-34 131 -109 131s-131 -58 -140 -131s33 -130 108 -130zM763 548c-12 -7 -23 -4 -28 7l-5 14c-3 6 1 14 7 18c21 11 37 29 49 53h-5c-45 0 -71 29 -66 68s36 69 81 69c47 0 71 -31 66 -70c-9 -72 -42 -125 -99 -159z" />
    <glyph glyph-name="Dcroat" unicode="&#x110;" horiz-adv-x="781" 
d="M342 0h-261c-12 0 -20 9 -18 21l34 277c1 12 -7 21 -19 21h-33c-11 0 -20 9 -18 21l4 36c2 12 12 21 24 21h33c11 0 22 9 23 21l36 294c2 12 12 21 24 21h261c228 0 327 -122 297 -367c-30 -244 -159 -366 -387 -366zM228 167c-2 -12 6 -21 18 -21h114
c130 0 204 74 223 220c17 147 -39 220 -169 220h-114c-12 0 -22 -9 -24 -21l-18 -147c-1 -12 7 -21 19 -21h48c11 0 20 -9 18 -21l-4 -36c-2 -12 -12 -21 -24 -21h-48c-11 0 -22 -9 -23 -21z" />
    <glyph glyph-name="dcroat" unicode="&#x111;" 
d="M439 524c2 12 -6 21 -18 21h-45c-12 0 -20 9 -19 21l7 56c2 12 12 21 24 21h45c12 0 22 9 24 21l5 47c2 12 12 21 24 21h95c11 0 20 -9 18 -21l-5 -47c-2 -12 6 -21 18 -21h36c12 0 20 -9 18 -21l-7 -56c-1 -12 -11 -21 -23 -21h-36c-12 0 -22 -9 -24 -21l-61 -503
c-2 -12 -12 -21 -24 -21h-96c-11 0 -19 9 -18 20c1 8 -7 13 -15 8c-33 -19 -64 -28 -94 -28c-142 0 -231 107 -214 244c16 131 133 252 274 244c40 -3 72 -12 92 -29c5 -4 11 0 12 6zM280 113c75 0 132 57 141 130s-34 131 -109 131s-131 -58 -140 -131s33 -130 108 -130z
" />
    <glyph glyph-name="Emacron" unicode="&#x112;" horiz-adv-x="684" 
d="M598 21c-2 -12 -12 -21 -24 -21h-495c-12 0 -20 9 -18 21l84 690c2 12 12 21 24 21h496c11 0 20 -9 18 -21l-11 -94c-2 -12 -12 -21 -24 -21h-349c-11 0 -22 -9 -23 -21l-15 -115c-1 -12 7 -21 19 -21h251c11 0 20 -9 18 -21l-11 -94c-2 -12 -12 -21 -24 -21h-251
c-11 0 -22 -9 -23 -21l-16 -124c-1 -12 7 -21 19 -21h348c11 0 20 -9 18 -21zM606 881c-1 -12 -12 -21 -23 -21h-270c-12 0 -20 9 -19 21l5 36c1 12 12 21 23 21h270c12 0 20 -9 19 -21z" />
    <glyph glyph-name="emacron" unicode="&#x113;" horiz-adv-x="560" 
d="M53 244c18 143 132 244 274 244c144 0 221 -103 204 -244l-3 -28c-2 -12 -12 -21 -24 -21h-292c-16 0 -24 -7 -21 -22c10 -39 47 -61 90 -61c38 0 75 9 109 28c8 5 23 4 29 -2l44 -50c8 -9 7 -21 -4 -29c-52 -40 -115 -59 -192 -59c-142 0 -231 102 -214 244zM313 376
c-42 0 -90 -22 -104 -64c-5 -14 2 -19 16 -19h156c14 0 22 5 21 19c-4 42 -47 64 -89 64zM514 637c-1 -12 -12 -21 -23 -21h-270c-12 0 -20 9 -19 21l5 36c1 12 12 21 23 21h270c12 0 20 -9 19 -21z" />
    <glyph glyph-name="Ebreve" unicode="&#x114;" horiz-adv-x="684" 
d="M598 21c-2 -12 -12 -21 -24 -21h-495c-12 0 -20 9 -18 21l84 690c2 12 12 21 24 21h496c11 0 20 -9 18 -21l-11 -94c-2 -12 -12 -21 -24 -21h-349c-11 0 -22 -9 -23 -21l-15 -115c-1 -12 7 -21 19 -21h251c11 0 20 -9 18 -21l-11 -94c-2 -12 -12 -21 -24 -21h-251
c-11 0 -22 -9 -23 -21l-16 -124c-1 -12 7 -21 19 -21h348c11 0 20 -9 18 -21zM525 943c3 9 17 21 26 21h29c14 0 20 -10 17 -23c-19 -68 -83 -118 -155 -118c-71 0 -122 50 -125 118c0 13 9 23 22 23h30c8 0 19 -12 20 -21c4 -31 27 -53 61 -53c36 0 64 22 75 53z" />
    <glyph glyph-name="ebreve" unicode="&#x115;" horiz-adv-x="560" 
d="M53 244c18 143 132 244 274 244c144 0 221 -103 204 -244l-3 -28c-2 -12 -12 -21 -24 -21h-292c-16 0 -24 -7 -21 -22c10 -39 47 -61 90 -61c38 0 75 9 109 28c8 5 23 4 29 -2l44 -50c8 -9 7 -21 -4 -29c-52 -40 -115 -59 -192 -59c-142 0 -231 102 -214 244zM313 376
c-42 0 -90 -22 -104 -64c-5 -14 2 -19 16 -19h156c14 0 22 5 21 19c-4 42 -47 64 -89 64zM434 699c3 9 17 21 26 21h28c14 0 20 -10 17 -23c-19 -68 -82 -118 -154 -118s-122 50 -125 118c0 13 9 23 22 23h29c8 0 19 -12 20 -21c4 -31 27 -53 62 -53s64 22 75 53z" />
    <glyph glyph-name="Edotaccent" unicode="&#x116;" horiz-adv-x="684" 
d="M598 21c-2 -12 -12 -21 -24 -21h-495c-12 0 -20 9 -18 21l84 690c2 12 12 21 24 21h496c11 0 20 -9 18 -21l-11 -94c-2 -12 -12 -21 -24 -21h-349c-11 0 -22 -9 -23 -21l-15 -115c-1 -12 7 -21 19 -21h251c11 0 20 -9 18 -21l-11 -94c-2 -12 -12 -21 -24 -21h-251
c-11 0 -22 -9 -23 -21l-16 -124c-1 -12 7 -21 19 -21h348c11 0 20 -9 18 -21zM446 844c-39 0 -66 28 -60 73c5 46 39 73 78 73s64 -28 59 -73c-6 -45 -38 -73 -77 -73z" />
    <glyph glyph-name="edotaccent" unicode="&#x117;" horiz-adv-x="560" 
d="M53 244c18 143 132 244 274 244c144 0 221 -103 204 -244l-3 -28c-2 -12 -12 -21 -24 -21h-292c-16 0 -24 -7 -21 -22c10 -39 47 -61 90 -61c38 0 75 9 109 28c8 5 23 4 29 -2l44 -50c8 -9 7 -21 -4 -29c-52 -40 -115 -59 -192 -59c-142 0 -231 102 -214 244zM313 376
c-42 0 -90 -22 -104 -64c-5 -14 2 -19 16 -19h156c14 0 22 5 21 19c-4 42 -47 64 -89 64zM354 600c-39 0 -66 28 -60 72c5 47 39 74 78 74s65 -28 60 -73c-6 -45 -39 -73 -78 -73z" />
    <glyph glyph-name="Eogonek" unicode="&#x118;" horiz-adv-x="684" 
d="M308 -10c2 5 0 10 -5 10h-224c-12 0 -20 9 -18 21l84 690c2 12 12 21 24 21h496c11 0 20 -9 18 -21l-11 -94c-2 -12 -12 -21 -24 -21h-349c-11 0 -22 -9 -23 -21l-15 -115c-1 -12 7 -21 19 -21h251c11 0 20 -9 18 -21l-11 -94c-2 -12 -12 -21 -24 -21h-251
c-11 0 -22 -9 -23 -21l-16 -124c-1 -12 7 -21 19 -21h348c11 0 20 -9 18 -21l-11 -95c-2 -12 -12 -21 -24 -21h-166c-5 0 -12 -4 -14 -8c-7 -13 -11 -26 -13 -41c-6 -50 18 -70 47 -70s52 10 72 29c7 6 20 9 26 4l39 -30c9 -7 9 -20 1 -29c-36 -39 -80 -64 -143 -64
c-85 0 -142 56 -131 143c2 21 8 40 16 56z" />
    <glyph glyph-name="eogonek" unicode="&#x119;" horiz-adv-x="560" 
d="M53 244c18 143 132 244 274 244c144 0 221 -103 204 -244l-3 -28c-2 -12 -12 -21 -24 -21h-292c-16 0 -24 -7 -21 -22c10 -39 47 -61 90 -61c38 0 75 9 109 28c8 5 23 4 29 -2l44 -50c8 -9 6 -21 -5 -30c-40 -30 -88 -49 -142 -55c-4 0 -13 -5 -15 -9
c-8 -13 -13 -28 -15 -43c-6 -50 18 -70 48 -70c28 0 51 10 71 29c7 6 20 9 26 4l39 -30c9 -7 10 -20 1 -29c-35 -39 -80 -64 -143 -64c-85 0 -141 56 -130 143c3 23 9 43 17 60c3 5 2 11 -3 12c-110 22 -174 115 -159 238zM313 376c-42 0 -90 -22 -104 -64
c-5 -14 2 -19 16 -19h156c14 0 22 5 21 19c-4 42 -47 64 -89 64z" />
    <glyph glyph-name="Ecaron" unicode="&#x11a;" horiz-adv-x="684" 
d="M598 21c-2 -12 -12 -21 -24 -21h-495c-12 0 -20 9 -18 21l84 690c2 12 12 21 24 21h496c11 0 20 -9 18 -21l-11 -94c-2 -12 -12 -21 -24 -21h-349c-11 0 -22 -9 -23 -21l-15 -115c-1 -12 7 -21 19 -21h251c11 0 20 -9 18 -21l-11 -94c-2 -12 -12 -21 -24 -21h-251
c-11 0 -22 -9 -23 -21l-16 -124c-1 -12 7 -21 19 -21h348c11 0 20 -9 18 -21zM452 810c-10 -10 -24 -10 -31 0l-106 139c-6 9 -4 22 6 30l15 13c8 6 20 7 27 2l77 -59c6 -4 17 -4 24 0l92 59c8 5 20 4 26 -2l13 -13c7 -8 6 -21 -2 -30z" />
    <glyph glyph-name="ecaron" unicode="&#x11b;" horiz-adv-x="560" 
d="M53 244c18 143 132 244 274 244c144 0 221 -103 204 -244l-3 -28c-2 -12 -12 -21 -24 -21h-292c-16 0 -24 -7 -21 -22c10 -39 47 -61 90 -61c38 0 75 9 109 28c8 5 23 4 29 -2l44 -50c8 -9 7 -21 -4 -29c-52 -40 -115 -59 -192 -59c-142 0 -231 102 -214 244zM313 376
c-42 0 -90 -22 -104 -64c-5 -14 2 -19 16 -19h156c14 0 22 5 21 19c-4 42 -47 64 -89 64zM360 566c-10 -10 -24 -10 -31 0l-106 139c-6 9 -4 22 6 30l15 13c8 6 20 7 27 2l77 -59c6 -4 17 -4 24 0l92 59c8 5 20 4 26 -2l13 -13c7 -8 7 -21 -2 -30z" />
    <glyph glyph-name="Gcircumflex" unicode="&#x11c;" horiz-adv-x="743" 
d="M66 368c20 205 210 364 410 364c97 0 178 -27 242 -83c9 -8 8 -21 -1 -30l-79 -77c-8 -7 -21 -9 -29 -3c-42 32 -93 47 -151 47c-129 -1 -230 -88 -246 -217c-15 -134 60 -223 193 -223c48 0 87 9 116 26c5 3 10 11 11 17l11 88c1 12 -7 21 -18 21h-56
c-12 0 -20 9 -19 21l11 90c2 12 12 21 24 21h202c11 0 20 -9 18 -21l-37 -301c0 -5 -4 -12 -7 -15c-81 -62 -173 -93 -275 -93c-203 -5 -352 164 -320 368zM329 817c-7 8 -6 21 3 29l140 139c10 10 24 10 32 0l106 -139c7 -9 4 -22 -6 -30l-16 -13c-7 -6 -19 -7 -26 -2
l-78 59c-5 4 -17 4 -23 0l-93 -59c-8 -5 -20 -4 -26 2z" />
    <glyph glyph-name="gcircumflex" unicode="&#x11d;" horiz-adv-x="559" 
d="M430 467c2 12 12 21 24 21h95c12 0 20 -9 18 -21l-52 -428c-18 -144 -120 -244 -275 -247c-85 -2 -150 23 -195 66c-8 8 -9 21 0 30l43 43c7 8 22 9 30 4c30 -19 66 -30 110 -33c85 -4 138 44 147 118l2 12c1 5 -3 9 -8 6c-38 -25 -79 -38 -123 -38
c-152 0 -213 97 -195 244c17 141 116 248 265 244c46 -3 80 -14 101 -33c5 -4 12 0 13 6v6zM276 113c75 0 132 57 141 130s-34 131 -109 131s-131 -58 -140 -131s33 -130 108 -130zM208 572c-8 8 -7 21 2 30l140 139c10 10 24 10 32 0l106 -139c7 -9 4 -22 -5 -30l-17 -13
c-7 -6 -19 -7 -26 -2l-77 59c-6 4 -18 4 -24 0l-92 -59c-8 -5 -20 -4 -26 2z" />
    <glyph glyph-name="Gbreve" unicode="&#x11e;" horiz-adv-x="743" 
d="M66 368c20 205 210 364 410 364c97 0 178 -27 242 -83c9 -8 8 -21 -1 -30l-79 -77c-8 -7 -21 -9 -29 -3c-42 32 -93 47 -151 47c-129 -1 -230 -88 -246 -217c-15 -134 60 -223 193 -223c48 0 87 9 116 26c5 3 10 11 11 17l11 88c1 12 -7 21 -18 21h-56
c-12 0 -20 9 -19 21l11 90c2 12 12 21 24 21h202c11 0 20 -9 18 -21l-37 -301c0 -5 -4 -12 -7 -15c-81 -62 -173 -93 -275 -93c-203 -5 -352 164 -320 368zM555 943c3 9 17 21 26 21h29c14 0 20 -10 17 -23c-19 -68 -83 -118 -155 -118c-71 0 -122 50 -125 118
c0 13 9 23 22 23h29c8 0 19 -12 20 -21c5 -31 28 -53 62 -53c36 0 64 22 75 53z" />
    <glyph glyph-name="gbreve" unicode="&#x11f;" horiz-adv-x="559" 
d="M430 467c2 12 12 21 24 21h95c12 0 20 -9 18 -21l-52 -428c-18 -144 -120 -244 -275 -247c-85 -2 -150 23 -195 66c-8 8 -9 21 0 30l43 43c7 8 22 9 30 4c30 -19 66 -30 110 -33c85 -4 138 44 147 118l2 12c1 5 -3 9 -8 6c-38 -25 -79 -38 -123 -38
c-152 0 -213 97 -195 244c17 141 116 248 265 244c46 -3 80 -14 101 -33c5 -4 12 0 13 6v6zM276 113c75 0 132 57 141 130s-34 131 -109 131s-131 -58 -140 -131s33 -130 108 -130zM433 699c3 9 17 21 26 21h28c14 0 20 -10 17 -23c-19 -68 -82 -118 -154 -118
s-122 50 -125 118c0 13 9 23 22 23h29c8 0 19 -12 20 -21c4 -31 27 -53 62 -53s64 22 75 53z" />
    <glyph glyph-name="Gdotaccent" unicode="&#x120;" horiz-adv-x="743" 
d="M66 368c20 205 210 364 410 364c97 0 178 -27 242 -83c9 -8 8 -21 -1 -30l-79 -77c-8 -7 -21 -9 -29 -3c-42 32 -93 47 -151 47c-129 -1 -230 -88 -246 -217c-15 -134 60 -223 193 -223c48 0 87 9 116 26c5 3 10 11 11 17l11 88c1 12 -7 21 -18 21h-56
c-12 0 -20 9 -19 21l11 90c2 12 12 21 24 21h202c11 0 20 -9 18 -21l-37 -301c0 -5 -4 -12 -7 -15c-81 -62 -173 -93 -275 -93c-203 -5 -352 164 -320 368zM476 844c-39 0 -66 28 -60 73c5 46 39 73 78 73s64 -28 59 -73c-6 -45 -38 -73 -77 -73z" />
    <glyph glyph-name="gdotaccent" unicode="&#x121;" horiz-adv-x="559" 
d="M430 467c2 12 12 21 24 21h95c12 0 20 -9 18 -21l-52 -428c-18 -144 -120 -244 -275 -247c-85 -2 -150 23 -195 66c-8 8 -9 21 0 30l43 43c7 8 22 9 30 4c30 -19 66 -30 110 -33c85 -4 138 44 147 118l2 12c1 5 -3 9 -8 6c-38 -25 -79 -38 -123 -38
c-152 0 -213 97 -195 244c17 141 116 248 265 244c46 -3 80 -14 101 -33c5 -4 12 0 13 6v6zM276 113c75 0 132 57 141 130s-34 131 -109 131s-131 -58 -140 -131s33 -130 108 -130zM353 600c-39 0 -66 28 -60 72c5 47 39 74 78 74s65 -28 60 -73c-6 -45 -39 -73 -78 -73z
" />
    <glyph glyph-name="Gcommaaccent" unicode="&#x122;" horiz-adv-x="743" 
d="M66 368c20 205 210 364 410 364c97 0 178 -27 242 -83c9 -8 8 -21 -1 -30l-79 -77c-8 -7 -21 -9 -29 -3c-42 32 -93 47 -151 47c-129 -1 -230 -88 -246 -217c-15 -134 60 -223 193 -223c48 0 87 9 116 26c5 3 10 11 11 17l11 88c1 12 -7 21 -18 21h-56
c-12 0 -20 9 -19 21l11 90c2 12 12 21 24 21h202c11 0 20 -9 18 -21l-37 -301c0 -5 -4 -12 -7 -15c-81 -62 -173 -93 -275 -93c-203 -5 -352 164 -320 368zM323 -344c-11 -6 -22 -3 -27 7l-6 13c-3 7 0 16 7 19c22 11 38 29 48 53h-5c-45 0 -69 29 -65 68c5 39 37 69 81 69
c47 0 70 -32 65 -71c-9 -71 -41 -124 -98 -158z" />
    <glyph glyph-name="gcommaaccent" unicode="&#x123;" horiz-adv-x="559" 
d="M430 467c2 12 12 21 24 21h95c12 0 20 -9 18 -21l-52 -428c-18 -144 -120 -244 -275 -247c-85 -2 -150 23 -195 66c-8 8 -9 21 0 30l43 43c7 8 22 9 30 4c30 -19 66 -30 110 -33c85 -4 138 44 147 118l2 12c1 5 -3 9 -8 6c-38 -25 -79 -38 -123 -38
c-152 0 -213 97 -195 244c17 141 116 248 265 244c46 -3 80 -14 101 -33c5 -4 12 0 13 6v6zM276 113c75 0 132 57 141 130s-34 131 -109 131s-131 -58 -140 -131s33 -130 108 -130zM385 811c11 6 23 3 27 -8l6 -14c3 -6 -1 -14 -7 -18c-21 -10 -37 -28 -49 -52h5
c45 0 71 -30 66 -69s-37 -68 -82 -68c-47 0 -70 31 -65 70c9 70 42 125 99 159z" />
    <glyph glyph-name="Hcircumflex" unicode="&#x124;" horiz-adv-x="792" 
d="M210 21c-2 -12 -12 -21 -24 -21h-105c-12 0 -20 9 -18 21l84 690c2 12 12 21 24 21h105c11 0 20 -9 18 -21l-31 -251c-1 -12 7 -21 19 -21h299c11 0 22 9 23 21l31 252c2 12 12 21 24 21h104c12 0 20 -9 18 -21l-84 -691c-2 -12 -12 -21 -24 -21h-104c-12 0 -20 9 -18 21
l32 261c1 12 -7 21 -19 21h-299c-11 0 -22 -9 -23 -21zM354 817c-7 8 -6 21 3 29l140 139c10 10 24 10 32 0l105 -139c7 -9 4 -22 -5 -30l-16 -13c-7 -6 -20 -7 -26 -2l-78 59c-5 4 -17 4 -23 0l-93 -59c-8 -5 -20 -4 -26 2z" />
    <glyph glyph-name="hcircumflex" unicode="&#x125;" horiz-adv-x="537" 
d="M232 336c-2 -2 -6 -10 -6 -13l-37 -302c-2 -12 -12 -21 -24 -21h-95c-12 0 -20 9 -18 21l84 690c2 12 12 21 24 21h95c11 0 20 -9 18 -21l-30 -245c-1 -8 9 -13 17 -8c31 20 65 30 103 30c113 0 180 -77 167 -185l-34 -282c-2 -12 -12 -21 -24 -21h-95
c-12 0 -20 9 -18 21l30 248c8 62 -17 100 -80 104h-5c-27 -2 -50 -15 -72 -37zM227 817c-8 8 -7 21 2 30l140 138c10 10 24 10 32 0l106 -139c7 -9 4 -22 -5 -30l-16 -13c-7 -6 -20 -7 -26 -2l-79 59c-5 4 -17 4 -23 0l-92 -59c-8 -5 -20 -4 -26 2z" />
    <glyph glyph-name="Hbar" unicode="&#x126;" horiz-adv-x="792" 
d="M210 21c-2 -12 -12 -21 -24 -21h-105c-12 0 -20 9 -18 21l84 690c2 12 12 21 24 21h105c11 0 20 -9 18 -21l-31 -251c-1 -12 7 -21 19 -21h299c11 0 22 9 23 21l31 252c2 12 12 21 24 21h104c12 0 20 -9 18 -21l-84 -691c-2 -12 -12 -21 -24 -21h-104c-12 0 -20 9 -18 21
l32 261c1 12 -7 21 -19 21h-299c-11 0 -22 -9 -23 -21zM660 881c-1 -12 -12 -21 -23 -21h-270c-12 0 -20 9 -19 21l5 36c1 12 12 21 23 21h270c12 0 20 -9 19 -21z" />
    <glyph glyph-name="hbar" unicode="&#x127;" horiz-adv-x="537" 
d="M115 538c1 12 -7 21 -18 21h-44c-12 0 -20 9 -19 21l5 36c1 12 12 21 23 21h44c12 0 22 9 24 21l6 53c2 12 12 21 24 21h95c11 0 20 -9 18 -21l-6 -53c-2 -12 7 -21 18 -21h47c12 0 20 -9 19 -21l-5 -36c-1 -12 -12 -21 -23 -21h-47c-12 0 -23 -9 -24 -21l-9 -72
c-1 -8 9 -13 17 -8c31 20 65 30 103 30c113 0 180 -77 167 -185l-34 -282c-2 -12 -12 -21 -24 -21h-95c-12 0 -20 9 -18 21l30 248c8 62 -17 100 -80 104h-5c-27 -2 -50 -15 -72 -37c-2 -2 -6 -10 -6 -13l-37 -302c-2 -12 -12 -21 -24 -21h-95c-12 0 -20 9 -18 21z" />
    <glyph glyph-name="Itilde" unicode="&#x128;" horiz-adv-x="293" 
d="M81 0c-12 0 -20 9 -18 21l84 691c2 12 12 21 24 21h104c12 0 20 -9 18 -21l-84 -691c-2 -12 -12 -21 -24 -21h-104zM125 850c-1 -9 -8 0 -17 0h-78c-13 0 -20 11 -17 24c38 144 179 164 278 84c50 -40 81 -38 87 -6l2 16c1 8 9 15 17 15h76c11 0 19 -13 17 -24
c-16 -148 -172 -193 -270 -105c-32 28 -54 40 -69 36c-21 -5 -25 -38 -26 -40z" />
    <glyph glyph-name="itilde" unicode="&#x129;" horiz-adv-x="256" 
d="M189 21c-2 -12 -12 -21 -24 -21h-95c-12 0 -20 9 -18 21l54 447c2 12 12 21 24 21h95c12 0 20 -9 18 -21zM76 605c-1 -10 -8 0 -18 0h-77c-13 0 -20 11 -17 24c38 145 180 165 279 85c49 -40 81 -38 86 -6l2 16c1 8 9 15 17 15h77c11 0 19 -13 17 -24
c-17 -148 -173 -193 -271 -106c-31 29 -53 40 -68 37c-22 -5 -26 -39 -27 -41z" />
    <glyph glyph-name="Imacron" unicode="&#x12a;" horiz-adv-x="293" 
d="M81 0c-12 0 -20 9 -18 21l84 691c2 12 12 21 24 21h104c12 0 20 -9 18 -21l-84 -691c-2 -12 -12 -21 -24 -21h-104zM411 881c-1 -12 -12 -21 -23 -21h-271c-12 0 -20 9 -19 21l5 36c1 12 12 21 23 21h271c12 0 20 -9 19 -21z" />
    <glyph glyph-name="imacron" unicode="&#x12b;" horiz-adv-x="256" 
d="M189 21c-2 -12 -12 -21 -24 -21h-95c-12 0 -20 9 -18 21l54 447c2 12 12 21 24 21h95c12 0 20 -9 18 -21zM362 637c-1 -12 -12 -21 -23 -21h-270c-12 0 -20 9 -19 21l5 36c1 12 12 21 23 21h270c12 0 20 -9 19 -21z" />
    <glyph glyph-name="Ibreve" unicode="&#x12c;" horiz-adv-x="293" 
d="M81 0c-12 0 -20 9 -18 21l84 691c2 12 12 21 24 21h104c12 0 20 -9 18 -21l-84 -691c-2 -12 -12 -21 -24 -21h-104zM330 943c3 9 17 21 26 21h29c14 0 20 -10 17 -23c-19 -68 -83 -118 -155 -118s-122 50 -125 118c0 13 9 23 22 23h29c8 0 19 -12 20 -21
c5 -31 28 -53 62 -53c35 0 63 22 75 53z" />
    <glyph glyph-name="ibreve" unicode="&#x12d;" horiz-adv-x="256" 
d="M189 21c-2 -12 -12 -21 -24 -21h-95c-12 0 -20 9 -18 21l54 447c2 12 12 21 24 21h95c12 0 20 -9 18 -21zM282 699c3 9 17 21 26 21h29c14 0 20 -10 17 -23c-19 -68 -83 -118 -155 -118s-122 50 -125 118c0 13 9 23 22 23h29c8 0 19 -12 20 -21c4 -31 27 -53 62 -53
s64 22 75 53z" />
    <glyph glyph-name="Iogonek" unicode="&#x12e;" horiz-adv-x="293" 
d="M56 -4c1 1 5 9 5 11l86 705c2 12 12 21 24 21h104c12 0 20 -9 18 -21l-84 -691c-2 -12 -12 -21 -24 -21h-28c-6 0 -15 -5 -18 -10c-12 -16 -19 -34 -22 -54c-6 -50 19 -70 49 -70c28 0 50 10 70 30c7 6 20 9 26 4l39 -31c9 -7 10 -19 1 -29c-35 -38 -80 -64 -143 -64
c-85 0 -141 56 -130 143c4 31 14 56 27 77z" />
    <glyph glyph-name="iogonek" unicode="&#x12f;" horiz-adv-x="256" 
d="M48 19c1 1 5 10 5 11l53 438c2 12 12 21 24 21h95c12 0 20 -9 18 -21l-54 -447c-2 -12 -12 -21 -24 -21h-34c-5 0 -12 -4 -14 -8c-8 -13 -12 -26 -14 -41c-6 -50 18 -70 48 -70c28 0 51 10 71 29c7 6 20 9 26 4l39 -30c9 -7 10 -20 1 -29c-35 -39 -80 -64 -143 -64
c-85 0 -142 56 -131 143c4 34 17 62 34 85zM118 605c5 40 37 69 81 69c47 0 70 -29 65 -69c-5 -39 -36 -68 -81 -68s-70 29 -65 68z" />
    <glyph glyph-name="Idotaccent" unicode="&#x130;" horiz-adv-x="293" 
d="M81 0c-12 0 -20 9 -18 21l84 691c2 12 12 21 24 21h104c12 0 20 -9 18 -21l-84 -691c-2 -12 -12 -21 -24 -21h-104zM250 844c-39 0 -65 28 -59 73c5 46 38 73 77 73c40 0 65 -28 60 -73c-6 -45 -38 -73 -78 -73z" />
    <glyph glyph-name="dotlessi" unicode="&#x131;" horiz-adv-x="256" 
d="M189 21c-2 -12 -12 -21 -24 -21h-95c-12 0 -20 9 -18 21l54 447c2 12 12 21 24 21h95c12 0 20 -9 18 -21z" />
    <glyph glyph-name="IJ" unicode="&#x132;" horiz-adv-x="708" 
d="M81 0c-12 0 -20 9 -18 21l84 691c2 12 12 21 24 21h104c12 0 20 -9 18 -21l-84 -691c-2 -12 -12 -21 -24 -21h-104zM331 116c2 12 12 21 24 21h27c66 3 102 38 111 107l57 467c2 12 12 21 24 21h105c11 0 20 -9 18 -21l-63 -516c-14 -116 -103 -195 -218 -195h-78
c-12 0 -20 9 -18 21z" />
    <glyph glyph-name="ij" unicode="&#x133;" horiz-adv-x="546" 
d="M189 21c-2 -12 -12 -21 -24 -21h-95c-12 0 -20 9 -18 21l54 447c2 12 12 21 24 21h95c12 0 20 -9 18 -21zM118 605c5 40 37 69 81 69c47 0 70 -29 65 -69c-5 -39 -36 -68 -81 -68s-70 29 -65 68zM172 -119c2 12 12 21 24 21h28c65 3 103 39 111 107l56 458
c2 12 12 21 24 21h95c12 0 20 -9 18 -21l-59 -482c-14 -114 -92 -195 -209 -195h-78c-11 0 -20 9 -18 21zM403 605c5 40 36 69 81 69c47 0 70 -29 65 -69c-5 -39 -36 -68 -81 -68s-70 29 -65 68z" />
    <glyph glyph-name="Jcircumflex" unicode="&#x134;" horiz-adv-x="415" 
d="M38 116c2 12 12 21 24 21h27c66 3 102 38 111 107l57 467c2 12 12 21 24 21h105c11 0 20 -9 18 -21l-63 -516c-14 -116 -103 -195 -218 -195h-78c-12 0 -20 9 -18 21zM204 817c-7 8 -6 21 3 29l140 139c10 10 24 10 32 0l106 -139c7 -9 4 -22 -6 -30l-16 -13
c-7 -6 -19 -7 -26 -2l-78 59c-5 4 -17 4 -23 0l-93 -59c-8 -5 -20 -4 -26 2z" />
    <glyph glyph-name="jcircumflex" unicode="&#x135;" horiz-adv-x="291" 
d="M-83 -119c2 12 12 21 24 21h27c65 3 103 39 111 107l56 458c2 12 12 21 24 21h95c12 0 20 -9 18 -21l-59 -482c-14 -114 -92 -195 -209 -195h-77c-11 0 -20 9 -18 21zM80 572c-8 8 -7 21 2 30l139 139c10 10 24 10 32 0l106 -139c7 -9 4 -22 -5 -30l-16 -13
c-7 -6 -20 -7 -26 -2l-78 59c-6 4 -18 4 -24 0l-92 -59c-8 -5 -20 -4 -26 2z" />
    <glyph glyph-name="Kcommaaccent" unicode="&#x136;" horiz-adv-x="705" 
d="M83 0c-12 0 -20 9 -18 21l84 690c2 12 12 21 24 21h104c11 0 20 -9 18 -21l-26 -214c-2 -20 20 -29 36 -13l230 240c3 4 13 8 17 8h110c19 0 26 -20 12 -35l-283 -292c-7 -8 -8 -20 -3 -28l262 -342c11 -14 0 -35 -20 -35h-135c-3 0 -12 4 -14 7l-203 267
c-11 15 -36 7 -38 -14l-29 -239c-2 -12 -12 -21 -24 -21h-104zM304 -344c-11 -6 -22 -3 -27 7l-6 14c-2 6 1 15 8 18c21 11 37 29 48 53h-5c-45 0 -70 29 -66 68c5 39 37 69 82 69c46 0 70 -32 65 -71c-9 -71 -42 -124 -99 -158z" />
    <glyph glyph-name="kcommaaccent" unicode="&#x137;" horiz-adv-x="586" 
d="M83 0c-12 0 -20 9 -18 21l84 690c2 12 12 21 24 21h104c11 0 20 -9 18 -21l-41 -334c-2 -21 21 -30 36 -14l111 117c3 4 13 8 17 8h110c19 0 26 -20 12 -34l-164 -171c-7 -8 -8 -20 -3 -28l163 -220c11 -15 -1 -35 -20 -35h-135c-4 0 -13 4 -15 8l-102 143
c-12 15 -37 7 -39 -14l-14 -116c-2 -12 -12 -21 -24 -21h-104zM245 -344c-11 -6 -22 -3 -27 7l-6 13c-3 7 0 16 7 19c22 11 38 29 48 53h-5c-45 0 -69 29 -65 68c5 39 37 69 81 69c47 0 70 -32 65 -71c-9 -71 -42 -124 -98 -158z" />
    <glyph glyph-name="Lacute" unicode="&#x139;" horiz-adv-x="659" 
d="M149 711c2 12 12 21 24 21h104c11 0 20 -9 18 -21l-68 -553c-1 -12 7 -21 19 -21h349c11 0 20 -9 18 -21l-11 -95c-2 -12 -12 -21 -24 -21h-495c-12 0 -20 9 -18 21zM369 807c-8 -6 -17 -3 -23 4l-11 12c-6 7 -6 20 1 28l125 142s3 2 3 3c24 18 51 8 66 -10
c16 -18 22 -48 0 -68c0 -1 -3 -3 -161 -111z" />
    <glyph glyph-name="lacute" unicode="&#x13a;" horiz-adv-x="280" 
d="M189 21c-2 -12 -12 -21 -24 -21h-95c-12 0 -20 9 -18 21l84 690c2 12 12 21 24 21h95c11 0 20 -9 18 -21zM184 807c-8 -6 -17 -3 -23 4l-11 12c-6 7 -6 20 1 28l125 142s3 2 3 3c24 18 51 8 66 -10c16 -18 22 -48 0 -68c-1 -1 -4 -3 -161 -111z" />
    <glyph glyph-name="Lcommaaccent" unicode="&#x13b;" horiz-adv-x="659" 
d="M149 711c2 12 12 21 24 21h104c11 0 20 -9 18 -21l-68 -553c-1 -12 7 -21 19 -21h349c11 0 20 -9 18 -21l-11 -95c-2 -12 -12 -21 -24 -21h-495c-12 0 -20 9 -18 21zM281 -344c-11 -6 -22 -3 -27 7l-6 14c-2 6 1 15 8 18c21 11 37 29 48 53h-5c-45 0 -70 29 -66 68
c5 39 37 69 82 69c46 0 70 -32 65 -71c-9 -71 -42 -124 -99 -158z" />
    <glyph glyph-name="lcommaaccent" unicode="&#x13c;" horiz-adv-x="280" 
d="M189 21c-2 -12 -12 -21 -24 -21h-95c-12 0 -20 9 -18 21l84 690c2 12 12 21 24 21h95c11 0 20 -9 18 -21zM92 -344c-11 -6 -22 -3 -27 7l-6 13c-3 7 0 16 7 19c21 11 37 28 48 51c1 1 0 2 -2 2h-3c-45 0 -69 29 -65 68c5 39 37 69 81 69c47 0 70 -32 65 -71
c-9 -71 -41 -124 -98 -158z" />
    <glyph glyph-name="Lcaron" unicode="&#x13d;" horiz-adv-x="659" 
d="M149 711c2 12 12 21 24 21h104c11 0 20 -9 18 -21l-68 -553c-1 -12 7 -21 19 -21h349c11 0 20 -9 18 -21l-11 -95c-2 -12 -12 -21 -24 -21h-495c-12 0 -20 9 -18 21zM533 548c-11 -7 -23 -4 -28 6l-6 14c-3 6 1 15 7 19c21 10 37 28 48 51c1 1 0 2 -1 2h-3
c-45 0 -70 29 -65 68s36 69 80 69c47 0 71 -31 66 -70c-9 -72 -41 -125 -98 -159z" />
    <glyph glyph-name="lcaron" unicode="&#x13e;" horiz-adv-x="585" 
d="M189 21c-2 -12 -12 -21 -24 -21h-95c-12 0 -20 9 -18 21l84 690c2 12 12 21 24 21h95c11 0 20 -9 18 -21zM460 548c-12 -7 -23 -4 -28 7l-6 14c-3 6 1 14 7 18c21 11 38 29 49 53h-5c-45 0 -70 29 -65 68s36 69 80 69c47 0 71 -31 66 -70c-9 -72 -42 -125 -98 -159z" />
    <glyph glyph-name="Ldot" unicode="&#x13f;" horiz-adv-x="659" 
d="M149 711c2 12 12 21 24 21h104c11 0 20 -9 18 -21l-68 -553c-1 -12 7 -21 19 -21h349c11 0 20 -9 18 -21l-11 -95c-2 -12 -12 -21 -24 -21h-495c-12 0 -20 9 -18 21zM484 555c-40 0 -65 28 -60 72c6 47 38 74 78 74c39 0 65 -28 59 -73c-5 -45 -38 -73 -77 -73z" />
    <glyph glyph-name="ldot" unicode="&#x140;" horiz-adv-x="510" 
d="M189 21c-2 -12 -12 -21 -24 -21h-95c-12 0 -20 9 -18 21l84 690c2 12 12 21 24 21h95c11 0 20 -9 18 -21zM418 555c-39 0 -65 28 -60 72c6 47 39 74 78 74s65 -28 59 -73c-5 -45 -38 -73 -77 -73z" />
    <glyph glyph-name="Lslash" unicode="&#x141;" horiz-adv-x="659" 
d="M149 711c2 12 12 21 24 21h104c11 0 20 -9 18 -21l-25 -203c-2 -17 14 -26 30 -18l35 19c11 6 24 3 28 -7l14 -32c5 -10 0 -23 -11 -28l-100 -54c-5 -3 -12 -12 -13 -18l-26 -212c-1 -12 7 -21 19 -21h349c11 0 20 -9 18 -21l-11 -95c-2 -12 -12 -21 -24 -21h-495
c-12 0 -20 9 -18 21l29 240c2 17 -13 27 -29 18l-30 -16c-10 -5 -23 -2 -27 8l-14 31c-5 10 0 23 11 29l93 50c6 3 12 12 13 18z" />
    <glyph glyph-name="lslash" unicode="&#x142;" horiz-adv-x="280" 
d="M189 21c-2 -12 -12 -21 -24 -21h-95c-12 0 -20 9 -18 21l30 244c2 17 -14 27 -30 18l-37 -20c-10 -5 -23 -2 -27 8l-14 31c-5 10 0 23 11 29l101 54c5 3 12 12 12 18l38 308c2 12 12 21 24 21h95c11 0 20 -9 18 -21l-25 -204c-2 -18 13 -27 30 -18l37 20c11 6 24 3 28 -7
l14 -32c5 -10 0 -23 -11 -28l-102 -56c-5 -3 -12 -12 -13 -18z" />
    <glyph glyph-name="Nacute" unicode="&#x143;" horiz-adv-x="806" 
d="M210 21c-2 -12 -12 -21 -24 -21h-105c-12 0 -20 9 -18 21l84 690c2 12 12 21 24 21h117c3 0 12 -4 14 -7l278 -334c12 -14 35 -5 38 14l37 306c2 12 12 21 24 21h104c11 0 20 -9 18 -21l-84 -690c-2 -12 -12 -21 -24 -21h-106c-12 0 -20 9 -18 21l12 104c1 3 -2 12 -4 14
l-275 337c-12 15 -36 6 -38 -14zM443 807c-8 -7 -17 -3 -23 4l-11 12c-6 7 -6 20 1 28l125 142s3 2 3 3c24 18 51 8 65 -10c16 -18 23 -48 1 -68c-1 -1 -4 -3 -161 -111z" />
    <glyph glyph-name="nacute" unicode="&#x144;" horiz-adv-x="559" 
d="M227 317c-1 -2 -4 -10 -4 -11l-35 -285c-2 -12 -12 -21 -24 -21h-95c-12 0 -20 9 -18 21l54 447c2 12 12 21 24 21h95c12 0 20 -9 18 -21v-2c-1 -8 9 -13 17 -8c31 20 65 30 103 30c113 0 180 -77 167 -185l-34 -282c-2 -12 -12 -21 -24 -21h-95c-12 0 -20 9 -18 21
l30 248c8 62 -17 100 -80 104h-7c-26 -3 -51 -22 -74 -56zM289 562c-8 -5 -17 -2 -23 5l-11 12c-6 7 -6 20 1 28l125 142s3 2 3 3c24 18 51 8 66 -10c16 -18 23 -48 1 -68c-1 -2 -5 -4 -162 -112z" />
    <glyph glyph-name="Ncommaaccent" unicode="&#x145;" horiz-adv-x="806" 
d="M210 21c-2 -12 -12 -21 -24 -21h-105c-12 0 -20 9 -18 21l84 690c2 12 12 21 24 21h117c3 0 12 -4 14 -7l278 -334c12 -14 35 -5 38 14l37 306c2 12 12 21 24 21h104c11 0 20 -9 18 -21l-84 -690c-2 -12 -12 -21 -24 -21h-106c-12 0 -20 9 -18 21l12 104c1 3 -2 12 -4 14
l-275 337c-12 15 -36 6 -38 -14zM354 -344c-11 -6 -22 -3 -27 7l-6 14c-2 6 1 15 8 18c21 11 37 29 48 53h-5c-45 0 -69 29 -65 68c5 39 36 69 81 69c47 0 70 -32 65 -71c-9 -71 -42 -124 -99 -158z" />
    <glyph glyph-name="ncommaaccent" unicode="&#x146;" horiz-adv-x="559" 
d="M227 317c-1 -2 -4 -10 -4 -11l-35 -285c-2 -12 -12 -21 -24 -21h-95c-12 0 -20 9 -18 21l54 447c2 12 12 21 24 21h95c12 0 20 -9 18 -21v-2c-1 -8 9 -13 17 -8c31 20 65 30 103 30c113 0 180 -77 167 -185l-34 -282c-2 -12 -12 -21 -24 -21h-95c-12 0 -20 9 -18 21
l30 248c8 62 -17 100 -80 104h-7c-26 -3 -51 -22 -74 -56zM231 -344c-11 -6 -22 -3 -27 7l-6 13c-3 7 0 16 7 19c21 11 37 28 48 51c1 1 0 2 -2 2h-3c-45 0 -69 29 -65 68c5 39 37 69 81 69c47 0 71 -32 66 -71c-9 -71 -42 -124 -99 -158z" />
    <glyph glyph-name="Ncaron" unicode="&#x147;" horiz-adv-x="806" 
d="M210 21c-2 -12 -12 -21 -24 -21h-105c-12 0 -20 9 -18 21l84 690c2 12 12 21 24 21h117c3 0 12 -4 14 -7l278 -334c12 -14 35 -5 38 14l37 306c2 12 12 21 24 21h104c11 0 20 -9 18 -21l-84 -690c-2 -12 -12 -21 -24 -21h-106c-12 0 -20 9 -18 21l12 104c1 3 -2 12 -4 14
l-275 337c-12 15 -36 6 -38 -14zM513 810c-10 -10 -24 -10 -31 0l-106 139c-6 9 -4 22 6 30l15 13c8 6 20 7 27 2l77 -59c6 -4 17 -4 24 0l92 59c8 5 20 4 26 -2l13 -13c7 -8 6 -21 -2 -30z" />
    <glyph glyph-name="ncaron" unicode="&#x148;" horiz-adv-x="559" 
d="M227 317c-1 -2 -4 -10 -4 -11l-35 -285c-2 -12 -12 -21 -24 -21h-95c-12 0 -20 9 -18 21l54 447c2 12 12 21 24 21h95c12 0 20 -9 18 -21v-2c-1 -8 9 -13 17 -8c31 20 65 30 103 30c113 0 180 -77 167 -185l-34 -282c-2 -12 -12 -21 -24 -21h-95c-12 0 -20 9 -18 21
l30 248c8 62 -17 100 -80 104h-7c-26 -3 -51 -22 -74 -56zM360 566c-10 -10 -24 -10 -31 0l-106 139c-7 9 -5 22 5 30l17 13c7 6 19 7 26 2l77 -59c6 -4 17 -4 24 0l92 59c7 5 19 4 25 -2l13 -13c8 -8 7 -21 -1 -30z" />
    <glyph glyph-name="napostrophe" unicode="&#x149;" horiz-adv-x="772" 
d="M439 317c-1 -2 -4 -10 -4 -11l-35 -285c-2 -12 -12 -21 -24 -21h-94c-12 0 -20 9 -18 21l54 447c2 12 12 21 24 21h94c12 0 20 -9 18 -21v-2c-1 -8 10 -13 17 -8c32 20 66 30 104 30c112 0 180 -77 167 -185l-34 -282c-2 -12 -12 -21 -24 -21h-95c-12 0 -20 9 -18 21
l30 248c8 62 -17 100 -80 104h-5c-28 -2 -53 -21 -77 -56zM162 376c-11 -7 -23 -4 -28 6l-6 14c-3 6 1 15 7 19c22 11 38 29 48 53h-5c-45 0 -69 29 -64 68s36 69 80 69c47 0 70 -31 66 -70c-9 -72 -42 -125 -98 -159z" />
    <glyph glyph-name="Eng" unicode="&#x14a;" horiz-adv-x="806" 
d="M406 -126c1 12 12 21 23 21h27c66 3 104 39 112 107l6 49c1 3 -2 12 -4 14l-276 349c-11 15 -35 6 -38 -14l-46 -379c-2 -12 -12 -21 -24 -21h-105c-12 0 -20 9 -18 21l84 690c2 12 12 21 24 21h58c3 0 12 -4 14 -7l327 -412c12 -15 36 -6 38 14l47 384c2 12 12 21 24 21
h104c11 0 20 -9 18 -21l-93 -758c-14 -116 -103 -195 -218 -195h-78c-11 0 -20 9 -18 21z" />
    <glyph glyph-name="eng" unicode="&#x14b;" horiz-adv-x="559" 
d="M189 -163c1 12 12 21 24 21h27c66 3 102 38 111 107l37 304c8 62 -17 100 -80 104h-7c-26 -3 -51 -22 -74 -56c-1 -2 -4 -10 -4 -11l-35 -285c-2 -12 -12 -21 -24 -21h-95c-12 0 -20 9 -18 21l54 447c2 12 12 21 24 21h95c12 0 20 -9 18 -21v-2c-1 -8 9 -13 17 -8
c31 20 65 30 103 30c113 0 180 -77 167 -185l-44 -363c-14 -114 -91 -194 -208 -194h-78c-12 0 -20 9 -19 21z" />
    <glyph glyph-name="Omacron" unicode="&#x14c;" horiz-adv-x="804" 
d="M68 366c25 207 204 366 411 366s346 -159 321 -366s-204 -366 -411 -366s-346 160 -321 366zM407 137c130 0 231 102 247 229c16 128 -61 230 -192 230s-232 -102 -248 -230s61 -229 193 -229zM666 881c-1 -12 -12 -21 -23 -21h-270c-12 0 -20 9 -19 21l5 36
c1 12 12 21 23 21h270c12 0 20 -9 19 -21z" />
    <glyph glyph-name="omacron" unicode="&#x14d;" horiz-adv-x="562" 
d="M51 244c17 141 138 249 280 249c141 0 235 -108 218 -249s-139 -249 -280 -249c-142 0 -235 109 -218 249zM283 113c75 0 132 57 141 131c9 73 -34 131 -109 131s-132 -59 -141 -131c-9 -74 34 -131 109 -131zM515 637c-1 -12 -12 -21 -23 -21h-270c-12 0 -20 9 -19 21
l5 36c1 12 12 21 23 21h270c12 0 20 -9 19 -21z" />
    <glyph glyph-name="Obreve" unicode="&#x14e;" horiz-adv-x="804" 
d="M68 366c25 207 204 366 411 366s346 -159 321 -366s-204 -366 -411 -366s-346 160 -321 366zM407 137c130 0 231 102 247 229c16 128 -61 230 -192 230s-232 -102 -248 -230s61 -229 193 -229zM586 943c3 9 17 21 26 21h28c14 0 20 -10 17 -23
c-19 -68 -82 -118 -154 -118s-122 50 -125 118c0 13 9 23 22 23h29c8 0 19 -12 20 -21c4 -31 27 -53 62 -53s63 22 75 53z" />
    <glyph glyph-name="obreve" unicode="&#x14f;" horiz-adv-x="562" 
d="M51 244c17 141 138 249 280 249c141 0 235 -108 218 -249s-139 -249 -280 -249c-142 0 -235 109 -218 249zM283 113c75 0 132 57 141 131c9 73 -34 131 -109 131s-132 -59 -141 -131c-9 -74 34 -131 109 -131zM435 699c3 9 17 21 26 21h28c14 0 20 -10 17 -23
c-19 -68 -82 -118 -154 -118s-122 50 -125 118c0 13 9 23 22 23h29c8 0 19 -12 20 -21c4 -31 27 -53 62 -53s64 22 75 53z" />
    <glyph glyph-name="Ohungarumlaut" unicode="&#x150;" horiz-adv-x="804" 
d="M68 366c25 207 204 366 411 366s346 -159 321 -366s-204 -366 -411 -366s-346 160 -321 366zM407 137c130 0 231 102 247 229c16 128 -61 230 -192 230s-232 -102 -248 -230s61 -229 193 -229zM341 807c-8 -7 -17 -3 -23 4l-11 12c-6 7 -6 20 1 28l125 142s3 2 3 3
c23 18 51 8 65 -10c16 -18 23 -48 1 -68c-1 -1 -4 -3 -161 -111zM543 807c-8 -7 -17 -3 -23 4l-11 12c-6 7 -6 20 1 28l125 142s3 2 3 3c24 18 51 8 66 -10c16 -18 22 -48 0 -68c-1 -1 -4 -3 -161 -111z" />
    <glyph glyph-name="ohungarumlaut" unicode="&#x151;" horiz-adv-x="562" 
d="M51 244c17 141 138 249 280 249c141 0 235 -108 218 -249s-139 -249 -280 -249c-142 0 -235 109 -218 249zM283 113c75 0 132 57 141 131c9 73 -34 131 -109 131s-132 -59 -141 -131c-9 -74 34 -131 109 -131zM190 562c-8 -6 -17 -2 -23 5l-11 12c-6 7 -6 20 1 28
l124 142s3 2 3 3c24 18 52 8 66 -10c16 -18 23 -48 1 -68c-1 -2 -5 -4 -161 -112zM392 562c-8 -6 -17 -2 -23 5l-11 12c-6 7 -6 20 1 28l125 142s3 2 3 3c24 18 51 8 65 -10c16 -18 23 -48 1 -68c-1 -2 -5 -4 -161 -112z" />
    <glyph glyph-name="OE" unicode="&#x152;" horiz-adv-x="968" 
d="M921 21c-2 -12 -12 -21 -24 -21h-508c-212 0 -346 166 -321 366c25 202 205 373 411 366h509c11 0 20 -9 18 -21l-11 -94c-2 -12 -12 -21 -24 -21h-350c-11 0 -22 -9 -23 -21l-15 -115c-1 -12 7 -21 19 -21h252c11 0 20 -9 18 -21l-11 -94c-2 -12 -12 -21 -24 -21h-252
c-11 0 -22 -9 -23 -21l-16 -124c-1 -12 7 -21 19 -21h349c11 0 20 -9 18 -21zM214 366c-15 -122 53 -214 166 -228c12 -1 19 8 21 21l50 414c2 13 -3 22 -16 20c-121 -15 -207 -110 -221 -227z" />
    <glyph glyph-name="oe" unicode="&#x153;" horiz-adv-x="924" 
d="M51 244c17 141 138 249 280 249c63 0 115 -19 161 -65c7 -6 25 -8 34 -1c54 42 110 61 175 61c144 0 221 -103 204 -244l-3 -28c-2 -12 -12 -21 -24 -21h-293c-16 0 -24 -7 -21 -22c10 -39 48 -61 91 -61c39 0 77 10 112 30c8 4 20 3 26 -4l44 -50c8 -9 7 -21 -4 -29
c-52 -40 -116 -59 -192 -59c-63 0 -121 19 -159 59c-7 7 -26 9 -35 2c-57 -47 -115 -66 -178 -66c-142 0 -235 109 -218 249zM283 113c75 0 132 57 141 131c9 73 -34 131 -109 131s-132 -59 -141 -131c-9 -74 34 -131 109 -131zM687 376c-42 0 -90 -22 -104 -64
c-5 -14 2 -19 16 -19h155c14 0 22 5 21 19c-4 42 -47 64 -88 64z" />
    <glyph glyph-name="Racute" unicode="&#x154;" horiz-adv-x="700" 
d="M567 329c-12 -5 -22 -21 -17 -32l120 -266c7 -15 -5 -31 -22 -31h-120c-6 0 -15 5 -17 10l-129 283c-2 5 -11 10 -17 10h-100c-11 0 -22 -9 -23 -21l-32 -261c-2 -12 -12 -21 -24 -21h-105c-12 0 -20 9 -18 21l84 690c2 12 12 21 24 21h298c171 0 248 -70 231 -211
c-12 -94 -56 -159 -133 -192zM302 605c-11 0 -22 -9 -23 -21l-17 -133c-1 -12 7 -21 19 -21h184c59 1 93 37 101 90c5 48 -21 83 -79 85h-185zM390 807c-8 -7 -17 -3 -23 4l-11 12c-6 7 -6 20 1 28l124 142s3 2 3 3c24 18 52 8 66 -10c16 -18 23 -48 1 -68
c-1 -1 -4 -3 -161 -111z" />
    <glyph glyph-name="racute" unicode="&#x155;" horiz-adv-x="389" 
d="M232 488c12 0 20 -9 18 -21l-1 -7c-1 -9 11 -13 19 -8c33 23 71 35 112 36c14 0 26 -1 39 -3c4 0 5 -4 4 -9l-29 -102c-4 -12 -19 -20 -30 -18c-52 7 -95 -9 -131 -51c-1 -2 -4 -8 -4 -11l-33 -273c-2 -12 -12 -21 -24 -21h-94c-12 0 -20 9 -18 21l54 446
c2 12 12 21 24 21h94zM204 562c-8 -6 -17 -2 -23 5l-11 12c-6 7 -6 20 1 28l125 142s3 2 3 3c24 18 51 8 65 -10c17 -18 23 -48 1 -68c-1 -2 -5 -4 -161 -112z" />
    <glyph glyph-name="Rcommaaccent" unicode="&#x156;" horiz-adv-x="700" 
d="M567 329c-12 -5 -22 -21 -17 -32l120 -266c7 -15 -5 -31 -22 -31h-120c-6 0 -15 5 -17 10l-129 283c-2 5 -11 10 -17 10h-100c-11 0 -22 -9 -23 -21l-32 -261c-2 -12 -12 -21 -24 -21h-105c-12 0 -20 9 -18 21l84 690c2 12 12 21 24 21h298c171 0 248 -70 231 -211
c-12 -94 -56 -159 -133 -192zM302 605c-11 0 -22 -9 -23 -21l-17 -133c-1 -12 7 -21 19 -21h184c59 1 93 37 101 90c5 48 -21 83 -79 85h-185zM301 -344c-11 -6 -22 -3 -27 7l-6 14c-2 6 1 15 8 18c21 11 37 29 48 53h-5c-45 0 -70 29 -66 68c5 39 37 69 82 69
c47 0 70 -32 65 -71c-9 -71 -42 -124 -99 -158z" />
    <glyph glyph-name="rcommaaccent" unicode="&#x157;" horiz-adv-x="389" 
d="M232 488c12 0 20 -9 18 -21l-1 -7c-1 -9 11 -13 19 -8c33 23 71 35 112 36c14 0 26 -1 39 -3c4 0 5 -4 4 -9l-29 -102c-4 -12 -19 -20 -30 -18c-52 7 -95 -9 -131 -51c-1 -2 -4 -8 -4 -11l-33 -273c-2 -12 -12 -21 -24 -21h-94c-12 0 -20 9 -18 21l54 446
c2 12 12 21 24 21h94zM146 -344c-11 -6 -22 -3 -27 7l-6 14c-2 6 1 15 8 18c20 11 36 28 47 51c1 1 0 2 -2 2h-3c-45 0 -69 29 -65 68c5 39 37 69 81 69c47 0 71 -32 66 -71c-9 -71 -42 -124 -99 -158z" />
    <glyph glyph-name="Rcaron" unicode="&#x158;" horiz-adv-x="700" 
d="M302 605c-11 0 -22 -9 -23 -21l-17 -133c-1 -12 7 -21 19 -21h184c59 1 93 37 101 90c5 48 -21 83 -79 85h-185zM567 329c-12 -5 -22 -21 -17 -32l120 -266c7 -15 -5 -31 -22 -31h-120c-6 0 -15 5 -17 10l-129 283c-2 5 -11 10 -17 10h-100c-11 0 -22 -9 -23 -21
l-32 -261c-2 -12 -12 -21 -24 -21h-105c-12 0 -20 9 -18 21l84 690c2 12 12 21 24 21h298c171 0 248 -70 231 -211c-12 -94 -56 -159 -133 -192zM460 810c-10 -10 -24 -10 -31 0l-107 139c-6 9 -4 22 6 30l16 13c8 6 20 7 27 2l77 -59c6 -4 17 -4 24 0l92 59c8 5 20 4 26 -2
l13 -13c7 -8 6 -21 -2 -30z" />
    <glyph glyph-name="rcaron" unicode="&#x159;" horiz-adv-x="389" 
d="M232 488c12 0 20 -9 18 -21l-1 -7c-1 -9 11 -13 19 -8c33 23 71 35 112 36c14 0 26 -1 39 -3c4 0 5 -4 4 -9l-29 -102c-4 -12 -19 -20 -30 -18c-52 7 -95 -9 -131 -51c-1 -2 -4 -8 -4 -11l-33 -273c-2 -12 -12 -21 -24 -21h-94c-12 0 -20 9 -18 21l54 446
c2 12 12 21 24 21h94zM275 566c-10 -10 -24 -10 -31 0l-106 139c-7 9 -5 22 5 30l17 13c7 6 19 7 26 2l77 -59c6 -4 17 -4 24 0l92 59c7 5 19 4 25 -2l13 -13c8 -8 7 -21 -1 -30z" />
    <glyph glyph-name="Sacute" unicode="&#x15a;" horiz-adv-x="642" 
d="M624 651c8 -8 8 -23 -1 -32l-75 -66c-9 -8 -25 -7 -32 0c-28 29 -67 43 -116 43c-160 0 -181 -132 -19 -157c127 -19 235 -76 216 -224c-16 -132 -172 -215 -295 -215c-112 0 -190 26 -258 90c-8 9 -9 23 1 32l74 67c9 7 25 7 33 0c30 -30 78 -47 143 -52
c179 -7 197 148 21 175c-115 19 -226 62 -208 206c15 128 165 214 280 214c114 0 170 -18 236 -81zM361 807c-8 -7 -17 -3 -23 4l-11 12c-6 7 -6 20 1 28l125 142s3 2 3 3c24 18 51 8 65 -10c16 -18 23 -48 1 -68c-1 -1 -4 -3 -161 -111z" />
    <glyph glyph-name="sacute" unicode="&#x15b;" horiz-adv-x="453" 
d="M434 439c8 -7 8 -20 -1 -29l-58 -58c-7 -6 -18 -6 -24 0c-18 18 -40 27 -67 27c-33 0 -56 -6 -69 -19c-25 -24 -6 -44 59 -57c99 -12 159 -49 145 -162c-12 -99 -111 -146 -200 -146c-82 0 -135 23 -173 60c-8 8 -7 19 2 28l59 57c6 6 18 5 24 0c19 -18 48 -29 86 -33
c44 -5 103 18 84 55c-6 12 -30 21 -74 25c-87 10 -154 45 -141 149c12 95 106 155 192 155c76 0 113 -11 156 -52zM236 562c-8 -5 -17 -2 -23 5l-11 12c-6 7 -6 20 1 28l125 142s3 2 3 3c24 18 51 8 66 -10c16 -18 22 -48 0 -68c-1 -2 -4 -4 -161 -112z" />
    <glyph glyph-name="Scircumflex" unicode="&#x15c;" horiz-adv-x="642" 
d="M624 651c8 -8 8 -23 -1 -32l-75 -66c-9 -8 -25 -7 -32 0c-28 29 -67 43 -116 43c-160 0 -181 -132 -19 -157c127 -19 235 -76 216 -224c-16 -132 -172 -215 -295 -215c-112 0 -190 26 -258 90c-8 9 -9 23 1 32l74 67c9 7 25 7 33 0c30 -30 78 -47 143 -52
c179 -7 197 148 21 175c-115 19 -226 62 -208 206c15 128 165 214 280 214c114 0 170 -18 236 -81zM279 817c-7 8 -6 21 2 29l140 139c10 10 24 10 32 0l106 -139c7 -9 4 -22 -5 -30l-16 -13c-7 -6 -20 -7 -26 -2l-79 59c-5 4 -17 4 -23 0l-92 -58c-8 -6 -20 -5 -26 1z" />
    <glyph glyph-name="scircumflex" unicode="&#x15d;" horiz-adv-x="453" 
d="M434 439c8 -7 8 -20 -1 -29l-58 -58c-7 -6 -18 -6 -24 0c-18 18 -40 27 -67 27c-33 0 -56 -6 -69 -19c-25 -24 -6 -44 59 -57c99 -12 159 -49 145 -162c-12 -99 -111 -146 -200 -146c-82 0 -135 23 -173 60c-8 8 -7 19 2 28l59 57c6 6 18 5 24 0c19 -18 48 -29 86 -33
c44 -5 103 18 84 55c-6 12 -30 21 -74 25c-87 10 -154 45 -141 149c12 95 106 155 192 155c76 0 113 -11 156 -52zM155 572c-8 8 -7 21 2 30l140 139c10 10 24 10 32 0l106 -139c7 -9 4 -22 -5 -30l-16 -13c-7 -6 -20 -7 -26 -2l-78 59c-6 4 -18 4 -24 0l-92 -59
c-8 -5 -20 -4 -26 2z" />
    <glyph glyph-name="Scedilla" unicode="&#x15e;" horiz-adv-x="642" 
d="M289 -200c-42 0 -73 26 -88 60c-5 11 0 22 12 27l40 19c5 2 12 0 15 -4c9 -13 19 -22 31 -22c14 0 31 12 33 27c1 13 -10 22 -29 28l-51 16c-13 4 -16 17 -9 28c8 11 5 23 -6 24c-80 9 -141 37 -195 90c-8 8 -7 20 3 29l74 67c9 7 25 7 33 0c30 -30 78 -47 143 -52
c179 -7 197 148 21 175c-115 19 -226 62 -208 206c15 128 165 214 280 214c114 0 170 -18 236 -81c8 -8 8 -23 -1 -32l-75 -66c-9 -8 -25 -7 -32 0c-28 29 -67 43 -116 43c-160 0 -181 -132 -19 -157c127 -19 235 -76 216 -224c-14 -114 -133 -192 -244 -211
c-1 0 -10 -3 -11 -3c-1 -2 0 -4 2 -4c49 -19 74 -48 69 -88c-8 -62 -67 -109 -124 -109z" />
    <glyph glyph-name="scedilla" unicode="&#x15f;" horiz-adv-x="453" 
d="M195 -200c-44 0 -76 28 -90 63c-4 11 2 19 13 24l41 19c5 2 12 0 15 -4c8 -13 19 -22 31 -22c14 0 31 12 33 27c1 13 -11 22 -29 28l-52 16c-12 4 -16 17 -9 28c7 10 4 22 -7 25c-41 10 -71 27 -96 51c-8 8 -5 19 3 28l59 57c6 6 18 5 24 0c19 -18 48 -29 86 -33
c44 -5 103 18 84 55c-6 12 -30 21 -74 25c-87 10 -154 45 -141 149c12 95 106 155 192 155c76 0 113 -11 156 -52c8 -7 8 -20 -1 -29l-58 -58c-7 -6 -18 -6 -24 0c-18 18 -40 27 -67 27c-33 0 -56 -6 -69 -19c-25 -24 -6 -44 59 -57c99 -12 159 -49 145 -162
c-9 -77 -71 -123 -141 -139c-6 -1 -11 -13 -6 -16c34 -18 51 -44 47 -77c-8 -62 -68 -109 -124 -109z" />
    <glyph glyph-name="Scaron" unicode="&#x160;" horiz-adv-x="642" 
d="M624 651c8 -8 8 -23 -1 -32l-75 -66c-9 -8 -25 -7 -32 0c-28 29 -67 43 -116 43c-160 0 -181 -132 -19 -157c127 -19 235 -76 216 -224c-16 -132 -172 -215 -295 -215c-112 0 -190 26 -258 90c-8 9 -9 23 1 32l74 67c9 7 25 7 33 0c30 -30 78 -47 143 -52
c179 -7 197 148 21 175c-115 19 -226 62 -208 206c15 128 165 214 280 214c114 0 170 -18 236 -81zM431 810c-10 -10 -24 -10 -31 0l-106 139c-6 9 -4 22 6 30l15 13c8 6 20 7 27 2l77 -59c6 -4 17 -4 24 0l92 59c8 5 20 4 26 -2l13 -13c7 -8 6 -21 -2 -30z" />
    <glyph glyph-name="scaron" unicode="&#x161;" horiz-adv-x="453" 
d="M434 439c8 -7 8 -20 -1 -29l-58 -58c-7 -6 -18 -6 -24 0c-18 18 -40 27 -67 27c-33 0 -56 -6 -69 -19c-25 -24 -6 -44 59 -57c99 -12 159 -49 145 -162c-12 -99 -111 -146 -200 -146c-82 0 -135 23 -173 60c-8 8 -7 19 2 28l59 57c6 6 18 5 24 0c19 -18 48 -29 86 -33
c44 -5 103 18 84 55c-6 12 -30 21 -74 25c-87 10 -154 45 -141 149c12 95 106 155 192 155c76 0 113 -11 156 -52zM307 566c-10 -10 -24 -10 -31 0l-106 139c-7 9 -5 22 5 30l17 13c7 6 19 7 26 2l77 -59c6 -4 17 -4 24 0l92 59c8 5 20 4 26 -2l13 -13c7 -8 7 -21 -2 -30z
" />
    <glyph glyph-name="Tcommaaccent" unicode="&#x162;" horiz-adv-x="707" 
d="M110 711c2 12 12 21 24 21h593c11 0 20 -9 18 -21l-11 -94c-2 -12 -12 -21 -24 -21h-202c-11 0 -22 -9 -23 -21l-68 -554c-2 -12 -12 -21 -24 -21h-105c-12 0 -20 9 -18 21l68 554c1 12 -7 21 -19 21h-202c-11 0 -20 9 -18 21zM305 -344c-11 -6 -22 -3 -27 7l-6 13
c-3 7 0 16 7 19c22 11 38 29 48 53h-5c-45 0 -69 29 -65 68c5 39 37 69 81 69c47 0 70 -32 65 -71c-9 -71 -41 -124 -98 -158z" />
    <glyph glyph-name="tcommaaccent" unicode="&#x163;" horiz-adv-x="384" 
d="M270 0c-103 0 -173 62 -161 166l24 190c1 12 -7 21 -19 21h-31c-11 0 -20 9 -18 21l8 69c2 12 12 21 24 21h31c12 0 22 9 23 21l13 105c2 12 12 21 24 21h95c12 0 20 -9 18 -21l-13 -105c-1 -12 7 -21 19 -21h41c12 0 20 -9 18 -21l-8 -69c-2 -12 -12 -21 -24 -21h-41
c-11 0 -22 -9 -23 -21l-21 -170c-7 -53 15 -71 50 -71c5 0 14 1 28 4c5 1 10 -2 10 -7l13 -75c2 -8 -2 -17 -10 -21c-22 -10 -46 -16 -70 -16zM143 -344c-11 -6 -22 -3 -27 7l-6 14c-2 6 1 15 8 18c21 11 37 29 48 53h-5c-45 0 -69 29 -65 68c5 39 36 69 81 69
c47 0 70 -32 65 -71c-9 -71 -42 -124 -99 -158z" />
    <glyph glyph-name="Tcaron" unicode="&#x164;" horiz-adv-x="707" 
d="M110 711c2 12 12 21 24 21h593c11 0 20 -9 18 -21l-11 -94c-2 -12 -12 -21 -24 -21h-202c-11 0 -22 -9 -23 -21l-68 -554c-2 -12 -12 -21 -24 -21h-105c-12 0 -20 9 -18 21l68 554c1 12 -7 21 -19 21h-202c-11 0 -20 9 -18 21zM464 810c-10 -10 -24 -10 -31 0l-107 139
c-6 9 -4 22 6 30l16 13c7 6 19 7 26 2l78 -59c6 -4 17 -4 24 0l91 59c8 5 20 4 26 -2l13 -13c7 -8 7 -21 -2 -30z" />
    <glyph glyph-name="tcaron" unicode="&#x165;" horiz-adv-x="689" 
d="M270 0c-103 0 -173 62 -161 166l24 190c1 12 -7 21 -19 21h-31c-11 0 -20 9 -18 21l8 69c2 12 12 21 24 21h31c12 0 22 9 23 21l13 105c2 12 12 21 24 21h95c12 0 20 -9 18 -21l-13 -105c-1 -12 7 -21 19 -21h41c12 0 20 -9 18 -21l-8 -69c-2 -12 -12 -21 -24 -21h-41
c-11 0 -22 -9 -23 -21l-21 -170c-7 -53 15 -71 50 -71c5 0 14 1 28 4c5 1 10 -2 10 -7l13 -75c2 -8 -2 -17 -10 -21c-22 -10 -46 -16 -70 -16zM564 548c-12 -7 -23 -4 -28 7l-5 14c-3 6 1 14 7 18c20 10 36 28 47 51c1 1 0 2 -1 2h-3c-44 0 -70 29 -65 68s36 69 80 69
c47 0 72 -31 67 -70c-9 -72 -42 -125 -99 -159z" />
    <glyph glyph-name="Tbar" unicode="&#x166;" horiz-adv-x="707" 
d="M305 312c2 12 -7 21 -18 21h-42c-12 0 -20 9 -19 21l5 36c1 12 12 21 23 21h42c12 0 23 9 24 21l18 143c1 12 -7 21 -19 21h-202c-11 0 -20 9 -18 21l11 94c2 12 12 21 24 21h593c11 0 20 -9 18 -21l-11 -94c-2 -12 -12 -21 -24 -21h-202c-11 0 -22 -9 -23 -21l-18 -143
c-1 -12 7 -21 18 -21h39c12 0 20 -9 19 -21l-5 -36c-1 -12 -12 -21 -23 -21h-39c-12 0 -22 -9 -24 -21l-35 -291c-2 -12 -12 -21 -24 -21h-105c-12 0 -20 9 -18 21z" />
    <glyph glyph-name="tbar" unicode="&#x167;" horiz-adv-x="384" 
d="M113 196c1 12 -7 21 -18 21h-46c-12 0 -20 9 -19 21l5 36c1 12 12 21 23 21h46c12 0 22 9 24 21l5 40c1 12 -7 21 -19 21h-31c-11 0 -20 9 -18 21l8 69c2 12 12 21 24 21h31c12 0 22 9 23 21l13 105c2 12 12 21 24 21h95c12 0 20 -9 18 -21l-13 -105c-1 -12 7 -21 19 -21
h41c12 0 20 -9 18 -21l-8 -69c-2 -12 -12 -21 -24 -21h-41c-11 0 -22 -9 -23 -21l-5 -40c-2 -12 7 -21 18 -21h46c12 0 20 -9 19 -21l-5 -36c-1 -12 -12 -21 -23 -21h-52c-8 0 -16 -7 -17 -15l-2 -16c-7 -53 15 -71 50 -71c5 0 14 1 28 4c5 1 10 -2 10 -7l13 -75
c2 -8 -2 -17 -10 -21c-22 -10 -46 -16 -70 -16c-103 0 -173 62 -161 166z" />
    <glyph glyph-name="Utilde" unicode="&#x168;" horiz-adv-x="782" 
d="M136 711c2 12 12 21 24 21h104c11 0 20 -9 18 -21l-49 -403c-13 -108 50 -162 151 -162s178 54 191 162l49 403c2 12 12 21 24 21h105c11 0 20 -9 18 -21l-54 -442c-20 -167 -190 -269 -351 -269c-160 0 -304 102 -284 269zM369 850c-1 -9 -8 0 -17 0h-78
c-13 0 -20 11 -17 24c38 144 179 164 278 84c50 -40 81 -38 87 -6l2 16c1 8 9 15 17 15h76c11 0 19 -13 17 -24c-16 -148 -172 -193 -270 -105c-32 28 -54 40 -68 36c-22 -5 -26 -38 -27 -40z" />
    <glyph glyph-name="utilde" unicode="&#x169;" horiz-adv-x="549" 
d="M361 168c1 1 4 9 4 10l35 290c2 12 12 21 24 21h95c12 0 20 -9 18 -21l-54 -447c-2 -12 -12 -21 -24 -21h-95c-12 0 -20 9 -18 21v1c1 9 -9 13 -17 8c-31 -20 -66 -30 -103 -30c-113 0 -180 78 -167 186l34 282c2 12 12 21 24 21h94c12 0 20 -9 18 -21l-30 -248
c-8 -63 18 -100 81 -104h7c26 3 51 20 74 52zM223 605c-1 -10 -8 0 -18 0h-77c-13 0 -20 11 -17 24c38 145 179 165 278 85c50 -40 81 -38 87 -6l2 16c1 8 9 15 17 15h76c11 0 19 -13 17 -24c-16 -148 -172 -193 -270 -106c-32 29 -54 40 -69 37c-21 -5 -25 -39 -26 -41z
" />
    <glyph glyph-name="Umacron" unicode="&#x16a;" horiz-adv-x="782" 
d="M136 711c2 12 12 21 24 21h104c11 0 20 -9 18 -21l-49 -403c-13 -108 50 -162 151 -162s178 54 191 162l49 403c2 12 12 21 24 21h105c11 0 20 -9 18 -21l-54 -442c-20 -167 -190 -269 -351 -269c-160 0 -304 102 -284 269zM655 881c-1 -12 -12 -21 -23 -21h-271
c-12 0 -20 9 -19 21l5 36c1 12 12 21 23 21h271c12 0 20 -9 19 -21z" />
    <glyph glyph-name="umacron" unicode="&#x16b;" horiz-adv-x="549" 
d="M361 168c1 1 4 9 4 10l35 290c2 12 12 21 24 21h95c12 0 20 -9 18 -21l-54 -447c-2 -12 -12 -21 -24 -21h-95c-12 0 -20 9 -18 21v1c1 9 -9 13 -17 8c-31 -20 -66 -30 -103 -30c-113 0 -180 78 -167 186l34 282c2 12 12 21 24 21h94c12 0 20 -9 18 -21l-30 -248
c-8 -63 18 -100 81 -104h7c26 3 51 20 74 52zM509 637c-1 -12 -12 -21 -23 -21h-271c-12 0 -20 9 -19 21l5 36c1 12 12 21 23 21h271c12 0 20 -9 19 -21z" />
    <glyph glyph-name="Ubreve" unicode="&#x16c;" horiz-adv-x="782" 
d="M136 711c2 12 12 21 24 21h104c11 0 20 -9 18 -21l-49 -403c-13 -108 50 -162 151 -162s178 54 191 162l49 403c2 12 12 21 24 21h105c11 0 20 -9 18 -21l-54 -442c-20 -167 -190 -269 -351 -269c-160 0 -304 102 -284 269zM574 943c3 9 17 21 26 21h29
c14 0 20 -10 17 -23c-19 -68 -82 -118 -154 -118s-122 50 -125 118c0 13 9 23 22 23h29c8 0 19 -12 20 -21c4 -31 27 -53 62 -53s63 22 74 53z" />
    <glyph glyph-name="ubreve" unicode="&#x16d;" horiz-adv-x="549" 
d="M361 168c1 1 4 9 4 10l35 290c2 12 12 21 24 21h95c12 0 20 -9 18 -21l-54 -447c-2 -12 -12 -21 -24 -21h-95c-12 0 -20 9 -18 21v1c1 9 -9 13 -17 8c-31 -20 -66 -30 -103 -30c-113 0 -180 78 -167 186l34 282c2 12 12 21 24 21h94c12 0 20 -9 18 -21l-30 -248
c-8 -63 18 -100 81 -104h7c26 3 51 20 74 52zM428 699c3 9 17 21 26 21h29c14 0 20 -10 17 -23c-19 -68 -83 -118 -155 -118c-71 0 -122 50 -125 118c0 13 9 23 22 23h30c8 0 19 -12 20 -21c4 -31 27 -53 61 -53c36 0 64 22 75 53z" />
    <glyph glyph-name="Uring" unicode="&#x16e;" horiz-adv-x="782" 
d="M136 711c2 12 12 21 24 21h104c11 0 20 -9 18 -21l-49 -403c-13 -108 50 -162 151 -162s178 54 191 162l49 403c2 12 12 21 24 21h105c11 0 20 -9 18 -21l-54 -442c-20 -167 -190 -269 -351 -269c-160 0 -304 102 -284 269zM490 804c-60 0 -101 44 -93 112
c9 72 60 114 120 114s100 -44 92 -113c-9 -69 -59 -113 -119 -113zM498 875c22 0 40 16 44 42c3 26 -11 41 -33 41c-23 0 -41 -15 -44 -41c-4 -26 10 -42 33 -42z" />
    <glyph glyph-name="uring" unicode="&#x16f;" horiz-adv-x="549" 
d="M361 168c1 1 4 9 4 10l35 290c2 12 12 21 24 21h95c12 0 20 -9 18 -21l-54 -447c-2 -12 -12 -21 -24 -21h-95c-12 0 -20 9 -18 21v1c1 9 -9 13 -17 8c-31 -20 -66 -30 -103 -30c-113 0 -180 78 -167 186l34 282c2 12 12 21 24 21h94c12 0 20 -9 18 -21l-30 -248
c-8 -63 18 -100 81 -104h7c26 3 51 20 74 52zM344 560c-61 0 -101 44 -92 112c8 72 59 114 120 114c60 0 99 -44 91 -113c-9 -69 -59 -113 -119 -113zM351 631c22 0 41 16 45 42c3 26 -12 41 -34 41s-41 -15 -44 -42c-4 -25 11 -41 33 -41z" />
    <glyph glyph-name="Uhungarumlaut" unicode="&#x170;" horiz-adv-x="782" 
d="M136 711c2 12 12 21 24 21h104c11 0 20 -9 18 -21l-49 -403c-13 -108 50 -162 151 -162s178 54 191 162l49 403c2 12 12 21 24 21h105c11 0 20 -9 18 -21l-54 -442c-20 -167 -190 -269 -351 -269c-160 0 -304 102 -284 269zM532 807c-8 -7 -17 -3 -23 4l-11 12
c-6 7 -6 20 1 28l124 142s3 2 3 3c24 18 52 8 66 -10c16 -18 23 -48 1 -68c-1 -1 -4 -3 -161 -111zM330 807c-8 -7 -17 -3 -23 4l-11 12c-6 7 -6 20 1 28l124 142s3 2 3 3c24 18 52 8 66 -10c16 -18 23 -48 1 -68c-1 -1 -4 -3 -161 -111z" />
    <glyph glyph-name="uhungarumlaut" unicode="&#x171;" horiz-adv-x="549" 
d="M361 168c1 1 4 9 4 10l35 290c2 12 12 21 24 21h95c12 0 20 -9 18 -21l-54 -447c-2 -12 -12 -21 -24 -21h-95c-12 0 -20 9 -18 21v1c1 9 -9 13 -17 8c-31 -20 -66 -30 -103 -30c-113 0 -180 78 -167 186l34 282c2 12 12 21 24 21h94c12 0 20 -9 18 -21l-30 -248
c-8 -63 18 -100 81 -104h7c26 3 51 20 74 52zM386 562c-8 -6 -17 -2 -23 5l-11 12c-6 7 -6 20 1 28l124 142s3 2 3 3c24 18 51 8 66 -10c16 -18 23 -48 1 -68c-1 -2 -5 -4 -161 -112zM184 562c-8 -5 -17 -2 -23 5l-12 12c-6 7 -5 20 2 28l124 142s3 2 3 3c24 18 51 8 66 -10
c16 -18 23 -48 1 -68c-1 -2 -5 -4 -161 -112z" />
    <glyph glyph-name="Uogonek" unicode="&#x172;" horiz-adv-x="782" 
d="M136 711c2 12 12 21 24 21h104c11 0 20 -9 18 -21l-49 -403c-13 -108 50 -162 151 -162s178 54 191 162l49 403c2 12 12 21 24 21h105c11 0 20 -9 18 -21l-54 -442c-14 -114 -98 -198 -201 -240c-1 0 -10 -5 -11 -6c-19 -21 -34 -45 -37 -72c-6 -50 18 -70 48 -70
c28 0 51 10 71 29c7 6 20 9 26 4l40 -30c9 -7 10 -20 1 -29c-36 -39 -81 -64 -143 -64c-86 0 -142 56 -131 143c3 23 9 44 18 61c1 3 1 6 -1 6c-10 -1 -21 -1 -31 -1c-160 0 -304 102 -284 269z" />
    <glyph glyph-name="uogonek" unicode="&#x173;" horiz-adv-x="549" 
d="M361 168c1 1 4 9 4 10l35 290c2 12 12 21 24 21h95c12 0 20 -9 18 -21l-54 -447c-2 -12 -12 -21 -24 -21h-95c-12 0 -20 9 -18 21l1 12c1 5 -5 6 -9 4c-12 -10 -25 -17 -40 -23c-2 0 -9 -6 -11 -8c-12 -16 -19 -34 -22 -55c-6 -50 17 -70 47 -70c28 0 52 10 72 29
c6 6 20 9 26 4l39 -30c9 -7 9 -20 1 -29c-36 -39 -81 -64 -143 -64c-85 0 -142 56 -131 143c3 22 9 42 17 58c2 5 3 10 -2 11c-91 15 -144 86 -132 183l34 282c2 12 12 21 24 21h94c12 0 20 -9 18 -21l-30 -248c-8 -63 18 -100 81 -104h7c26 3 51 20 74 52z" />
    <glyph glyph-name="Wcircumflex" unicode="&#x174;" horiz-adv-x="1042" 
d="M574 482c0 4 -4 7 -8 7s-9 -3 -11 -7l-190 -467c-3 -8 -13 -15 -22 -15h-115c-8 0 -17 7 -18 16l-99 690c-2 14 9 26 23 26h113c8 0 17 -7 18 -16l61 -424c0 -4 5 -8 9 -8c5 0 10 4 12 8l169 425c3 8 13 15 22 15h119c8 0 17 -7 18 -16l62 -425c0 -4 4 -7 8 -7s9 3 11 7
l165 425c3 9 13 16 22 16h114c14 0 22 -12 17 -26l-270 -690c-3 -9 -14 -16 -22 -16h-114c-9 0 -17 7 -18 15zM479 817c-7 8 -6 21 3 29l140 139c10 10 24 10 32 0l105 -139c7 -9 4 -22 -5 -30l-16 -13c-7 -6 -20 -7 -26 -2l-78 59c-5 4 -17 4 -23 0l-93 -59
c-8 -5 -20 -4 -26 2z" />
    <glyph glyph-name="wcircumflex" unicode="&#x175;" horiz-adv-x="713" 
d="M428 0c-9 0 -17 7 -19 15l-29 163c-4 20 -32 20 -40 0l-69 -163c-3 -8 -13 -15 -22 -15h-90c-8 0 -17 7 -18 16l-65 447c-2 14 9 26 23 26h86c8 0 17 -7 18 -16l27 -194c3 -21 32 -21 40 0l74 194c3 9 14 16 22 16h68c9 0 18 -7 19 -16l22 -195c2 -21 32 -22 40 -1
l75 196c3 9 14 16 22 16h85c14 0 22 -12 17 -26l-174 -447c-3 -9 -14 -16 -22 -16h-90zM285 572c-8 8 -7 21 2 30l140 139c10 10 24 10 32 0l106 -139c7 -9 4 -22 -5 -30l-17 -13c-7 -6 -19 -7 -26 -2l-77 59c-6 4 -18 4 -24 0l-92 -59c-8 -5 -20 -4 -26 2z" />
    <glyph glyph-name="Ycircumflex" unicode="&#x176;" horiz-adv-x="749" 
d="M330 359c0 2 -1 11 -2 13l-201 327c-9 14 3 33 21 33h120c5 0 14 -5 16 -9l122 -206c7 -13 23 -13 34 0l176 206c3 4 13 9 18 9h115c19 0 26 -19 13 -33l-280 -327c-2 -2 -6 -11 -6 -13l-41 -338c-2 -12 -12 -21 -24 -21h-104c-12 0 -20 9 -18 21zM333 817
c-8 8 -7 21 2 30l140 138c10 10 24 10 32 0l106 -139c7 -9 4 -22 -6 -30l-16 -13c-7 -6 -19 -7 -26 -2l-77 59c-6 4 -18 4 -24 0l-92 -59c-8 -5 -20 -4 -26 2z" />
    <glyph glyph-name="ycircumflex" unicode="&#x177;" horiz-adv-x="551" 
d="M218 -197c-3 -7 -14 -13 -21 -13h-90c-16 0 -24 14 -16 28l87 175c2 2 3 12 2 14l-106 453c-3 15 8 28 24 28h94c8 0 17 -7 18 -14l61 -239c5 -19 30 -19 40 0l121 240c4 6 14 13 21 13h94c16 0 24 -14 16 -29zM204 572c-8 8 -7 21 2 30l140 139c10 10 24 10 32 0
l106 -139c7 -9 4 -22 -5 -30l-17 -13c-7 -6 -19 -7 -26 -2l-77 59c-6 4 -18 4 -24 0l-92 -59c-8 -5 -20 -4 -26 2z" />
    <glyph glyph-name="Ydieresis" unicode="&#x178;" horiz-adv-x="749" 
d="M330 359c0 2 -1 11 -2 13l-201 327c-9 14 3 33 21 33h120c5 0 14 -5 16 -9l122 -206c7 -13 23 -13 34 0l176 206c3 4 13 9 18 9h115c19 0 26 -19 13 -33l-280 -327c-2 -2 -6 -11 -6 -13l-41 -338c-2 -12 -12 -21 -24 -21h-104c-12 0 -20 9 -18 21zM614 844
c-39 0 -66 28 -61 72c6 47 40 74 79 74s65 -28 60 -73c-6 -45 -39 -73 -78 -73zM343 844c-39 0 -66 28 -60 73c5 46 39 73 78 73s64 -28 59 -73c-6 -45 -38 -73 -77 -73z" />
    <glyph glyph-name="Zacute" unicode="&#x179;" horiz-adv-x="720" 
d="M630 137c11 0 20 -9 18 -21l-11 -95c-2 -12 -12 -21 -24 -21h-544c-12 0 -20 9 -18 21l2 22c0 2 4 10 5 11l381 510c11 15 4 32 -14 32h-283c-11 0 -20 9 -18 21l11 94c2 12 12 21 24 21h544c11 0 20 -9 18 -21l-3 -26c0 -2 -3 -10 -4 -11l-381 -505
c-11 -15 -4 -32 14 -32h283zM400 807c-8 -7 -17 -3 -23 4l-11 12c-6 7 -6 20 1 28l125 142s3 2 3 3c24 18 51 8 65 -10c17 -18 23 -48 1 -68c-1 -1 -4 -3 -161 -111z" />
    <glyph glyph-name="zacute" unicode="&#x17a;" horiz-adv-x="495" 
d="M425 115c12 0 20 -9 19 -21l-9 -73c-2 -12 -12 -21 -24 -21h-352c-10 0 -16 7 -15 17l1 10c1 2 4 10 5 11l218 302c11 15 3 32 -14 32h-145c-12 0 -20 9 -19 21l9 73c2 12 12 21 24 21h351c10 0 17 -8 16 -17l-2 -12c0 -2 -3 -10 -4 -11l-219 -300c-11 -15 -3 -32 14 -32
h146zM257 562c-8 -5 -17 -2 -23 5l-11 12c-6 7 -6 20 1 28l125 142s3 2 3 3c24 18 51 8 66 -10c16 -18 22 -48 0 -68c-1 -2 -4 -4 -161 -112z" />
    <glyph glyph-name="Zdotaccent" unicode="&#x17b;" horiz-adv-x="720" 
d="M630 137c11 0 20 -9 18 -21l-11 -95c-2 -12 -12 -21 -24 -21h-544c-12 0 -20 9 -18 21l2 22c0 2 4 10 5 11l381 510c11 15 4 32 -14 32h-283c-11 0 -20 9 -18 21l11 94c2 12 12 21 24 21h544c11 0 20 -9 18 -21l-3 -26c0 -2 -3 -10 -4 -11l-381 -505
c-11 -15 -4 -32 14 -32h283zM464 844c-39 0 -65 28 -59 73c5 46 38 73 77 73s65 -28 60 -73c-6 -45 -39 -73 -78 -73z" />
    <glyph glyph-name="zdotaccent" unicode="&#x17c;" horiz-adv-x="495" 
d="M425 115c12 0 20 -9 19 -21l-9 -73c-2 -12 -12 -21 -24 -21h-352c-10 0 -16 7 -15 17l1 10c1 2 4 10 5 11l218 302c11 15 3 32 -14 32h-145c-12 0 -20 9 -19 21l9 73c2 12 12 21 24 21h351c10 0 17 -8 16 -17l-2 -12c0 -2 -3 -10 -4 -11l-219 -300c-11 -15 -3 -32 14 -32
h146zM322 600c-40 0 -66 28 -60 72c5 47 38 74 78 74c39 0 64 -28 59 -73c-6 -45 -38 -73 -77 -73z" />
    <glyph glyph-name="Zcaron" unicode="&#x17d;" horiz-adv-x="720" 
d="M630 137c11 0 20 -9 18 -21l-11 -95c-2 -12 -12 -21 -24 -21h-544c-12 0 -20 9 -18 21l2 22c0 2 4 10 5 11l381 510c11 15 4 32 -14 32h-283c-11 0 -20 9 -18 21l11 94c2 12 12 21 24 21h544c11 0 20 -9 18 -21l-3 -26c0 -2 -3 -10 -4 -11l-381 -505
c-11 -15 -4 -32 14 -32h283zM470 810c-10 -10 -24 -10 -31 0l-106 139c-6 9 -4 22 6 30l15 13c8 6 20 7 27 2l77 -59c6 -4 17 -4 24 0l92 59c8 5 20 4 26 -2l13 -13c7 -8 6 -21 -2 -30z" />
    <glyph glyph-name="zcaron" unicode="&#x17e;" horiz-adv-x="495" 
d="M425 115c12 0 20 -9 19 -21l-9 -73c-2 -12 -12 -21 -24 -21h-352c-10 0 -16 7 -15 17l1 10c1 2 4 10 5 11l218 302c11 15 3 32 -14 32h-145c-12 0 -20 9 -19 21l9 73c2 12 12 21 24 21h351c10 0 17 -8 16 -17l-2 -12c0 -2 -3 -10 -4 -11l-219 -300c-11 -15 -3 -32 14 -32
h146zM328 566c-10 -10 -24 -10 -31 0l-107 139c-6 9 -4 22 6 30l16 13c7 6 19 7 26 2l78 -59c6 -4 17 -4 24 0l92 59c7 5 19 4 25 -2l13 -13c8 -8 7 -21 -1 -30z" />
    <glyph glyph-name="longs" unicode="&#x17f;" horiz-adv-x="377" 
d="M212 21c-2 -12 -12 -21 -24 -21h-95c-12 0 -20 9 -18 21l42 349c2 12 -6 21 -18 21h-31c-12 0 -20 9 -18 21l8 68c1 12 12 21 24 21h31c11 0 22 9 23 21l5 44c13 104 98 166 201 166c50 0 89 -12 117 -35c9 -7 8 -19 -1 -28l-63 -61c-2 -2 -7 -2 -9 0c-9 7 -23 10 -42 10
c-35 0 -61 -19 -68 -71z" />
    <glyph glyph-name="AEacute" unicode="&#x1fc;" horiz-adv-x="998" 
d="M932 21c-2 -12 -12 -21 -24 -21h-495c-12 0 -20 9 -18 21l8 70c2 12 -7 21 -18 21h-135c-7 0 -18 -6 -21 -13l-44 -86c-4 -7 -14 -13 -21 -13h-112c-16 0 -24 14 -16 29l361 690c4 7 14 13 21 13h581c11 0 20 -9 18 -21l-11 -94c-2 -12 -12 -21 -24 -21h-350
c-11 0 -22 -9 -23 -21l-15 -115c-1 -12 7 -21 19 -21h252c11 0 20 -9 18 -21l-11 -94c-2 -12 -12 -21 -24 -21h-252c-11 0 -22 -9 -23 -21l-16 -124c-1 -12 7 -21 19 -21h349c11 0 20 -9 18 -21zM539 807c-8 -7 -17 -3 -23 4l-11 12c-6 7 -6 20 1 28l124 142s3 2 3 3
c24 18 52 8 66 -10c16 -18 23 -48 1 -68c-1 -1 -4 -3 -161 -111zM403 259c11 0 22 9 23 21l19 149c2 22 -29 28 -40 8l-78 -149c-8 -15 0 -29 16 -29h60z" />
    <glyph glyph-name="Oslashacute" unicode="&#x1fe;" horiz-adv-x="804" 
d="M329 4c-6 1 -14 -3 -17 -9l-18 -37c-4 -7 -14 -14 -21 -14h-64c-16 0 -23 13 -16 28l23 50c5 9 0 22 -7 26c-101 63 -158 180 -141 318c25 207 204 366 411 366c23 0 45 -2 67 -6c6 -1 16 4 19 10l17 34c3 7 13 14 21 14h64c16 0 24 -14 16 -28l-24 -50
c-4 -9 0 -22 7 -27c97 -63 151 -178 134 -313c-25 -207 -204 -366 -411 -366c-21 0 -41 1 -60 4zM462 596c-131 0 -232 -102 -248 -230c-9 -73 12 -137 55 -179c11 -10 25 -6 32 9l191 392c2 3 1 5 -2 6c-9 1 -18 2 -28 2zM407 137c130 0 231 102 247 229
c8 69 -10 131 -50 173c-11 11 -24 6 -31 -9l-189 -388c-1 -2 0 -4 2 -4c7 -1 13 -1 21 -1zM442 807c-8 -7 -17 -3 -23 4l-11 12c-6 7 -6 20 1 28l125 142s3 2 3 3c24 18 51 8 65 -10c17 -18 23 -48 1 -68c-1 -1 -4 -3 -161 -111z" />
    <glyph glyph-name="oslashacute" unicode="&#x1ff;" horiz-adv-x="562" 
d="M226 -1c-5 0 -11 -3 -13 -7l-13 -28c-4 -7 -14 -14 -22 -14h-31c-16 0 -24 14 -16 28l14 29c4 8 -1 22 -8 27c-64 45 -97 122 -86 210c18 145 142 249 280 249c13 0 26 -1 39 -3c4 -1 11 2 13 6l12 26c4 7 14 14 22 14h32c15 0 23 -14 16 -28l-12 -26c-5 -8 0 -22 7 -27
c65 -44 100 -122 89 -211c-18 -144 -143 -249 -280 -249c-15 0 -29 1 -43 4zM291 562c-8 -6 -17 -2 -23 5l-11 12c-6 7 -6 20 1 28l125 142s3 2 3 3c23 18 51 8 65 -10c16 -18 23 -48 1 -68c-1 -2 -5 -4 -161 -112zM282 113h1c75 0 132 61 141 131c4 35 -5 68 -24 91
c-6 9 -17 6 -22 -4l-103 -212c-1 -3 0 -5 3 -5zM316 375h-1c-75 0 -133 -63 -141 -131c-5 -37 4 -69 22 -92c6 -8 16 -6 21 4l104 214c1 2 0 4 -2 5h-3z" />
    <glyph glyph-name="Scommaaccent" unicode="&#x218;" horiz-adv-x="642" 
d="M624 651c8 -8 8 -23 -1 -32l-75 -66c-9 -8 -25 -7 -32 0c-28 29 -67 43 -116 43c-160 0 -181 -132 -19 -157c127 -19 235 -76 216 -224c-16 -132 -172 -215 -295 -215c-112 0 -190 26 -258 90c-8 9 -9 23 1 32l74 67c9 7 25 7 33 0c30 -30 78 -47 143 -52
c179 -7 197 148 21 175c-115 19 -226 62 -208 206c15 128 165 214 280 214c114 0 170 -18 236 -81zM272 -344c-11 -6 -22 -3 -27 7l-6 14c-2 6 1 15 8 18c21 11 37 29 48 53h-5c-45 0 -69 29 -65 68c5 39 36 69 81 69c47 0 70 -32 65 -71c-9 -71 -42 -124 -99 -158z" />
    <glyph glyph-name="scommaaccent" unicode="&#x219;" horiz-adv-x="453" 
d="M434 439c8 -7 8 -20 -1 -29l-58 -58c-7 -6 -18 -6 -24 0c-18 18 -40 27 -67 27c-33 0 -56 -6 -69 -19c-25 -24 -6 -44 59 -57c99 -12 159 -49 145 -162c-12 -99 -111 -146 -200 -146c-82 0 -135 23 -173 60c-8 8 -7 19 2 28l59 57c6 6 18 5 24 0c19 -18 48 -29 86 -33
c44 -5 103 18 84 55c-6 12 -30 21 -74 25c-87 10 -154 45 -141 149c12 95 106 155 192 155c76 0 113 -11 156 -52zM178 -344c-11 -6 -22 -3 -27 7l-6 14c-2 6 1 15 8 18c21 11 37 29 48 53h-5c-45 0 -70 29 -66 68c5 39 37 69 82 69c46 0 70 -32 65 -71
c-9 -71 -42 -124 -99 -158z" />
    <glyph glyph-name="circumflex" unicode="&#x2c6;" horiz-adv-x="306" 
d="M81 572c-8 8 -7 21 2 30l140 139c10 10 24 10 32 0l106 -139c7 -9 4 -22 -5 -30l-17 -13c-7 -6 -19 -7 -26 -2l-77 59c-6 4 -18 4 -24 0l-92 -59c-8 -5 -20 -4 -26 2z" />
    <glyph glyph-name="caron" unicode="&#x2c7;" horiz-adv-x="306" 
d="M233 566c-10 -10 -24 -10 -31 0l-106 139c-7 9 -5 22 5 30l17 13c7 6 19 7 26 2l77 -59c6 -4 17 -4 24 0l92 59c7 5 19 4 25 -2l13 -13c8 -8 7 -21 -1 -30z" />
    <glyph glyph-name="breve" unicode="&#x2d8;" horiz-adv-x="286" 
d="M298 699c3 9 17 21 26 21h29c14 0 20 -10 17 -23c-19 -68 -83 -118 -155 -118s-122 50 -125 118c0 13 9 23 22 23h29c8 0 19 -12 20 -21c5 -31 28 -53 62 -53c36 0 64 22 75 53z" />
    <glyph glyph-name="dotaccent" unicode="&#x2d9;" horiz-adv-x="137" 
d="M143 600c-39 0 -66 28 -60 72c5 47 39 74 78 74s64 -28 59 -73c-6 -45 -38 -73 -77 -73z" />
    <glyph glyph-name="ring" unicode="&#x2da;" horiz-adv-x="211" 
d="M175 560c-61 0 -101 44 -92 112c8 72 59 114 120 114c60 0 99 -44 91 -113c-9 -69 -59 -113 -119 -113zM182 631c22 0 41 16 45 42c3 26 -12 41 -34 41s-41 -15 -44 -42c-4 -25 11 -41 33 -41z" />
    <glyph glyph-name="ogonek" unicode="&#x2db;" horiz-adv-x="288" 
d="M96 85c8 5 19 3 24 -3l12 -13c7 -8 4 -22 -5 -29c-28 -24 -50 -54 -54 -89c-6 -50 17 -70 47 -70c28 0 52 10 72 29c6 6 20 9 26 4l39 -30c9 -7 9 -20 1 -29c-36 -39 -81 -64 -143 -64c-85 0 -142 56 -131 143c10 82 67 126 112 151z" />
    <glyph glyph-name="tilde" unicode="&#x2dc;" horiz-adv-x="478" 
d="M202 605c-1 -10 -8 0 -18 0h-77c-13 0 -20 11 -17 24c38 145 179 165 278 85c50 -40 81 -38 87 -6l2 16c1 8 9 15 17 15h76c11 0 19 -13 17 -24c-16 -148 -172 -193 -270 -106c-32 29 -54 40 -69 37c-21 -5 -25 -39 -26 -41z" />
    <glyph glyph-name="hungarumlaut" unicode="&#x2dd;" horiz-adv-x="404" 
d="M113 562c-8 -6 -17 -2 -23 5l-11 12c-6 7 -6 20 1 28l125 142s3 2 3 3c24 18 51 8 66 -10c16 -18 22 -48 0 -68c-1 -2 -5 -4 -161 -112zM315 562c-8 -5 -17 -2 -23 5l-11 12c-6 7 -6 20 1 28l125 142s3 2 3 3c24 18 51 8 66 -10c16 -18 23 -48 1 -68
c-1 -2 -5 -4 -162 -112z" />
    <glyph glyph-name="Wgrave" unicode="&#x1e80;" horiz-adv-x="1042" 
d="M574 482c0 4 -4 7 -8 7s-9 -3 -11 -7l-190 -467c-3 -8 -13 -15 -22 -15h-115c-8 0 -17 7 -18 16l-99 690c-2 14 9 26 23 26h113c8 0 17 -7 18 -16l61 -424c0 -4 5 -8 9 -8c5 0 10 4 12 8l169 425c3 8 13 15 22 15h119c8 0 17 -7 18 -16l62 -425c0 -4 4 -7 8 -7s9 3 11 7
l165 425c3 9 13 16 22 16h114c14 0 22 -12 17 -26l-270 -690c-3 -9 -14 -16 -22 -16h-114c-9 0 -17 7 -18 15zM722 851c5 -8 3 -21 -5 -28l-13 -12c-8 -7 -18 -11 -25 -4c-130 108 -132 110 -133 111c-18 20 -4 50 16 68s49 28 68 10l3 -3z" />
    <glyph glyph-name="wgrave" unicode="&#x1e81;" horiz-adv-x="713" 
d="M428 0c-9 0 -17 7 -19 15l-29 163c-4 20 -32 20 -40 0l-69 -163c-3 -8 -13 -15 -22 -15h-90c-8 0 -17 7 -18 16l-65 447c-2 14 9 26 23 26h86c8 0 17 -7 18 -16l27 -194c3 -21 32 -21 40 0l74 194c3 9 14 16 22 16h68c9 0 18 -7 19 -16l22 -195c2 -21 32 -22 40 -1
l75 196c3 9 14 16 22 16h85c14 0 22 -12 17 -26l-174 -447c-3 -9 -14 -16 -22 -16h-90zM528 607c5 -8 2 -21 -6 -28l-13 -12c-8 -7 -18 -11 -25 -5c-130 108 -133 110 -133 112c-18 20 -3 50 17 68c19 18 49 28 69 10c0 -1 2 -3 2 -3z" />
    <glyph glyph-name="Wacute" unicode="&#x1e82;" horiz-adv-x="1042" 
d="M574 482c0 4 -4 7 -8 7s-9 -3 -11 -7l-190 -467c-3 -8 -13 -15 -22 -15h-115c-8 0 -17 7 -18 16l-99 690c-2 14 9 26 23 26h113c8 0 17 -7 18 -16l61 -424c0 -4 5 -8 9 -8c5 0 10 4 12 8l169 425c3 8 13 15 22 15h119c8 0 17 -7 18 -16l62 -425c0 -4 4 -7 8 -7s9 3 11 7
l165 425c3 9 13 16 22 16h114c14 0 22 -12 17 -26l-270 -690c-3 -9 -14 -16 -22 -16h-114c-9 0 -17 7 -18 15zM561 807c-8 -7 -17 -3 -23 4l-11 12c-6 7 -6 20 1 28l124 142s3 2 3 3c24 18 52 8 66 -10c16 -18 23 -48 1 -68c-1 -1 -4 -3 -161 -111z" />
    <glyph glyph-name="wacute" unicode="&#x1e83;" horiz-adv-x="713" 
d="M428 0c-9 0 -17 7 -19 15l-29 163c-4 20 -32 20 -40 0l-69 -163c-3 -8 -13 -15 -22 -15h-90c-8 0 -17 7 -18 16l-65 447c-2 14 9 26 23 26h86c8 0 17 -7 18 -16l27 -194c3 -21 32 -21 40 0l74 194c3 9 14 16 22 16h68c9 0 18 -7 19 -16l22 -195c2 -21 32 -22 40 -1
l75 196c3 9 14 16 22 16h85c14 0 22 -12 17 -26l-174 -447c-3 -9 -14 -16 -22 -16h-90zM366 562c-8 -6 -17 -2 -23 5l-11 12c-6 7 -6 20 1 28l125 142s3 2 3 3c24 18 51 8 66 -10c16 -18 22 -48 0 -68c-1 -2 -5 -4 -161 -112z" />
    <glyph glyph-name="Wdieresis" unicode="&#x1e84;" horiz-adv-x="1042" 
d="M574 482c0 4 -4 7 -8 7s-9 -3 -11 -7l-190 -467c-3 -8 -13 -15 -22 -15h-115c-8 0 -17 7 -18 16l-99 690c-2 14 9 26 23 26h113c8 0 17 -7 18 -16l61 -424c0 -4 5 -8 9 -8c5 0 10 4 12 8l169 425c3 8 13 15 22 15h119c8 0 17 -7 18 -16l62 -425c0 -4 4 -7 8 -7s9 3 11 7
l165 425c3 9 13 16 22 16h114c14 0 22 -12 17 -26l-270 -690c-3 -9 -14 -16 -22 -16h-114c-9 0 -17 7 -18 15zM761 844c-39 0 -66 28 -61 72c6 47 40 74 79 74s64 -28 59 -73c-6 -45 -38 -73 -77 -73zM489 844c-39 0 -66 28 -60 73c5 46 39 73 78 73s65 -28 60 -73
c-6 -45 -39 -73 -78 -73z" />
    <glyph glyph-name="wdieresis" unicode="&#x1e85;" horiz-adv-x="713" 
d="M428 0c-9 0 -17 7 -19 15l-29 163c-4 20 -32 20 -40 0l-69 -163c-3 -8 -13 -15 -22 -15h-90c-8 0 -17 7 -18 16l-65 447c-2 14 9 26 23 26h86c8 0 17 -7 18 -16l27 -194c3 -21 32 -21 40 0l74 194c3 9 14 16 22 16h68c9 0 18 -7 19 -16l22 -195c2 -21 32 -22 40 -1
l75 196c3 9 14 16 22 16h85c14 0 22 -12 17 -26l-174 -447c-3 -9 -14 -16 -22 -16h-90zM566 600c-39 0 -66 27 -60 72c5 47 39 74 78 74s65 -28 60 -73c-6 -45 -39 -73 -78 -73zM295 600c-39 0 -66 28 -60 72c5 47 39 74 78 74s64 -28 59 -73c-6 -45 -38 -73 -77 -73z" />
    <glyph glyph-name="Ygrave" unicode="&#x1ef2;" horiz-adv-x="749" 
d="M330 359c0 2 -1 11 -2 13l-201 327c-9 14 3 33 21 33h120c5 0 14 -5 16 -9l122 -206c7 -13 23 -13 34 0l176 206c3 4 13 9 18 9h115c19 0 26 -19 13 -33l-280 -327c-2 -2 -6 -11 -6 -13l-41 -338c-2 -12 -12 -21 -24 -21h-104c-12 0 -20 9 -18 21zM576 851
c5 -8 2 -21 -6 -28l-13 -12c-8 -7 -18 -11 -25 -4c-130 108 -132 110 -133 111c-18 20 -3 50 17 68c19 18 49 28 68 10l3 -3z" />
    <glyph glyph-name="ygrave" unicode="&#x1ef3;" horiz-adv-x="551" 
d="M218 -197c-3 -7 -14 -13 -21 -13h-90c-16 0 -24 14 -16 28l87 175c2 2 3 12 2 14l-106 453c-3 15 8 28 24 28h94c8 0 17 -7 18 -14l61 -239c5 -19 30 -19 40 0l121 240c4 6 14 13 21 13h94c16 0 24 -14 16 -29zM447 607c5 -8 2 -21 -6 -28l-13 -12c-8 -7 -18 -11 -25 -5
c-130 108 -133 110 -133 112c-18 20 -3 50 17 68c19 18 49 28 69 10c0 -1 2 -3 2 -3z" />
    <glyph glyph-name="endash" unicode="&#x2013;" horiz-adv-x="541" 
d="M541 216c-2 -12 -12 -21 -24 -21h-445c-12 0 -20 9 -18 21l4 36c1 12 12 21 24 21h445c11 0 19 -9 18 -21z" />
    <glyph glyph-name="emdash" unicode="&#x2014;" horiz-adv-x="1000" 
d="M1027 216c-2 -12 -12 -21 -24 -21h-958c-12 0 -20 9 -18 21l4 36c1 12 12 21 24 21h958c11 0 19 -9 18 -21z" />
    <glyph glyph-name="quoteleft" unicode="&#x2018;" horiz-adv-x="305" 
d="M285 766c11 7 22 4 27 -7l7 -14c2 -6 -2 -14 -8 -18c-21 -11 -38 -29 -48 -53h5c45 0 69 -29 64 -68c-4 -39 -36 -69 -80 -69c-47 0 -70 32 -65 71c8 71 42 124 98 158z" />
    <glyph glyph-name="quoteright" unicode="&#x2019;" horiz-adv-x="305" 
d="M180 548c-11 -7 -23 -4 -28 6l-6 14c-3 6 1 15 7 19c21 10 37 28 48 51c1 1 0 2 -1 2h-3c-45 0 -70 29 -65 68s36 69 80 69c47 0 71 -31 66 -70c-9 -72 -41 -125 -98 -159z" />
    <glyph glyph-name="quotesinglbase" unicode="&#x201a;" horiz-adv-x="305" 
d="M159 -92c-11 -7 -23 -4 -27 7l-6 14c-3 6 1 15 8 18c21 11 37 29 48 53h-5c-45 0 -69 29 -65 68c5 39 36 69 81 69c47 0 70 -31 65 -70c-9 -72 -42 -125 -99 -159z" />
    <glyph glyph-name="quotedblleft" unicode="&#x201c;" horiz-adv-x="481" 
d="M285 766c11 7 22 4 27 -7l7 -14c2 -6 -2 -14 -8 -18c-21 -11 -38 -29 -48 -53h5c45 0 69 -29 64 -68c-4 -39 -36 -69 -80 -69c-47 0 -70 32 -65 71c8 71 42 124 98 158zM467 766c11 7 22 4 27 -7l6 -14c2 -6 -2 -14 -8 -18c-21 -11 -37 -29 -48 -53h5c45 0 69 -29 64 -68
c-4 -39 -35 -69 -80 -69c-47 0 -70 32 -65 71c8 71 42 124 99 158z" />
    <glyph glyph-name="quotedblright" unicode="&#x201d;" horiz-adv-x="481" 
d="M359 548c-12 -7 -23 -4 -28 7l-5 14c-3 6 1 14 7 18c21 11 37 29 49 53h-5c-45 0 -70 29 -65 68s35 69 80 69c47 0 71 -31 66 -70c-9 -72 -42 -125 -99 -159zM178 548c-12 -7 -23 -4 -28 7l-5 14c-3 6 1 14 7 18c21 11 37 29 49 53h-5c-45 0 -71 29 -66 68s36 69 81 69
c47 0 71 -31 66 -70c-9 -72 -42 -125 -99 -159z" />
    <glyph glyph-name="quotedblbase" unicode="&#x201e;" horiz-adv-x="481" 
d="M334 -102c-11 -7 -23 -4 -28 6l-6 14c-3 6 1 15 8 19c21 11 37 29 48 53h-5c-45 0 -70 29 -65 68s37 69 81 69c47 0 70 -31 65 -70c-9 -72 -41 -125 -98 -159zM152 -102c-11 -7 -23 -4 -27 7l-6 14c-3 6 1 14 7 18c21 11 38 29 49 53h-5c-45 0 -70 29 -65 68s36 69 81 69
c47 0 70 -31 65 -70c-9 -72 -42 -125 -99 -159z" />
    <glyph glyph-name="bullet" unicode="&#x2022;" horiz-adv-x="284" 
d="M89 364c6 48 45 84 99 84c57 0 86 -36 80 -84s-45 -83 -99 -83c-55 0 -86 35 -80 83z" />
    <glyph glyph-name="ellipsis" unicode="&#x2026;" horiz-adv-x="1000" 
d="M106 68c5 39 36 69 81 69c47 0 70 -30 65 -69c-4 -39 -36 -68 -81 -68s-69 29 -65 68zM447 68c5 39 37 69 81 69c47 0 70 -30 65 -69c-4 -39 -36 -68 -81 -68s-69 29 -65 68zM790 68c5 39 37 69 81 69c47 0 70 -30 65 -69c-4 -39 -36 -68 -81 -68s-69 29 -65 68z" />
    <glyph glyph-name="perthousand" unicode="&#x2030;" horiz-adv-x="1360" 
d="M299 11c-3 -5 -13 -11 -19 -11h-72c-17 0 -25 16 -14 31l476 690c3 5 13 11 19 11h71c17 0 25 -16 14 -31zM97 554c13 104 103 184 206 184c104 0 174 -80 161 -184c-13 -103 -102 -183 -206 -183c-103 0 -174 80 -161 183zM267 458c55 0 99 43 105 97
c7 54 -26 96 -82 96c-54 0 -97 -42 -104 -96c-6 -54 26 -97 81 -97zM505 178c13 103 101 182 205 182c103 0 173 -79 160 -182s-101 -182 -204 -182c-104 0 -174 79 -161 182zM673 84c54 0 96 41 103 95c6 52 -26 94 -79 94s-97 -43 -103 -94c-7 -54 25 -95 79 -95zM950 178
c13 103 101 182 204 182s173 -79 160 -182s-101 -182 -204 -182s-173 79 -160 182zM1117 84c55 0 96 41 103 95c6 52 -25 94 -79 94c-53 0 -96 -43 -102 -94c-7 -54 24 -95 78 -95z" />
    <glyph glyph-name="guilsinglleft" unicode="&#x2039;" horiz-adv-x="330" 
d="M275 81c-3 0 -11 3 -13 5l-133 132c-8 9 -6 23 4 32l165 132c2 2 12 5 15 5h4c6 0 11 -5 10 -11v-5c-1 -2 -5 -11 -6 -13l-100 -111c-6 -7 -7 -19 -3 -26l72 -111c1 -2 3 -11 3 -13l-1 -4c0 -7 -6 -12 -13 -12h-4z" />
    <glyph glyph-name="guilsinglright" unicode="&#x203a;" horiz-adv-x="330" 
d="M258 250c9 -9 7 -23 -4 -32l-164 -132c-3 -2 -12 -5 -15 -5h-5c-6 0 -10 5 -10 12l1 4c0 2 4 11 6 13l99 111c6 7 8 19 3 26l-72 111c-1 2 -3 11 -2 13v5c1 6 7 11 13 11h5c2 0 11 -3 13 -5z" />
    <glyph glyph-name="fraction" unicode="&#x2044;" horiz-adv-x="167" 
d="M-46 3c-4 -7 -14 -13 -21 -13h-7c-11 0 -16 10 -10 19l383 688c4 7 14 13 21 13h7c10 0 15 -9 10 -19z" />
    <glyph glyph-name="Euro" unicode="&#x20ac;" horiz-adv-x="732" 
d="M54 438c1 12 12 21 23 21h22c8 0 18 6 22 14c23 58 60 110 110 154c79 70 170 105 274 105c96 0 177 -27 242 -83c9 -8 8 -21 -2 -30l-79 -77c-8 -7 -21 -8 -29 -3c-42 32 -92 47 -150 47c-66 0 -122 -21 -167 -61c-17 -17 -33 -35 -45 -54c-3 -6 -1 -12 6 -12h242
c12 0 20 -9 19 -21l-3 -26c-2 -12 -12 -21 -24 -21h-267c-2 0 -4 -3 -5 -5c-1 -6 -2 -11 -3 -17c-1 -8 -1 -15 -2 -23c0 -2 2 -4 4 -4h267c12 0 20 -9 18 -21l-3 -26c-1 -12 -12 -21 -23 -21h-241c-8 0 -13 -6 -10 -13c7 -20 18 -38 31 -54c37 -40 87 -61 153 -61
c58 0 112 16 161 48c9 6 22 4 28 -4l60 -76c8 -9 5 -22 -6 -30c-78 -56 -166 -84 -262 -84c-104 0 -187 36 -248 105c-39 44 -63 96 -72 155c-2 8 -11 14 -19 14h-21c-12 0 -20 9 -19 21l3 26c2 12 12 21 24 21h15c7 0 14 6 15 13l1 13l2 12c0 6 -4 11 -10 11h-17
c-12 0 -20 9 -18 21z" />
    <glyph glyph-name="estimated" unicode="&#x212e;" horiz-adv-x="560" 
d="M53 244c18 143 132 244 274 244c144 0 221 -103 204 -244l-3 -28c-2 -12 -12 -21 -24 -21h-238c-12 0 -22 -9 -24 -21l-5 -45c-1 -5 1 -9 5 -10c12 -5 25 -7 39 -7c38 0 75 9 109 28c8 5 23 4 29 -2l44 -50c8 -9 7 -21 -4 -29c-52 -40 -115 -59 -192 -59
c-142 0 -231 102 -214 244zM313 376c-14 0 -28 -2 -41 -7c-4 -1 -6 -5 -7 -10l-5 -45c-2 -12 6 -21 18 -21h53c12 0 22 9 24 21l5 43c0 4 -3 10 -7 12c-12 5 -26 7 -40 7z" />
    <glyph glyph-name="minus" unicode="&#x2212;" horiz-adv-x="541" 
d="M543 332c-2 -12 -12 -21 -24 -21h-421c-11 0 -20 9 -18 21l4 36c2 12 12 21 24 21h421c11 0 20 -9 18 -21z" />
    <glyph glyph-name="commaaccent" horiz-adv-x="342" 
d="M122 -344c-11 -6 -22 -3 -27 7l-6 14c-2 6 1 15 8 18c21 11 38 29 48 53h-5c-45 0 -69 29 -65 68c5 39 36 69 81 69c47 0 70 -32 65 -71c-9 -71 -42 -124 -99 -158z" />
    <glyph glyph-name="f_f" unicode="&#xfb00;" horiz-adv-x="754" 
d="M589 21c-2 -12 -12 -21 -24 -21h-95c-12 0 -20 9 -18 21l42 349c2 12 -6 21 -18 21h-198c-12 0 -22 -9 -24 -21l-42 -349c-2 -12 -12 -21 -24 -21h-95c-12 0 -20 9 -18 21l42 349c2 12 -6 21 -18 21h-31c-12 0 -20 9 -18 21l8 68c1 12 12 21 24 21h31c11 0 22 9 23 21
l5 44c13 104 98 166 201 166c50 0 89 -12 117 -35c9 -7 8 -19 -1 -28l-63 -61c-2 -2 -7 -2 -9 0c-9 7 -23 10 -42 10c-35 0 -61 -19 -68 -71l-3 -25c-1 -12 7 -21 19 -21h198c11 0 22 9 23 21l5 44c13 104 98 166 201 166c50 0 89 -12 117 -35c9 -7 8 -19 -1 -28l-63 -61
c-2 -2 -7 -2 -9 0c-9 7 -23 10 -42 10c-35 0 -61 -19 -68 -71l-3 -25c-1 -12 7 -21 19 -21h31c11 0 19 -9 18 -21l-8 -68c-2 -12 -12 -21 -24 -21h-31c-12 0 -22 -9 -24 -21z" />
    <glyph glyph-name="fi" unicode="&#xfb01;" horiz-adv-x="633" 
d="M565 21c-2 -12 -12 -21 -24 -21h-94c-12 0 -20 9 -18 21l42 349c2 12 -6 21 -18 21h-175c-12 0 -22 -9 -24 -21l-42 -349c-2 -12 -12 -21 -24 -21h-95c-12 0 -20 9 -18 21l42 349c2 12 -6 21 -18 21h-31c-12 0 -20 9 -18 21l8 68c1 12 12 21 24 21h31c11 0 22 9 23 21
l5 44c13 104 98 166 201 166c50 0 89 -12 117 -35c9 -7 8 -19 -1 -28l-63 -61c-2 -2 -7 -2 -9 0c-9 7 -23 10 -42 10c-35 0 -61 -19 -68 -71l-3 -25c-1 -12 7 -21 19 -21h311c11 0 19 -9 18 -21z" />
    <glyph glyph-name="fl" unicode="&#xfb02;" horiz-adv-x="665" 
d="M564 21c-2 -12 -12 -21 -24 -21h-96c-12 0 -20 9 -18 21l58 473c8 69 -17 134 -90 134c-75 0 -109 -49 -123 -107c-3 -13 5 -20 18 -20h34c11 0 19 -9 18 -21l-8 -68c-2 -12 -12 -21 -24 -21h-31c-12 0 -22 -9 -24 -21l-42 -349c-2 -12 -12 -21 -24 -21h-95
c-12 0 -20 9 -18 21l42 349c2 12 -6 21 -18 21h-31c-12 0 -20 9 -18 21l8 68c1 12 12 21 24 21h44c4 0 8 3 8 8l1 7c20 157 150 232 274 232c125 0 235 -75 215 -237z" />
    <glyph glyph-name="f_f_i" unicode="&#xfb03;" horiz-adv-x="1010" 
d="M942 21c-2 -12 -12 -21 -24 -21h-94c-12 0 -20 9 -18 21l42 349c2 12 -6 21 -18 21h-175c-12 0 -22 -9 -24 -21l-42 -349c-2 -12 -12 -21 -24 -21h-95c-12 0 -20 9 -18 21l42 349c2 12 -6 21 -18 21h-198c-12 0 -22 -9 -24 -21l-42 -349c-2 -12 -12 -21 -24 -21h-95
c-12 0 -20 9 -18 21l42 349c2 12 -6 21 -18 21h-31c-12 0 -20 9 -18 21l8 68c1 12 12 21 24 21h31c11 0 22 9 23 21l5 44c13 104 98 166 201 166c50 0 89 -12 117 -35c9 -7 8 -19 -1 -28l-63 -61c-2 -2 -7 -2 -9 0c-9 7 -23 10 -42 10c-35 0 -61 -19 -68 -71l-3 -25
c-1 -12 7 -21 19 -21h198c11 0 22 9 23 21l5 44c13 104 98 166 201 166c50 0 89 -12 117 -35c9 -7 8 -19 -1 -28l-63 -61c-2 -2 -7 -2 -9 0c-9 7 -23 10 -42 10c-35 0 -61 -19 -68 -71l-3 -25c-1 -12 7 -21 19 -21h311c11 0 19 -9 18 -21z" />
    <glyph glyph-name="f_f_l" unicode="&#xfb04;" horiz-adv-x="1034" 
d="M941 21c-2 -12 -12 -21 -24 -21h-95c-12 0 -20 9 -18 21l58 473c8 69 -17 134 -90 134c-75 0 -110 -49 -124 -107c-3 -13 5 -20 18 -20h35c11 0 19 -9 18 -21l-8 -68c-2 -12 -12 -21 -24 -21h-32c-12 0 -22 -9 -24 -21l-42 -349c-2 -12 -12 -21 -24 -21h-95
c-12 0 -20 9 -18 21l42 349c2 12 -6 21 -18 21h-198c-12 0 -22 -9 -24 -21l-42 -349c-2 -12 -12 -21 -24 -21h-95c-12 0 -20 9 -18 21l42 349c2 12 -6 21 -18 21h-31c-12 0 -20 9 -18 21l8 68c1 12 12 21 24 21h31c11 0 22 9 23 21l5 44c13 104 98 166 201 166
c50 0 89 -12 117 -35c9 -7 8 -19 -1 -28l-63 -61c-2 -2 -7 -2 -9 0c-9 7 -23 10 -42 10c-35 0 -61 -19 -68 -71l-3 -25c-1 -12 7 -21 19 -21h211c4 0 8 3 8 8l1 7c20 157 151 232 275 232s234 -75 214 -237z" />
    <glyph glyph-name="longs_t" unicode="&#xfb05;" horiz-adv-x="722" 
d="M604 0c-103 0 -173 62 -161 166l24 190c1 12 -7 21 -19 21h-31c-11 0 -20 9 -18 21l8 69c2 12 12 21 24 21h49c2 0 3 1 3 3l1 3c8 69 -17 134 -90 134c-85 0 -115 -62 -124 -129l-58 -478c-2 -12 -12 -21 -24 -21h-95c-12 0 -20 9 -18 21l42 349c2 12 -6 21 -18 21h-31
c-12 0 -20 9 -18 21l8 68c1 12 12 21 24 21h44c4 0 8 3 8 8l1 7c20 157 150 232 274 232c147 0 231 -101 215 -237l-2 -11c0 -7 4 -12 10 -12h51c12 0 20 -9 18 -21l-8 -69c-2 -12 -12 -21 -24 -21h-41c-11 0 -22 -9 -23 -21l-21 -170c-7 -53 14 -71 49 -71c5 0 15 1 29 4
c5 1 10 -2 10 -7l13 -75c2 -8 -2 -17 -10 -21c-22 -10 -46 -16 -71 -16z" />
    <glyph glyph-name="s_t" unicode="&#xfb06;" horiz-adv-x="837" 
d="M723 0c-103 0 -173 62 -161 166l24 190c1 12 -7 21 -19 21h-31c-11 0 -20 9 -18 21l8 69c2 12 12 21 24 21h49c2 0 3 1 3 3l1 3c8 69 -18 134 -90 134c-87 0 -120 -65 -128 -134l-2 -9c0 -5 4 -12 8 -14c15 -9 30 -19 45 -34c7 -7 7 -18 -1 -25l-60 -60
c-7 -6 -18 -6 -24 0c-18 18 -40 27 -67 27c-33 0 -56 -6 -69 -19c-25 -24 -6 -44 59 -57c99 -12 159 -49 145 -162c-12 -99 -111 -146 -200 -146c-82 0 -135 23 -173 60c-8 8 -7 19 2 28l59 57c6 6 18 5 24 0c19 -18 48 -29 86 -33c44 -5 103 18 84 55c-6 12 -30 21 -74 25
c-87 10 -154 45 -141 149c10 80 79 136 152 151c7 1 13 9 14 16l1 13c20 157 151 232 275 232s234 -75 214 -237l-2 -11c0 -7 4 -12 10 -12h51c12 0 20 -9 18 -21l-8 -69c-2 -12 -12 -21 -24 -21h-41c-11 0 -22 -9 -23 -21l-21 -170c-7 -53 15 -71 50 -71c5 0 14 1 28 4
c5 1 10 -2 10 -7l13 -75c2 -8 -2 -17 -10 -21c-22 -10 -46 -16 -70 -16z" />
    <glyph glyph-name="O.alt" horiz-adv-x="627" 
d="M120 481c17 142 140 251 281 251c142 0 237 -109 220 -251c-17 -141 -140 -250 -282 -250c-141 0 -236 109 -219 250zM355 359c70 0 124 55 132 122c9 69 -32 123 -102 123c-69 0 -123 -54 -132 -123c-8 -67 33 -122 102 -122zM76 116c2 12 12 21 24 21h460
c11 0 20 -9 18 -21l-11 -95c-2 -12 -12 -21 -24 -21h-460c-12 0 -20 9 -18 21z" />
    <glyph glyph-name="c_h" horiz-adv-x="1033" 
d="M727 336c-2 -2 -6 -10 -6 -13l-37 -302c-2 -12 -12 -21 -24 -21h-95c-12 0 -20 9 -18 21l58 473c8 69 -19 134 -92 134c-87 0 -119 -65 -127 -134l-1 -3c0 -2 2 -4 3 -5c39 -9 71 -26 97 -51c9 -8 7 -20 -3 -29l-67 -59c-6 -6 -18 -5 -24 0c-19 17 -45 28 -76 28
c-75 0 -132 -59 -141 -131c-9 -74 34 -131 109 -131c32 0 60 10 83 27c6 5 19 6 24 0l51 -59c8 -9 8 -20 -2 -28c-47 -36 -107 -58 -170 -58c-142 0 -235 109 -218 249c13 107 86 196 183 232c7 2 16 13 17 20l2 20c20 157 151 232 275 232c125 0 235 -75 215 -237l-6 -44
c-1 -9 10 -13 17 -8c31 19 67 29 104 29c113 0 181 -77 168 -185l-34 -282c-2 -12 -12 -21 -24 -21h-95c-12 0 -20 9 -18 21l30 248c8 62 -18 100 -80 104h-5c-27 -2 -51 -15 -73 -37z" />
    <glyph glyph-name="c_k" horiz-adv-x="1082" 
d="M366 140c6 5 19 6 24 0l51 -59c8 -9 8 -20 -2 -28c-47 -36 -107 -58 -170 -58c-142 0 -235 109 -218 249c14 116 98 209 206 239c7 2 18 11 19 19l1 14c20 157 151 232 275 232s235 -75 215 -237l-17 -134c-2 -21 21 -30 36 -14l111 117c3 4 13 8 17 8h109
c19 0 26 -20 12 -34l-163 -171c-7 -8 -8 -20 -3 -27l162 -221c11 -15 -1 -35 -20 -35h-134c-4 0 -13 4 -15 8l-102 143c-12 15 -37 7 -39 -14l-14 -116c-2 -12 -12 -21 -24 -21h-105c-12 0 -20 9 -18 21l58 473c8 69 -8 134 -81 134c-87 0 -119 -65 -127 -134l-1 -6
c-1 -4 1 -8 4 -9c28 -10 52 -25 73 -44c7 -8 7 -19 -2 -27l-69 -61c-6 -6 -18 -5 -24 0c-19 17 -45 28 -76 28c-75 0 -132 -59 -141 -131c-9 -74 34 -131 109 -131c32 0 60 10 83 27z" />
    <glyph glyph-name="c_t" horiz-adv-x="880" 
d="M765 0c-103 0 -173 62 -161 166l7 51l17 139c1 12 -7 21 -19 21h-31c-11 0 -20 9 -18 21l8 69c2 12 12 21 24 21h49c2 0 3 1 3 3l1 3c8 69 -17 134 -90 134c-87 0 -119 -65 -127 -134l-2 -9c0 -5 4 -12 8 -14c20 -10 38 -23 54 -38c6 -7 5 -17 -2 -23l-71 -63
c-6 -6 -18 -5 -24 0c-19 17 -45 28 -76 28c-75 0 -132 -59 -141 -131c-9 -74 34 -131 109 -131c32 0 60 10 83 27c6 5 19 6 24 0l51 -59c8 -9 8 -20 -2 -28c-47 -36 -107 -58 -170 -58c-142 0 -235 109 -218 249c15 126 112 224 232 245c7 1 10 7 11 14l1 13
c20 157 151 232 275 232c125 0 235 -75 215 -237l-2 -11c0 -7 4 -12 10 -12h51c12 0 20 -9 18 -21l-8 -69c-2 -12 -12 -21 -24 -21h-41c-11 0 -22 -9 -23 -21l-21 -170c-7 -53 15 -71 49 -71c6 0 15 1 29 4c5 1 10 -2 10 -7l13 -75c2 -8 -2 -17 -10 -21
c-22 -10 -46 -16 -71 -16z" />
    <glyph glyph-name="f_f_j" horiz-adv-x="1019" 
d="M212 21c-2 -12 -12 -21 -24 -21h-95c-12 0 -20 9 -18 21l42 349c2 12 -6 21 -18 21h-31c-12 0 -20 9 -18 21l8 68c1 12 12 21 24 21h31c11 0 22 9 23 21l5 44c13 104 100 166 203 166c49 0 88 -12 117 -35c9 -7 8 -19 -1 -28l-63 -61c-2 -2 -7 -2 -9 -1
c-9 7 -24 11 -44 11c-35 0 -61 -19 -68 -71l-3 -25c-1 -12 7 -21 19 -21h199c11 0 22 9 23 21l5 44c13 104 98 166 201 166c50 0 89 -12 117 -35c9 -7 8 -19 -1 -28l-63 -61c-2 -2 -7 -2 -9 0c-9 7 -23 10 -42 10c-35 0 -61 -19 -68 -71l-3 -25c-1 -12 7 -21 19 -21h321
c12 0 20 -9 19 -21l-62 -495c-14 -114 -91 -195 -208 -195h-78c-11 0 -20 9 -18 21l8 70c2 12 12 21 24 21h27c66 3 103 39 111 107l44 361c2 12 -6 21 -18 21h-184c-12 0 -22 -9 -24 -21l-42 -349c-2 -12 -12 -21 -24 -21h-95c-12 0 -20 9 -18 21l42 349c2 12 -6 21 -18 21
h-199c-12 0 -22 -9 -24 -21z" />
    <glyph glyph-name="f_h" horiz-adv-x="914" 
d="M608 336c-2 -2 -6 -11 -6 -13l-37 -302c-2 -12 -12 -21 -24 -21h-94c-12 0 -20 9 -18 21l58 473c8 69 -20 134 -93 134c-75 0 -109 -49 -123 -107c-3 -13 5 -20 18 -20h34c11 0 19 -9 18 -21l-8 -68c-2 -12 -12 -21 -24 -21h-31c-12 0 -22 -9 -24 -21l-42 -349
c-2 -12 -12 -21 -24 -21h-95c-12 0 -20 9 -18 21l42 349c2 12 -6 21 -18 21h-31c-12 0 -20 9 -18 21l8 68c1 12 12 21 24 21h44c4 0 8 3 8 8l1 7c20 157 150 232 274 232c125 0 235 -75 215 -237l-6 -44c-1 -9 10 -13 17 -8c32 19 67 29 105 29c112 0 180 -77 167 -185
l-34 -282c-2 -12 -12 -21 -24 -21h-95c-12 0 -20 9 -18 21l30 248c8 62 -17 100 -80 104h-5c-27 -2 -50 -15 -73 -37z" />
    <glyph glyph-name="f_j" horiz-adv-x="643" 
d="M276 -119c2 12 12 21 24 21h27c65 3 103 39 111 107l44 361c2 12 -6 21 -18 21h-185c-12 0 -22 -9 -24 -21l-42 -349c-2 -12 -12 -21 -24 -21h-95c-12 0 -20 9 -18 21l42 349c2 12 -6 21 -18 21h-31c-12 0 -20 9 -18 21l8 68c1 12 12 21 24 21h31c11 0 22 9 23 21l5 44
c13 104 99 166 202 166c49 0 88 -12 117 -35c9 -7 8 -19 -1 -28l-63 -61c-2 -2 -7 -2 -10 0c-8 7 -23 10 -42 10c-35 0 -61 -19 -68 -71l-3 -25c-1 -12 7 -21 19 -21h322c11 0 19 -9 18 -21l-61 -495c-14 -114 -92 -195 -209 -195h-77c-11 0 -20 9 -18 21z" />
    <glyph glyph-name="f_k" horiz-adv-x="963" 
d="M271 521c-3 -13 5 -20 18 -20h34c11 0 19 -9 18 -21l-8 -68c-2 -12 -12 -21 -24 -21h-31c-12 0 -22 -9 -24 -21l-42 -349c-2 -12 -12 -21 -24 -21h-95c-12 0 -20 9 -18 21l42 349c2 12 -6 21 -18 21h-31c-12 0 -20 9 -18 21l8 68c1 12 12 21 24 21h44c4 0 8 3 8 8l1 7
c20 157 150 232 274 232c125 0 237 -75 217 -237l-17 -137c-3 -20 20 -29 35 -13l119 120c3 3 13 7 17 7h110c19 0 26 -20 12 -34l-164 -171c-7 -8 -8 -20 -3 -27l162 -221c11 -15 -1 -35 -20 -35h-134c-4 0 -13 4 -15 7l-109 146c-12 15 -36 6 -39 -14l-14 -118
c-2 -12 -12 -21 -24 -21h-98c-12 0 -20 9 -18 21l58 473c8 69 -17 134 -90 134c-75 0 -109 -49 -123 -107z" />
    <glyph glyph-name="r_f" horiz-adv-x="693" 
d="M547 21c-2 -12 -12 -21 -24 -21h-95c-12 0 -20 9 -18 21l44 360c0 5 -4 10 -9 10h-11c-141 0 -191 -33 -226 -88c0 -1 -3 -8 -3 -9l-33 -273c-2 -12 -12 -21 -24 -21h-94c-12 0 -20 9 -18 21l54 446c2 12 12 21 24 21h94c12 0 20 -9 18 -21v-6c-2 -10 12 -15 21 -9
c49 33 112 49 168 49h33c11 0 22 9 23 21l5 44c13 104 98 166 201 166c50 0 89 -12 117 -35c9 -7 8 -19 -1 -28l-63 -61c-2 -2 -7 -2 -9 0c-9 7 -23 10 -42 10c-35 0 -61 -19 -68 -71l-3 -25c-1 -12 7 -21 19 -21h31c11 0 19 -9 18 -21l-8 -68c-2 -12 -12 -21 -24 -21h-31
c-12 0 -22 -9 -24 -21z" />
    <glyph glyph-name="r_t" horiz-adv-x="699" 
d="M442 368c1 5 -3 9 -8 9h-10c-113 0 -175 -20 -211 -74c0 -1 -3 -8 -3 -9l-33 -273c-2 -12 -12 -21 -24 -21h-94c-12 0 -20 9 -18 21l54 446c2 12 12 21 24 21h94c12 0 20 -9 18 -21v-6c-2 -10 8 -18 17 -12c53 32 133 39 190 39h9c6 0 10 4 11 10l14 116
c2 12 12 21 24 21h96c12 0 20 -9 18 -21l-13 -105c-1 -12 7 -21 19 -21h41c12 0 20 -9 18 -21l-8 -69c-2 -12 -12 -21 -24 -21h-41c-11 0 -22 -9 -23 -21l-21 -170c-7 -53 15 -71 49 -71c6 0 15 1 29 4c5 1 10 -2 10 -7l13 -75c2 -8 -2 -17 -10 -21c-22 -10 -46 -16 -71 -16
c-103 0 -173 62 -161 166z" />
    <glyph glyph-name="s_l" horiz-adv-x="733" 
d="M435 438c8 -8 6 -20 -3 -29l-57 -57c-7 -6 -18 -6 -24 0c-18 18 -40 27 -67 27c-33 0 -56 -6 -69 -19c-25 -24 -6 -44 59 -57c99 -12 159 -49 145 -162c-12 -99 -111 -146 -200 -146c-82 0 -135 23 -173 60c-8 8 -7 19 2 28l59 57c6 6 18 5 24 0c19 -18 48 -29 86 -33
c44 -5 103 18 84 55c-6 12 -30 21 -74 25c-87 10 -154 45 -141 149c8 64 53 111 108 136c6 3 15 14 15 20l3 24c20 157 151 232 275 232s234 -75 214 -237l-60 -490c-2 -12 -12 -21 -24 -21h-96c-12 0 -20 9 -18 21l58 473c8 69 -17 134 -89 134c-87 0 -120 -65 -128 -134
l-1 -4c0 -2 1 -4 3 -5c36 -6 60 -20 89 -47z" />
    <glyph glyph-name="s_p" horiz-adv-x="1037" 
d="M614 -185c-1 -12 -12 -21 -23 -21l-95 1c-12 0 -20 9 -19 21l84 677c8 70 -18 135 -91 135c-87 0 -119 -65 -127 -134l-1 -3c0 -2 1 -4 3 -5c36 -7 61 -21 90 -48c8 -8 6 -20 -3 -29l-57 -57c-7 -6 -18 -6 -24 0c-18 18 -40 27 -67 27c-33 0 -56 -6 -69 -19
c-25 -24 -6 -44 59 -57c99 -12 159 -49 145 -162c-12 -99 -111 -146 -200 -146c-82 0 -135 23 -173 60c-8 8 -7 19 2 28l59 57c6 6 18 5 24 0c19 -18 48 -29 86 -33c44 -5 103 18 84 55c-6 12 -30 21 -74 25c-87 10 -154 45 -141 149c8 63 52 111 106 136c7 3 15 14 15 20
l3 24c20 157 151 232 275 232c125 0 235 -75 215 -237l-5 -39c-1 -9 9 -14 18 -10c32 18 62 27 91 27c142 0 231 -107 214 -244c-16 -132 -133 -252 -274 -245c-39 3 -69 13 -90 29c-5 3 -13 1 -14 -5zM760 113c74 0 132 57 141 130s-35 131 -110 131s-131 -58 -140 -131
s33 -130 109 -130z" />
  </font>
</defs>
</svg>
