<?xml version="1.0" standalone="no"?>
<!DOCTYPE svg PUBLIC "-//W3C//DTD SVG 1.1//EN" "http://www.w3.org/Graphics/SVG/1.1/DTD/svg11.dtd" >
<svg xmlns="http://www.w3.org/2000/svg" xmlns:xlink="http://www.w3.org/1999/xlink" version="1.1">
<metadata>
Created by FontForge 20190801 at Thu Sep 23 03:29:49 2021
 By Unknown
Copyright (c) 2015 by Youssef Habchi. All rights reserved.
</metadata>
<defs>
<font id="Streamster" horiz-adv-x="295" >
  <font-face 
    font-family="Streamster"
    font-weight="400"
    font-stretch="normal"
    units-per-em="1000"
    panose-1="2 0 5 3 0 0 0 0 0 0"
    ascent="800"
    descent="-200"
    x-height="348"
    cap-height="869"
    bbox="-1784 -551.41 1982 1162"
    underline-thickness="50"
    underline-position="-100"
    unicode-range="U+0020-FB00"
  />
    <missing-glyph />
    <glyph glyph-name="b" unicode="b" horiz-adv-x="327" 
d="M613 881c3 -2 1 -11 -7 -26c-7 -15 -18 -35 -34 -59c-14 -24 -32 -51 -52 -82c-20 -30 -41 -61 -62 -92s-43 -62 -64 -92c-21 -31 -41 -58 -58 -82c-17 -25 -32 -45 -43 -61s-18 -25 -20 -28c-3 -4 -7 -10 -13 -19c-7 -8 -14 -18 -22 -29c-9 -11 -18 -23 -28 -37
c-9 -12 -19 -26 -29 -39c27 25 51 45 74 61c23 17 43 30 61 38c18 10 33 15 46 18s22 3 28 0c9 -3 13 -10 12 -21c0 -11 -1 -20 -4 -28c-9 -28 -24 -58 -45 -89c-21 -32 -44 -62 -69 -90c1 1 1 1 2 1l1 1c20 11 39 23 57 34s38 24 60 39l10 5c5 3 8 3 9 2
c-15 -19 -34 -36 -55 -53s-42 -32 -62 -46c-28 -19 -57 -38 -87 -55c-30 -18 -62 -32 -97 -42c-5 -1 -11 -3 -18 -4s-13 -3 -20 -4c-6 -1 -12 -2 -16 -2c-6 -1 -9 -1 -11 0c-5 1 -9 4 -10 9s0 9 3 13c1 2 6 5 14 9c7 4 13 7 16 8c32 16 62 36 89 59c27 24 55 52 83 84
c7 10 15 21 24 34l24 36c8 13 16 25 22 38c8 12 13 23 18 34c-22 -7 -46 -21 -72 -40c-27 -20 -53 -42 -78 -65s-49 -47 -70 -71c-21 -23 -38 -43 -50 -59c-9 -11 -20 -26 -34 -43c-12 -17 -23 -32 -31 -44c-4 -6 -9 -10 -17 -11c-6 -1 -12 -1 -16 2c-11 8 -14 18 -7 31
c17 30 37 61 57 92c22 31 42 61 62 90c34 49 68 98 103 148c35 49 70 98 106 146s72 95 108 140c36 46 73 92 111 139c11 12 21 24 31 35c10 12 20 24 31 35c2 2 5 5 8 9l12 12c4 3 8 6 11 8c3 3 6 4 8 3z" />
    <glyph glyph-name="c" unicode="c" horiz-adv-x="275" 
d="M354 203c5 5 11 9 17 13s9 5 10 3c0 -1 -3 -6 -10 -13s-14 -15 -21 -22c-33 -33 -67 -64 -102 -91c-34 -27 -73 -53 -117 -76c-9 -4 -19 -8 -31 -13c-10 -5 -22 -8 -34 -10c-11 -2 -23 -2 -34 0c-11 3 -21 9 -30 18c-11 12 -15 27 -12 45c2 18 7 36 16 55
c9 18 19 35 30 52s21 29 29 38c12 15 28 31 47 49s40 35 63 51c23 15 45 28 68 39s44 16 63 16c10 0 19 -3 27 -9c8 -5 13 -13 14 -23c1 -9 0 -19 -3 -27c-4 -10 -9 -18 -16 -28c-6 -8 -13 -17 -20 -24c-8 -8 -16 -15 -23 -21c-16 -13 -31 -24 -43 -31
c-14 -8 -23 -13 -28 -16c-3 -2 -6 -3 -9 -4c-2 -1 -4 -2 -5 -2c-2 0 -3 1 -2 2c1 3 4 6 7 8l9 6c9 7 19 15 29 24s19 19 29 30c8 11 16 22 22 34c7 12 11 24 13 37c-13 -3 -26 -9 -37 -17c-12 -9 -24 -18 -35 -27c-15 -13 -33 -29 -52 -46s-38 -36 -56 -56s-34 -41 -49 -62
c-14 -21 -23 -43 -28 -64c22 2 44 7 65 15c21 9 42 18 62 30c20 10 40 22 59 36c19 12 38 25 57 37c12 9 23 17 32 23s19 13 29 21z" />
    <glyph glyph-name="d" unicode="d" horiz-adv-x="351" 
d="M809 893c1 -1 1 -3 -1 -6c0 -3 -2 -7 -4 -11c-1 -3 -3 -7 -4 -10l-4 -7c-19 -37 -41 -74 -64 -109l-70 -106c-25 -37 -51 -74 -76 -110c-26 -37 -52 -73 -79 -110c-41 -57 -81 -113 -123 -170c-40 -56 -83 -111 -128 -166c7 5 14 10 24 16c8 7 16 12 21 15
c19 13 39 27 61 40c23 13 44 25 64 36c1 1 5 3 10 6c6 3 9 3 10 2c-1 -3 -6 -8 -15 -15s-18 -15 -29 -24c-11 -8 -21 -16 -31 -24c-10 -7 -17 -12 -20 -15c-18 -14 -37 -30 -57 -48s-39 -35 -56 -50c-9 -7 -15 -13 -20 -17c-5 -5 -12 -10 -22 -15c-15 -5 -27 -3 -37 7
c-5 7 -7 15 -5 24c3 10 5 19 8 26c7 16 16 34 29 54c13 19 24 36 34 51c-25 -23 -53 -47 -84 -71c-31 -26 -61 -49 -89 -70c-4 -3 -9 -7 -14 -11c-6 -4 -12 -7 -18 -10c-5 -3 -11 -4 -17 -4s-12 2 -17 6c-7 6 -11 14 -12 23c0 9 1 18 4 26c10 30 23 58 40 82
c17 26 34 48 53 68c19 21 37 38 55 54c17 14 32 27 44 36c13 9 27 18 44 28c17 9 34 18 53 26c19 7 37 13 57 16c18 4 36 4 53 0c20 27 39 53 55 78c18 25 36 50 56 77c27 36 54 72 82 107c26 35 54 70 82 105c19 25 39 49 60 73c20 25 41 48 63 70l6 6c3 4 7 8 11 11
c3 3 7 6 10 9c3 2 6 2 7 1zM52 49c25 19 51 38 78 57s55 40 82 63s54 48 80 75c25 27 49 58 71 92c-14 1 -29 -2 -45 -8c-15 -5 -30 -12 -45 -22c-15 -8 -28 -18 -41 -28s-23 -19 -32 -26c-7 -5 -16 -15 -29 -30c-13 -14 -26 -30 -41 -49s-29 -39 -44 -61
c-14 -21 -25 -42 -34 -63z" />
    <glyph glyph-name="f" unicode="f" horiz-adv-x="141" 
d="M720 644c1 -3 -4 -6 -15 -10c-11 -5 -25 -9 -43 -14c-17 -4 -37 -8 -60 -14c-23 -4 -46 -9 -70 -14c-23 -4 -46 -8 -70 -12c-22 -4 -43 -7 -60 -10c-15 -23 -32 -47 -48 -72c-18 -24 -37 -52 -58 -84l-36 -54c-13 -18 -26 -37 -40 -58s-29 -43 -46 -66
c-16 -23 -34 -49 -54 -78c-5 -7 -13 -19 -24 -36c-11 -16 -24 -35 -38 -56s-29 -44 -44 -68c-16 -23 -31 -46 -45 -67s-27 -40 -37 -57c-12 -16 -20 -28 -25 -35c-17 -23 -33 -45 -49 -68c-17 -23 -34 -45 -51 -67c-1 -1 -3 -4 -6 -8c-3 -3 -6 -7 -9 -10s-6 -6 -10 -9
c-2 -3 -4 -4 -5 -3c-2 1 -1 6 2 15c5 15 11 30 18 44l21 42c8 15 19 35 34 59c14 25 30 51 47 80s36 59 55 90c20 31 39 61 57 90s35 55 49 78c16 24 28 43 37 58c34 55 69 110 105 165s73 109 112 163c-53 -8 -108 -14 -164 -18h-7h-10c-3 0 -7 0 -9 1c-4 1 -5 2 -6 4
s0 4 2 6c3 2 6 4 9 5c3 2 7 4 9 5c4 1 5 2 6 2c19 6 38 11 57 15s40 8 63 12c1 0 4 0 10 2c5 0 12 2 20 4c8 1 17 3 26 4c9 2 19 4 28 5c19 24 37 49 56 75c18 25 37 50 58 74c20 24 42 46 65 68c23 20 49 39 78 54c7 3 15 6 23 6c7 2 14 1 19 -2c5 -2 9 -6 12 -12
s3 -14 0 -25c-5 -11 -11 -21 -19 -30c-6 -9 -17 -19 -32 -30c5 11 9 22 12 33c3 10 7 21 10 32c-4 -2 -8 -4 -12 -7c-3 -3 -7 -6 -10 -9c-33 -30 -64 -63 -90 -98c-28 -36 -55 -75 -83 -116c27 3 57 7 91 10c32 3 63 6 92 9s53 5 72 6c20 1 30 2 30 1z" />
    <glyph glyph-name="g" unicode="g" horiz-adv-x="311" 
d="M377 275c0 -1 -3 -6 -10 -17s-15 -24 -26 -42c-11 -16 -23 -35 -36 -56c-13 -20 -27 -40 -40 -60s-26 -39 -38 -56s-22 -31 -30 -41c-49 -68 -101 -133 -156 -195c-55 -63 -116 -120 -182 -172c-34 -27 -69 -51 -107 -73c-36 -22 -75 -40 -116 -55
c-18 -7 -37 -12 -56 -16c-19 -5 -39 -8 -58 -9c-4 0 -8 0 -12 -1c-5 0 -9 1 -14 2s-6 3 -2 4c3 2 6 4 8 5c9 3 17 6 26 9c8 2 16 5 25 8c41 15 79 33 116 54c37 22 72 46 105 72c34 27 66 55 97 85s60 61 89 93c17 19 35 41 56 66c20 25 40 52 61 80c21 27 41 55 61 83
c21 28 40 54 57 79c3 5 7 10 9 14c4 6 7 10 10 15c-10 -9 -20 -17 -30 -26c-9 -9 -19 -17 -29 -26c-15 -13 -32 -26 -53 -39c-20 -13 -38 -25 -53 -36c-4 -3 -9 -7 -15 -11c-5 -4 -11 -7 -16 -10c-6 -3 -12 -4 -18 -5c-6 0 -12 2 -17 6c-7 7 -11 14 -11 24c-1 8 0 17 2 26
c7 24 18 47 34 70s32 43 50 62c16 18 32 33 46 46s23 21 27 24c23 19 44 34 63 48c19 12 42 25 68 36c11 5 23 8 38 12c15 2 29 4 44 4c14 1 27 0 40 -4c12 -2 21 -8 28 -15c1 -1 2 -3 2 -5c2 -1 1 -2 -1 -1c-8 1 -17 1 -28 1s-22 -1 -34 -3s-24 -5 -37 -9
c-12 -4 -23 -9 -34 -15c-11 -7 -23 -15 -34 -23c-12 -10 -25 -20 -38 -31c-7 -6 -17 -16 -32 -29c-15 -14 -30 -30 -48 -48c-16 -19 -33 -39 -49 -60s-29 -42 -38 -62c41 26 83 55 127 86c43 31 86 64 128 99c4 3 9 8 16 14c6 6 12 12 19 18s13 11 19 16c5 5 9 7 11 7
c5 1 10 0 13 -4c3 -3 4 -8 3 -13z" />
    <glyph glyph-name="h" unicode="h" horiz-adv-x="357" 
d="M619 884c1 -1 1 -2 1 -5c-1 -7 -4 -15 -9 -23s-9 -16 -13 -23c-16 -27 -32 -54 -49 -81c-17 -26 -34 -52 -51 -79c-25 -38 -51 -75 -76 -111c-25 -37 -51 -73 -77 -110c-32 -45 -66 -93 -103 -142s-72 -96 -105 -141c13 11 29 24 48 38s38 28 58 43c20 14 39 28 59 41
c18 13 35 25 49 36c9 7 19 13 30 20s23 8 35 4c8 -3 14 -8 18 -15c3 -8 3 -16 0 -23s-8 -15 -16 -22c-6 -7 -13 -14 -18 -21c-14 -17 -29 -34 -46 -52c-16 -18 -31 -36 -44 -53s-24 -34 -36 -52c-10 -18 -20 -37 -27 -56c27 22 54 43 79 63c25 19 53 39 83 58
c6 4 12 8 19 12c6 3 13 6 20 9c5 1 6 1 4 -1c-2 -3 -4 -5 -5 -6c-3 -3 -7 -6 -11 -10c-3 -2 -7 -6 -10 -9c-25 -20 -49 -41 -72 -62c-22 -21 -45 -43 -70 -64c-7 -7 -15 -15 -22 -21c-8 -8 -16 -14 -24 -20c-7 -5 -15 -8 -24 -8c-9 -1 -16 3 -21 12c-5 8 -7 18 -5 28
c0 12 2 21 4 29c3 17 10 35 21 53c11 20 23 38 35 57c14 19 27 37 41 55c14 17 26 34 36 49c-21 -15 -44 -31 -69 -49c-24 -16 -49 -36 -76 -58c-26 -21 -53 -46 -80 -72c-27 -28 -55 -58 -83 -93c-3 -5 -7 -9 -11 -14c-5 -5 -10 -7 -16 -8c-8 -1 -14 2 -20 9
c-4 6 -6 13 -4 20c1 5 4 10 7 16c3 4 7 9 10 14c23 37 49 77 78 120s56 82 81 118c25 37 51 74 78 110c26 36 52 72 79 108s55 72 81 107c28 35 55 70 83 105c19 25 39 49 59 74c21 24 42 47 64 69c1 1 4 4 6 7c4 3 7 7 10 10s7 6 10 8s6 3 7 2z" />
    <glyph glyph-name="i" unicode="i" horiz-adv-x="163" 
d="M251 209c1 1 5 3 11 6c5 3 8 3 9 2v-1c0 -1 -1 -2 -3 -4c-25 -23 -50 -44 -76 -64c-25 -19 -51 -40 -76 -61c-11 -9 -24 -21 -40 -36c-15 -15 -28 -27 -38 -36c-4 -3 -8 -7 -14 -11c-4 -3 -10 -6 -16 -8c-5 -3 -11 -4 -16 -3c-6 1 -12 4 -18 9c-5 5 -7 13 -6 22
c2 9 5 18 8 25c7 17 17 35 31 57c14 20 30 42 47 64c18 22 36 44 56 64c18 22 36 40 53 57s31 30 43 41s20 17 24 18c5 2 8 2 11 1c1 -1 3 -2 3 -3c2 -1 1 -3 0 -6c-9 -16 -19 -33 -31 -52s-25 -38 -39 -58c-14 -21 -28 -42 -44 -64c-14 -21 -29 -43 -43 -66
c6 5 14 10 24 18c10 6 18 12 24 16c19 13 38 25 57 38c19 12 38 24 59 35zM363 510c2 -5 2 -11 1 -16c-2 -6 -5 -12 -8 -16c-4 -6 -8 -10 -13 -14s-9 -7 -14 -9c-4 -2 -9 -3 -15 -5c-5 0 -11 -1 -16 0c-5 0 -10 1 -15 3s-8 6 -10 11c-4 11 -3 21 4 30c7 10 14 17 23 22
c4 3 9 5 15 6c6 2 12 3 19 3c6 0 12 -1 17 -3s9 -6 12 -12z" />
    <glyph glyph-name="j" unicode="j" horiz-adv-x="199" 
d="M297 340c3 -2 1 -11 -7 -26s-19 -34 -34 -56c-14 -23 -30 -47 -48 -73c-17 -26 -34 -51 -50 -74c-17 -23 -31 -43 -44 -61c-12 -16 -19 -27 -22 -31c-51 -73 -106 -144 -164 -211c-59 -67 -123 -129 -194 -184c-34 -27 -70 -51 -106 -74c-38 -22 -76 -40 -117 -55
c-18 -7 -37 -12 -56 -17c-19 -4 -39 -7 -58 -8h-13c-5 -1 -9 0 -13 1c-5 1 -6 3 -3 5c4 2 7 3 9 4c9 3 17 6 25 8c9 3 17 6 26 9c41 15 79 33 116 55s72 46 106 72c33 27 65 55 96 85s60 61 89 92c15 16 30 35 47 56s34 44 52 67c17 23 35 47 53 72c18 24 35 47 51 70
c38 53 77 109 116 166c-29 -20 -57 -39 -86 -58c-29 -18 -58 -36 -88 -55c-3 -1 -6 -3 -12 -5c-4 -3 -7 -3 -8 -2c0 1 1 3 3 5c8 9 17 17 26 24l28 22c3 3 12 9 25 20c14 11 30 23 50 37c18 14 39 29 60 44c22 16 43 30 62 42c20 13 38 22 52 29c16 7 26 8 31 5zM365 510
c2 -5 2 -11 1 -16c-2 -6 -5 -12 -8 -16c-4 -6 -8 -10 -13 -14s-9 -7 -14 -9c-4 -2 -9 -3 -15 -5c-5 0 -11 -1 -16 0c-5 0 -10 1 -15 3s-8 6 -10 11c-4 11 -3 21 4 30c7 10 14 17 23 22c4 3 9 5 15 6c6 2 12 3 19 3c6 0 12 -1 17 -3s9 -6 12 -12z" />
    <glyph glyph-name="k" unicode="k" horiz-adv-x="274" 
d="M618 886c1 -1 1 -4 0 -9c-2 -5 -4 -10 -8 -16c-2 -6 -6 -12 -8 -17c-4 -5 -6 -9 -7 -11c-19 -33 -38 -65 -59 -97c-21 -31 -42 -64 -64 -97c-25 -37 -51 -74 -76 -111c-26 -36 -52 -72 -78 -109c-23 -31 -46 -64 -72 -97c-24 -34 -48 -67 -71 -99c1 -1 1 -2 1 -3
s0 -2 1 -3c16 13 35 27 58 44s46 33 69 49s46 30 66 43c22 13 39 22 53 27c2 1 4 2 7 2c3 -1 3 -3 1 -6c-2 -4 -5 -8 -7 -10c-4 -4 -6 -7 -9 -10c-15 -15 -31 -30 -49 -45c-19 -15 -38 -30 -58 -44c-19 -14 -39 -27 -60 -40s-41 -23 -61 -32c-1 -1 -1 -1 -2 -1s-1 0 -1 -1
c10 -34 20 -69 30 -105c11 -35 21 -71 30 -106c1 -3 2 -7 2 -12s-3 -7 -8 -6s-9 2 -12 4c-4 3 -8 5 -11 8c-8 7 -15 14 -21 22c-5 9 -11 18 -16 27c-11 19 -21 41 -30 65c-9 26 -17 49 -22 70c-17 -23 -34 -46 -50 -70c-17 -22 -34 -45 -53 -66c-4 -5 -9 -11 -15 -16
c-5 -5 -11 -8 -16 -8c-9 0 -16 4 -19 10c-3 8 -3 15 0 22c15 29 33 58 54 87c14 21 28 43 43 65c14 21 29 43 44 64v18c1 6 1 12 2 17c1 3 2 7 3 13c1 4 4 8 7 9s7 -1 10 -5s6 -7 7 -10c25 36 51 72 77 107c25 35 51 71 78 107s54 72 80 107c28 35 55 70 83 105
c19 24 39 48 59 72c21 24 42 48 64 71l6 6l10 11c4 3 8 6 11 8s6 3 7 2z" />
    <glyph glyph-name="l" unicode="l" horiz-adv-x="153" 
d="M615 887c1 -1 1 -3 1 -7c-2 -2 -3 -6 -4 -10c-2 -3 -4 -7 -6 -10l-3 -7c-21 -37 -43 -74 -65 -109c-24 -35 -47 -71 -70 -106c-25 -37 -51 -74 -76 -110c-26 -37 -52 -73 -78 -110c-34 -47 -68 -94 -103 -140s-69 -92 -104 -139c-5 -7 -11 -15 -17 -22
c-5 -7 -11 -15 -16 -22c46 33 93 63 140 92c1 1 3 2 6 5c4 2 8 4 13 6c5 3 9 5 13 6c4 2 7 3 8 2s0 -2 -2 -4c-4 -3 -7 -6 -10 -9c-12 -11 -24 -21 -36 -31c-13 -9 -25 -19 -37 -29c-18 -14 -36 -28 -53 -42s-35 -29 -52 -44c-7 -5 -13 -11 -20 -17c-6 -6 -12 -12 -19 -18
c-5 -5 -11 -9 -17 -12s-13 -4 -20 -1c-13 4 -19 12 -20 24c-1 9 2 19 8 30c5 11 10 20 15 27c37 58 76 116 119 173c33 45 64 87 94 127c28 41 59 82 91 125c27 36 53 72 81 107c26 35 54 70 83 105c20 24 40 48 59 73c20 25 41 48 63 70l6 6l11 10c3 4 7 7 10 9s6 3 7 2z
" />
    <glyph glyph-name="m" unicode="m" horiz-adv-x="518" 
d="M603 192c1 -1 -1 -2 -4 -6c-3 -2 -7 -6 -11 -10c-5 -3 -9 -7 -13 -10c-4 -4 -7 -7 -9 -8c-7 -7 -15 -13 -22 -19c-8 -6 -16 -12 -23 -18c-17 -13 -35 -27 -52 -41c-17 -15 -35 -29 -52 -44c-5 -4 -10 -9 -15 -15c-6 -6 -11 -11 -15 -14c-7 -7 -14 -12 -23 -17
s-17 -3 -26 4c-3 3 -6 6 -7 10c-1 3 -3 7 -4 11c-1 10 -1 20 1 31c2 10 5 20 8 31s7 21 12 31c5 9 9 18 14 27c9 19 22 39 38 61c15 22 29 41 42 57c-23 -15 -46 -31 -68 -48s-44 -35 -66 -54c-3 -3 -11 -10 -24 -21c-12 -11 -25 -23 -40 -34c-14 -11 -28 -21 -41 -30
c-13 -8 -22 -10 -27 -7c-4 3 -4 9 -2 18c4 9 8 21 15 34s15 27 23 43c10 14 18 29 28 43c8 14 17 27 24 37c7 12 13 19 16 24c-49 -35 -95 -74 -138 -116c-43 -44 -85 -90 -124 -141c-3 -3 -5 -7 -8 -11c-2 -3 -5 -6 -9 -8c-8 -3 -16 -3 -23 2c-7 4 -11 10 -12 19
c0 23 6 45 18 67c11 22 24 43 37 64c5 9 14 20 25 34s24 29 38 46c15 17 30 34 46 52c16 17 32 34 46 50c16 15 29 29 42 42c12 13 22 22 29 28c3 2 4 1 3 -3s-2 -9 -4 -15c-3 -6 -5 -12 -8 -18c-3 -5 -4 -8 -5 -9c-9 -17 -20 -35 -32 -52s-25 -35 -37 -53
c-14 -17 -26 -35 -38 -52c-13 -17 -24 -35 -34 -53c25 21 50 42 74 63c23 21 46 41 68 60c21 19 42 36 62 50c20 16 39 27 57 36c9 4 18 4 29 -1c7 -5 12 -11 14 -19s1 -16 -4 -23c-17 -24 -36 -47 -56 -68c-19 -21 -38 -44 -56 -67c35 21 68 45 98 72c32 26 63 52 94 79
c9 8 19 16 30 25s22 15 35 19c5 1 9 2 14 2s9 -1 14 -4c7 -4 12 -10 15 -19c2 -8 0 -16 -5 -23l-15 -21c-6 -6 -12 -12 -17 -19c-7 -9 -13 -17 -21 -25c-6 -8 -14 -16 -21 -24c-14 -16 -27 -32 -41 -50c-12 -16 -25 -34 -36 -51c-15 -22 -28 -45 -37 -69c13 10 27 20 41 30
c14 9 28 19 42 29c3 2 11 7 24 17c14 8 29 18 44 28c16 10 30 19 44 26c12 7 20 10 21 8z" />
    <glyph glyph-name="n" unicode="n" horiz-adv-x="356" 
d="M434 188c1 -1 -1 -4 -4 -7s-7 -7 -12 -11c-4 -3 -8 -7 -12 -10c-5 -3 -7 -5 -8 -6c-7 -6 -15 -12 -22 -18l-24 -18c-21 -17 -44 -34 -68 -50c-24 -17 -47 -36 -68 -57c-3 -3 -7 -5 -10 -9c-4 -2 -8 -5 -12 -7c-5 -2 -9 -3 -14 -3c-4 0 -8 2 -13 6c-8 5 -12 14 -11 26
c0 12 2 25 6 38c5 14 10 27 16 40s11 23 15 30c9 18 22 38 37 59s29 40 41 56c-23 -14 -44 -27 -63 -39c-20 -11 -40 -25 -60 -41s-41 -35 -62 -59c-21 -22 -44 -53 -69 -90c-3 -3 -5 -7 -8 -10c-3 -4 -6 -7 -10 -8c-7 -3 -15 -3 -23 2c-7 4 -11 10 -11 19c-1 11 5 28 17 51
c14 24 31 50 53 80c22 28 47 59 75 90c29 31 58 60 88 85c7 5 14 11 22 17c8 7 15 11 21 12c1 0 1 -2 -1 -6c-3 -4 -6 -9 -10 -14l-12 -18c-5 -6 -8 -11 -11 -15c-13 -17 -23 -32 -31 -43s-16 -22 -23 -33s-15 -22 -25 -35c-8 -12 -21 -28 -36 -48c23 19 48 39 74 60
c27 22 53 43 79 64s51 39 75 56c23 17 44 29 63 38c9 4 19 3 29 -2c7 -4 12 -10 14 -18c2 -9 0 -16 -5 -23c-10 -15 -24 -32 -41 -49c-18 -17 -34 -34 -48 -50s-28 -32 -40 -49c-14 -17 -26 -34 -37 -52c-7 -11 -13 -22 -21 -33c-6 -11 -12 -23 -16 -36c13 11 27 21 41 30
c14 10 28 20 42 29l13 9c8 5 16 10 26 16c9 7 19 14 30 20c11 8 21 14 30 19s17 9 24 13c6 2 9 3 10 2z" />
    <glyph glyph-name="o" unicode="o" horiz-adv-x="303" 
d="M362 352c9 -3 16 -7 21 -14c5 -6 8 -9 7 -8c-2 1 -5 2 -8 2c-4 2 -9 2 -16 3c-13 1 -25 0 -38 -3c-13 -4 -25 -10 -38 -16c-13 -8 -26 -16 -38 -26c-14 -9 -27 -19 -40 -30c-6 -5 -17 -16 -33 -32s-32 -34 -49 -56c-16 -20 -30 -42 -42 -66c-13 -22 -19 -43 -19 -62
c19 3 42 12 68 28c26 17 51 36 76 58c25 23 47 46 67 72c20 24 34 47 41 68c3 7 4 13 5 20c1 6 0 13 -2 20c-1 4 -2 6 -2 7c1 3 4 1 8 -5c6 -5 9 -12 11 -20c8 -30 4 -61 -11 -93c-16 -32 -38 -62 -66 -89c-27 -27 -58 -51 -90 -71c-34 -20 -63 -33 -90 -40
c-18 -5 -35 -5 -51 0c-13 5 -23 15 -28 28s-7 27 -5 40c3 17 8 34 14 49c8 16 16 32 27 47c9 13 21 28 35 44s30 32 48 47c17 16 36 31 56 46c21 14 41 26 62 35s41 16 62 19c20 4 39 3 58 -2z" />
    <glyph glyph-name="p" unicode="p" horiz-adv-x="356" 
d="M449 202c1 -1 0 -2 -3 -5c-16 -17 -34 -34 -54 -50s-40 -31 -61 -45c-32 -22 -64 -42 -95 -60c-32 -17 -61 -29 -88 -36l-18 -4c-7 -2 -13 -4 -20 -4c-6 -2 -12 -2 -16 -3c-6 -1 -9 -1 -11 0c-5 1 -9 4 -10 9s0 9 3 13c1 2 6 5 14 9c7 4 12 7 15 8c1 1 3 2 7 4
c3 1 7 3 12 6l12 6c5 3 8 5 11 7c13 9 26 19 39 31c13 11 26 23 38 36c13 12 25 24 36 36c12 13 23 24 32 35c15 20 30 42 45 65c15 24 27 47 36 68c-17 -3 -37 -10 -58 -24c-21 -12 -44 -29 -67 -48c-23 -20 -47 -42 -71 -66c-24 -25 -47 -49 -69 -74
c-21 -25 -41 -49 -60 -72c-19 -24 -34 -45 -47 -64c-27 -40 -54 -80 -81 -118c-27 -40 -54 -79 -82 -119c-28 -41 -56 -81 -86 -123c-28 -40 -59 -80 -90 -119l-20 -24c-7 -8 -14 -15 -22 -22c-2 -1 -5 -3 -9 -5c-4 -3 -7 -1 -8 4c-1 3 0 7 1 11s3 8 4 11c3 7 5 13 8 20
l9 18c20 40 42 78 65 116c24 36 48 74 71 111c18 28 36 56 54 83s37 55 56 83c10 14 22 31 35 50s27 39 42 59c15 21 29 41 44 60c14 20 27 38 38 54c11 15 20 28 28 38l10 14c15 19 29 37 42 53c11 13 22 26 32 39c9 12 16 20 19 23l9 9l16 16c7 7 14 13 21 19s14 10 19 13
s8 3 11 2s4 -4 3 -9c-3 -11 -6 -21 -9 -30s-7 -17 -11 -25c-5 -8 -10 -16 -14 -24l-18 -28c3 3 6 6 10 8c2 3 5 5 8 8c27 25 52 45 76 60c25 15 47 27 66 35c20 8 37 13 52 15c14 1 24 1 30 -2c10 -5 15 -13 14 -24c0 -12 -3 -26 -10 -40c-7 -16 -15 -32 -26 -48
c-10 -18 -20 -34 -31 -48c-11 -16 -20 -28 -29 -40c-9 -10 -14 -18 -17 -21l-21 -25c19 13 39 26 58 40c19 12 40 25 61 36c1 1 5 3 11 6c5 3 8 3 9 2z" />
    <glyph glyph-name="q" unicode="q" horiz-adv-x="319" 
d="M421 342c1 -1 1 -2 3 -5c0 -3 0 -4 -2 -3c-3 1 -6 2 -10 3s-8 2 -12 2c-15 1 -31 -1 -48 -5c-17 -6 -33 -12 -50 -22c-17 -8 -33 -18 -48 -29s-29 -21 -40 -31c-7 -5 -16 -14 -30 -27c-12 -13 -26 -27 -42 -44c-14 -17 -29 -35 -44 -55c-14 -20 -26 -40 -35 -61
c40 26 82 54 125 85s85 64 126 100c4 3 9 8 15 13s12 10 17 15s10 9 16 12c4 4 8 6 10 6c5 1 10 0 13 -4c3 -3 4 -7 3 -12c0 -1 -3 -6 -10 -15c-6 -9 -14 -21 -24 -37c-9 -14 -20 -31 -33 -50s-25 -38 -38 -57c-9 -15 -19 -31 -29 -45c-9 -16 -19 -31 -29 -46
c-16 -25 -33 -50 -50 -76c-17 -24 -35 -50 -52 -75c-27 -38 -53 -76 -79 -113c-25 -37 -52 -75 -79 -112c-19 -27 -39 -54 -59 -82c-20 -26 -41 -53 -63 -78c-1 -1 -3 -4 -6 -6c-3 -4 -6 -7 -9 -10c-4 -3 -8 -6 -11 -8s-6 -2 -8 0c-3 2 -3 6 -3 10c2 6 3 11 6 16
c2 6 4 12 6 17c3 5 5 9 6 11c13 30 29 60 48 88c18 30 36 58 53 86c24 39 49 77 73 114c26 38 51 76 76 114c4 6 10 16 20 30c8 13 18 28 29 44c11 17 22 34 33 52c12 17 23 34 32 48c10 16 18 28 25 38s11 16 12 17c-10 -9 -20 -17 -29 -25l-30 -27
c-15 -13 -32 -26 -51 -39c-19 -12 -37 -24 -52 -36c-4 -3 -9 -7 -15 -11c-5 -4 -11 -7 -16 -10c-6 -3 -12 -4 -18 -5c-6 0 -12 2 -17 7c-7 6 -11 13 -11 23c-1 8 0 17 2 26c11 31 27 61 46 89c20 28 42 54 67 78s51 46 79 65c29 20 58 37 88 52c9 4 21 8 36 12
c14 3 28 6 44 6c14 2 29 1 42 -2s24 -8 31 -16z" />
    <glyph glyph-name="r" unicode="r" horiz-adv-x="238" 
d="M338 205c1 -1 -2 -5 -8 -10s-13 -11 -21 -19c-8 -6 -16 -13 -24 -20c-8 -6 -13 -10 -16 -13c-11 -8 -21 -16 -31 -25c-11 -8 -21 -16 -32 -24c-16 -13 -31 -27 -46 -40s-29 -27 -44 -42l-14 -14c-4 -4 -9 -8 -14 -11c-9 -5 -19 -6 -29 -1c-10 4 -15 12 -16 23s1 21 7 32
c5 11 11 20 16 28c15 25 31 50 48 73c17 24 32 49 47 74c3 4 3 9 1 15c-1 6 -3 12 -4 17c-22 -20 -47 -40 -75 -62c-28 -20 -54 -39 -79 -56s-46 -30 -64 -39c-17 -9 -27 -13 -28 -11c-1 1 4 6 16 15c10 9 24 20 41 33l55 44c20 16 39 32 56 48c18 16 33 31 46 45
s20 26 22 35c-1 11 0 24 0 38c2 14 7 26 16 37c8 9 18 13 29 13s20 -6 25 -18s6 -24 1 -34c-5 -12 -10 -22 -15 -32c-1 -3 -3 -6 -4 -9s-2 -6 -2 -10c1 -9 4 -18 8 -27c3 -8 7 -17 12 -26c5 -13 7 -26 4 -38c-2 -11 -7 -23 -16 -34c-8 -11 -16 -23 -25 -34
c-9 -12 -17 -24 -25 -35c15 10 30 20 45 31s30 21 45 31c2 1 8 5 17 11c9 7 19 13 31 20c10 6 20 12 29 16c9 6 14 7 15 5z" />
    <glyph glyph-name="s" unicode="s" horiz-adv-x="214" 
d="M288 350c1 -7 -1 -14 -4 -20s-8 -12 -12 -16c-6 -6 -11 -10 -16 -15c-6 -5 -11 -10 -14 -16c-7 -11 -12 -23 -18 -36c-4 -13 -9 -25 -13 -38c-4 -14 -8 -27 -11 -41c-4 -12 -8 -26 -11 -39c-7 -23 -17 -45 -31 -66s-32 -37 -53 -48c-25 -13 -50 -18 -75 -16
c-13 2 -24 6 -33 11c-1 0 -3 1 -6 3s-7 4 -11 6c-3 2 -6 4 -8 7c-3 2 -4 4 -3 5s4 1 11 -1c7 -3 11 -4 12 -4c9 -3 18 -4 29 -4c19 1 36 8 51 19c13 9 24 22 34 37c11 15 17 31 19 46c3 15 5 31 7 48c3 16 5 33 7 50c-17 -15 -37 -32 -62 -49s-49 -33 -73 -47
c-23 -15 -44 -26 -61 -36c-17 -8 -27 -12 -29 -10c-1 2 8 10 26 24c20 15 42 32 70 54c26 20 54 44 82 69c29 25 52 50 69 75c6 9 12 18 18 28c6 8 13 18 20 27c7 7 15 14 25 19c8 5 18 8 29 8c9 0 17 -3 24 -10s10 -15 11 -24z" />
    <glyph glyph-name="t" unicode="t" horiz-adv-x="160" 
d="M1050 692c26 2 39 2 39 0c1 -1 -12 -4 -38 -9c-12 -3 -27 -5 -45 -9c-17 -2 -37 -6 -59 -10c-59 -9 -115 -18 -171 -28c-54 -8 -113 -18 -175 -27c-31 -5 -61 -9 -89 -13c-30 -4 -58 -8 -85 -11c-20 -30 -38 -56 -53 -79c-16 -23 -27 -38 -32 -45
c-25 -35 -50 -69 -74 -103c-26 -33 -51 -67 -76 -101c-21 -28 -42 -56 -63 -83c-21 -28 -41 -56 -61 -85c23 17 47 33 71 49c24 15 48 31 73 46c5 3 11 6 16 9l16 8c6 3 9 3 9 2c0 -2 -4 -7 -11 -13c-8 -8 -17 -15 -27 -23s-20 -15 -29 -23c-9 -6 -16 -11 -19 -14l-52 -42
c-17 -14 -35 -29 -52 -44c-7 -5 -13 -11 -19 -17c-7 -6 -13 -12 -20 -18c-5 -5 -11 -9 -17 -12s-13 -4 -21 -1c-9 3 -15 8 -18 15c-2 7 -2 14 0 22s5 16 10 23c4 8 8 15 11 20c7 11 13 22 20 32s14 20 21 31c25 38 51 75 78 111c26 36 52 73 78 110c7 10 17 23 30 40
c12 17 25 35 40 54c14 19 29 40 45 60c16 22 31 42 46 61c-15 -1 -32 -3 -50 -5s-36 -4 -54 -5s-35 -3 -52 -3c-17 -2 -31 -2 -44 -2c-27 0 -40 2 -40 7c-1 2 2 4 9 7s16 6 28 9c35 10 73 18 115 23s84 12 125 19c12 15 22 28 30 39s13 17 15 19c26 33 52 65 79 98
c26 33 54 64 84 93c1 1 2 2 6 5c2 3 6 5 8 7c4 1 6 2 8 1c1 -1 1 -3 -1 -8c-9 -19 -18 -38 -29 -55c-10 -17 -21 -36 -34 -54c-12 -20 -25 -40 -40 -62c-15 -21 -31 -46 -49 -73c21 3 43 5 66 7c23 3 46 5 69 8c62 6 121 12 176 18c55 5 113 11 172 16c23 2 43 4 60 5
c18 1 33 2 46 3z" />
    <glyph glyph-name="u" unicode="u" horiz-adv-x="346" 
d="M450 210c1 -2 -1 -5 -6 -10c-5 -4 -9 -7 -10 -8c-30 -25 -60 -49 -89 -71c-17 -14 -35 -29 -51 -44c-18 -15 -34 -31 -51 -46l-24 -21c-3 -3 -7 -5 -10 -7s-7 -4 -11 -5c-8 -1 -15 0 -22 6c-7 4 -11 11 -12 19c-1 9 0 18 4 27c4 10 8 19 13 27c10 20 21 39 33 56
s27 37 45 60c-19 -15 -37 -31 -54 -46l-52 -46c-15 -13 -29 -26 -44 -39s-30 -25 -45 -37c-4 -3 -9 -7 -14 -11c-6 -4 -12 -7 -18 -10c-5 -3 -11 -4 -17 -4s-12 2 -17 6c-9 7 -13 16 -12 28c0 13 2 26 8 39c4 13 11 26 18 38s13 21 17 28c17 27 37 52 59 75
c21 24 44 46 68 65c13 11 28 22 43 32s32 18 49 23c1 0 2 0 4 1c3 1 5 1 8 1h5c1 -1 1 -2 -1 -4l-8 -8c-4 -2 -7 -5 -10 -8c-7 -6 -14 -12 -20 -19c-7 -7 -13 -14 -20 -21c-14 -16 -28 -33 -42 -52c-13 -18 -27 -37 -40 -56s-26 -39 -39 -58s-25 -38 -37 -56
c54 35 108 75 160 120c54 45 108 91 165 136c8 7 18 14 29 23s19 14 24 15s10 -1 13 -4c3 -4 4 -8 3 -13c-1 -3 -4 -7 -9 -14s-9 -11 -11 -14s-7 -9 -14 -19c-8 -10 -18 -22 -28 -36c-12 -14 -23 -29 -36 -45c-12 -16 -24 -31 -34 -46c-12 -15 -21 -28 -29 -39
s-13 -19 -15 -23c1 1 6 4 15 11c9 6 21 14 33 23c14 9 28 19 43 29c15 11 30 20 43 28c13 9 25 15 34 20s15 6 16 4z" />
    <glyph glyph-name="v" unicode="v" horiz-adv-x="265" 
d="M439 408c1 -1 0 -3 -3 -7c-2 -4 -9 -13 -20 -27c-11 -13 -28 -34 -52 -60c-22 -28 -55 -64 -96 -110c-30 -33 -60 -64 -88 -94c-30 -28 -60 -59 -92 -90c-6 -6 -12 -12 -18 -16c-5 -6 -13 -7 -22 -6s-16 5 -22 12c-7 6 -10 13 -9 22c0 7 1 16 4 25s6 19 11 29
c4 10 8 20 12 29c5 9 9 18 12 25c13 28 28 56 42 84c16 27 32 55 49 83c5 7 9 15 15 23c4 7 11 14 18 19c3 3 4 3 6 2c0 -1 1 -3 1 -7c0 -2 0 -6 -1 -9s-1 -6 -1 -7c-3 -15 -8 -32 -15 -50c-7 -20 -15 -39 -24 -59s-17 -39 -26 -59c-8 -18 -15 -35 -20 -50c7 8 19 21 38 40
c19 18 40 38 65 62c25 22 51 46 77 70c28 24 52 46 76 66c22 19 42 35 57 46s24 16 26 14z" />
    <glyph glyph-name="w" unicode="w" horiz-adv-x="382" 
d="M548 393c1 -1 0 -2 -2 -5c-1 -3 -3 -6 -5 -8c-2 -4 -4 -6 -6 -9s-3 -4 -4 -5c-9 -12 -19 -24 -29 -35c-9 -11 -19 -23 -28 -34l-75 -87c-25 -28 -51 -56 -76 -85c-17 -20 -35 -40 -53 -59c-18 -20 -36 -40 -55 -61c-3 -3 -7 -6 -9 -8c-4 -2 -7 -4 -12 -5
c-8 -1 -15 1 -22 6s-10 12 -11 21c-1 5 0 9 1 13c2 3 4 7 5 11c11 34 25 67 41 99c16 33 33 67 51 104c-4 -3 -7 -5 -8 -6c-23 -19 -44 -38 -63 -58c-19 -19 -36 -39 -54 -59c-16 -20 -33 -41 -50 -61c-17 -22 -34 -43 -53 -65c-5 -7 -12 -10 -21 -10c-8 0 -15 3 -21 8
c-7 7 -10 15 -8 23c2 7 5 15 9 22c9 18 20 37 31 56s21 37 32 56l33 54l32 52c11 17 23 34 36 49c1 1 3 3 6 7c2 2 4 4 7 5c1 0 2 -1 2 -4s0 -4 -1 -5c-1 -9 -4 -18 -7 -27l-10 -26c-7 -19 -15 -39 -23 -59c-8 -19 -17 -39 -26 -58c20 19 42 39 66 62c24 22 48 43 70 63
c24 20 44 37 63 52s32 23 41 26s14 1 15 -6s-1 -17 -5 -30c-5 -13 -11 -27 -19 -43c-8 -17 -16 -33 -24 -48c-8 -16 -15 -30 -21 -43s-10 -22 -11 -27c29 28 57 56 86 83s58 55 88 83c11 11 23 21 35 32c11 10 23 20 34 30c1 1 2 2 5 4c3 3 6 5 9 8l9 6c3 1 4 2 5 1z" />
    <glyph glyph-name="x" unicode="x" horiz-adv-x="234" 
d="M407 383c2 -3 -1 -9 -9 -20c-9 -11 -18 -22 -30 -35c-10 -12 -21 -23 -32 -34l-18 -18c-15 -15 -30 -30 -45 -46c-15 -14 -31 -29 -46 -44c-1 -1 -5 -5 -11 -10s-13 -11 -20 -18c-8 -7 -16 -13 -23 -20c-7 -6 -13 -10 -17 -13c-1 -1 -2 -5 -3 -15c-1 -8 -3 -16 -4 -22
c-1 -10 -3 -21 -6 -33s-8 -30 -15 -53c-1 -3 -2 -6 -4 -10c0 -4 -3 -7 -6 -8c-2 -1 -4 0 -5 4c-1 3 -3 7 -3 12c-2 5 -2 9 -2 14c-1 4 -1 7 -1 8c-1 11 -2 21 -3 32c0 10 0 20 -1 30c-23 -17 -47 -32 -71 -48c-25 -14 -50 -29 -75 -42c-3 -1 -6 -3 -9 -4c-2 -1 -5 -3 -8 -4
c-1 -1 -3 -2 -6 -2c-3 -2 -3 0 -2 3c2 3 5 7 10 13c5 4 9 9 13 13c9 10 19 20 29 30c9 10 19 20 28 29c15 15 31 30 46 46c15 14 31 30 47 45c1 5 2 15 3 30c2 15 4 32 6 51s4 37 6 56c3 18 5 32 7 43c1 2 1 6 3 11c0 5 3 6 6 3s6 -7 6 -11c2 -4 3 -8 4 -11
c5 -20 9 -40 11 -61s3 -41 3 -62c41 36 84 71 131 104c15 11 31 21 48 32s33 20 50 29l9 5c5 2 8 2 9 1z" />
    <glyph glyph-name="y" unicode="y" horiz-adv-x="313" 
d="M440 332c-4 -7 -13 -20 -26 -39s-29 -42 -48 -68s-38 -53 -58 -81c-21 -29 -40 -55 -58 -80c-17 -24 -32 -44 -44 -60s-18 -25 -19 -26c-52 -71 -107 -140 -167 -206c-58 -66 -124 -125 -196 -177c-35 -25 -72 -49 -110 -69c-39 -22 -79 -38 -122 -49
c-13 -3 -27 -6 -41 -9s-28 -4 -42 -4h-11c-6 0 -9 1 -11 3c-1 1 1 3 7 5c6 3 10 4 11 5c13 3 27 7 39 13c14 4 26 10 39 15c40 17 78 37 115 61c36 23 70 49 104 77c32 28 64 58 94 89c31 32 60 64 88 96c30 34 59 69 86 104s54 72 80 109c16 21 32 44 46 67
c16 23 33 49 52 76c-17 -15 -34 -30 -52 -44c-16 -16 -34 -31 -51 -46c-15 -13 -29 -26 -44 -39s-30 -25 -45 -37c-4 -3 -9 -7 -14 -11s-11 -7 -17 -10s-12 -4 -18 -4s-12 2 -17 6c-7 6 -11 14 -11 23s1 18 3 27c4 15 9 29 16 43c7 13 14 27 23 40c17 27 37 52 59 76
c21 23 44 45 68 64c14 11 28 22 44 32c14 10 31 18 48 23c1 0 2 0 4 1c3 1 5 1 8 1c2 0 4 0 5 -1c1 0 1 -1 -1 -3l-8 -8c-4 -2 -7 -5 -10 -8c-7 -6 -14 -12 -20 -19c-7 -7 -13 -14 -19 -21c-29 -32 -55 -66 -79 -101c-23 -35 -47 -71 -70 -107c10 7 20 13 30 20
c9 7 19 13 28 20c19 13 37 27 55 39c18 14 36 27 53 40c2 2 7 7 16 14s19 16 30 26c12 11 25 22 38 34s26 24 39 34c13 12 24 22 35 31l24 21c1 1 4 4 8 7s8 7 14 11c4 4 10 8 14 11c6 3 9 6 12 8c1 1 4 2 10 5c4 2 7 1 8 -3c0 -3 -1 -7 -3 -10s-4 -7 -5 -10
c-3 -5 -5 -9 -8 -13c-2 -5 -5 -9 -8 -14z" />
    <glyph glyph-name="z" unicode="z" 
d="M386 334c1 -7 1 -14 -2 -18c-3 -6 -7 -10 -12 -14c-18 -13 -36 -27 -54 -41c-17 -14 -35 -29 -52 -45c-26 -25 -52 -49 -78 -74c-25 -25 -51 -49 -77 -74c21 6 41 12 62 17l62 16c10 3 20 5 30 7c10 3 20 5 31 6c3 1 6 1 10 2c3 1 6 1 9 0c2 -1 1 -2 -1 -4
c-4 -3 -7 -5 -10 -6c-19 -9 -39 -18 -58 -27c-20 -9 -40 -17 -59 -25c-19 -9 -39 -17 -59 -26c-20 -8 -40 -16 -59 -25c-9 -3 -18 -7 -27 -11l-27 -12c-5 -2 -10 -4 -14 -5s-9 -1 -14 0c-9 3 -15 9 -18 16c-5 10 -4 19 3 26c6 7 12 14 19 21c21 21 45 43 70 66
c25 22 51 44 78 66s54 43 81 64c27 20 54 39 80 56c-10 -1 -23 -3 -38 -6c-15 -2 -31 -4 -48 -7s-33 -5 -48 -7c-15 -3 -28 -5 -38 -7c-1 0 -3 0 -6 -1c-2 -1 -4 -1 -7 -2h-7c-1 0 -2 0 -2 1c1 1 3 3 8 6c8 4 16 7 24 11c8 2 16 6 24 9c21 8 41 16 62 23c20 7 41 15 62 22
c10 3 20 7 30 10c11 3 21 7 31 10c8 3 16 3 23 0c8 -3 13 -9 16 -18z" />
    <glyph glyph-name="space" unicode=" " horiz-adv-x="312" 
 />
    <glyph glyph-name="A" unicode="A" horiz-adv-x="799" 
d="M1077 939c4 -6 6 -12 6 -18s-1 -12 -4 -18s-6 -12 -11 -17c-4 -5 -8 -11 -12 -16c-28 -40 -54 -82 -76 -128c-24 -44 -49 -96 -77 -153c-17 -35 -33 -71 -49 -105c-15 -36 -31 -71 -46 -107c17 3 33 5 49 7c16 1 32 3 49 5c1 0 4 0 12 1c6 1 14 1 20 1c8 0 13 0 18 -1
c5 0 5 -1 1 -3c-1 -1 -4 -3 -7 -4c-4 -1 -13 -4 -26 -8c-21 -5 -43 -11 -64 -16c-22 -5 -44 -10 -65 -14c-19 -46 -39 -93 -59 -141c-19 -49 -39 -100 -60 -155c-18 -49 -36 -98 -55 -147s-37 -99 -56 -151c-7 -17 -14 -34 -19 -51c-5 -16 -13 -33 -22 -50l-2 -2
c-2 1 -2 2 -2 3c6 41 14 82 23 124s20 85 33 129c10 35 20 70 31 104c11 35 22 69 33 104c12 37 24 74 37 110c13 37 26 73 39 109c-46 -7 -92 -14 -136 -23c-46 -9 -92 -17 -140 -24c-2 -1 -8 -2 -18 -3s-21 -3 -32 -5c-13 -3 -28 -5 -45 -8c-40 -42 -80 -84 -119 -125
c-40 -41 -81 -84 -123 -128c-11 -13 -23 -25 -35 -37c-11 -13 -23 -25 -35 -38c-10 -9 -19 -17 -27 -24c-7 -7 -11 -9 -11 -8c0 2 1 6 4 10c3 6 6 11 9 16c3 6 7 12 10 17s6 10 9 14c36 50 73 99 112 147c39 49 80 97 123 145c-50 -5 -100 -11 -150 -18
c-51 -7 -104 -12 -160 -17c-26 -2 -52 -4 -80 -5c-26 -1 -54 -1 -82 0c-1 0 -4 0 -9 1s-7 2 -6 3c1 2 5 4 12 5c7 2 15 4 24 6c9 1 17 2 25 4c8 0 14 1 17 2c54 9 108 17 163 24c54 8 112 17 175 27c19 3 39 6 58 9s39 6 58 9c13 14 27 28 39 43c14 14 27 28 40 41
c53 56 106 110 162 163c54 53 112 105 173 157c30 25 60 51 90 75c30 26 61 50 92 73c19 15 38 29 57 43c20 15 41 29 62 42c9 6 18 10 28 10c11 2 20 -4 27 -15zM729 368c1 3 3 10 7 19s8 21 14 33c4 14 10 27 16 42c7 15 13 29 18 42c6 14 12 27 16 38c6 11 9 20 12 27
c8 18 17 38 28 61c10 23 21 46 32 68c11 24 23 46 34 68s22 42 31 59c-44 -33 -89 -70 -137 -110c-46 -40 -93 -82 -140 -125c-47 -44 -92 -89 -137 -134c-45 -46 -87 -91 -126 -136c33 5 66 10 98 14c32 6 65 10 98 15c23 3 45 7 67 9c23 4 46 7 69 10z" />
    <glyph glyph-name="B" unicode="B" horiz-adv-x="1040" 
d="M1093 395c8 -31 7 -62 -5 -91c-10 -30 -24 -57 -40 -82c-21 -32 -46 -62 -72 -90c-28 -27 -56 -53 -87 -76c-30 -23 -61 -45 -94 -66s-66 -40 -100 -57c-73 -36 -147 -67 -223 -93c-77 -25 -154 -46 -233 -62c-72 -15 -145 -27 -219 -34c-74 -8 -148 -11 -221 -9
c-14 1 -24 1 -29 2c-6 1 -10 2 -13 4c-1 1 0 2 5 3s7 1 8 1c21 1 43 4 66 7c22 3 44 7 67 10c75 12 150 27 225 44s148 38 221 63s145 54 215 87c72 33 141 72 210 116c48 32 95 69 140 111s83 88 113 138c7 15 12 30 15 45c4 16 2 32 -5 47c-6 13 -14 23 -23 32
c-10 9 -21 16 -33 21c-12 6 -25 11 -37 14c-14 4 -26 7 -38 9c-55 9 -111 10 -166 4s-110 -16 -163 -29c-36 -42 -72 -84 -109 -124c-37 -42 -73 -82 -109 -123c-2 -2 -8 -9 -19 -21s-23 -26 -38 -42c-15 -17 -30 -34 -48 -52c-16 -19 -32 -36 -47 -51s-27 -28 -37 -38
s-15 -14 -16 -13c-2 1 -1 5 2 12s8 14 12 22c6 7 10 14 15 21s8 11 9 12c34 46 68 91 101 137c33 44 68 90 104 135c15 20 31 40 47 59c16 20 32 40 49 60c-13 -3 -26 -5 -39 -8c-12 -3 -24 -6 -37 -9l-70 -16c-23 -5 -48 -11 -73 -16c-2 -1 -5 -1 -10 -1c-4 -1 -6 0 -5 1
l5 5c4 1 7 3 10 5s6 4 9 5s5 2 6 2c40 17 79 31 118 42c39 12 79 23 122 34c4 5 8 9 11 13s7 8 11 13c25 30 50 59 75 88s51 57 78 85c13 13 25 26 38 39c13 12 26 24 40 35c1 1 3 3 6 5c4 4 8 6 12 8c5 3 9 5 12 6c4 2 7 2 8 1c0 -7 -2 -15 -6 -22s-8 -14 -11 -21
c-25 -39 -52 -77 -81 -113l-88 -108c36 11 69 24 99 37c30 14 62 29 95 45c30 15 58 33 84 53c25 21 47 46 64 76c9 21 0 40 -26 57s-66 27 -120 30c-55 3 -122 -2 -200 -17c-80 -14 -167 -41 -264 -81c-17 -7 -34 -15 -50 -23c-15 -8 -31 -17 -47 -26c-1 0 -3 -1 -5 -2
c-4 -2 -7 -4 -10 -6c-3 -1 -6 -2 -10 -4l-4 -1c-1 1 0 2 4 5c2 3 6 6 10 8c3 4 7 6 10 8c3 3 5 4 6 5c30 21 61 41 94 60c32 19 65 36 99 52c51 23 101 41 150 54s95 23 139 27c42 6 82 6 117 3s64 -10 87 -21c13 -6 25 -14 35 -25s17 -23 23 -35c4 -14 6 -27 6 -42
c-2 -15 -6 -29 -15 -43c-18 -29 -40 -54 -67 -77c-26 -23 -53 -43 -81 -61c-16 -11 -32 -21 -48 -30s-33 -18 -51 -27h26c32 -1 64 -2 96 -4c32 -1 64 -7 95 -17c27 -9 51 -22 73 -41s37 -43 45 -73z" />
    <glyph glyph-name="C" unicode="C" horiz-adv-x="948" 
d="M1029 842c20 -14 33 -31 39 -52c6 -20 8 -41 5 -63s-9 -44 -19 -65s-21 -40 -33 -56c-11 -15 -22 -28 -35 -41c-12 -13 -25 -25 -40 -36c-1 -1 -3 -2 -6 -5c-4 -2 -8 -4 -12 -7s-8 -5 -11 -6s-5 -1 -5 0c1 0 1 0 1 1s0 1 1 2l3 3c11 14 20 26 28 36s15 19 21 28
s12 17 17 26s11 18 16 29c7 13 13 28 21 44c6 18 10 34 12 51c0 17 -2 32 -10 45c-6 14 -21 24 -42 31c-19 3 -38 4 -57 1c-19 -2 -37 -6 -56 -12c-19 -5 -37 -12 -55 -20c-17 -7 -34 -15 -51 -23c-69 -36 -132 -81 -191 -135c-58 -53 -112 -110 -162 -169
c-25 -30 -49 -61 -73 -92s-46 -64 -67 -97s-39 -68 -56 -104c-17 -35 -30 -72 -40 -110c-5 -19 -9 -39 -10 -60s3 -42 12 -61c11 -17 25 -29 44 -35c18 -7 38 -10 58 -10c22 1 42 3 64 8c20 5 39 9 55 14c60 21 117 46 171 77c53 31 105 65 155 103c50 39 99 80 146 125
s95 91 143 139l4 4l8 8c3 3 5 5 7 6s3 2 4 1c-1 -5 -3 -11 -7 -19c-4 -7 -8 -14 -12 -20c-17 -27 -36 -54 -57 -80c-21 -28 -42 -53 -64 -76c-51 -56 -106 -107 -165 -154c-58 -46 -120 -87 -187 -124c-26 -13 -57 -28 -91 -42c-36 -16 -71 -27 -108 -35s-73 -10 -108 -7
c-35 4 -66 18 -93 41c-19 17 -33 36 -41 59c-8 22 -12 45 -12 70s3 50 8 75s12 49 20 72c28 73 64 142 106 206c44 64 91 125 143 184c52 58 108 112 167 163s124 94 194 130c19 9 42 19 68 29s53 18 80 23c28 5 56 7 82 6c28 -2 52 -10 73 -24z" />
    <glyph glyph-name="D" unicode="D" horiz-adv-x="987" 
d="M1158 813c36 -18 64 -42 85 -73s28 -68 22 -112c-5 -29 -16 -60 -33 -91c-16 -31 -35 -62 -58 -92c-22 -30 -46 -59 -72 -87c-25 -27 -49 -52 -72 -75c-85 -81 -178 -151 -279 -212s-206 -112 -317 -154c-67 -25 -134 -45 -198 -60c-66 -15 -125 -27 -179 -35
s-100 -13 -138 -16s-63 -4 -76 -3c-1 0 -3 0 -6 1s-7 2 -11 2c-4 2 -8 2 -10 4c-4 0 -5 2 -5 3c-1 1 4 2 13 3c10 2 21 4 32 6c12 2 23 4 34 5s17 2 18 2c77 14 158 33 244 57c85 25 170 54 256 90c84 34 166 74 246 120c78 44 150 95 214 150c37 31 74 63 110 96
s69 65 100 96c31 32 58 63 82 92c24 30 42 58 55 84s19 50 19 72c0 21 -8 40 -25 55c-20 17 -48 29 -84 37c-36 7 -76 12 -121 14c-44 1 -91 0 -140 -4c-49 -3 -97 -8 -143 -13s-89 -11 -127 -17c-40 -7 -71 -12 -96 -16c-55 -9 -108 -20 -159 -30
c-51 -12 -103 -22 -158 -31h-5c-1 0 -2 1 -1 2s3 3 8 6c49 19 95 37 139 52c42 15 89 30 138 43c153 43 309 66 467 68c38 0 77 -2 117 -6c40 -5 78 -16 114 -33zM160 54c-2 1 -2 4 0 8c1 5 3 8 4 11c11 18 20 33 28 47c9 12 17 25 25 37s16 24 25 36c8 12 18 26 29 42
c48 63 96 126 145 189c48 63 99 124 152 183c19 21 37 42 56 62s39 39 62 57c2 1 5 3 8 6s7 5 10 8c4 2 8 4 12 4c3 2 7 1 10 0c3 -3 4 -6 4 -10c-1 -3 -2 -7 -4 -11c-1 -4 -3 -8 -5 -11c-2 -4 -3 -7 -4 -9c-13 -24 -28 -47 -44 -69c-16 -23 -34 -47 -53 -72
c-50 -62 -102 -122 -154 -182c-54 -58 -106 -118 -158 -178c-23 -23 -44 -47 -65 -70s-43 -47 -66 -70c-3 -3 -6 -5 -9 -7s-6 -2 -8 -1z" />
    <glyph glyph-name="E" unicode="E" horiz-adv-x="926" 
d="M969 630c1 -3 -3 -6 -12 -10c-9 -3 -19 -7 -29 -10c-12 -4 -22 -7 -32 -10s-16 -4 -18 -5c-45 -13 -91 -25 -136 -35c-46 -9 -92 -20 -137 -33c-27 -33 -54 -65 -81 -96s-54 -63 -81 -95c-31 -37 -63 -74 -95 -110s-64 -72 -96 -110c-31 -36 -62 -74 -92 -112
c-29 -39 -57 -78 -84 -119c30 -1 60 1 88 7c30 5 59 11 88 18c82 19 163 41 243 66s160 50 241 74l84 27s57 17 86 22h4c1 -1 -1 -3 -4 -6c-4 -3 -7 -4 -8 -5c-25 -13 -49 -24 -74 -34c-24 -11 -49 -22 -74 -33c-77 -32 -154 -63 -232 -91c-77 -30 -156 -55 -237 -78
c-17 -5 -36 -10 -57 -16c-21 -7 -42 -12 -64 -16c-22 -5 -44 -7 -65 -8s-41 2 -58 9c-17 6 -29 15 -33 27c-6 12 -6 26 -3 41s10 31 19 49c9 16 19 33 30 48s21 29 32 42c10 12 18 21 23 28c64 80 130 157 199 232c68 74 137 148 208 222c-14 -3 -28 -6 -42 -8
c-15 -3 -29 -5 -43 -7c-1 0 -7 -1 -17 -3c-10 -1 -21 -2 -32 -4c-11 0 -22 -1 -30 -1c-10 0 -14 1 -14 4c0 1 1 1 2 3c1 0 3 1 4 2c34 15 70 27 106 36c38 10 76 20 116 29l60 63c21 20 42 40 63 59l30 27c12 12 23 19 33 23c3 1 4 0 3 -3c-1 -4 -2 -8 -5 -14
c-3 -4 -6 -10 -8 -14c-4 -6 -5 -9 -6 -10c-13 -19 -27 -38 -40 -56c-14 -18 -29 -36 -44 -54l114 24c37 7 75 14 113 19c1 0 7 1 17 3c9 1 20 2 31 4c11 0 22 1 31 1s14 -1 15 -3zM1458 904c-1 -2 -3 -4 -7 -6c-4 -1 -8 -3 -13 -4c-5 -2 -9 -4 -14 -4c-4 -2 -6 -2 -7 -2
c-71 -19 -142 -35 -213 -48c-72 -13 -144 -26 -215 -41c-43 -9 -85 -17 -127 -23c-43 -8 -85 -14 -128 -21c-2 -1 -10 -2 -24 -3c-15 -1 -32 -3 -52 -4c-20 -2 -41 -4 -64 -5c-22 -1 -42 -2 -60 -3c-19 0 -34 1 -46 2c-11 1 -16 4 -15 8c2 3 5 6 10 9c18 9 40 17 67 23
c27 5 51 10 73 15c43 9 85 17 127 23c42 8 84 14 127 20c85 12 169 23 253 34c83 11 167 20 252 29c1 0 6 0 14 1c7 1 16 1 24 2c10 1 18 1 25 0c7 0 12 -1 13 -2z" />
    <glyph glyph-name="F" unicode="F" horiz-adv-x="600" 
d="M1326 856h8c5 -1 7 -2 6 -3c-1 -2 -4 -3 -7 -4s-6 -2 -7 -3c-55 -15 -111 -29 -168 -40c-58 -11 -120 -23 -186 -36c-4 -1 -10 -2 -16 -3c-8 -1 -16 -3 -25 -5s-19 -4 -30 -6s-21 -4 -31 -6c-25 -5 -51 -10 -79 -16c-7 -11 -14 -21 -21 -32c-7 -10 -15 -20 -23 -31
c-26 -37 -53 -72 -80 -107s-55 -70 -83 -105c1 1 3 1 4 1c2 0 4 0 5 1c20 4 40 8 61 11c20 4 41 8 62 11c19 3 37 7 56 9c18 4 37 6 56 7h6h12c5 0 8 0 12 -1c2 -1 4 -2 3 -3c-1 -3 -4 -5 -7 -6s-6 -3 -9 -4c-21 -8 -43 -15 -65 -21c-21 -7 -43 -13 -65 -18
c-11 -3 -26 -7 -45 -12c-19 -4 -37 -8 -56 -12c-22 -5 -45 -10 -69 -15c-8 -9 -16 -18 -23 -26c-6 -7 -12 -14 -17 -21c-5 -6 -9 -10 -11 -13c-29 -35 -58 -69 -86 -104c-29 -35 -58 -69 -87 -104c-57 -68 -113 -135 -169 -202s-113 -133 -171 -200c-3 -3 -8 -9 -15 -17
c-6 -7 -13 -15 -20 -24c-8 -8 -16 -15 -23 -22s-13 -11 -18 -13c-1 -1 -1 1 -1 4c2 3 3 7 4 11c2 5 4 9 6 13l4 8c27 46 56 91 87 133c31 44 62 86 94 129c54 72 108 143 163 213s110 140 167 211l-96 -18c-32 -6 -64 -11 -96 -14c-1 0 -4 0 -7 -1h-12c-3 0 -6 0 -9 1
s-3 2 -1 3c5 5 13 9 23 14s21 9 33 13s24 8 36 11c11 3 21 6 30 8c19 5 39 10 59 16c20 4 40 9 60 14c1 1 3 1 5 2c3 0 5 0 7 1c3 1 5 1 7 2c5 5 11 12 18 20c6 7 14 16 22 27c10 11 20 24 33 39c28 34 56 68 85 101c28 33 57 66 87 99c-80 -14 -160 -27 -239 -40
s-159 -22 -240 -29c-19 -2 -38 -4 -58 -4c-18 -2 -38 -1 -57 1c-3 1 -7 1 -11 2c-5 1 -8 2 -11 5c-2 3 -1 5 3 8c4 2 7 3 8 4c7 3 14 6 24 9c8 3 17 5 25 7c41 11 83 21 124 28c41 8 83 16 125 23c62 11 124 21 186 30c61 9 123 18 185 26c3 1 7 4 11 9c6 5 11 10 16 14
c5 6 11 10 16 14c6 5 11 7 16 8c3 1 5 -1 5 -4c0 -4 -1 -8 -2 -13s-3 -9 -5 -13c-2 -5 -3 -7 -4 -8l132 18c43 5 87 11 131 16c38 5 77 10 116 14c39 6 78 9 117 10z" />
    <glyph glyph-name="G" unicode="G" horiz-adv-x="994" 
d="M1208 424c0 -3 -2 -6 -6 -9c-3 -3 -7 -5 -10 -7c-9 -5 -19 -9 -31 -14s-25 -9 -37 -14l-40 -14c-12 -5 -24 -9 -35 -14c-2 -3 -4 -7 -6 -10c-2 -4 -5 -9 -10 -16c-19 -30 -40 -59 -61 -86c-21 -28 -44 -55 -69 -81c-54 -58 -111 -111 -170 -160s-125 -91 -196 -126
c-21 -12 -46 -24 -75 -36c-28 -12 -57 -22 -87 -29s-60 -11 -90 -11s-58 6 -83 19s-46 30 -62 52c-15 22 -25 48 -28 77c-4 36 -2 73 6 111c7 37 18 74 33 111s32 72 51 107c20 34 40 66 60 95c43 67 91 131 144 192c54 61 111 116 172 167c27 22 57 44 90 67
c32 23 66 43 101 60s71 31 109 39c36 10 73 12 110 8c17 -3 34 -7 50 -14c17 -7 31 -18 42 -34c11 -15 17 -32 19 -51s1 -37 -3 -57c-4 -18 -10 -37 -19 -56c-9 -18 -18 -34 -29 -49s-22 -30 -35 -44s-26 -27 -40 -38c-1 -1 -3 -2 -6 -5s-7 -5 -11 -8l-12 -6
c-3 -1 -5 -1 -5 0c0 2 3 6 7 12c6 7 12 16 20 27c9 11 18 25 28 40c11 15 21 33 31 53c8 16 15 34 21 54c5 19 7 39 6 58c-1 16 -6 29 -16 40c-8 10 -22 17 -39 20c-39 2 -78 -3 -115 -15c-38 -12 -74 -28 -109 -48s-68 -43 -99 -69c-32 -25 -61 -51 -88 -76
c-60 -55 -114 -113 -163 -176s-94 -129 -135 -198c-13 -21 -27 -47 -42 -76s-28 -60 -40 -92c-10 -31 -17 -63 -20 -94s3 -60 16 -85c10 -21 27 -33 50 -39c24 -4 50 -5 78 -1s56 11 84 21c28 9 52 18 71 27c71 32 139 71 201 117c64 47 124 97 181 150c26 23 51 48 76 73
s49 51 72 78c-17 -6 -35 -11 -52 -17c-17 -4 -35 -10 -52 -15c-35 -11 -71 -22 -107 -32s-72 -20 -108 -29c-4 -1 -13 -3 -26 -6c-14 -4 -28 -8 -44 -11c-14 -3 -28 -6 -41 -8s-20 -2 -23 1s0 8 11 15s24 14 39 21c31 13 62 26 94 38c32 11 64 22 97 32c37 11 74 23 111 34
s75 22 112 31c25 5 49 11 74 17c24 6 48 11 73 14c5 1 12 1 19 2c8 0 13 -1 16 -4z" />
    <glyph glyph-name="H" unicode="H" horiz-adv-x="858" 
d="M479 -186c-1 1 -1 2 -1 6c2 2 3 6 4 9s3 7 5 9c2 4 3 6 4 7c31 54 64 106 99 157s70 101 105 152c30 42 60 84 89 125s59 83 89 124c-15 -3 -31 -6 -45 -9c-16 -3 -30 -6 -45 -9c-55 -11 -109 -22 -163 -31c-55 -10 -110 -20 -165 -29c-11 -15 -23 -31 -35 -45
c-12 -16 -24 -31 -35 -46c-57 -74 -113 -147 -169 -220c-57 -72 -115 -143 -176 -214c-1 -1 -5 -6 -10 -12c-6 -8 -12 -15 -19 -22s-13 -14 -19 -19s-10 -7 -13 -6c-2 1 -1 6 2 13s7 15 13 24c4 9 9 17 14 24c4 7 7 12 8 13c29 46 60 91 90 137c32 44 63 89 94 134l80 112
l81 111c-40 -5 -80 -10 -119 -15c-40 -6 -80 -10 -121 -13c-15 -1 -31 -3 -47 -3c-15 -2 -31 0 -46 3c-1 1 -3 1 -6 2s-3 2 -1 5c3 3 7 6 13 8c7 2 13 4 18 5c34 9 68 17 102 23s68 12 103 19c24 4 48 8 72 11l72 12c11 15 23 30 33 46c12 14 23 30 34 45c23 31 46 61 70 91
c22 30 46 60 69 90c30 38 60 75 90 112c30 36 63 69 100 100c7 6 13 8 16 5c2 -2 3 -5 2 -8s-1 -6 -2 -7c-19 -43 -42 -85 -69 -124c-28 -39 -56 -78 -84 -116c-27 -38 -54 -75 -80 -111c-28 -36 -55 -72 -82 -109c67 9 133 19 200 29l200 30c11 14 22 28 32 43
c10 14 20 28 31 43c54 73 109 145 165 217c56 73 116 141 180 206c4 3 9 7 15 12s11 6 15 5c3 -3 3 -8 0 -15c-3 -8 -6 -14 -8 -18c-16 -32 -34 -62 -53 -90c-19 -29 -39 -58 -59 -87c-36 -51 -72 -101 -110 -151c-36 -50 -74 -100 -112 -150c28 5 52 10 73 12
c21 4 43 7 66 10c1 0 3 0 7 1s8 1 12 1c5 1 9 1 12 1c4 0 6 0 7 -1c1 -2 -2 -4 -7 -6c-6 -2 -10 -3 -11 -4c-30 -9 -60 -17 -91 -24c-30 -7 -60 -13 -91 -20c-50 -67 -100 -132 -149 -197c-50 -65 -101 -129 -153 -194c-28 -35 -56 -70 -83 -105c-27 -34 -56 -67 -87 -100
c-2 -1 -5 -4 -9 -9c-5 -5 -8 -6 -11 -5z" />
    <glyph glyph-name="I" unicode="I" horiz-adv-x="715" 
d="M1370 866c0 -1 -1 -3 -3 -4s-5 -2 -7 -4c-4 0 -6 -2 -8 -2c-3 -2 -4 -2 -5 -2c-72 -25 -149 -46 -231 -64c-81 -16 -166 -34 -255 -51c-24 -33 -50 -67 -77 -103c-28 -36 -56 -72 -86 -109c-28 -37 -58 -73 -87 -109c-29 -37 -57 -71 -84 -104
c-42 -50 -84 -100 -125 -150c-41 -51 -85 -101 -130 -151c-11 -12 -22 -24 -34 -37c-10 -12 -24 -24 -40 -36c-5 -2 -8 -1 -6 3c0 4 2 7 3 10c3 7 7 15 12 23c5 7 9 15 14 22c11 17 23 34 35 52c11 16 23 34 36 51c25 36 51 71 78 107c26 34 52 70 79 105
c54 71 108 140 163 209c55 68 111 135 170 202c-44 -7 -88 -15 -132 -24c-44 -8 -88 -15 -132 -22c-44 -6 -88 -11 -132 -14c-45 -3 -89 -3 -134 0c-4 1 -8 2 -13 4c-5 1 -5 4 -2 8c3 5 9 9 17 12c9 3 18 6 28 10c10 2 20 5 30 7c9 2 17 4 23 5c28 6 60 12 96 18
c36 7 73 13 111 20c38 6 75 12 112 18c36 5 68 10 97 14c29 5 52 8 69 10c18 3 27 4 28 4c7 7 15 15 24 22c8 8 17 14 26 18c5 3 9 3 10 0c1 -2 2 -5 1 -9s-2 -8 -4 -13s-3 -8 -4 -10c38 4 75 9 111 14c37 5 73 11 109 17s72 12 109 18s74 12 113 17h5c4 1 6 1 10 1
c2 0 5 0 8 -1c3 0 4 -1 4 -2zM639 -46h5c3 0 4 -1 4 -2c1 -2 -4 -5 -12 -8c-10 -4 -20 -8 -31 -12c-11 -3 -22 -6 -32 -9s-16 -4 -18 -5c-51 -13 -104 -26 -157 -39c-54 -13 -108 -25 -162 -35c-55 -12 -110 -21 -164 -30c-56 -8 -110 -14 -164 -18c-6 -1 -14 -1 -24 -2h-31
c-11 1 -21 2 -31 2c-10 2 -17 3 -22 6c-3 1 -4 3 -2 5c0 2 2 4 5 6s5 4 8 5l6 3c9 4 19 7 29 10c9 3 19 5 29 8c53 13 107 23 161 33c53 8 107 17 161 24l162 21s108 14 163 23c20 3 36 5 50 7c12 2 23 3 32 5c8 0 15 1 20 2h15z" />
    <glyph glyph-name="J" unicode="J" horiz-adv-x="712" 
d="M1520 859c0 -1 -1 -3 -4 -4s-9 -4 -18 -7c-25 -8 -51 -15 -76 -22c-26 -7 -52 -13 -79 -19c-21 -5 -46 -10 -75 -16c-30 -6 -60 -12 -92 -18l-90 -18c-28 -6 -52 -11 -71 -16c-52 -86 -104 -171 -157 -253c-53 -84 -109 -162 -170 -238c-61 -74 -127 -144 -199 -210
c-72 -64 -153 -122 -244 -172c-31 -17 -67 -33 -107 -48c-39 -15 -80 -28 -123 -38s-85 -16 -127 -18c-43 -3 -82 1 -117 10c-7 1 -13 4 -19 6c-7 4 -12 7 -16 10c-3 3 0 4 8 4c8 -1 17 -1 28 0c27 0 56 2 90 7c32 5 66 11 100 19c33 8 66 17 98 28c31 11 59 22 83 35
c91 49 174 105 248 168s143 130 207 202c63 72 123 148 179 229c56 80 112 163 168 248c-24 -5 -55 -10 -92 -16c-37 -5 -76 -11 -116 -17s-79 -12 -117 -17s-70 -10 -96 -14c-46 -5 -92 -10 -138 -14s-92 -6 -138 -6h-14c-8 1 -16 1 -25 2s-17 2 -24 4c-7 1 -11 3 -12 6
c-2 3 -1 6 5 8c4 3 8 4 10 5c32 11 66 19 102 27c35 6 70 13 104 18c37 6 74 12 111 16c37 6 74 11 112 16c21 3 49 6 84 11s72 10 109 15s73 10 108 15s62 8 82 11c19 24 38 47 54 68c18 21 37 43 60 66l6 6c3 2 5 2 7 1c1 -1 1 -2 1 -5c-2 -3 -2 -5 -3 -6
c-9 -21 -20 -42 -32 -62c-12 -21 -25 -42 -38 -63c15 2 35 5 61 9s53 8 82 12c28 5 55 9 81 13s46 7 61 8c2 0 8 1 17 2s21 3 34 5c13 1 27 3 43 4c14 2 28 4 42 4c12 2 23 2 32 2c8 -1 12 -2 12 -3z" />
    <glyph glyph-name="K" unicode="K" horiz-adv-x="628" 
d="M1303 922c1 -1 2 -1 3 -1l1 -2c-2 -2 -6 -3 -11 -5c-6 0 -11 -2 -14 -3c-7 -1 -13 -3 -20 -5l-20 -6c-33 -11 -66 -23 -98 -36c-31 -14 -63 -29 -94 -44c-33 -15 -65 -32 -96 -49s-63 -35 -94 -54c-19 -11 -40 -24 -60 -39c-22 -15 -42 -29 -61 -44s-37 -28 -53 -40
c-15 -13 -27 -22 -35 -29c-44 -35 -87 -72 -129 -109c-41 -38 -82 -77 -121 -118c-4 -5 -8 -9 -12 -13s-8 -8 -12 -13c3 -9 7 -20 13 -34c4 -12 9 -24 14 -35c28 -69 56 -137 84 -205c29 -68 60 -135 94 -200c15 -30 32 -61 50 -92s40 -59 65 -82c12 -11 24 -19 36 -26
c1 -1 3 -2 5 -3s3 -3 3 -4c0 -5 -4 -7 -13 -5c-8 0 -18 4 -30 8c-12 6 -25 12 -38 20s-25 17 -35 26c-26 25 -49 53 -69 84c-19 30 -38 61 -56 92c-36 65 -68 131 -94 198c-28 68 -53 137 -76 208c-8 -9 -16 -18 -24 -26c-7 -9 -15 -18 -22 -27c-23 -27 -45 -55 -66 -83
c-20 -29 -40 -58 -61 -89c-9 -15 -19 -29 -28 -43c-9 -15 -19 -29 -28 -44c-8 -13 -17 -27 -27 -42c-11 -14 -20 -25 -28 -34l-5 -5c-3 -3 -4 -3 -5 -1c-1 1 0 7 3 16c3 7 5 14 9 21c2 7 6 14 9 21c7 16 15 32 23 48c7 15 15 31 23 46c17 33 35 65 52 98c17 32 35 64 52 96
c14 26 29 53 44 82c15 28 30 55 44 80c-5 23 -10 42 -15 60c-4 16 -8 37 -11 60c-1 4 -1 10 -2 18c-1 9 0 15 2 18c1 2 2 2 4 0c2 -1 4 -3 6 -6s4 -6 6 -8c2 -4 3 -6 4 -7c7 -13 14 -27 20 -41c6 -13 12 -27 18 -40c1 3 3 5 5 8c1 3 3 5 4 8c37 65 74 130 112 194
c37 65 77 128 119 191c10 15 20 29 30 43c10 15 21 29 32 42c1 1 4 4 8 10c4 4 8 10 13 14c5 6 9 10 14 12c4 4 7 4 9 1c4 -5 3 -14 -2 -27c-5 -12 -10 -23 -14 -32c-11 -23 -22 -47 -33 -70c-12 -23 -25 -47 -38 -70c-36 -65 -73 -130 -111 -194s-76 -128 -115 -193
c31 31 59 59 84 83c25 25 48 47 70 67s43 39 64 55c21 18 43 34 66 52c23 16 49 34 76 53s59 40 95 63c33 21 66 41 101 60c35 18 69 34 102 49s66 27 97 39c31 10 61 19 88 26c16 3 33 6 51 9c17 3 34 2 49 -1z" />
    <glyph glyph-name="L" unicode="L" horiz-adv-x="919" 
d="M953 97c1 -1 0 -2 -1 -3c-3 -3 -7 -5 -10 -7c-4 -2 -8 -4 -11 -6c-26 -11 -52 -23 -78 -35c-26 -11 -52 -23 -78 -34c-39 -16 -77 -32 -116 -46c-39 -16 -78 -30 -117 -44c-63 -23 -126 -45 -190 -66c-63 -21 -128 -36 -194 -47c-11 -2 -24 -4 -39 -5s-29 -1 -43 1
c-15 2 -28 7 -38 13c-12 8 -18 19 -21 34c-3 16 -1 32 8 48c9 17 17 32 25 45c24 38 50 75 78 109c28 36 56 70 85 104c57 69 115 136 175 202c58 65 119 131 180 196c59 64 119 127 179 188c25 25 49 50 74 76c25 24 50 49 76 72c1 1 3 3 7 6l15 12s10 7 15 10c4 2 6 2 7 0
c1 -3 1 -6 -1 -10c-3 -3 -5 -6 -6 -8c-23 -37 -48 -72 -75 -106c-27 -33 -55 -66 -82 -99c-56 -69 -113 -136 -169 -202c-58 -66 -115 -132 -173 -199c-30 -35 -60 -69 -89 -103s-59 -69 -89 -104c-15 -17 -30 -35 -45 -53c-14 -17 -28 -35 -42 -53c-14 -17 -28 -35 -41 -53
s-25 -37 -36 -56c42 0 83 4 123 14c41 8 81 18 121 28s79 21 119 32c38 12 78 24 118 35c54 16 108 33 162 51c53 18 107 35 161 50c1 0 4 1 10 3s12 4 19 6s13 3 18 5c5 0 8 0 9 -1z" />
    <glyph glyph-name="M" unicode="M" horiz-adv-x="1052" 
d="M1498 872c4 -7 6 -14 6 -22c-1 -7 -3 -14 -8 -21c-17 -22 -34 -43 -53 -65c-19 -20 -36 -42 -53 -63c-24 -30 -48 -60 -72 -91c-24 -30 -48 -61 -71 -92c-45 -59 -89 -118 -132 -178s-85 -122 -124 -185c-20 -31 -39 -63 -58 -95c-19 -33 -35 -66 -50 -101
c-6 -15 -11 -31 -16 -47c-5 -15 -8 -31 -11 -48c-1 -1 -1 -5 -1 -10s-1 -8 -3 -9c-3 -1 -5 1 -6 5c-2 5 -3 8 -4 9c-3 8 -5 17 -6 25c-1 10 -1 19 0 28c3 36 11 71 24 104c12 34 26 67 41 99c15 33 32 64 49 95c18 31 36 61 55 91c21 34 45 69 71 107c26 36 53 74 80 110
c28 38 56 74 84 109c27 35 53 69 78 100c-26 -17 -54 -37 -82 -59c-30 -21 -59 -43 -89 -66c-30 -22 -59 -44 -89 -66c-28 -22 -55 -42 -80 -60c-63 -46 -124 -93 -183 -140s-117 -98 -172 -152c-25 -23 -48 -48 -71 -73c-22 -25 -42 -53 -59 -82l-6 -10c-2 -3 -4 -7 -5 -10
c-4 -5 -7 -4 -8 3c-2 6 -3 11 -2 14c3 22 9 44 16 65c8 21 15 43 22 64c29 77 61 151 98 223c36 71 74 144 113 219c-116 -112 -229 -226 -338 -342s-216 -235 -321 -357c-13 -14 -25 -28 -37 -42c-12 -13 -24 -27 -37 -41c-3 -4 -8 -9 -14 -15l-18 -18l-14 -14
c-5 -4 -7 -6 -8 -6s-1 2 0 6c2 4 4 8 6 14c3 4 6 10 9 15s6 10 8 13l45 69c16 23 33 45 50 68c47 63 95 125 145 186s102 120 156 179c107 117 219 230 336 339c15 15 30 29 45 42s30 27 45 40c6 5 12 9 18 13s13 5 22 4c7 -2 14 -6 19 -12s8 -13 8 -20c0 -5 -1 -10 -3 -14
c-2 -3 -4 -7 -6 -11c-16 -31 -33 -62 -49 -93c-18 -31 -35 -62 -52 -95l-105 -195c-35 -66 -69 -132 -102 -199c30 45 64 87 102 125c38 40 77 77 117 114c90 82 182 159 278 232c94 73 192 144 291 214c19 15 40 29 62 42s43 28 63 43c7 4 14 6 21 7c6 1 12 1 19 -2
s12 -7 16 -14z" />
    <glyph glyph-name="N" unicode="N" horiz-adv-x="834" 
d="M1555 1005c3 -1 4 -2 3 -3s-2 -3 -4 -4c-1 -1 -3 -2 -5 -4c-2 0 -3 -1 -4 -2c-25 -13 -47 -29 -64 -48c-26 -25 -54 -53 -83 -82c-29 -30 -60 -61 -90 -94c-32 -32 -63 -65 -94 -98c-31 -34 -62 -67 -92 -100s-59 -64 -88 -96c-28 -30 -54 -59 -78 -86
c-34 -38 -67 -76 -100 -114s-66 -76 -100 -114c-13 -14 -28 -32 -47 -54s-38 -44 -59 -66c-20 -23 -40 -44 -62 -64c-20 -19 -40 -34 -58 -44c-5 -3 -11 -4 -16 -2c-5 1 -11 4 -16 8c-10 12 -16 30 -18 54s-2 49 1 76s7 53 11 78c6 25 10 46 13 61c13 55 27 108 43 161
c17 53 35 105 55 157l-1 -1c-38 -38 -75 -77 -110 -117s-71 -81 -106 -122c-73 -85 -146 -170 -216 -257c-72 -87 -140 -176 -206 -267c-11 -17 -24 -34 -36 -49c-14 -15 -26 -32 -39 -49c-3 -3 -7 -8 -11 -13c-3 -5 -7 -8 -11 -9c-3 0 -3 2 -2 7s3 10 7 16c2 7 6 13 9 19
s6 10 7 12c19 36 40 71 62 106c23 35 45 69 68 103c47 71 96 139 147 206s103 133 156 198c37 43 73 86 111 128c36 42 74 84 113 125c19 19 38 39 56 60s38 41 59 60c7 7 16 13 26 19c10 5 20 5 31 0c10 -7 15 -17 15 -29c0 -7 -1 -13 -4 -19c-3 -5 -5 -11 -8 -17
c-25 -51 -48 -102 -70 -155c-20 -52 -41 -105 -60 -158c-9 -27 -18 -54 -28 -81c-8 -27 -17 -54 -24 -81s-14 -54 -20 -81s-11 -54 -14 -81c27 18 51 38 72 62c22 22 44 46 66 70c58 63 114 126 168 190c55 64 110 128 167 193c19 21 43 45 71 73c28 29 57 58 87 87
s59 58 88 85c29 28 53 51 74 70s41 38 63 56c20 17 42 35 64 52c19 15 40 29 62 42s45 22 69 27z" />
    <glyph glyph-name="O" unicode="O" horiz-adv-x="835" 
d="M1069 723c3 -39 -2 -80 -13 -123s-27 -85 -46 -126c-20 -41 -42 -81 -67 -119s-49 -72 -72 -103c-27 -36 -55 -70 -85 -102c-29 -32 -60 -63 -92 -93c-27 -26 -57 -52 -88 -79c-31 -26 -64 -50 -98 -72c-35 -22 -70 -41 -106 -57c-37 -16 -74 -27 -111 -33
c-23 -4 -47 -4 -69 0c-24 3 -45 12 -64 27c-16 14 -28 30 -36 49c-7 18 -12 37 -14 58s-2 42 0 63c3 21 6 42 11 62c11 44 25 87 44 129c19 41 40 81 63 119c24 38 50 74 78 109s58 67 90 96c28 29 57 55 88 79c30 24 62 45 96 64c16 7 33 15 50 22c18 7 36 13 54 16
c3 1 7 1 11 1c4 1 7 0 10 -1s2 -3 -3 -5c-4 -3 -6 -5 -7 -6c-7 -4 -14 -8 -21 -11c-6 -3 -13 -7 -20 -11c-33 -19 -64 -41 -94 -66s-59 -51 -86 -80c-30 -30 -58 -62 -86 -96c-26 -33 -52 -68 -75 -105c-25 -36 -49 -74 -71 -113s-41 -81 -58 -125c-7 -17 -13 -37 -18 -59
c-6 -22 -9 -44 -8 -65c0 -21 4 -41 13 -58s24 -29 46 -36c21 -7 43 -9 65 -4c23 5 44 11 64 20c35 15 68 34 100 57c30 22 61 46 90 72c43 36 87 77 134 122c46 46 91 95 134 147c44 52 84 107 120 163c37 58 66 116 89 175c6 15 11 31 15 48c5 17 7 35 8 51
c0 18 -3 34 -8 50c-5 15 -14 29 -27 41c-17 15 -35 25 -55 29c-20 6 -40 8 -61 7s-41 -4 -61 -9c-21 -5 -41 -11 -60 -18c-38 -11 -75 -25 -110 -42c-36 -17 -71 -36 -105 -57c-33 -21 -64 -44 -93 -69c-28 -25 -57 -50 -86 -77c-2 -1 -4 -3 -6 -5c-3 -1 -5 -2 -7 -3
c-3 -1 -3 1 -1 4c1 3 2 5 2 6c13 25 30 49 49 72s39 44 59 63c30 29 62 55 96 78c35 22 71 41 109 57c38 15 77 27 118 33c41 8 81 8 121 2c19 -3 39 -8 58 -15s37 -18 52 -33s27 -32 36 -52c8 -20 13 -41 15 -63z" />
    <glyph glyph-name="P" unicode="P" horiz-adv-x="735" 
d="M1163 762c-4 -27 -13 -53 -27 -76c-13 -23 -30 -45 -50 -65c-19 -20 -40 -38 -64 -55c-22 -17 -45 -32 -67 -46c-71 -44 -147 -80 -228 -109c-23 -9 -47 -17 -73 -24c-24 -7 -50 -14 -75 -19c-3 -3 -7 -8 -13 -15s-13 -15 -20 -23c-7 -9 -14 -17 -21 -25l-15 -18
c-59 -67 -117 -133 -174 -198s-116 -131 -175 -197c-14 -15 -28 -30 -42 -46c-14 -14 -28 -30 -43 -45c-6 -7 -12 -13 -18 -20c-7 -7 -14 -13 -21 -19l-3 -2l-6 -6l-6 -3c-1 -1 -2 0 -2 1c1 4 3 8 6 14c2 4 5 9 8 14c16 26 33 51 52 76c18 24 36 48 54 73
c52 71 105 140 159 209s109 137 166 206l-36 -6c-12 -2 -24 -4 -36 -5c-33 -5 -67 -9 -99 -11c-34 -3 -67 -3 -101 -2c-3 1 -7 1 -9 2c-4 0 -6 1 -8 2c-1 1 -1 2 2 4c3 1 6 3 10 4c3 1 7 2 10 4c4 0 6 1 7 1c10 2 25 5 43 10c20 5 41 9 64 15c23 4 47 10 72 16
c24 5 46 10 66 16c21 4 38 9 52 13c13 4 21 7 22 8c8 9 15 16 20 23c6 7 11 13 16 18c5 6 9 12 14 17s10 11 16 18c28 33 56 65 85 97c29 31 59 62 90 92c10 10 21 20 33 30c13 10 24 19 34 26c2 1 5 3 10 6c4 3 7 3 8 0c2 -4 1 -11 -3 -20s-9 -19 -15 -29
c-5 -10 -11 -19 -17 -28s-10 -14 -12 -17c-25 -35 -50 -70 -77 -102c-27 -34 -54 -67 -81 -100c59 19 119 39 179 62c59 23 115 52 167 87c17 11 33 23 47 35c16 13 30 26 43 41c7 8 14 17 21 27s12 20 14 32c4 10 4 21 3 32s-6 21 -14 31c-13 16 -30 28 -50 37
c-20 8 -40 14 -59 19c-42 10 -86 15 -130 15c-46 1 -89 -1 -132 -4c-90 -6 -179 -19 -267 -39c-84 -19 -166 -44 -245 -73c-80 -30 -158 -65 -235 -104c-9 -5 -17 -9 -25 -14c-9 -4 -17 -8 -26 -12c-1 -1 -3 -2 -6 -3c-4 -1 -6 -2 -5 -1c1 3 4 6 7 9c4 3 7 5 9 6
c15 11 31 22 45 33c16 10 31 20 46 29c39 25 84 49 134 74s103 48 160 69s115 40 176 56s121 28 182 36c60 7 119 10 178 6c58 -2 113 -12 164 -29c16 -5 32 -12 48 -20s31 -18 44 -29c13 -12 24 -26 32 -41c9 -15 13 -32 13 -51z" />
    <glyph glyph-name="Q" unicode="Q" horiz-adv-x="842" 
d="M1083 693c1 -24 0 -48 -5 -72s-11 -47 -20 -71c-8 -22 -17 -45 -28 -67s-22 -43 -33 -63c-19 -35 -41 -69 -64 -102c-23 -32 -48 -63 -73 -93c-27 -30 -54 -59 -81 -87c-27 -27 -56 -54 -85 -79c-13 -11 -25 -21 -38 -32c-12 -11 -25 -21 -38 -30l27 -69
c9 -22 18 -45 27 -69c14 -37 29 -73 44 -109c16 -36 34 -71 53 -106c8 -15 17 -30 27 -46c10 -14 22 -27 35 -37c3 -3 7 -6 10 -8l10 -6c5 -3 6 -5 3 -6c-2 -1 -4 -2 -7 -2c-8 -1 -16 0 -23 3c-8 4 -15 8 -22 13c-14 11 -27 23 -38 37c-12 15 -23 30 -34 45
c-11 17 -20 35 -30 51c-8 18 -17 35 -26 53c-18 37 -34 74 -50 113c-14 38 -29 77 -42 116c-28 -19 -56 -38 -83 -54c-27 -18 -56 -33 -85 -46c-18 -8 -38 -16 -58 -23c-22 -7 -43 -13 -64 -15c-22 -4 -44 -3 -64 0c-22 4 -41 13 -58 27c-15 13 -26 28 -32 46
c-8 18 -11 37 -12 57c-1 39 4 78 15 116c11 37 25 73 40 107c34 75 74 145 120 210s97 126 152 181c37 38 77 74 119 106c42 34 86 61 133 83c15 7 30 13 45 17c16 6 32 9 47 10c4 -1 6 -2 5 -3s-2 -3 -5 -5c-10 -5 -20 -11 -31 -16c-10 -5 -20 -11 -30 -17
c-45 -28 -86 -60 -126 -96c-38 -36 -76 -74 -112 -114c-27 -30 -53 -61 -78 -92c-24 -31 -48 -64 -71 -98s-46 -68 -67 -103c-22 -34 -42 -70 -59 -107c-7 -14 -15 -30 -22 -47s-13 -35 -19 -54c-4 -18 -8 -36 -10 -54c-1 -19 0 -36 4 -53c5 -17 14 -29 26 -36
c13 -7 26 -12 42 -13c14 -1 30 0 45 2c15 4 29 7 40 10c36 12 71 28 103 50c34 20 65 43 96 66c3 1 6 4 10 6c3 4 7 6 10 9s7 6 11 10c-3 13 -7 27 -11 39c-4 14 -8 26 -11 39c-7 23 -14 47 -19 72c-6 25 -11 50 -15 75c-1 3 -1 7 -2 10c-1 4 -1 8 0 11s2 4 3 3
c2 -1 4 -3 6 -6c1 -3 3 -6 4 -8c2 -4 3 -5 3 -6c15 -32 29 -65 39 -99c12 -34 24 -67 37 -100c55 49 108 101 159 156s98 114 143 175c16 22 33 46 51 74c19 26 35 55 50 84c14 30 25 60 33 92c8 30 9 61 4 92c-5 29 -16 52 -33 68c-17 15 -36 26 -59 32s-47 8 -74 6
c-27 -3 -53 -7 -79 -14c-26 -6 -50 -13 -74 -22c-22 -9 -41 -16 -56 -23c-133 -62 -254 -144 -365 -246c-11 -9 -21 -19 -31 -30s-21 -21 -32 -30c-1 -1 -3 -3 -5 -4s-4 -2 -5 -2s-1 2 0 5c1 4 2 6 3 7c7 12 15 24 24 37c19 29 41 55 64 80s47 48 72 70c29 25 59 49 91 72
c31 22 64 41 98 58c68 33 139 55 212 66c38 5 76 7 114 5s74 -13 108 -33c24 -15 42 -36 56 -62c12 -27 20 -56 21 -87z" />
    <glyph glyph-name="R" unicode="R" horiz-adv-x="870" 
d="M983 888c29 -9 54 -22 73 -38c20 -16 34 -34 42 -54c7 -21 8 -43 2 -66c-6 -24 -20 -48 -42 -73c-19 -23 -41 -43 -65 -63c-24 -18 -49 -36 -74 -52c-33 -21 -66 -39 -101 -55c-34 -16 -69 -30 -105 -43c-20 -7 -40 -14 -61 -18c-20 -6 -40 -12 -61 -19
c6 -10 13 -24 21 -43c8 -18 17 -39 28 -62c20 -48 41 -98 63 -152c22 -52 44 -105 66 -157c23 -51 47 -103 71 -153c24 -52 50 -99 78 -142c14 -19 28 -37 41 -52s30 -28 49 -38c2 -1 3 -2 3 -3c0 -3 -3 -5 -11 -5c-6 -1 -17 1 -31 4c-16 5 -31 14 -47 26
c-14 14 -28 27 -39 40c-36 41 -68 88 -95 139c-28 51 -54 104 -77 158c-23 53 -45 106 -63 161c-20 55 -37 108 -52 159c-6 23 -11 44 -15 63s-7 34 -9 46c-9 -11 -19 -22 -28 -32c-9 -11 -19 -22 -28 -33c-104 -119 -209 -238 -315 -357c-18 -19 -36 -39 -55 -60
c-19 -20 -38 -39 -57 -57c-1 -1 -3 -3 -8 -7s-7 -5 -8 -3c0 4 1 8 4 12s6 9 9 14c16 23 32 45 47 68s31 45 48 67c48 64 97 127 145 189c50 62 99 124 150 186c-11 -2 -22 -4 -33 -5c-11 -2 -22 -4 -33 -5c-25 -3 -52 -6 -78 -9c-28 -3 -54 -4 -80 -4h-20c-9 1 -15 2 -18 5
c-1 1 -1 2 2 3c2 1 5 3 8 4s6 2 10 4c2 0 5 1 6 1c8 2 16 4 24 5c7 2 15 4 22 5c22 5 43 9 62 13c20 5 40 9 59 14c19 4 39 9 59 14c21 5 42 12 64 19c6 8 15 19 27 32s23 26 32 37c25 30 51 59 77 88c26 28 53 56 81 83c7 6 13 12 20 19c7 6 13 12 20 17c1 1 4 3 7 5
c3 4 7 6 10 9c4 3 8 5 12 6c3 1 6 1 8 0c3 -3 3 -9 0 -17c-3 -9 -8 -18 -14 -26c-5 -10 -11 -18 -16 -26c-6 -8 -10 -13 -12 -16c-23 -32 -46 -63 -70 -93s-48 -60 -73 -90c54 17 108 36 161 56c54 20 105 46 152 78c10 7 20 14 31 22s21 17 31 25c10 10 19 19 27 30
c8 10 14 21 19 32c9 19 11 35 6 48c-5 14 -13 26 -24 36c-12 9 -26 17 -42 23c-15 6 -30 11 -44 15c-39 9 -78 14 -118 13s-80 -2 -119 -4c-80 -5 -161 -17 -242 -36c-75 -17 -149 -39 -221 -65c-73 -27 -143 -58 -212 -94c-7 -4 -15 -8 -23 -12s-16 -8 -24 -11
c-2 -1 -4 -1 -5 -2l-5 -2c1 3 5 7 13 13c6 5 15 12 25 18c10 8 20 14 31 21s20 13 29 18c40 25 84 49 131 73c47 22 97 44 148 62c52 20 105 36 158 50c54 13 108 23 161 28c53 6 105 8 156 4c51 -2 99 -11 144 -26z" />
    <glyph glyph-name="S" unicode="S" horiz-adv-x="964" 
d="M642 549c27 0 58 0 93 1c35 0 70 -1 105 -3s69 -6 101 -13c32 -6 59 -16 81 -30s37 -33 46 -56c8 -23 6 -53 -5 -89c-11 -35 -29 -67 -53 -95c-23 -28 -49 -53 -76 -76c-33 -27 -67 -53 -102 -76s-72 -45 -110 -66c-44 -24 -88 -46 -132 -67s-89 -40 -134 -58
c-45 -17 -90 -33 -136 -48c-44 -15 -90 -28 -137 -39c-23 -6 -47 -11 -71 -16c-25 -5 -49 -6 -73 -5c-12 1 -24 2 -36 4s-23 6 -33 12c-11 7 -18 15 -23 23c-5 10 -7 19 -8 30c-1 10 1 20 3 31c4 11 7 21 11 31c13 30 32 58 55 84s47 51 70 74c3 3 6 6 12 10c4 5 10 9 15 14
c5 4 10 7 14 10s7 4 8 3s1 -3 -1 -7c-2 -2 -3 -4 -3 -5c-9 -13 -18 -25 -27 -37c-9 -13 -19 -26 -29 -39c-3 -3 -7 -9 -14 -19c-7 -8 -14 -19 -22 -31s-16 -25 -24 -38s-14 -26 -19 -38s-7 -23 -8 -33c0 -9 4 -16 11 -20c9 -6 20 -9 32 -9s24 1 35 2c27 3 58 9 94 18
c34 9 70 21 107 33c37 14 73 27 109 42c37 15 70 29 100 42c45 20 90 41 134 64c43 22 86 46 129 71c34 21 67 44 101 67c32 23 63 49 91 78c7 8 16 18 29 31c12 13 24 27 35 42s21 31 29 49c7 16 10 33 7 50c-3 15 -14 27 -35 35c-20 8 -46 13 -78 17c-32 2 -68 4 -109 3
s-83 -2 -125 -4c-44 -2 -86 -4 -128 -6s-80 -3 -115 -2s-64 3 -89 8c-24 5 -40 13 -48 24c-11 17 -6 40 15 71s60 65 117 103c83 53 172 93 265 120c23 6 46 11 69 15c22 3 45 5 70 4c9 -1 18 -2 28 -2c9 -2 18 -3 28 -6c8 -3 17 -7 24 -12c8 -5 14 -12 19 -21
c6 -13 7 -25 2 -37c-5 -11 -12 -22 -23 -32c-10 -9 -21 -18 -34 -26c-13 -7 -23 -13 -32 -18c-5 -3 -10 -5 -14 -6c-5 -1 -9 -2 -12 -3c3 2 10 8 22 19c13 11 25 22 36 36c11 12 19 25 23 37s-1 20 -15 25c-11 4 -22 6 -34 6c-10 0 -22 -1 -33 -2c-12 -1 -24 -3 -36 -5
s-24 -5 -35 -8c-47 -12 -93 -29 -136 -51s-86 -46 -127 -71c-21 -14 -43 -29 -64 -45s-40 -35 -55 -56c15 -5 35 -9 60 -11c24 -2 49 -3 76 -3h77c25 1 47 1 65 1z" />
    <glyph glyph-name="T" unicode="T" horiz-adv-x="481" 
d="M1499 881c3 0 6 0 9 1c3 0 6 -1 8 -2s0 -3 -7 -6c-11 -3 -23 -7 -36 -10c-15 -3 -30 -6 -45 -10c-15 -2 -30 -6 -45 -9c-97 -20 -195 -39 -295 -57c-98 -19 -202 -38 -311 -59c-5 -7 -10 -13 -14 -19c-3 -5 -7 -10 -11 -15c-3 -5 -6 -8 -8 -11c-25 -34 -51 -67 -76 -100
l-78 -99c-26 -32 -52 -64 -78 -97s-53 -65 -80 -98c-54 -65 -108 -129 -160 -194c-54 -64 -108 -128 -163 -192c-20 -23 -40 -46 -59 -69c-20 -23 -41 -45 -63 -66l-5 -5c-3 -3 -6 -5 -8 -8c-4 -2 -6 -4 -9 -5s-4 -1 -4 1c0 4 1 8 3 12c3 5 5 9 7 12c15 25 31 50 47 74
c17 24 33 48 50 71c49 69 99 136 148 203c50 66 101 132 152 198l78 98l78 99s52 65 79 97c27 33 54 65 81 97l-10 -2c-8 -1 -16 -3 -26 -4c-9 -1 -19 -3 -30 -5s-20 -4 -28 -5c-79 -13 -158 -26 -238 -39c-78 -12 -158 -22 -239 -29c-26 -3 -53 -6 -79 -8
c-28 -2 -54 -2 -80 -1h-7c-3 1 -7 1 -11 2l-9 3s-3 3 -2 5c3 5 13 10 29 15c15 5 33 11 53 15c20 6 41 10 62 14s39 7 53 10c80 15 160 28 238 41c80 13 159 25 239 37c26 3 51 7 77 11c24 4 50 8 75 11l22 24c7 8 15 16 24 23c1 1 4 3 10 9c6 4 12 10 19 14
c7 6 13 10 19 12c6 4 10 3 11 0s1 -8 -2 -14c-2 -7 -5 -14 -9 -22c-4 -7 -8 -14 -13 -21s-8 -12 -10 -15c38 6 76 12 114 16c39 6 77 11 116 16s78 11 117 16s78 11 117 16c35 4 70 8 106 14c34 4 70 8 107 9z" />
    <glyph glyph-name="U" unicode="U" horiz-adv-x="833" 
d="M1331 989c3 -2 3 -5 3 -9c-2 -4 -3 -8 -4 -11c-14 -29 -30 -57 -48 -85c-18 -27 -37 -54 -56 -79c-23 -33 -47 -66 -71 -99c-24 -32 -48 -64 -73 -97c-51 -69 -103 -136 -155 -202s-105 -132 -159 -199c-51 -65 -102 -129 -153 -192s-103 -126 -157 -189l-18 -20l-18 -20
c-4 -5 -8 -9 -12 -13c-4 -5 -8 -9 -13 -12c-2 -1 -3 -1 -3 0c-1 2 -1 4 0 5c19 38 41 74 65 109s48 69 71 104c48 69 96 138 146 206c48 69 98 137 148 206c-57 -54 -116 -106 -174 -156c-60 -50 -120 -99 -183 -147c-34 -26 -68 -51 -102 -77c-34 -24 -69 -49 -105 -72
l-52 -34c-17 -11 -36 -21 -55 -30c-7 -3 -15 -7 -23 -10c-9 -3 -17 -5 -26 -6c-8 -1 -16 0 -24 2c-7 3 -14 8 -20 16c-5 7 -8 15 -8 25c1 10 2 20 4 29c5 16 11 32 19 47s16 30 25 45c42 73 87 144 134 213s94 139 141 208c23 35 46 69 69 104s44 70 65 106c5 9 11 19 19 33
c8 12 15 26 22 40c6 15 10 29 14 42c2 14 2 27 -3 38c-1 1 -1 3 -2 5s-1 4 -1 5c-1 2 0 3 2 2c3 0 4 0 5 -1c3 -2 6 -5 9 -8c2 -3 4 -7 5 -10c7 -15 9 -33 5 -53c-3 -20 -9 -39 -16 -57c-22 -57 -47 -112 -76 -165s-59 -105 -91 -156c-11 -18 -23 -36 -35 -56
c-13 -18 -27 -40 -43 -64c-16 -25 -35 -53 -55 -86c-22 -33 -46 -71 -75 -116l-33 -54s-21 -37 -30 -56c23 10 44 21 66 34c20 13 41 26 62 39c71 46 141 94 210 143c68 50 135 101 202 153c65 49 128 101 191 155l13 10c4 4 9 8 14 12c4 4 8 8 12 11c3 3 5 6 6 7
c19 26 38 51 58 76c18 25 38 50 58 76c25 33 51 65 77 96c26 32 53 64 80 96c10 11 20 24 31 36c10 14 21 26 32 38c11 13 23 25 35 36s25 21 38 28c2 1 5 3 8 4c3 2 6 2 8 1z" />
    <glyph glyph-name="V" unicode="V" horiz-adv-x="637" 
d="M1171 1036c3 2 5 1 4 -4c-2 -7 -7 -17 -15 -28s-16 -23 -23 -36c-10 -17 -20 -33 -31 -50c-11 -16 -22 -32 -33 -47c-47 -69 -94 -136 -143 -203c-48 -66 -97 -132 -147 -199c-101 -135 -204 -268 -310 -398c-25 -31 -51 -61 -77 -92l-78 -92c-13 -15 -26 -29 -38 -43
l-39 -42c-1 -1 -6 -6 -13 -14l-24 -24c-8 -9 -16 -16 -22 -22c-8 -7 -12 -10 -14 -9c-1 1 -2 2 -2 5v6c3 20 6 41 12 64c4 22 9 43 14 62l27 114c9 37 17 74 26 111c9 41 18 83 26 123c8 42 15 82 21 123c5 39 10 77 12 115c4 39 3 77 0 116c-1 18 -4 35 -10 50
c-4 16 -9 33 -14 50c-1 5 -1 7 2 6c2 0 5 -1 8 -4c4 -3 8 -6 12 -10c3 -3 5 -6 6 -7c5 -7 10 -15 14 -23c4 -9 7 -18 10 -27c13 -36 20 -74 20 -113c2 -39 1 -78 -1 -115c-3 -42 -9 -83 -15 -124c-8 -41 -16 -81 -25 -121c-9 -39 -19 -77 -30 -114s-22 -75 -35 -113
c-3 -11 -7 -22 -11 -33c-4 -10 -8 -21 -11 -32c5 10 11 19 17 28l18 26c23 34 47 67 69 100c24 33 47 65 70 97c50 69 100 136 152 202c50 66 102 132 154 198c52 65 104 129 156 193c53 62 106 126 160 189c20 21 39 43 58 65c18 22 37 43 58 64l18 18c5 5 11 10 17 14z
" />
    <glyph glyph-name="W" unicode="W" horiz-adv-x="939" 
d="M1591 983c0 -1 -3 -6 -9 -13c-7 -7 -14 -15 -22 -24s-16 -17 -24 -25c-7 -8 -12 -13 -14 -15c-13 -14 -27 -28 -42 -43s-28 -30 -41 -45c-61 -64 -121 -128 -179 -192c-60 -63 -118 -129 -177 -196c-70 -87 -142 -172 -215 -256c-74 -84 -144 -170 -211 -259
c-5 -7 -9 -13 -14 -21c-5 -6 -11 -12 -18 -15c-13 -2 -22 -2 -29 1c-6 3 -10 7 -12 13s-2 13 0 21c1 9 4 18 7 27c21 71 42 141 65 212s49 139 79 206c17 40 35 79 53 117c18 39 39 76 63 111c-33 -36 -66 -72 -97 -107c-32 -36 -65 -73 -99 -110
c-58 -67 -117 -134 -175 -200c-60 -68 -118 -133 -177 -198c-32 -33 -63 -66 -93 -100c-31 -32 -62 -67 -94 -102c-12 -18 -26 -36 -42 -54c-4 -6 -10 -10 -18 -12c-9 -1 -15 -1 -20 1c-7 3 -13 8 -16 15s-4 16 -2 25c3 8 7 17 10 25c4 10 8 18 11 27c37 81 77 159 119 235
s86 153 132 230c22 37 45 74 68 110s48 72 73 108c23 36 48 71 73 104c25 34 52 67 81 99l10 10c5 5 11 11 17 16s12 10 16 14c6 4 9 5 10 4s1 -4 0 -7c-2 -4 -4 -7 -5 -10c-8 -17 -17 -34 -27 -50c-11 -17 -21 -34 -30 -51c-23 -37 -46 -74 -70 -109
c-22 -35 -44 -72 -65 -110c-45 -75 -88 -150 -129 -225c-42 -75 -82 -149 -120 -220c64 65 128 130 190 195c64 65 128 131 193 198c31 30 61 60 91 91c31 31 62 61 94 91c21 21 43 42 66 63s45 42 67 62c7 6 14 11 20 15s11 5 14 2c1 0 0 -2 -1 -6c-1 -3 -3 -7 -6 -12
c-3 -4 -5 -8 -8 -13s-5 -8 -7 -11c-29 -48 -53 -98 -74 -152c-21 -52 -41 -104 -60 -154c-13 -42 -27 -84 -40 -125s-25 -83 -36 -124c25 34 52 68 79 101c28 34 56 68 85 101c58 68 117 135 176 201c59 65 121 130 184 193c46 45 93 89 141 133c47 45 95 88 143 130
c3 2 8 6 17 13c8 7 17 13 26 21c9 6 18 13 27 18s15 8 18 7z" />
    <glyph glyph-name="X" unicode="X" horiz-adv-x="718" 
d="M1107 912c1 -2 1 -5 0 -8c-1 -4 -3 -7 -4 -8c-15 -19 -30 -38 -47 -54c-17 -18 -33 -35 -49 -54c-57 -59 -113 -118 -171 -176c-56 -57 -114 -115 -172 -174c-15 -15 -30 -30 -46 -44c-14 -15 -30 -30 -45 -45c1 -9 1 -18 1 -27c1 -10 1 -20 2 -29c3 -41 7 -82 10 -121
s8 -79 13 -119c5 -36 12 -72 21 -108c8 -36 22 -70 41 -102c1 -2 3 -6 7 -11c2 -5 3 -9 2 -10c-5 -4 -11 -4 -18 2c-7 4 -15 11 -22 19s-14 16 -20 25c-7 8 -11 14 -13 18c-9 15 -17 32 -24 49s-13 35 -19 52c-11 37 -20 74 -26 113c-7 39 -12 78 -15 117c-1 11 -3 21 -3 33
c-2 10 -3 22 -4 33c-34 -34 -68 -67 -100 -100c-34 -33 -67 -66 -102 -100c-29 -29 -58 -58 -88 -87c-28 -28 -58 -56 -88 -85c-28 -27 -56 -53 -82 -79c-28 -26 -56 -52 -86 -78c-1 -1 -5 -5 -11 -10s-12 -11 -19 -16c-7 -6 -13 -11 -18 -15c-6 -4 -10 -5 -11 -4
c-2 2 -1 7 3 13c5 8 10 15 16 24c7 8 13 16 19 23s10 12 11 13c38 46 77 90 116 133s79 86 119 130c52 57 104 114 157 169c53 56 106 112 159 167c-1 52 -1 104 1 157c1 52 5 104 10 157c1 18 3 36 5 53c2 18 5 36 8 53c1 9 3 18 5 28c1 10 5 19 10 26c3 5 5 5 8 -1
c2 -4 3 -8 4 -11c7 -51 10 -101 11 -152s2 -102 4 -153c1 -15 1 -30 1 -44c0 -15 0 -29 1 -43c52 52 104 103 156 155c52 50 105 101 160 151c15 13 31 27 45 39c16 14 31 26 47 39c1 1 5 5 12 10s15 11 24 18s19 13 29 21c10 6 20 13 29 18s17 9 23 12c7 2 11 1 13 -2z" />
    <glyph glyph-name="Y" unicode="Y" horiz-adv-x="907" 
d="M1330 957c2 -1 2 -4 0 -9c-2 -4 -3 -7 -4 -8c-27 -59 -59 -117 -95 -173s-72 -114 -109 -174c-47 -76 -95 -150 -144 -223c-50 -73 -103 -144 -159 -213c-57 -70 -116 -137 -178 -201c-62 -63 -129 -122 -202 -175c-69 -51 -142 -94 -219 -131c-78 -37 -160 -59 -246 -68
c-25 -3 -50 -4 -76 -4c-24 1 -50 3 -75 8c-1 0 -2 0 -5 1c-2 1 -4 1 -6 3c-3 0 -5 1 -6 2c-2 1 -2 2 -1 3s5 3 9 3c6 2 11 2 16 3c6 1 12 1 17 2s9 1 12 1c41 5 82 12 121 20c40 10 79 21 118 36c81 31 157 72 228 122s137 105 200 165c66 63 128 128 186 197
c57 68 113 138 167 211c51 68 100 136 147 205c48 69 96 137 144 206c-19 -20 -39 -40 -58 -58c-20 -20 -40 -39 -60 -58c-65 -61 -132 -121 -199 -178c-67 -58 -136 -115 -206 -171c-52 -41 -105 -83 -159 -125c-55 -41 -112 -77 -172 -107c-7 -4 -15 -8 -24 -11
c-8 -3 -16 -6 -24 -6c-9 -2 -17 -1 -24 2c-8 2 -15 7 -21 15c-5 9 -8 19 -8 28s2 19 5 28c4 13 9 26 15 39c6 12 13 24 20 35c15 26 32 51 49 76c18 25 36 49 53 74c25 36 51 71 77 105c26 35 52 70 77 105c15 21 30 41 45 63c15 20 30 42 45 63s28 43 41 66s24 46 34 69
c3 9 6 18 8 26c1 10 1 18 -2 27c-1 2 -2 4 -2 7c-2 2 -2 4 -2 5c0 2 1 3 3 2s4 -1 5 -2c6 -3 10 -8 13 -15c3 -6 5 -13 5 -20c2 -7 2 -15 0 -22c0 -7 -1 -14 -2 -19c-8 -39 -22 -78 -42 -115c-21 -38 -41 -74 -62 -107c-35 -58 -72 -114 -110 -169s-76 -110 -114 -166
c-13 -19 -26 -37 -38 -56s-23 -38 -34 -57c25 14 50 29 75 45s49 32 73 49c99 67 195 136 288 208c94 72 187 146 278 222c48 40 96 81 142 122c48 41 91 86 132 134l14 16c5 5 10 11 15 16l5 5c3 2 5 2 6 1z" />
    <glyph glyph-name="Z" unicode="Z" horiz-adv-x="948" 
d="M1448 911c1 -3 0 -5 -2 -8c-3 -3 -6 -5 -10 -8c-3 -3 -7 -5 -10 -7c-4 -2 -7 -3 -9 -4c-9 -5 -19 -10 -29 -14c-9 -4 -19 -8 -28 -11c-9 -4 -18 -8 -26 -11c-8 -4 -16 -9 -25 -14c-28 -15 -55 -32 -82 -50c-27 -17 -53 -35 -80 -53c-36 -25 -72 -51 -107 -77
c-35 -25 -71 -51 -107 -78c-126 -95 -249 -192 -367 -292c-120 -101 -237 -206 -353 -315c-17 -15 -33 -31 -49 -46s-32 -32 -47 -49c55 3 109 10 164 20c55 11 109 22 163 33c42 9 84 17 125 27c41 8 83 18 125 27c19 4 38 8 57 13c19 4 38 8 57 11c12 3 24 5 36 7
c11 2 23 4 35 5c2 0 3 -1 2 -1c-1 -2 -2 -2 -3 -4c-2 0 -4 -2 -6 -3c-3 -1 -4 -2 -5 -2c-14 -6 -29 -12 -45 -17c-18 -7 -36 -13 -54 -19c-19 -6 -37 -12 -56 -18c-9 -3 -26 -9 -50 -17c-24 -7 -53 -16 -86 -26c-33 -11 -70 -22 -109 -33s-79 -22 -119 -31
c-40 -10 -79 -18 -116 -26c-38 -6 -72 -11 -102 -12c-31 -1 -56 1 -76 6c-20 6 -32 16 -36 31c-2 7 -2 15 0 21c3 8 6 14 10 21c5 9 12 18 18 25c8 8 15 16 22 24c15 17 31 33 46 48c16 15 32 31 48 46c34 31 68 62 102 91s69 59 104 88c71 59 142 115 214 170
c71 55 144 108 219 160c72 51 145 101 219 148c73 47 149 92 228 133c-42 -13 -84 -24 -126 -35c-41 -11 -83 -21 -125 -30c-44 -11 -88 -21 -131 -29c-43 -10 -87 -18 -131 -26c-34 -7 -68 -13 -101 -19c-34 -6 -68 -11 -102 -14c-2 0 -4 0 -6 -1c-3 0 -5 1 -8 2
c-1 0 -2 0 -1 2c1 0 1 1 2 2c11 6 23 11 35 15c14 4 26 8 37 11l120 36c86 25 171 50 256 74c85 23 171 46 258 67c21 5 43 10 63 15c22 5 43 9 64 14c3 1 9 2 19 4s21 4 31 6c12 1 22 2 30 2c10 1 15 -1 16 -5z" />
    <glyph glyph-name="ampersand" unicode="&#x26;" horiz-adv-x="833" 
d="M858 823c0 -13 -2 -25 -8 -38c-4 -13 -11 -25 -18 -37c-8 -13 -16 -25 -26 -36c-8 -12 -17 -23 -25 -33c-18 -23 -37 -46 -56 -68s-39 -44 -58 -65c-25 -27 -50 -54 -75 -80l-76 -76c-11 -11 -23 -22 -34 -34c-11 -10 -23 -22 -36 -33c0 -18 2 -36 7 -55s11 -38 18 -57
c5 -13 11 -27 18 -42s15 -28 24 -39h3c1 1 5 2 12 4c7 3 17 6 31 11s34 11 59 20l84 27c28 8 56 14 85 18c5 1 12 1 20 2c8 0 14 -2 19 -5c1 -1 0 -3 -3 -4c-5 0 -9 -1 -13 -2c-5 -1 -10 -3 -15 -4c-44 -13 -87 -29 -129 -48c-43 -19 -85 -36 -128 -52c25 -32 54 -61 86 -87
c32 -25 67 -47 104 -64c11 -5 22 -10 32 -15c12 -5 23 -10 34 -17c3 -2 4 -3 2 -4c-3 -1 -5 -1 -7 -1c-23 3 -44 9 -65 16c-32 11 -62 25 -90 43c-29 16 -56 36 -81 57c-9 8 -19 17 -29 27c-9 9 -19 18 -28 27c-52 -22 -104 -44 -156 -65c-51 -21 -105 -42 -160 -62
c-9 -3 -22 -8 -38 -15s-33 -13 -50 -17c-17 -6 -34 -8 -50 -8c-16 -1 -28 4 -36 13c-5 6 -7 12 -6 18c0 6 1 12 4 17c3 6 6 12 10 18c4 5 8 10 11 15c19 25 39 50 60 73c21 24 42 47 64 70c25 26 51 52 77 76c26 26 53 50 80 74c13 12 27 24 41 36c14 13 29 27 45 42
c0 15 1 30 2 44c2 13 4 27 6 41c12 64 34 125 68 182c32 57 75 107 126 148c25 21 53 39 83 54s61 27 94 34c9 2 18 3 28 3c10 1 19 0 28 -4c9 -2 16 -7 22 -14s9 -16 9 -29zM471 115c-17 25 -32 51 -44 78s-21 57 -27 88c-54 -48 -107 -96 -160 -144s-102 -100 -148 -156
c33 9 66 20 98 31l96 36c31 11 62 22 92 34c31 10 62 22 93 33zM746 735c13 16 26 32 38 49c13 17 25 35 36 54c-20 -4 -40 -10 -58 -18c-20 -8 -38 -18 -55 -29c-29 -18 -58 -41 -86 -69s-53 -59 -77 -92c-22 -33 -42 -68 -58 -104c-17 -36 -28 -71 -34 -104
c57 57 111 112 162 166c52 55 96 104 132 147z" />
    <glyph glyph-name="t_t" horiz-adv-x="326" 
d="M1048 692c26 2 39 2 39 0c1 -1 -12 -4 -38 -9c-12 -3 -27 -5 -45 -9c-17 -2 -37 -6 -59 -10c-57 -9 -113 -18 -167 -27c-53 -9 -110 -18 -170 -27l-17 -25c-23 -35 -44 -66 -63 -93s-37 -52 -55 -76c-18 -25 -36 -50 -55 -74c-19 -26 -39 -54 -62 -85
c-21 -28 -42 -56 -63 -83c-21 -28 -41 -56 -61 -85c23 17 47 33 71 49c24 15 48 31 73 46c5 3 11 6 16 9l16 8c6 3 9 3 9 2c0 -2 -4 -7 -11 -13c-8 -8 -17 -15 -27 -23s-20 -15 -29 -23c-9 -6 -16 -11 -19 -14l-52 -42c-17 -14 -35 -29 -52 -44c-7 -5 -13 -11 -19 -17
c-7 -6 -13 -12 -20 -18c-5 -5 -11 -9 -17 -12s-13 -4 -21 -1c-9 3 -15 8 -18 15c-2 7 -2 14 0 22s5 16 10 23c4 8 8 15 11 20c7 11 13 22 20 32s14 20 21 31c3 4 6 8 8 13c4 5 7 10 10 15c-9 -8 -19 -15 -28 -23c-9 -6 -16 -11 -19 -14l-52 -42c-17 -14 -35 -29 -52 -44
c-7 -5 -13 -11 -19 -17c-7 -6 -13 -12 -20 -18c-5 -5 -11 -9 -17 -12s-13 -4 -21 -1c-9 3 -15 8 -18 15c-2 7 -2 14 0 22s5 16 10 23c4 8 8 15 11 20c7 11 13 22 20 32s14 20 21 31c25 38 51 75 78 111c26 36 52 73 78 110c7 10 17 23 30 40c12 17 25 35 40 54
c14 19 29 40 45 60c16 22 31 42 46 61c-15 -1 -32 -3 -50 -5s-36 -4 -54 -5s-35 -3 -52 -3c-17 -2 -31 -2 -44 -2c-27 0 -40 2 -40 7c-1 2 2 4 9 7s16 6 28 9c35 10 73 18 115 23s84 12 125 19c12 15 22 28 30 39s13 17 15 19c26 33 52 65 79 98c26 33 54 64 84 93
c3 3 6 5 9 8s6 5 9 6s5 0 4 -2c-1 -4 -1 -6 -1 -7c-9 -19 -18 -38 -29 -55c-10 -17 -21 -36 -34 -54c-12 -20 -25 -40 -40 -62c-15 -21 -31 -46 -49 -73c18 2 37 4 57 7c19 2 39 4 59 6c32 40 64 80 95 119s60 75 86 107c5 7 11 11 18 14c3 1 5 0 4 -2c-1 -4 -1 -6 -1 -7
c-8 -18 -17 -35 -27 -52c-9 -17 -20 -34 -32 -51c-11 -17 -24 -36 -37 -56l-44 -66c53 5 105 10 153 15c50 5 100 10 152 15c23 2 43 4 60 5c18 1 33 2 46 3zM210 184l12 6c3 3 7 5 11 7c13 19 27 38 41 57s27 37 38 53s20 29 28 39l10 14l15 19c10 13 23 30 41 52l59 77
c23 29 47 60 72 92c-19 -3 -39 -6 -57 -8c-20 -3 -38 -5 -55 -7c-20 -30 -38 -56 -53 -79c-16 -23 -27 -38 -32 -45c-25 -35 -50 -69 -74 -103c-26 -33 -51 -67 -76 -101c-21 -28 -42 -56 -63 -83c-21 -28 -41 -56 -61 -85c23 17 47 33 71 49c24 15 48 31 73 46z" />
    <glyph glyph-name="f_f" unicode="&#xfb00;" horiz-adv-x="336" 
d="M839 880c6 -3 9 -9 9 -18c1 -9 0 -15 -1 -19c-4 -9 -10 -20 -19 -32c-8 -12 -17 -21 -27 -27c-3 -2 -5 -2 -5 -1c-1 2 0 7 4 15c2 7 5 12 6 15c2 6 4 12 6 17c3 5 5 11 6 18c-3 -2 -7 -4 -10 -8c-4 -2 -8 -5 -11 -8c-12 -11 -23 -22 -34 -34c-11 -11 -22 -23 -33 -35
c-13 -15 -25 -30 -36 -45c-12 -16 -24 -33 -37 -50c-1 -3 -3 -5 -5 -8c-1 -3 -3 -6 -6 -10c-3 -3 -5 -7 -8 -11c25 3 50 5 74 7c23 3 44 5 62 6l44 4c12 2 17 2 17 1c1 -3 -5 -6 -17 -10c-13 -4 -29 -8 -50 -13s-44 -10 -72 -15c-26 -5 -54 -10 -82 -15l-18 -26
c-6 -9 -12 -17 -16 -24c-6 -7 -10 -14 -13 -18c-3 -6 -5 -9 -6 -10c-44 -61 -87 -122 -127 -183c-42 -61 -83 -123 -126 -185c-5 -7 -14 -19 -24 -35c-12 -16 -24 -35 -38 -55c-14 -22 -29 -43 -45 -66s-31 -44 -45 -66c-15 -20 -28 -39 -38 -55c-12 -16 -20 -28 -25 -35
c-17 -23 -33 -46 -49 -68c-17 -23 -34 -45 -51 -67c-1 -1 -2 -4 -5 -7s-6 -7 -9 -10c-3 -4 -7 -7 -9 -10c-4 -3 -6 -4 -7 -3c-2 1 -1 6 2 15c5 15 11 30 18 44l21 42c8 15 19 35 34 59c14 24 30 50 48 79c17 28 36 57 56 88c19 30 38 59 56 88c19 28 36 54 50 77
c16 23 28 42 37 57c36 58 73 116 112 174c39 57 81 119 128 185c-24 -4 -46 -8 -67 -11s-38 -6 -52 -8h-2c-39 -59 -80 -119 -122 -179s-86 -125 -133 -195c-1 -2 -6 -9 -13 -20c-8 -11 -17 -25 -28 -40c-11 -16 -22 -33 -34 -50c-13 -18 -24 -35 -35 -50
c-11 -16 -20 -30 -27 -41c-8 -11 -13 -18 -14 -20c-29 -42 -59 -85 -89 -127c-30 -44 -64 -89 -102 -137c-1 -1 -3 -4 -5 -7c-4 -3 -7 -7 -10 -10c-3 -4 -6 -7 -10 -10c-2 -3 -4 -4 -5 -3c-2 1 -1 6 2 15c5 15 11 30 18 44l21 42c8 15 19 35 34 59c14 24 30 50 48 79
c17 28 36 57 56 88c19 30 38 59 56 88c18 28 35 54 50 77s28 42 37 57c34 56 69 111 105 165s73 108 112 163c-11 -1 -23 -3 -36 -4c-12 -2 -24 -4 -36 -5c-11 -1 -22 -3 -30 -3c-10 -2 -16 -2 -21 -3l-20 -2c-7 -1 -14 -1 -21 -1h-6h-10c-4 0 -8 0 -10 1c-4 1 -5 2 -6 4
c-1 1 0 3 2 5l9 6c3 1 7 3 9 4c4 1 5 2 6 2c18 7 37 13 56 16c20 4 41 8 63 12c3 1 13 2 31 6c17 2 35 6 54 9c23 31 46 63 70 95c23 31 52 64 86 98c11 11 23 22 35 32s25 20 38 29c5 3 9 6 14 9c5 2 9 5 14 8c7 3 15 6 24 8c9 1 17 -1 24 -6c5 -3 7 -8 9 -12
c0 -6 0 -11 -1 -16s-3 -10 -6 -16c-3 -4 -5 -9 -8 -12c-2 -3 -5 -7 -9 -12s-8 -9 -12 -14c-4 -4 -8 -8 -12 -10c-3 -4 -5 -4 -6 -3s0 5 4 13c2 8 5 14 6 17c2 6 4 12 6 17c3 5 5 11 6 18c-4 -2 -8 -4 -12 -8c-3 -2 -7 -5 -10 -8c-12 -11 -24 -23 -35 -35
c-26 -26 -49 -54 -71 -85c-20 -30 -43 -61 -67 -94c15 1 32 3 53 6c20 2 42 4 65 7c29 42 60 83 93 123c34 40 73 75 117 105l15 10c6 4 12 7 19 10s13 4 21 5c6 1 13 -1 19 -4z" />
    <glyph glyph-name="t_f" 
d="M699 763c-15 -18 -30 -37 -44 -55c-14 -20 -28 -39 -41 -59c29 3 62 7 97 11c35 3 71 7 107 10c35 4 70 8 103 11s63 6 89 9c25 2 46 4 62 4c15 2 23 2 24 1c1 -3 -8 -6 -24 -11c-18 -5 -40 -10 -69 -16c-29 -5 -61 -11 -99 -17c-36 -6 -74 -12 -112 -18
c-39 -6 -76 -11 -113 -17c-37 -4 -69 -9 -98 -13c-19 -25 -36 -51 -51 -76c-3 -5 -7 -10 -10 -15c-4 -5 -9 -12 -14 -20s-12 -18 -21 -31s-19 -28 -32 -47c-24 -36 -48 -72 -73 -107s-50 -72 -76 -110c-9 -13 -21 -30 -34 -50c-14 -20 -28 -41 -44 -64
c-14 -23 -30 -45 -46 -69c-15 -22 -30 -44 -44 -65c-13 -21 -25 -39 -36 -54c-10 -15 -18 -27 -23 -34c-9 -13 -18 -25 -27 -37l-27 -36c-9 -13 -19 -26 -29 -40c-11 -13 -22 -28 -35 -43c-6 -7 -10 -10 -12 -9s-1 6 2 15c5 15 11 30 18 44l21 42c9 18 22 41 40 71
c16 28 35 60 56 92c20 34 41 67 62 101s41 65 59 93c-5 -5 -11 -9 -15 -13c-6 -4 -11 -8 -16 -12c-18 -13 -36 -27 -53 -41s-35 -29 -52 -44c-7 -6 -13 -12 -19 -18c-7 -6 -13 -12 -20 -17c-5 -5 -11 -10 -17 -13s-13 -4 -20 -1c-10 3 -16 8 -18 15s-2 14 0 22s5 16 9 24
c5 8 9 15 12 20c7 11 13 21 20 32c6 10 13 20 20 31c13 19 26 37 38 55c14 19 27 37 40 55c13 19 26 37 40 55c12 19 26 37 39 56c7 10 17 23 29 40c13 17 26 35 41 54c15 20 30 41 45 62c16 21 31 42 46 61c-27 -3 -52 -6 -74 -9c-24 -2 -40 -4 -49 -5
c-19 -1 -35 -3 -47 -3c-11 -2 -20 -2 -28 -2c-6 -1 -12 -1 -15 -1h-9h-12c-4 0 -8 1 -9 3c-1 1 3 4 13 8c11 3 23 7 36 10s26 6 38 10c11 2 18 4 20 4c22 4 44 8 66 11s44 7 67 10c1 0 5 1 11 1c7 2 15 3 24 4c20 27 40 54 62 81c20 27 44 55 69 85l40 46c13 15 27 30 42 44
l8 8c3 3 6 5 9 6s5 0 4 -2c0 -4 0 -6 -1 -7c-3 -9 -7 -17 -11 -25c-5 -7 -9 -15 -13 -22c-5 -9 -13 -22 -22 -36c-9 -16 -20 -32 -31 -50c-12 -18 -25 -37 -38 -56c-13 -20 -27 -40 -40 -60c11 1 23 3 34 4c11 2 22 4 31 5l63 81s44 53 69 78c11 11 23 22 35 32
c12 11 25 21 38 30c18 13 33 20 45 24c12 2 22 2 29 -3s10 -11 10 -19c1 -6 0 -13 -2 -19c-1 -4 -4 -9 -8 -15c-3 -6 -8 -12 -12 -18c-6 -7 -11 -12 -16 -18c-5 -4 -10 -8 -15 -9l3 7c1 4 3 9 5 15s4 12 6 17c2 6 3 10 4 12s3 7 4 14c-4 -2 -8 -4 -11 -7c-4 -3 -8 -6 -11 -9
c-11 -10 -22 -21 -33 -32s-22 -24 -33 -37zM228 190c16 23 31 47 46 72c15 24 31 49 48 75c28 43 56 85 85 127c29 43 59 86 90 130c-7 -1 -15 -3 -26 -4s-23 -3 -36 -4c-21 -30 -39 -56 -55 -80c-16 -22 -27 -38 -32 -45c-25 -35 -50 -69 -74 -103
c-26 -34 -51 -68 -76 -102c-21 -28 -42 -56 -62 -84c-22 -27 -42 -55 -62 -84c23 17 47 34 71 50c24 15 49 31 74 46z" />
    <glyph glyph-name="ae" unicode="&#xe6;" horiz-adv-x="417" 
d="M539 216c1 0 -1 -3 -6 -10c-3 -3 -6 -7 -10 -12l-14 -14c-15 -14 -31 -28 -47 -42s-33 -28 -50 -41c-18 -14 -36 -27 -56 -41c-18 -12 -39 -25 -61 -36c-11 -5 -23 -10 -35 -14c-13 -4 -28 -7 -45 -8c-9 0 -17 2 -25 4c-7 4 -14 9 -19 16s-8 15 -9 24c0 9 1 17 4 26
c2 9 5 17 10 25c4 8 8 15 12 22c-2 -1 -5 -4 -8 -7l-14 -14c-5 -4 -9 -8 -14 -13c-9 -9 -19 -19 -28 -27c-9 -10 -19 -18 -30 -26c-5 -4 -10 -8 -16 -12c-5 -4 -11 -7 -18 -10c-6 -2 -12 -3 -19 -4c-7 0 -13 2 -19 5c-11 5 -18 13 -20 21c-4 10 -4 19 -2 30c1 10 5 21 10 32
s11 22 17 32c20 29 43 58 70 86c27 27 55 51 85 72c13 9 27 18 42 26c14 9 29 16 44 23c16 7 33 13 51 16s36 3 54 -1c5 -1 10 -3 15 -6s9 -6 12 -10c1 -1 2 -2 3 -5c5 3 11 6 17 9c5 2 11 5 17 8c12 5 26 8 41 10c16 1 29 -4 39 -15c6 -7 9 -15 9 -23s-2 -16 -4 -24
c-4 -8 -8 -16 -14 -23c-5 -7 -10 -14 -15 -19c-16 -19 -35 -36 -57 -50c-23 -13 -47 -26 -73 -39c-15 -7 -29 -14 -45 -21c-14 -7 -30 -12 -45 -17c-4 -1 -7 -2 -8 -2c-1 -2 -4 -5 -7 -8c-7 -8 -14 -16 -20 -25s-12 -18 -17 -27c-1 -2 -1 -4 -2 -5s-1 -3 -1 -4
c10 -1 20 0 30 2c10 4 20 7 29 10c7 3 15 6 21 10c8 2 15 6 22 9c19 9 37 19 55 29s36 21 53 32l36 24c12 8 24 17 37 26c6 4 11 8 16 11s9 6 12 9c7 5 10 7 10 6zM170 120l15 12s10 8 15 13c5 4 9 8 14 13c4 4 8 8 13 12c25 30 51 58 79 83s59 48 92 67c-3 1 -6 2 -10 3
c-2 1 -6 1 -9 2c-17 1 -33 -1 -47 -7s-29 -14 -46 -24c-35 -22 -69 -49 -101 -80c-32 -32 -62 -65 -90 -99c-7 -9 -15 -20 -23 -32c-7 -12 -14 -23 -19 -34c8 0 17 3 28 8s21 12 33 19c10 8 21 16 31 24zM475 295c-34 -17 -64 -37 -89 -59s-52 -47 -79 -74
c-5 -6 -11 -12 -17 -18c-5 -5 -11 -11 -16 -17c19 9 38 20 58 31c19 11 38 24 56 38c18 13 34 28 50 44c14 17 27 35 37 55z" />
    <glyph glyph-name="Agrave" unicode="&#xc0;" horiz-adv-x="799" 
d="M1077 939c-7 11 -16 17 -27 15c-10 0 -19 -4 -28 -10c-21 -13 -42 -27 -62 -42c-19 -14 -38 -28 -57 -43c-31 -23 -62 -47 -92 -73c-30 -24 -60 -50 -90 -75c-61 -52 -119 -104 -173 -157c-56 -53 -109 -107 -162 -163c-13 -13 -26 -27 -40 -41c-12 -15 -26 -29 -39 -43
c-19 -3 -39 -6 -58 -9s-39 -6 -58 -9c-63 -10 -121 -19 -175 -27c-55 -7 -109 -15 -163 -24c-3 -1 -9 -2 -17 -2c-8 -2 -16 -3 -25 -4c-9 -2 -17 -4 -24 -6c-7 -1 -11 -3 -12 -5c-1 -1 1 -2 6 -3s8 -1 9 -1c28 -1 56 -1 82 0c28 1 54 3 80 5c56 5 109 10 160 17
c50 7 100 13 150 18c-43 -48 -84 -96 -123 -145c-39 -48 -76 -97 -112 -147c-3 -4 -6 -9 -9 -14s-7 -11 -10 -17c-3 -5 -6 -10 -9 -16c-3 -4 -4 -8 -4 -10c0 -1 4 1 11 8c8 7 17 15 27 24c12 13 24 25 35 38c12 12 24 24 35 37c42 44 83 87 123 128c39 41 79 83 119 125
c17 3 32 5 45 8c11 2 22 4 32 5s16 2 18 3c48 7 94 15 140 24c44 9 90 16 136 23c-13 -36 -26 -72 -39 -109c-13 -36 -25 -73 -37 -110c-11 -35 -22 -69 -33 -104c-11 -34 -21 -69 -31 -104c-13 -44 -24 -87 -33 -129s-17 -83 -23 -124c0 -1 0 -2 2 -3l2 2c9 17 17 34 22 50
c5 17 12 34 19 51c19 52 37 102 56 151s37 98 55 147c21 55 41 106 60 155c20 48 40 95 59 141c21 4 43 9 65 14c21 5 43 11 64 16c13 4 22 7 26 8c3 1 6 3 7 4c4 2 4 3 -1 3c-5 1 -10 1 -18 1c-6 0 -14 0 -20 -1c-8 -1 -11 -1 -12 -1c-17 -2 -33 -4 -49 -5
c-16 -2 -32 -4 -49 -7c15 36 31 71 46 107c16 34 32 70 49 105c28 57 53 109 77 153c22 46 48 88 76 128c4 5 8 11 12 16c5 5 8 11 11 17s4 12 4 18s-2 12 -6 18zM729 368c-23 -3 -46 -6 -69 -10c-22 -2 -44 -6 -67 -9c-33 -5 -66 -9 -98 -15c-32 -4 -65 -9 -98 -14
c39 45 81 90 126 136c45 45 90 90 137 134c47 43 94 85 140 125c48 40 93 77 137 110c-9 -17 -20 -37 -31 -59s-23 -44 -34 -68c-11 -22 -22 -45 -32 -68c-11 -23 -20 -43 -28 -61c-3 -7 -6 -16 -12 -27c-4 -11 -10 -24 -16 -38c-5 -13 -11 -27 -18 -42
c-6 -15 -12 -28 -16 -42c-6 -12 -10 -24 -14 -33s-6 -16 -7 -19zM982 1080c-10 8 -16 15 -18 20c-1 5 0 9 3 12s8 4 15 4c7 1 13 0 19 -2c12 -2 25 -5 39 -10c14 -4 28 -9 44 -14c14 -5 29 -11 44 -16c15 -6 28 -11 41 -16l39 -15s26 -9 38 -13c11 -5 21 -9 29 -12
s13 -6 15 -8c-2 1 -10 2 -24 4c-15 3 -32 6 -52 9c-21 3 -43 7 -68 11c-24 5 -47 9 -69 14s-42 10 -59 16c-17 5 -29 11 -36 16z" />
    <glyph glyph-name="Aacute" unicode="&#xc1;" horiz-adv-x="799" 
d="M1077 939c4 -6 6 -12 6 -18s-1 -12 -4 -18s-6 -12 -11 -17c-4 -5 -8 -11 -12 -16c-28 -40 -54 -82 -76 -128c-24 -44 -49 -96 -77 -153c-17 -35 -33 -71 -49 -105c-15 -36 -31 -71 -46 -107c17 3 33 5 49 7c16 1 32 3 49 5c1 0 4 0 12 1c6 1 14 1 20 1c8 0 13 0 18 -1
c5 0 5 -1 1 -3c-1 -1 -4 -3 -7 -4c-4 -1 -13 -4 -26 -8c-21 -5 -43 -11 -64 -16c-22 -5 -44 -10 -65 -14c-19 -46 -39 -93 -59 -141c-19 -49 -39 -100 -60 -155c-18 -49 -36 -98 -55 -147s-37 -99 -56 -151c-7 -17 -14 -34 -19 -51c-5 -16 -13 -33 -22 -50l-2 -2
c-2 1 -2 2 -2 3c6 41 14 82 23 124s20 85 33 129c10 35 20 70 31 104c11 35 22 69 33 104c12 37 24 74 37 110c13 37 26 73 39 109c-46 -7 -92 -14 -136 -23c-46 -9 -92 -17 -140 -24c-2 -1 -8 -2 -18 -3s-21 -3 -32 -5c-13 -3 -28 -5 -45 -8c-40 -42 -80 -84 -119 -125
c-40 -41 -81 -84 -123 -128c-11 -13 -23 -25 -35 -37c-11 -13 -23 -25 -35 -38c-10 -9 -19 -17 -27 -24c-7 -7 -11 -9 -11 -8c0 2 1 6 4 10c3 6 6 11 9 16c3 6 7 12 10 17s6 10 9 14c36 50 73 99 112 147c39 49 80 97 123 145c-50 -5 -100 -11 -150 -18
c-51 -7 -104 -12 -160 -17c-26 -2 -52 -4 -80 -5c-26 -1 -54 -1 -82 0c-1 0 -4 0 -9 1s-7 2 -6 3c1 2 5 4 12 5c7 2 15 4 24 6c9 1 17 2 25 4c8 0 14 1 17 2c54 9 108 17 163 24c54 8 112 17 175 27c19 3 39 6 58 9s39 6 58 9c13 14 27 28 39 43c14 14 27 28 40 41
c53 56 106 110 162 163c54 53 112 105 173 157c30 25 60 51 90 75c30 26 61 50 92 73c19 15 38 29 57 43c20 15 41 29 62 42c9 6 18 10 28 10c11 2 20 -4 27 -15zM729 368c1 3 3 10 7 19s8 21 14 33c4 14 10 27 16 42c7 15 13 29 18 42c6 14 12 27 16 38c6 11 9 20 12 27
c8 18 17 38 28 61c10 23 21 46 32 68c11 24 23 46 34 68s22 42 31 59c-44 -33 -89 -70 -137 -110c-46 -40 -93 -82 -140 -125c-47 -44 -92 -89 -137 -134c-45 -46 -87 -91 -126 -136c33 5 66 10 98 14c32 6 65 10 98 15c23 3 45 7 67 9c23 4 46 7 69 10zM1334 1133
c-3 -7 -14 -15 -34 -24c-18 -9 -41 -19 -68 -29s-55 -20 -85 -30s-58 -19 -83 -26c-25 -8 -46 -14 -62 -18c-17 -4 -25 -5 -24 -3c16 11 37 23 63 37c26 13 53 27 82 41s57 27 85 40c29 13 54 23 75 32c7 3 14 5 22 7s15 2 21 2c6 -2 10 -4 12 -8c2 -5 1 -12 -4 -21z" />
    <glyph glyph-name="Acircumflex" unicode="&#xc2;" horiz-adv-x="799" 
d="M1077 939c4 -6 6 -12 6 -18s-1 -12 -4 -18s-6 -12 -11 -17c-4 -5 -8 -11 -12 -16c-28 -40 -54 -82 -76 -128c-24 -44 -49 -96 -77 -153c-17 -35 -33 -71 -49 -105c-15 -36 -31 -71 -46 -107c17 3 33 5 49 7c16 1 32 3 49 5c1 0 4 0 12 1c6 1 14 1 20 1c8 0 13 0 18 -1
c5 0 5 -1 1 -3c-1 -1 -4 -3 -7 -4c-4 -1 -13 -4 -26 -8c-21 -5 -43 -11 -64 -16c-22 -5 -44 -10 -65 -14c-19 -46 -39 -93 -59 -141c-19 -49 -39 -100 -60 -155c-18 -49 -36 -98 -55 -147s-37 -99 -56 -151c-7 -17 -14 -34 -19 -51c-5 -16 -13 -33 -22 -50l-2 -2
c-2 1 -2 2 -2 3c6 41 14 82 23 124s20 85 33 129c10 35 20 70 31 104c11 35 22 69 33 104c12 37 24 74 37 110c13 37 26 73 39 109c-46 -7 -92 -14 -136 -23c-46 -9 -92 -17 -140 -24c-2 -1 -8 -2 -18 -3s-21 -3 -32 -5c-13 -3 -28 -5 -45 -8c-40 -42 -80 -84 -119 -125
c-40 -41 -81 -84 -123 -128c-11 -13 -23 -25 -35 -37c-11 -13 -23 -25 -35 -38c-10 -9 -19 -17 -27 -24c-7 -7 -11 -9 -11 -8c0 2 1 6 4 10c3 6 6 11 9 16c3 6 7 12 10 17s6 10 9 14c36 50 73 99 112 147c39 49 80 97 123 145c-50 -5 -100 -11 -150 -18
c-51 -7 -104 -12 -160 -17c-26 -2 -52 -4 -80 -5c-26 -1 -54 -1 -82 0c-1 0 -4 0 -9 1s-7 2 -6 3c1 2 5 4 12 5c7 2 15 4 24 6c9 1 17 2 25 4c8 0 14 1 17 2c54 9 108 17 163 24c54 8 112 17 175 27c19 3 39 6 58 9s39 6 58 9c13 14 27 28 39 43c14 14 27 28 40 41
c53 56 106 110 162 163c54 53 112 105 173 157c30 25 60 51 90 75c30 26 61 50 92 73c19 15 38 29 57 43c20 15 41 29 62 42c9 6 18 10 28 10c11 2 20 -4 27 -15zM729 368c1 3 3 10 7 19s8 21 14 33c4 14 10 27 16 42c7 15 13 29 18 42c6 14 12 27 16 38c6 11 9 20 12 27
c8 18 17 38 28 61c10 23 21 46 32 68c11 24 23 46 34 68s22 42 31 59c-44 -33 -89 -70 -137 -110c-46 -40 -93 -82 -140 -125c-47 -44 -92 -89 -137 -134c-45 -46 -87 -91 -126 -136c33 5 66 10 98 14c32 6 65 10 98 15c23 3 45 7 67 9c23 4 46 7 69 10zM1231 1012v-4v-6
c0 -3 0 -5 -1 -6c-1 -2 -1 -3 -2 -3c-3 1 -6 4 -9 7c-3 4 -5 7 -8 9c-13 17 -23 29 -29 35c-6 7 -13 11 -20 12c-50 -11 -101 -22 -154 -35c-52 -13 -105 -21 -158 -24c20 7 43 16 69 27c26 10 53 20 81 30c27 9 55 18 82 26c27 7 53 12 76 14c14 1 25 -1 34 -6
c9 -6 16 -14 21 -22c5 -10 9 -19 12 -29s5 -18 6 -25z" />
    <glyph glyph-name="Atilde" unicode="&#xc3;" horiz-adv-x="799" 
d="M1077 939c4 -6 6 -12 6 -18s-1 -12 -4 -18s-6 -12 -11 -17c-4 -5 -8 -11 -12 -16c-28 -40 -54 -82 -76 -128c-24 -44 -49 -96 -77 -153c-17 -35 -33 -71 -49 -105c-15 -36 -31 -71 -46 -107c17 3 33 5 49 7c16 1 32 3 49 5c1 0 4 0 12 1c6 1 14 1 20 1c8 0 13 0 18 -1
c5 0 5 -1 1 -3c-1 -1 -4 -3 -7 -4c-4 -1 -13 -4 -26 -8c-21 -5 -43 -11 -64 -16c-22 -5 -44 -10 -65 -14c-19 -46 -39 -93 -59 -141c-19 -49 -39 -100 -60 -155c-18 -49 -36 -98 -55 -147s-37 -99 -56 -151c-7 -17 -14 -34 -19 -51c-5 -16 -13 -33 -22 -50l-2 -2
c-2 1 -2 2 -2 3c6 41 14 82 23 124s20 85 33 129c10 35 20 70 31 104c11 35 22 69 33 104c12 37 24 74 37 110c13 37 26 73 39 109c-46 -7 -92 -14 -136 -23c-46 -9 -92 -17 -140 -24c-2 -1 -8 -2 -18 -3s-21 -3 -32 -5c-13 -3 -28 -5 -45 -8c-40 -42 -80 -84 -119 -125
c-40 -41 -81 -84 -123 -128c-11 -13 -23 -25 -35 -37c-11 -13 -23 -25 -35 -38c-10 -9 -19 -17 -27 -24c-7 -7 -11 -9 -11 -8c0 2 1 6 4 10c3 6 6 11 9 16c3 6 7 12 10 17s6 10 9 14c36 50 73 99 112 147c39 49 80 97 123 145c-50 -5 -100 -11 -150 -18
c-51 -7 -104 -12 -160 -17c-26 -2 -52 -4 -80 -5c-26 -1 -54 -1 -82 0c-1 0 -4 0 -9 1s-7 2 -6 3c1 2 5 4 12 5c7 2 15 4 24 6c9 1 17 2 25 4c8 0 14 1 17 2c54 9 108 17 163 24c54 8 112 17 175 27c19 3 39 6 58 9s39 6 58 9c13 14 27 28 39 43c14 14 27 28 40 41
c53 56 106 110 162 163c54 53 112 105 173 157c30 25 60 51 90 75c30 26 61 50 92 73c19 15 38 29 57 43c20 15 41 29 62 42c9 6 18 10 28 10c11 2 20 -4 27 -15zM729 368c1 3 3 10 7 19s8 21 14 33c4 14 10 27 16 42c7 15 13 29 18 42c6 14 12 27 16 38c6 11 9 20 12 27
c8 18 17 38 28 61c10 23 21 46 32 68c11 24 23 46 34 68s22 42 31 59c-44 -33 -89 -70 -137 -110c-46 -40 -93 -82 -140 -125c-47 -44 -92 -89 -137 -134c-45 -46 -87 -91 -126 -136c33 5 66 10 98 14c32 6 65 10 98 15c23 3 45 7 67 9c23 4 46 7 69 10zM1317 1106
c-5 -11 -13 -21 -23 -30c-9 -8 -20 -15 -32 -21s-24 -11 -38 -15c-12 -4 -25 -7 -36 -10c-27 -7 -54 -13 -80 -16c-25 -4 -51 -9 -77 -15c-4 -1 -10 -3 -17 -4s-16 -3 -24 -5c-10 -3 -18 -5 -27 -8s-16 -6 -22 -10c10 25 26 44 47 56c21 13 45 22 72 26c26 6 53 8 80 9
c28 1 54 2 77 5c15 3 29 7 42 11s23 8 32 12c10 5 19 10 26 15z" />
    <glyph glyph-name="Adieresis" unicode="&#xc4;" horiz-adv-x="799" 
d="M1077 939c4 -6 6 -12 6 -18s-1 -12 -4 -18s-6 -12 -11 -17c-4 -5 -8 -11 -12 -16c-28 -40 -54 -82 -76 -128c-24 -44 -49 -96 -77 -153c-17 -35 -33 -71 -49 -105c-15 -36 -31 -71 -46 -107c17 3 33 5 49 7c16 1 32 3 49 5c1 0 4 0 12 1c6 1 14 1 20 1c8 0 13 0 18 -1
c5 0 5 -1 1 -3c-1 -1 -4 -3 -7 -4c-4 -1 -13 -4 -26 -8c-21 -5 -43 -11 -64 -16c-22 -5 -44 -10 -65 -14c-19 -46 -39 -93 -59 -141c-19 -49 -39 -100 -60 -155c-18 -49 -36 -98 -55 -147s-37 -99 -56 -151c-7 -17 -14 -34 -19 -51c-5 -16 -13 -33 -22 -50l-2 -2
c-2 1 -2 2 -2 3c6 41 14 82 23 124s20 85 33 129c10 35 20 70 31 104c11 35 22 69 33 104c12 37 24 74 37 110c13 37 26 73 39 109c-46 -7 -92 -14 -136 -23c-46 -9 -92 -17 -140 -24c-2 -1 -8 -2 -18 -3s-21 -3 -32 -5c-13 -3 -28 -5 -45 -8c-40 -42 -80 -84 -119 -125
c-40 -41 -81 -84 -123 -128c-11 -13 -23 -25 -35 -37c-11 -13 -23 -25 -35 -38c-10 -9 -19 -17 -27 -24c-7 -7 -11 -9 -11 -8c0 2 1 6 4 10c3 6 6 11 9 16c3 6 7 12 10 17s6 10 9 14c36 50 73 99 112 147c39 49 80 97 123 145c-50 -5 -100 -11 -150 -18
c-51 -7 -104 -12 -160 -17c-26 -2 -52 -4 -80 -5c-26 -1 -54 -1 -82 0c-1 0 -4 0 -9 1s-7 2 -6 3c1 2 5 4 12 5c7 2 15 4 24 6c9 1 17 2 25 4c8 0 14 1 17 2c54 9 108 17 163 24c54 8 112 17 175 27c19 3 39 6 58 9s39 6 58 9c13 14 27 28 39 43c14 14 27 28 40 41
c53 56 106 110 162 163c54 53 112 105 173 157c30 25 60 51 90 75c30 26 61 50 92 73c19 15 38 29 57 43c20 15 41 29 62 42c9 6 18 10 28 10c11 2 20 -4 27 -15zM729 368c1 3 3 10 7 19s8 21 14 33c4 14 10 27 16 42c7 15 13 29 18 42c6 14 12 27 16 38c6 11 9 20 12 27
c8 18 17 38 28 61c10 23 21 46 32 68c11 24 23 46 34 68s22 42 31 59c-44 -33 -89 -70 -137 -110c-46 -40 -93 -82 -140 -125c-47 -44 -92 -89 -137 -134c-45 -46 -87 -91 -126 -136c33 5 66 10 98 14c32 6 65 10 98 15c23 3 45 7 67 9c23 4 46 7 69 10zM1068 1059
c2 -5 2 -9 2 -15c-2 -4 -4 -9 -7 -14s-7 -9 -11 -12c-4 -4 -8 -7 -12 -9c-7 -4 -16 -7 -28 -9c-11 -1 -19 3 -24 12c-4 9 -3 18 2 28c5 8 12 16 19 21c4 2 9 4 14 6s11 3 17 4s12 0 16 -2c6 -2 9 -5 12 -10zM1192 1074c4 -9 2 -19 -5 -28c-7 -10 -14 -17 -21 -21
s-16 -7 -28 -8c-10 -1 -18 2 -23 11c-4 9 -3 17 2 26s12 16 19 21c3 2 8 4 13 6s11 3 16 4s11 0 15 -1c6 -2 9 -5 12 -10z" />
    <glyph glyph-name="Aring" unicode="&#xc5;" horiz-adv-x="799" 
d="M1077 939c4 -6 6 -12 6 -18s-1 -12 -4 -18s-6 -12 -11 -17c-4 -5 -8 -11 -12 -16c-28 -40 -54 -82 -76 -128c-24 -44 -49 -96 -77 -153c-17 -35 -33 -71 -49 -105c-15 -36 -31 -71 -46 -107c17 3 33 5 49 7c16 1 32 3 49 5c1 0 4 0 12 1c6 1 14 1 20 1c8 0 13 0 18 -1
c5 0 5 -1 1 -3c-1 -1 -4 -3 -7 -4c-4 -1 -13 -4 -26 -8c-21 -5 -43 -11 -64 -16c-22 -5 -44 -10 -65 -14c-19 -46 -39 -93 -59 -141c-19 -49 -39 -100 -60 -155c-18 -49 -36 -98 -55 -147s-37 -99 -56 -151c-7 -17 -14 -34 -19 -51c-5 -16 -13 -33 -22 -50l-2 -2
c-2 1 -2 2 -2 3c6 41 14 82 23 124s20 85 33 129c10 35 20 70 31 104c11 35 22 69 33 104c12 37 24 74 37 110c13 37 26 73 39 109c-46 -7 -92 -14 -136 -23c-46 -9 -92 -17 -140 -24c-2 -1 -8 -2 -18 -3s-21 -3 -32 -5c-13 -3 -28 -5 -45 -8c-40 -42 -80 -84 -119 -125
c-40 -41 -81 -84 -123 -128c-11 -13 -23 -25 -35 -37c-11 -13 -23 -25 -35 -38c-10 -9 -19 -17 -27 -24c-7 -7 -11 -9 -11 -8c0 2 1 6 4 10c3 6 6 11 9 16c3 6 7 12 10 17s6 10 9 14c36 50 73 99 112 147c39 49 80 97 123 145c-50 -5 -100 -11 -150 -18
c-51 -7 -104 -12 -160 -17c-26 -2 -52 -4 -80 -5c-26 -1 -54 -1 -82 0c-1 0 -4 0 -9 1s-7 2 -6 3c1 2 5 4 12 5c7 2 15 4 24 6c9 1 17 2 25 4c8 0 14 1 17 2c54 9 108 17 163 24c54 8 112 17 175 27c19 3 39 6 58 9s39 6 58 9c13 14 27 28 39 43c14 14 27 28 40 41
c53 56 106 110 162 163c54 53 112 105 173 157c30 25 60 51 90 75c30 26 61 50 92 73c19 15 38 29 57 43c20 15 41 29 62 42c9 6 18 10 28 10c11 2 20 -4 27 -15zM729 368c1 3 3 10 7 19s8 21 14 33c4 14 10 27 16 42c7 15 13 29 18 42c6 14 12 27 16 38c6 11 9 20 12 27
c8 18 17 38 28 61c10 23 21 46 32 68c11 24 23 46 34 68s22 42 31 59c-44 -33 -89 -70 -137 -110c-46 -40 -93 -82 -140 -125c-47 -44 -92 -89 -137 -134c-45 -46 -87 -91 -126 -136c33 5 66 10 98 14c32 6 65 10 98 15c23 3 45 7 67 9c23 4 46 7 69 10zM1264 1121
c3 -14 1 -28 -8 -42c-8 -14 -19 -27 -33 -39s-29 -22 -45 -31c-17 -9 -32 -14 -45 -17c-7 -2 -15 -4 -22 -4c-7 -2 -15 -1 -22 0c-10 1 -18 5 -24 12s-9 14 -9 23s2 17 7 26s10 17 15 24c11 15 27 29 46 41c20 12 41 19 62 21c7 1 15 1 23 1s14 -3 18 -10c-1 0 -3 0 -4 1
c-1 0 -3 0 -5 1h-7c-5 0 -9 0 -13 -1s-8 -2 -11 -3c-15 -6 -29 -14 -41 -24c-13 -11 -23 -22 -31 -35c-3 -6 -7 -12 -10 -19c-3 -6 -5 -12 -5 -19c11 1 21 3 30 7c10 3 20 7 29 12c15 9 32 20 49 33c18 13 31 27 38 42c1 3 1 7 1 12v3c0 2 1 1 4 0c6 -2 10 -7 13 -15z" />
    <glyph glyph-name="AE" unicode="&#xc6;" horiz-adv-x="1440" 
d="M1635 763c1 -2 -2 -5 -8 -7c-6 -4 -13 -7 -22 -10s-17 -6 -27 -10c-8 -2 -16 -5 -22 -6c-35 -11 -70 -22 -106 -31c-34 -9 -70 -18 -106 -27c-37 -9 -73 -17 -110 -24c-37 -8 -74 -16 -112 -23c-9 -2 -26 -5 -50 -8s-50 -7 -76 -11c-28 -4 -53 -8 -76 -10
c-24 -4 -40 -5 -49 -6c-5 -1 -9 -1 -13 -2h-15c-16 -34 -31 -68 -47 -101c-14 -33 -29 -67 -43 -101c3 0 11 1 25 3s31 5 51 7c20 4 41 6 64 10c23 2 44 6 64 8c20 4 37 6 51 8c13 1 21 2 24 3c15 1 30 3 44 5c16 2 31 3 48 3c1 0 4 0 7 -1s3 -2 0 -4c-1 -1 -4 -2 -7 -4
c-4 0 -12 -3 -25 -7c-11 -3 -28 -7 -49 -11c-22 -4 -46 -8 -73 -13s-54 -9 -82 -13c-28 -5 -53 -9 -76 -12c-23 -4 -41 -7 -56 -10l-22 -3c-6 -13 -12 -27 -17 -40c-6 -13 -12 -27 -17 -41l-39 -102c-13 -33 -25 -67 -38 -101c-4 -11 -8 -21 -12 -31l-12 -33
c19 4 38 8 57 11c19 4 38 8 57 11c73 13 146 26 219 37s146 23 220 34c9 1 22 4 39 7c18 3 36 6 56 9c18 3 36 5 52 6c17 2 28 2 34 0c1 -1 1 -2 -2 -2c-2 -2 -3 -2 -4 -3c-39 -16 -79 -30 -120 -41c-42 -12 -84 -23 -127 -32s-85 -18 -129 -26c-42 -7 -84 -15 -125 -23
c-9 -2 -24 -5 -47 -9c-23 -3 -47 -7 -72 -11c-26 -4 -51 -8 -74 -11c-24 -3 -41 -6 -52 -7c-5 -14 -10 -28 -14 -41c-5 -14 -10 -28 -15 -41c-5 -15 -11 -31 -17 -45c-5 -16 -11 -31 -16 -46c-6 -16 -12 -32 -17 -49s-13 -33 -22 -48c-3 -3 -4 -2 -4 1c-1 8 -1 16 1 26
c2 8 4 17 5 26c7 32 14 64 22 96c8 31 17 63 26 95l6 21c-10 -1 -20 -2 -30 -2c-10 -1 -20 -1 -30 -2h-14c-7 0 -15 0 -21 1c-8 1 -13 2 -18 3s-5 4 -2 7s7 5 12 7c8 3 17 6 28 9c10 3 24 6 41 11c8 2 16 4 23 6c8 2 16 4 24 5c7 23 13 45 20 67c7 23 14 45 21 67
c11 36 23 71 35 106c13 35 26 69 39 104c-44 -8 -88 -16 -132 -23c-44 -8 -88 -15 -133 -22c-14 -2 -29 -4 -46 -7s-32 -5 -45 -8l-5 -5l-42 -42c-14 -14 -29 -30 -45 -47c-24 -25 -48 -49 -71 -74s-47 -50 -70 -75c-11 -12 -22 -24 -34 -36c-10 -12 -22 -24 -33 -36
c-9 -9 -18 -17 -25 -24c-8 -6 -12 -8 -12 -7c0 2 0 4 2 7c0 2 1 4 2 5c15 28 33 55 53 81s41 53 63 81c44 55 90 108 137 161c-50 -7 -100 -13 -149 -19s-99 -11 -149 -14c-25 -2 -51 -4 -77 -7c-27 -2 -53 -1 -79 2c-1 0 -4 0 -9 1s-7 2 -6 3s5 3 12 4c6 1 13 3 21 4
c8 2 16 4 23 5c8 1 15 2 20 3c17 3 35 6 53 8c18 3 36 5 53 8c55 9 110 18 165 26c55 7 110 15 165 24c13 13 25 27 38 40c12 14 25 28 38 41c51 54 104 107 157 159c53 51 108 101 165 149c29 25 57 49 86 73c29 23 58 46 88 69c15 11 30 23 46 33c14 12 30 22 45 33
c6 5 13 10 21 15c7 5 15 9 23 11c6 1 12 1 19 -3c6 -2 11 -7 14 -12c7 -11 8 -22 3 -34c-6 -10 -14 -21 -23 -32s-17 -23 -24 -35c-8 -12 -16 -24 -23 -36c-13 -22 -26 -44 -39 -67c-12 -22 -24 -44 -35 -67c22 5 44 9 67 13c22 4 44 8 67 12l111 18s74 12 111 17
s73 11 109 15c37 6 74 11 111 16c18 3 36 5 54 8l54 6c1 0 6 0 13 2c8 0 16 2 25 2c9 2 17 2 23 2c8 0 12 -1 13 -3zM684 377c14 35 28 70 40 105c14 35 29 70 47 104h-1l-22 2c-7 1 -15 2 -22 4c-3 1 -7 2 -10 4c-3 3 -3 6 0 9c3 5 8 8 16 11c6 3 13 5 18 7c7 2 14 4 22 7
c6 2 14 4 21 5c22 47 46 94 71 139c-30 -23 -59 -46 -88 -70c-28 -23 -56 -47 -85 -71c-57 -48 -112 -97 -165 -148c-54 -51 -108 -102 -161 -154c53 8 106 16 159 23s107 15 160 23z" />
    <glyph glyph-name="Egrave" unicode="&#xc8;" horiz-adv-x="792" 
d="M835 630c-1 2 -6 3 -15 3s-20 -1 -31 -1c-11 -2 -22 -3 -31 -4c-10 -2 -16 -3 -17 -3c-38 -5 -76 -12 -113 -19l-114 -24c15 18 30 36 44 54c13 18 27 37 40 56c1 1 2 4 6 10c2 4 5 10 8 14c3 6 4 10 5 14c1 3 0 4 -3 3c-10 -4 -21 -11 -33 -23l-30 -27
c-21 -19 -42 -39 -63 -59l-60 -63c-40 -9 -78 -19 -116 -29c-36 -9 -72 -21 -106 -36c-1 -1 -3 -2 -4 -2c-1 -2 -2 -2 -2 -3c0 -3 4 -4 14 -4c8 0 19 1 30 1c11 2 22 3 32 4c10 2 16 3 17 3c14 2 28 4 43 7c14 2 28 5 42 8c-71 -74 -140 -148 -208 -222
c-69 -75 -135 -152 -199 -232c-5 -7 -13 -16 -23 -28c-11 -13 -21 -27 -32 -42s-21 -32 -30 -48c-9 -18 -16 -34 -19 -49s-3 -29 3 -41c4 -12 16 -21 33 -27c17 -7 37 -10 58 -9s43 3 65 8c22 4 43 9 64 16c21 6 40 11 57 16c81 23 160 48 237 78c78 28 155 59 232 91
c25 11 50 22 74 33c25 10 49 21 74 34c1 1 4 2 8 5c3 3 5 5 4 6h-4c-29 -5 -58 -13 -86 -22l-84 -27c-81 -24 -161 -49 -241 -74s-161 -47 -243 -66c-29 -7 -58 -13 -88 -18c-28 -6 -58 -8 -88 -7c27 41 55 80 84 119c30 38 61 76 92 112c32 38 64 74 96 110s64 73 95 110
c27 32 54 64 81 95s54 63 81 96c45 13 91 24 137 33c45 10 91 22 136 35c2 1 8 2 18 5s20 6 32 10c10 3 20 7 29 10c9 4 13 7 12 10zM1324 904c-1 1 -6 2 -13 2c-7 1 -15 1 -25 0c-8 -1 -17 -1 -24 -2c-8 -1 -13 -1 -14 -1c-85 -9 -169 -18 -252 -29
c-84 -11 -168 -22 -253 -34c-43 -6 -85 -12 -127 -20c-42 -6 -84 -14 -127 -23c-22 -5 -46 -10 -73 -15c-27 -6 -49 -14 -67 -23c-5 -3 -8 -6 -10 -9c-1 -4 4 -7 15 -8c12 -1 27 -2 46 -2c18 1 38 2 60 3c23 1 44 3 64 5c20 1 37 3 52 4c14 1 22 2 24 3c43 7 85 13 128 21
c42 6 84 14 127 23c71 15 143 28 215 41c71 13 142 29 213 48c1 0 3 0 7 2c5 0 9 2 14 4c5 1 9 3 13 4c4 2 6 4 7 6zM762 1027c-10 8 -16 15 -18 20c-1 5 0 9 3 12s8 4 15 5c7 0 13 -1 19 -3c12 -2 25 -5 39 -9c14 -5 28 -10 44 -15c14 -5 29 -11 44 -17
c15 -5 28 -10 41 -15l39 -15s26 -9 38 -14c11 -4 21 -8 29 -11s13 -6 15 -8c-2 1 -10 2 -24 5c-15 2 -32 5 -52 8c-21 3 -43 7 -68 12c-24 4 -47 8 -69 13s-42 10 -59 15s-29 11 -36 17z" />
    <glyph glyph-name="Eacute" unicode="&#xc9;" horiz-adv-x="792" 
d="M1090 1034c-3 -7 -14 -15 -34 -24c-18 -9 -41 -19 -68 -29s-55 -20 -85 -30s-58 -19 -83 -27c-25 -7 -46 -13 -62 -17c-17 -4 -25 -5 -24 -3c16 11 37 23 63 36c26 14 53 28 82 42s57 27 85 40c29 13 54 23 75 32c7 3 14 5 22 7s15 3 21 1c6 0 10 -3 12 -8
c2 -4 1 -11 -4 -20zM835 630c1 -3 -3 -6 -12 -10c-9 -3 -19 -7 -29 -10c-12 -4 -22 -7 -32 -10s-16 -4 -18 -5c-45 -13 -91 -25 -136 -35c-46 -9 -92 -20 -137 -33c-27 -33 -54 -65 -81 -96s-54 -63 -81 -95c-31 -37 -63 -74 -95 -110s-64 -72 -96 -110
c-31 -36 -62 -74 -92 -112c-29 -39 -57 -78 -84 -119c30 -1 60 1 88 7c30 5 59 11 88 18c82 19 163 41 243 66s160 50 241 74l84 27s57 17 86 22h4c1 -1 -1 -3 -4 -6c-4 -3 -7 -4 -8 -5c-25 -13 -49 -24 -74 -34c-24 -11 -49 -22 -74 -33c-77 -32 -154 -63 -232 -91
c-77 -30 -156 -55 -237 -78c-17 -5 -36 -10 -57 -16c-21 -7 -42 -12 -64 -16c-22 -5 -44 -7 -65 -8s-41 2 -58 9c-17 6 -29 15 -33 27c-6 12 -6 26 -3 41s10 31 19 49c9 16 19 33 30 48s21 29 32 42c10 12 18 21 23 28c64 80 130 157 199 232c68 74 137 148 208 222
c-14 -3 -28 -6 -42 -8c-15 -3 -29 -5 -43 -7c-1 0 -7 -1 -17 -3c-10 -1 -21 -2 -32 -4c-11 0 -22 -1 -30 -1c-10 0 -14 1 -14 4c0 1 1 1 2 3c1 0 3 1 4 2c34 15 70 27 106 36c38 10 76 20 116 29l60 63c21 20 42 40 63 59l30 27c12 12 23 19 33 23c3 1 4 0 3 -3
c-1 -4 -2 -8 -5 -14c-3 -4 -6 -10 -8 -14c-4 -6 -5 -9 -6 -10c-13 -19 -27 -38 -40 -56c-14 -18 -29 -36 -44 -54l114 24c37 7 75 14 113 19c1 0 7 1 17 3c9 1 20 2 31 4c11 0 22 1 31 1s14 -1 15 -3zM1324 904c-1 -2 -3 -4 -7 -6c-4 -1 -8 -3 -13 -4c-5 -2 -9 -4 -14 -4
c-4 -2 -6 -2 -7 -2c-71 -19 -142 -35 -213 -48c-72 -13 -144 -26 -215 -41c-43 -9 -85 -17 -127 -23c-43 -8 -85 -14 -128 -21c-2 -1 -10 -2 -24 -3c-15 -1 -32 -3 -52 -4c-20 -2 -41 -4 -64 -5c-22 -1 -42 -2 -60 -3c-19 0 -34 1 -46 2c-11 1 -16 4 -15 8c2 3 5 6 10 9
c18 9 40 17 67 23c27 5 51 10 73 15c43 9 85 17 127 23c42 8 84 14 127 20c85 12 169 23 253 34c83 11 167 20 252 29c1 0 6 0 14 1c7 1 16 1 24 2c10 1 18 1 25 0c7 0 12 -1 13 -2z" />
    <glyph glyph-name="Ecircumflex" unicode="&#xca;" horiz-adv-x="792" 
d="M835 630c1 -3 -3 -6 -12 -10c-9 -3 -19 -7 -29 -10c-12 -4 -22 -7 -32 -10s-16 -4 -18 -5c-45 -13 -91 -25 -136 -35c-46 -9 -92 -20 -137 -33c-27 -33 -54 -65 -81 -96s-54 -63 -81 -95c-31 -37 -63 -74 -95 -110s-64 -72 -96 -110c-31 -36 -62 -74 -92 -112
c-29 -39 -57 -78 -84 -119c30 -1 60 1 88 7c30 5 59 11 88 18c82 19 163 41 243 66s160 50 241 74l84 27s57 17 86 22h4c1 -1 -1 -3 -4 -6c-4 -3 -7 -4 -8 -5c-25 -13 -49 -24 -74 -34c-24 -11 -49 -22 -74 -33c-77 -32 -154 -63 -232 -91c-77 -30 -156 -55 -237 -78
c-17 -5 -36 -10 -57 -16c-21 -7 -42 -12 -64 -16c-22 -5 -44 -7 -65 -8s-41 2 -58 9c-17 6 -29 15 -33 27c-6 12 -6 26 -3 41s10 31 19 49c9 16 19 33 30 48s21 29 32 42c10 12 18 21 23 28c64 80 130 157 199 232c68 74 137 148 208 222c-14 -3 -28 -6 -42 -8
c-15 -3 -29 -5 -43 -7c-1 0 -7 -1 -17 -3c-10 -1 -21 -2 -32 -4c-11 0 -22 -1 -30 -1c-10 0 -14 1 -14 4c0 1 1 1 2 3c1 0 3 1 4 2c34 15 70 27 106 36c38 10 76 20 116 29l60 63c21 20 42 40 63 59l30 27c12 12 23 19 33 23c3 1 4 0 3 -3c-1 -4 -2 -8 -5 -14
c-3 -4 -6 -10 -8 -14c-4 -6 -5 -9 -6 -10c-13 -19 -27 -38 -40 -56c-14 -18 -29 -36 -44 -54l114 24c37 7 75 14 113 19c1 0 7 1 17 3c9 1 20 2 31 4c11 0 22 1 31 1s14 -1 15 -3zM1324 904c-1 -2 -3 -4 -7 -6c-4 -1 -8 -3 -13 -4c-5 -2 -9 -4 -14 -4c-4 -2 -6 -2 -7 -2
c-71 -19 -142 -35 -213 -48c-72 -13 -144 -26 -215 -41c-43 -9 -85 -17 -127 -23c-43 -8 -85 -14 -128 -21c-2 -1 -10 -2 -24 -3c-15 -1 -32 -3 -52 -4c-20 -2 -41 -4 -64 -5c-22 -1 -42 -2 -60 -3c-19 0 -34 1 -46 2c-11 1 -16 4 -15 8c2 3 5 6 10 9c18 9 40 17 67 23
c27 5 51 10 73 15c43 9 85 17 127 23c42 8 84 14 127 20c85 12 169 23 253 34c83 11 167 20 252 29c1 0 6 0 14 1c7 1 16 1 24 2c10 1 18 1 25 0c7 0 12 -1 13 -2zM1054 950v-4v-6c0 -3 0 -5 -1 -6c-1 -2 -1 -3 -2 -3c-3 1 -6 4 -9 7c-3 4 -5 7 -8 9c-13 17 -23 29 -29 35
c-6 7 -13 11 -20 12c-50 -11 -101 -22 -153 -35c-53 -13 -106 -21 -159 -24c20 7 43 16 69 27c26 10 53 20 80 30c28 9 56 18 83 26c27 7 53 12 76 14c14 1 25 -1 34 -6c9 -6 16 -14 21 -22c5 -10 9 -19 12 -29s5 -18 6 -25z" />
    <glyph glyph-name="Edieresis" unicode="&#xcb;" horiz-adv-x="792" 
d="M835 630c1 -3 -3 -6 -12 -10c-9 -3 -19 -7 -29 -10c-12 -4 -22 -7 -32 -10s-16 -4 -18 -5c-45 -13 -91 -25 -136 -35c-46 -9 -92 -20 -137 -33c-27 -33 -54 -65 -81 -96s-54 -63 -81 -95c-31 -37 -63 -74 -95 -110s-64 -72 -96 -110c-31 -36 -62 -74 -92 -112
c-29 -39 -57 -78 -84 -119c30 -1 60 1 88 7c30 5 59 11 88 18c82 19 163 41 243 66s160 50 241 74l84 27s57 17 86 22h4c1 -1 -1 -3 -4 -6c-4 -3 -7 -4 -8 -5c-25 -13 -49 -24 -74 -34c-24 -11 -49 -22 -74 -33c-77 -32 -154 -63 -232 -91c-77 -30 -156 -55 -237 -78
c-17 -5 -36 -10 -57 -16c-21 -7 -42 -12 -64 -16c-22 -5 -44 -7 -65 -8s-41 2 -58 9c-17 6 -29 15 -33 27c-6 12 -6 26 -3 41s10 31 19 49c9 16 19 33 30 48s21 29 32 42c10 12 18 21 23 28c64 80 130 157 199 232c68 74 137 148 208 222c-14 -3 -28 -6 -42 -8
c-15 -3 -29 -5 -43 -7c-1 0 -7 -1 -17 -3c-10 -1 -21 -2 -32 -4c-11 0 -22 -1 -30 -1c-10 0 -14 1 -14 4c0 1 1 1 2 3c1 0 3 1 4 2c34 15 70 27 106 36c38 10 76 20 116 29l60 63c21 20 42 40 63 59l30 27c12 12 23 19 33 23c3 1 4 0 3 -3c-1 -4 -2 -8 -5 -14
c-3 -4 -6 -10 -8 -14c-4 -6 -5 -9 -6 -10c-13 -19 -27 -38 -40 -56c-14 -18 -29 -36 -44 -54l114 24c37 7 75 14 113 19c1 0 7 1 17 3c9 1 20 2 31 4c11 0 22 1 31 1s14 -1 15 -3zM1324 904c-1 -2 -3 -4 -7 -6c-4 -1 -8 -3 -13 -4c-5 -2 -9 -4 -14 -4c-4 -2 -6 -2 -7 -2
c-71 -19 -142 -35 -213 -48c-72 -13 -144 -26 -215 -41c-43 -9 -85 -17 -127 -23c-43 -8 -85 -14 -128 -21c-2 -1 -10 -2 -24 -3c-15 -1 -32 -3 -52 -4c-20 -2 -41 -4 -64 -5c-22 -1 -42 -2 -60 -3c-19 0 -34 1 -46 2c-11 1 -16 4 -15 8c2 3 5 6 10 9c18 9 40 17 67 23
c27 5 51 10 73 15c43 9 85 17 127 23c42 8 84 14 127 20c85 12 169 23 253 34c83 11 167 20 252 29c1 0 6 0 14 1c7 1 16 1 24 2c10 1 18 1 25 0c7 0 12 -1 13 -2zM833 971c2 -5 3 -9 1 -15c0 -4 -3 -9 -6 -14s-7 -9 -11 -12c-4 -4 -8 -7 -12 -9c-7 -4 -16 -7 -27 -9
c-12 -1 -20 3 -25 12c-4 9 -3 18 2 28c5 8 12 16 19 21c4 2 9 4 14 6s11 3 17 4s11 0 17 -2c4 -2 8 -5 11 -10zM957 986c4 -9 2 -19 -5 -28c-7 -10 -14 -17 -21 -21s-17 -7 -27 -8c-12 -1 -19 2 -24 11c-4 9 -3 17 2 26s12 16 19 21c3 2 8 4 13 6s11 3 16 4s10 0 16 -1
c4 -2 8 -5 11 -10z" />
    <glyph glyph-name="Ugrave" unicode="&#xd9;" horiz-adv-x="760" 
d="M1258 989c-2 1 -5 1 -8 -1c-3 -1 -6 -3 -8 -4c-13 -7 -26 -17 -38 -28s-24 -23 -35 -36c-11 -12 -22 -24 -33 -38c-10 -12 -20 -25 -30 -36c-27 -32 -54 -64 -80 -96c-26 -31 -52 -63 -77 -96c-20 -26 -39 -51 -59 -76c-18 -25 -38 -50 -57 -76c-1 -1 -3 -4 -7 -7
c-3 -3 -7 -7 -12 -11c-4 -4 -8 -8 -14 -12l-12 -10c-63 -54 -126 -106 -191 -155c-67 -52 -134 -103 -203 -153c-68 -49 -138 -97 -209 -143c-21 -13 -41 -26 -63 -39c-20 -13 -42 -24 -65 -34c9 19 19 38 30 56l33 54c29 45 54 83 74 116c22 33 40 61 56 86
c16 24 30 46 42 64c13 20 25 38 36 56c32 51 62 103 91 156s54 108 76 165c7 18 13 37 17 57c3 20 1 38 -6 53c-1 3 -3 7 -6 10c-2 3 -5 6 -8 8c-1 1 -2 1 -4 1c-3 1 -4 0 -3 -2c0 -1 0 -3 1 -5s1 -4 2 -5c5 -11 6 -24 2 -38c-2 -13 -7 -27 -14 -42c-6 -14 -13 -28 -21 -40
c-8 -14 -14 -24 -19 -33c-21 -36 -42 -71 -65 -106s-46 -69 -69 -104c-47 -69 -94 -139 -141 -208s-92 -140 -134 -213c-9 -15 -17 -30 -25 -45s-14 -31 -19 -47c-2 -9 -3 -19 -3 -29c-1 -10 2 -18 7 -25c6 -8 13 -13 21 -16c7 -2 15 -3 24 -2c8 1 16 3 24 6c9 3 17 7 24 10
c19 9 38 19 55 30l52 34c36 23 71 48 105 72c34 26 68 51 102 77c63 48 124 97 182 147c60 50 118 102 175 156c-50 -69 -99 -137 -149 -206c-48 -68 -97 -137 -145 -206c-23 -35 -47 -69 -71 -104s-46 -71 -65 -109c-1 -1 -1 -3 -1 -5c1 -1 2 -1 4 0c5 3 9 7 13 12
c4 4 8 8 12 13l18 20l18 20c54 63 106 126 157 189s102 127 153 192c54 67 107 133 159 199s104 133 155 202c25 33 49 65 73 97c24 33 48 66 71 99c19 25 38 52 56 79c18 28 34 56 48 85c1 3 3 7 3 11c2 4 1 7 -2 9zM679 968c-10 8 -16 15 -17 20c-2 5 -1 9 2 12s8 4 15 4
c7 1 13 0 19 -2c12 -2 25 -5 39 -10c14 -4 29 -9 43 -14c16 -5 30 -11 45 -16c15 -6 28 -11 41 -16l39 -15s26 -9 37 -13c12 -5 22 -9 30 -12s13 -6 15 -8c-2 1 -10 2 -25 4c-14 3 -31 6 -52 9c-20 3 -42 7 -66 11c-25 5 -48 9 -70 14s-42 10 -59 16c-17 5 -29 11 -36 16z
" />
    <glyph glyph-name="Uacute" unicode="&#xda;" horiz-adv-x="760" 
d="M1063 991c-3 -7 -15 -15 -33 -24c-20 -9 -42 -19 -69 -29s-55 -20 -85 -30s-58 -19 -83 -26c-25 -8 -46 -14 -63 -18c-16 -4 -24 -5 -23 -3c16 11 37 23 63 37c26 13 53 27 82 41s57 27 86 40c28 13 53 23 74 32c7 3 14 5 22 7s15 2 21 2c6 -2 10 -4 12 -8
c2 -5 1 -12 -4 -21zM1258 989c3 -2 4 -5 2 -9c0 -4 -2 -8 -3 -11c-14 -29 -30 -57 -48 -85c-18 -27 -37 -54 -56 -79c-23 -33 -47 -66 -71 -99c-24 -32 -48 -64 -73 -97c-51 -69 -103 -136 -155 -202s-105 -132 -159 -199c-51 -65 -102 -129 -153 -192s-103 -126 -157 -189
l-18 -20l-18 -20c-4 -5 -8 -9 -12 -13c-4 -5 -8 -9 -13 -12c-2 -1 -3 -1 -4 0c0 2 0 4 1 5c19 38 41 74 65 109s48 69 71 104c48 69 97 138 145 206c50 69 99 137 149 206c-57 -54 -115 -106 -175 -156c-58 -50 -119 -99 -182 -147c-34 -26 -68 -51 -102 -77
c-34 -24 -69 -49 -105 -72l-52 -34c-17 -11 -36 -21 -55 -30c-7 -3 -15 -7 -24 -10c-8 -3 -16 -5 -24 -6c-9 -1 -17 0 -24 2c-8 3 -15 8 -21 16c-5 7 -8 15 -7 25c0 10 1 20 3 29c5 16 11 32 19 47s16 30 25 45c42 73 87 144 134 213s94 139 141 208c23 35 46 69 69 104
s44 70 65 106c5 9 11 19 19 33c8 12 15 26 21 40c7 15 12 29 14 42c4 14 3 27 -2 38c-1 1 -1 3 -2 5s-1 4 -1 5c-1 2 0 3 3 2c2 0 3 0 4 -1c3 -2 6 -5 8 -8c3 -3 5 -7 6 -10c7 -15 9 -33 6 -53c-4 -20 -10 -39 -17 -57c-22 -57 -47 -112 -76 -165s-59 -105 -91 -156
c-11 -18 -23 -36 -36 -56c-12 -18 -26 -40 -42 -64c-16 -25 -34 -53 -56 -86c-20 -33 -45 -71 -74 -116l-33 -54s-21 -37 -30 -56c23 10 45 21 65 34c22 13 42 26 63 39c71 46 141 94 209 143c69 50 136 101 203 153c65 49 128 101 191 155l12 10c6 4 10 8 14 12
c5 4 9 8 12 11c4 3 6 6 7 7c19 26 39 51 57 76c20 25 39 50 59 76c25 33 51 65 77 96c26 32 53 64 80 96c10 11 20 24 30 36c11 14 22 26 33 38c11 13 23 25 35 36s25 21 38 28c2 1 5 3 8 4c3 2 6 2 8 1z" />
    <glyph glyph-name="Ucircumflex" unicode="&#xdb;" horiz-adv-x="760" 
d="M1258 989c3 -2 4 -5 2 -9c0 -4 -2 -8 -3 -11c-14 -29 -30 -57 -48 -85c-18 -27 -37 -54 -56 -79c-23 -33 -47 -66 -71 -99c-24 -32 -48 -64 -73 -97c-51 -69 -103 -136 -155 -202s-105 -132 -159 -199c-51 -65 -102 -129 -153 -192s-103 -126 -157 -189l-18 -20l-18 -20
c-4 -5 -8 -9 -12 -13c-4 -5 -8 -9 -13 -12c-2 -1 -3 -1 -4 0c0 2 0 4 1 5c19 38 41 74 65 109s48 69 71 104c48 69 97 138 145 206c50 69 99 137 149 206c-57 -54 -115 -106 -175 -156c-58 -50 -119 -99 -182 -147c-34 -26 -68 -51 -102 -77c-34 -24 -69 -49 -105 -72
l-52 -34c-17 -11 -36 -21 -55 -30c-7 -3 -15 -7 -24 -10c-8 -3 -16 -5 -24 -6c-9 -1 -17 0 -24 2c-8 3 -15 8 -21 16c-5 7 -8 15 -7 25c0 10 1 20 3 29c5 16 11 32 19 47s16 30 25 45c42 73 87 144 134 213s94 139 141 208c23 35 46 69 69 104s44 70 65 106c5 9 11 19 19 33
c8 12 15 26 21 40c7 15 12 29 14 42c4 14 3 27 -2 38c-1 1 -1 3 -2 5s-1 4 -1 5c-1 2 0 3 3 2c2 0 3 0 4 -1c3 -2 6 -5 8 -8c3 -3 5 -7 6 -10c7 -15 9 -33 6 -53c-4 -20 -10 -39 -17 -57c-22 -57 -47 -112 -76 -165s-59 -105 -91 -156c-11 -18 -23 -36 -36 -56
c-12 -18 -26 -40 -42 -64c-16 -25 -34 -53 -56 -86c-20 -33 -45 -71 -74 -116l-33 -54s-21 -37 -30 -56c23 10 45 21 65 34c22 13 42 26 63 39c71 46 141 94 209 143c69 50 136 101 203 153c65 49 128 101 191 155l12 10c6 4 10 8 14 12c5 4 9 8 12 11c4 3 6 6 7 7
c19 26 39 51 57 76c20 25 39 50 59 76c25 33 51 65 77 96c26 32 53 64 80 96c10 11 20 24 30 36c11 14 22 26 33 38c11 13 23 25 35 36s25 21 38 28c2 1 5 3 8 4c3 2 6 2 8 1zM1040 889v-4v-7c0 -2 0 -4 -1 -6c-1 -1 -1 -2 -2 -2c-3 1 -6 4 -9 8c-3 3 -5 6 -8 8
c-13 17 -23 29 -29 36c-6 6 -13 10 -20 11c-50 -11 -101 -22 -153 -35c-53 -13 -106 -21 -159 -24c20 7 43 16 69 26c26 11 53 21 80 30c28 10 56 19 83 26c27 8 53 13 76 15c14 1 25 -1 34 -7c9 -5 16 -12 21 -22c5 -8 9 -18 12 -28s5 -18 6 -25z" />
    <glyph glyph-name="Udieresis" unicode="&#xdc;" horiz-adv-x="760" 
d="M1258 989c3 -2 4 -5 2 -9c0 -4 -2 -8 -3 -11c-14 -29 -30 -57 -48 -85c-18 -27 -37 -54 -56 -79c-23 -33 -47 -66 -71 -99c-24 -32 -48 -64 -73 -97c-51 -69 -103 -136 -155 -202s-105 -132 -159 -199c-51 -65 -102 -129 -153 -192s-103 -126 -157 -189l-18 -20l-18 -20
c-4 -5 -8 -9 -12 -13c-4 -5 -8 -9 -13 -12c-2 -1 -3 -1 -4 0c0 2 0 4 1 5c19 38 41 74 65 109s48 69 71 104c48 69 97 138 145 206c50 69 99 137 149 206c-57 -54 -115 -106 -175 -156c-58 -50 -119 -99 -182 -147c-34 -26 -68 -51 -102 -77c-34 -24 -69 -49 -105 -72
l-52 -34c-17 -11 -36 -21 -55 -30c-7 -3 -15 -7 -24 -10c-8 -3 -16 -5 -24 -6c-9 -1 -17 0 -24 2c-8 3 -15 8 -21 16c-5 7 -8 15 -7 25c0 10 1 20 3 29c5 16 11 32 19 47s16 30 25 45c42 73 87 144 134 213s94 139 141 208c23 35 46 69 69 104s44 70 65 106c5 9 11 19 19 33
c8 12 15 26 21 40c7 15 12 29 14 42c4 14 3 27 -2 38c-1 1 -1 3 -2 5s-1 4 -1 5c-1 2 0 3 3 2c2 0 3 0 4 -1c3 -2 6 -5 8 -8c3 -3 5 -7 6 -10c7 -15 9 -33 6 -53c-4 -20 -10 -39 -17 -57c-22 -57 -47 -112 -76 -165s-59 -105 -91 -156c-11 -18 -23 -36 -36 -56
c-12 -18 -26 -40 -42 -64c-16 -25 -34 -53 -56 -86c-20 -33 -45 -71 -74 -116l-33 -54s-21 -37 -30 -56c23 10 45 21 65 34c22 13 42 26 63 39c71 46 141 94 209 143c69 50 136 101 203 153c65 49 128 101 191 155l12 10c6 4 10 8 14 12c5 4 9 8 12 11c4 3 6 6 7 7
c19 26 39 51 57 76c20 25 39 50 59 76c25 33 51 65 77 96c26 32 53 64 80 96c10 11 20 24 30 36c11 14 22 26 33 38c11 13 23 25 35 36s25 21 38 28c2 1 5 3 8 4c3 2 6 2 8 1zM834 887c2 -5 2 -9 2 -15c-2 -4 -4 -9 -7 -14s-7 -9 -11 -12c-4 -4 -8 -7 -12 -9
c-7 -4 -16 -7 -28 -9c-11 -1 -19 3 -24 12c-4 9 -3 18 2 28c5 8 12 16 19 21c4 2 9 4 14 6s11 3 17 4s12 0 16 -2c6 -2 9 -5 12 -10zM958 902c4 -9 2 -19 -5 -28c-7 -10 -14 -17 -21 -21s-16 -7 -28 -8c-10 -1 -18 2 -23 11c-4 9 -3 17 2 26s12 16 19 21c3 2 8 4 13 6
s11 3 16 4s11 0 15 -1c6 -2 9 -5 12 -10z" />
    <glyph glyph-name="exclam" unicode="!" horiz-adv-x="410" 
d="M747 886c1 -1 1 -4 1 -6c-2 -4 -3 -7 -4 -11c-2 -4 -4 -8 -6 -11c-1 -3 -2 -5 -3 -6c-9 -18 -19 -36 -30 -54c-11 -17 -22 -35 -33 -52c-12 -19 -24 -37 -36 -55l-36 -54c-6 -9 -16 -23 -30 -43c-15 -21 -31 -44 -50 -70c-19 -25 -38 -52 -58 -80
c-21 -29 -40 -55 -58 -80s-34 -46 -46 -64c-14 -18 -22 -29 -25 -34c-13 -16 -25 -32 -37 -48c-12 -17 -24 -33 -37 -49c-2 -3 -5 -7 -9 -12c-5 -5 -9 -9 -14 -13c-5 -5 -9 -8 -14 -11s-9 -4 -13 -3c-9 2 -14 7 -15 14s1 15 4 22c9 16 18 31 27 44c5 7 13 19 25 36
c11 17 25 36 41 58c16 23 33 48 53 74c18 28 38 55 58 82c20 28 40 56 60 82c19 28 38 52 54 76c18 22 32 43 46 60c12 17 22 30 29 38c13 17 27 33 41 50c13 16 27 32 41 48c7 7 13 15 20 22c7 8 14 16 21 23c1 1 2 3 6 6c2 3 6 7 10 10c3 3 7 6 10 9c3 2 6 3 7 2zM103 23
c4 2 9 4 15 5c6 2 12 3 18 3c7 0 13 -1 18 -3s9 -6 11 -12c2 -5 2 -11 1 -16c-2 -5 -5 -10 -8 -16c-4 -4 -8 -9 -14 -13c-4 -4 -9 -7 -13 -9s-9 -4 -14 -5s-11 -2 -17 -2c-5 0 -10 1 -15 3c-5 3 -8 7 -10 12c-4 11 -3 21 4 30c7 10 15 18 24 23z" />
    <glyph glyph-name="exclamdown" unicode="&#xa1;" horiz-adv-x="359" 
d="M86 1c-1 1 -2 3 -1 6s2 7 3 11c2 3 4 7 6 10s3 6 4 7c9 18 19 36 30 53c10 18 20 36 31 53c11 19 23 37 35 55c12 19 24 37 36 55c5 9 15 23 30 44c14 21 30 44 48 70c19 26 38 53 58 81c20 29 39 56 56 80c18 26 33 47 46 64c13 18 21 30 24 35c12 17 24 33 36 49
c12 17 24 33 36 49c3 3 6 8 9 13s7 10 11 14c5 5 10 8 14 12c6 2 11 3 16 1c9 -3 14 -7 16 -15c0 -6 -1 -14 -4 -21c-9 -16 -18 -31 -27 -44c-6 -10 -18 -28 -35 -54c-18 -26 -39 -56 -63 -90s-49 -70 -76 -109c-27 -38 -52 -74 -77 -109s-47 -65 -66 -92s-33 -46 -42 -57
c-13 -17 -27 -33 -40 -50c-13 -16 -27 -32 -41 -49c-7 -7 -13 -15 -19 -23c-7 -7 -14 -15 -21 -22l-7 -6c-2 -4 -6 -7 -9 -10c-3 -4 -7 -7 -10 -10c-3 -2 -6 -2 -7 -1zM719 872c-4 -2 -9 -4 -15 -6s-12 -3 -18 -3c-7 0 -13 1 -18 3s-9 6 -12 11c-2 5 -2 11 0 17
c1 5 4 10 8 16c3 4 8 9 12 13c6 4 10 7 14 9s9 4 14 6c5 1 11 2 16 2c6 0 11 -1 16 -4c5 -2 8 -6 10 -11c4 -11 3 -21 -4 -31c-7 -9 -14 -17 -23 -22z" />
    <glyph glyph-name="quotesingle" unicode="'" horiz-adv-x="180" 
d="M278 428c5 9 11 18 18 28c6 8 12 18 19 27c11 15 23 29 35 43s26 27 41 38c3 3 7 5 11 8c4 2 8 4 13 5c11 3 15 0 13 -10c-1 -8 -4 -15 -9 -23c-5 -6 -10 -13 -15 -19c-11 -15 -24 -29 -36 -41l-40 -40c-7 -7 -13 -13 -20 -19l-19 -19c-1 -1 -3 -3 -7 -6
c-2 -3 -6 -6 -10 -9c-3 -3 -6 -6 -10 -9c-2 -2 -4 -3 -5 -3s-1 3 1 7c1 6 4 11 6 17c4 6 6 11 10 17c2 4 4 7 4 8z" />
    <glyph glyph-name="quotedbl" unicode="&#x22;" horiz-adv-x="525" 
d="M454 677c9 19 20 37 32 55c13 19 26 37 39 54c14 19 29 38 47 58c16 18 34 36 52 51c1 1 4 3 10 8s12 9 18 13c7 3 12 5 16 6c4 0 5 -4 3 -12c-3 -10 -7 -20 -14 -30c-7 -9 -13 -18 -20 -26c-25 -32 -51 -61 -78 -86c-27 -26 -52 -53 -75 -81c-6 -6 -13 -14 -22 -23
c-9 -10 -15 -15 -20 -16c-1 0 -2 1 0 4c0 2 2 5 3 8s3 7 5 10s3 6 4 7zM311 631c21 42 47 82 75 120c30 38 62 72 98 102c1 1 5 3 10 7c6 5 12 8 18 12c5 2 10 4 14 4c4 -1 5 -5 3 -13c-3 -9 -7 -18 -15 -27c-6 -9 -13 -18 -20 -27c-25 -32 -50 -61 -76 -87
c-27 -25 -52 -52 -76 -79c-2 -2 -4 -5 -8 -9c-2 -4 -6 -8 -10 -12c-3 -5 -7 -9 -10 -12c-4 -4 -7 -6 -10 -7c-2 -1 -3 -1 -3 1c0 3 1 6 2 10c1 3 3 7 5 10z" />
    <glyph glyph-name="numbersign" unicode="#" horiz-adv-x="877" 
d="M991 529c-7 -10 -15 -20 -25 -31c-8 -10 -18 -20 -27 -30c18 3 36 5 53 6c7 1 14 1 20 2c8 1 14 0 21 -1c6 -1 7 -3 3 -5c-3 -3 -6 -5 -9 -6c-7 -3 -15 -6 -21 -8c-8 -3 -14 -5 -21 -8l-40 -12c-13 -4 -27 -7 -41 -10c-1 0 -6 -5 -15 -14s-19 -20 -30 -33
s-23 -25 -35 -39c-12 -12 -22 -23 -29 -31c17 4 35 7 52 11c17 2 35 6 52 9c7 1 15 3 21 3c8 2 15 2 22 1c4 0 6 -1 6 -3c1 -1 -1 -3 -5 -6c-8 -5 -17 -10 -25 -12c-10 -4 -18 -7 -27 -10c-24 -9 -48 -18 -72 -24c-24 -8 -48 -15 -73 -22c-1 -1 -6 -6 -14 -15
c-10 -9 -21 -21 -36 -36c-14 -15 -30 -31 -47 -49c-17 -19 -35 -37 -53 -56c-17 -18 -34 -36 -50 -52c-17 -18 -31 -32 -43 -43s-24 -23 -37 -34c-12 -11 -25 -23 -38 -34c-3 -1 -5 -3 -8 -5c-2 -2 -4 -4 -7 -5s-5 0 -4 3c1 2 2 5 3 8c2 4 4 8 6 10c2 4 3 5 3 6
c13 19 25 37 38 52c30 38 60 75 91 112s62 74 94 111c-1 0 -6 -1 -16 -4c-9 -3 -22 -6 -38 -9c-15 -4 -33 -8 -53 -13s-40 -9 -61 -14c-20 -5 -40 -9 -60 -13c-19 -5 -36 -8 -51 -11c-2 -1 -8 -6 -17 -16s-20 -21 -32 -33c-11 -12 -22 -24 -33 -35s-18 -19 -22 -23
c-24 -25 -48 -50 -73 -75s-50 -49 -75 -74l-22 -20c-7 -7 -15 -13 -24 -18c-1 -1 -3 -2 -5 -3c-1 -2 -3 -2 -4 -1s-2 3 0 5c0 3 2 5 3 6c4 9 9 18 15 26l18 24c29 38 58 75 88 111c31 36 61 72 92 108c-25 -5 -50 -9 -76 -13c-26 -3 -52 -5 -77 -4h-5c-3 0 -5 0 -8 1
s-4 1 -6 3c0 0 1 2 4 3c15 7 31 14 49 19s40 11 65 18c5 1 12 3 22 6c9 2 19 4 29 7s19 5 27 7c9 3 15 4 18 5c1 0 7 5 17 17c10 10 21 23 35 38c12 15 26 30 40 45c13 15 24 28 32 37c-8 -1 -22 -3 -43 -6s-43 -5 -65 -7c-24 -2 -45 -3 -64 -3s-32 2 -38 6c-1 1 -1 3 2 4
c3 2 6 4 10 6c3 1 7 2 10 4c4 0 6 1 7 1c29 8 59 15 89 21c30 7 62 13 96 20c3 1 7 2 12 2c5 2 9 2 14 4c4 0 8 1 12 2c3 1 5 1 6 1c12 13 25 27 39 42s29 31 43 47c16 15 31 30 46 46c15 14 30 28 43 41c9 7 17 15 25 22s16 14 25 21c1 1 4 3 9 6c5 4 10 7 14 10
c6 3 10 4 14 5c3 1 5 -1 4 -6c0 -7 -2 -15 -8 -23c-4 -8 -11 -17 -18 -28c-21 -29 -43 -57 -66 -84c-23 -26 -46 -52 -69 -79c42 8 85 15 129 22c45 7 88 14 129 23c1 1 3 3 7 8c3 4 7 8 12 14c5 4 9 9 14 14c4 5 7 8 9 10c17 17 33 34 51 51c16 17 34 33 51 48
c3 3 7 7 14 13s14 12 22 18s16 11 23 16s13 7 17 6s5 -4 3 -10s-5 -13 -10 -20c-4 -8 -8 -16 -14 -23c-4 -7 -8 -13 -11 -17c-7 -9 -15 -18 -21 -28c-8 -8 -15 -18 -23 -27zM780 383c3 3 5 6 8 9c2 3 4 5 7 8c-44 -9 -87 -18 -130 -26c-43 -9 -86 -17 -130 -24
c-12 -14 -25 -28 -38 -41c-13 -15 -25 -29 -39 -43c-12 -13 -25 -27 -38 -41c45 11 90 22 134 31c45 10 90 21 135 32c5 1 8 2 10 5c13 13 26 27 39 42s27 31 42 48z" />
    <glyph glyph-name="dollar" unicode="$" horiz-adv-x="661" 
d="M662 394c1 -3 1 -8 1 -15c0 -20 -5 -39 -14 -57c-9 -19 -21 -36 -35 -52c-15 -16 -31 -31 -48 -44c-17 -14 -34 -26 -50 -37c-37 -24 -76 -45 -116 -63c-41 -19 -82 -35 -124 -50c-29 -11 -58 -20 -86 -30c-29 -8 -59 -16 -91 -23c-7 -9 -15 -19 -21 -29
c-8 -10 -15 -20 -22 -29c-3 -4 -7 -9 -12 -15l-12 -16c-5 -6 -9 -11 -12 -14c-3 -4 -6 -6 -8 -6c-1 0 -1 1 -1 2v1l1 2c4 15 11 31 22 48c10 17 20 33 29 48c-17 -4 -37 -9 -59 -13c-23 -6 -46 -10 -70 -14s-48 -8 -72 -10c-25 -4 -48 -5 -70 -5c-7 0 -16 0 -26 1
c-10 0 -15 1 -15 3s6 5 18 9c12 3 26 7 41 10c15 4 30 8 44 10c13 4 22 6 26 7c37 9 73 19 109 29s72 20 109 30c3 5 5 9 8 13s5 8 8 13c34 57 69 114 104 169c36 55 72 111 108 166c-7 0 -18 0 -32 -1h-46c-17 1 -34 2 -51 4s-33 5 -47 10c-15 4 -26 10 -36 18
c-8 7 -13 17 -13 30c0 14 6 27 17 40c12 13 25 24 38 34c23 19 48 35 76 50c29 15 58 28 88 39c31 11 62 21 94 31c32 8 63 16 94 23c2 1 4 1 5 1s3 0 4 1c1 0 3 2 6 6s7 8 11 13c3 5 7 9 10 14c3 4 6 7 7 8c3 4 6 9 11 14c4 5 8 10 13 15s9 9 13 12s7 5 10 5c1 0 2 -1 2 -2
c0 -6 -1 -12 -4 -20c-3 -6 -6 -14 -10 -20c-3 -8 -7 -14 -11 -20c-4 -7 -7 -12 -10 -17c3 1 10 2 21 3s20 2 29 2s14 -1 15 -3c0 -2 -3 -4 -10 -7s-14 -6 -23 -8c-9 -4 -17 -6 -26 -8c-9 -3 -15 -5 -20 -6c-1 0 -3 -3 -7 -8c-3 -5 -6 -9 -7 -12c-19 -31 -39 -61 -58 -91
s-39 -60 -59 -90c21 -1 44 -3 70 -5c27 -1 52 -5 76 -12c25 -7 46 -16 64 -29c17 -13 28 -30 32 -53zM600 377c0 12 -7 21 -22 28c-14 7 -32 12 -54 15c-22 4 -46 7 -72 8c-25 1 -49 3 -72 4c-17 -25 -34 -51 -54 -79c-18 -28 -38 -57 -59 -87s-41 -60 -63 -90
c-20 -31 -41 -60 -61 -89c35 13 71 27 109 40c36 13 73 28 108 44c36 16 70 34 104 55c32 21 63 45 90 73c10 10 20 22 30 35c11 13 16 28 16 43zM367 494c19 27 39 57 59 88c22 31 43 62 64 92c-30 -11 -60 -22 -88 -34c-30 -11 -58 -24 -87 -37c-27 -13 -54 -28 -81 -43
c-27 -16 -50 -36 -70 -59c13 -3 26 -5 40 -6c13 -1 29 -1 46 -1h117z" />
    <glyph glyph-name="percent" unicode="%" horiz-adv-x="609" 
d="M391 361c-42 -52 -85 -104 -128 -155c-43 -52 -88 -103 -134 -152c-9 -11 -20 -23 -33 -36s-26 -24 -41 -34l-4 -2c-1 0 -2 1 -2 3c0 3 1 7 5 14c2 7 6 13 10 21c4 6 8 13 11 18c3 6 5 10 6 11c23 36 47 71 73 105c24 35 50 69 75 104c39 52 78 104 119 156
c41 53 84 101 130 145c3 3 7 7 12 11c5 5 10 9 14 13c6 4 10 7 16 10c4 3 9 4 13 4c5 0 8 -3 8 -10c0 -8 -3 -18 -9 -29c-5 -11 -12 -23 -20 -35c-7 -12 -15 -23 -23 -33c-8 -11 -14 -19 -18 -25c-13 -17 -27 -35 -39 -52c-14 -17 -27 -35 -41 -52zM555 190
c6 0 10 -3 13 -10s4 -13 4 -18c0 -16 -5 -33 -16 -52c-10 -19 -23 -36 -40 -52c-16 -16 -34 -29 -56 -40c-20 -11 -42 -16 -63 -16c-12 0 -23 4 -33 10c-10 8 -15 19 -15 36c0 8 2 17 5 27c6 15 14 30 24 44c11 14 22 26 36 37c12 10 26 18 42 24c14 7 30 10 45 10h6
c3 0 7 0 10 -2c3 0 7 -2 9 -4c4 -1 5 -4 5 -7c-1 0 -2 1 -5 1c-2 2 -4 2 -7 2c-9 0 -21 -3 -35 -10c-13 -6 -26 -15 -40 -26c-12 -11 -24 -25 -34 -40c-9 -16 -14 -33 -15 -52c10 1 23 4 39 12c15 6 31 16 46 26c16 12 30 24 44 38c12 14 22 29 27 44c1 3 2 7 2 12
c0 4 1 6 2 6zM63 371c-10 7 -15 18 -15 33c0 16 4 32 13 48s20 30 33 44c13 12 28 24 44 32c15 10 30 15 43 16c3 0 7 0 14 -1s10 -3 10 -8c0 -3 -2 -6 -6 -7c-4 -2 -7 -4 -9 -5c-17 -11 -34 -23 -48 -38c-16 -15 -28 -31 -39 -48c-1 -1 -2 -2 -3 -5l-6 -9
c-1 -3 -3 -7 -4 -11c-1 -3 -2 -6 -2 -8c0 -3 2 -4 4 -5c4 -1 6 -1 9 -1c9 0 20 2 33 6c13 5 24 11 36 18c10 8 20 17 28 28c7 11 11 22 11 35c0 4 -1 8 -3 11c-1 3 -2 8 -2 14c0 3 1 4 2 4c4 0 7 -2 10 -5s5 -7 7 -12s3 -9 5 -15c0 -4 1 -8 1 -11c0 -15 -5 -30 -13 -43
c-10 -14 -21 -26 -34 -36s-28 -18 -44 -24c-15 -5 -29 -8 -42 -8c-6 0 -12 1 -18 2c-5 2 -10 5 -15 9z" />
    <glyph glyph-name="parenleft" unicode="(" horiz-adv-x="349" 
d="M5 42c-5 4 -9 9 -11 16l-3 21c-3 31 1 64 12 97c10 35 23 68 40 102c17 32 35 65 56 97c21 34 44 67 69 100s51 65 79 97c27 33 55 64 84 94s60 60 92 89c16 13 32 27 47 39c16 14 32 26 49 38c13 9 26 18 39 25c12 7 24 14 37 20c1 1 5 3 9 5c6 1 9 1 10 0s0 -3 -2 -6
l-7 -7s-5 -5 -8 -7l-5 -5c-5 -5 -10 -10 -14 -13c-6 -4 -11 -8 -16 -13l-60 -57c-21 -21 -42 -41 -62 -62c-19 -21 -39 -43 -58 -66c-28 -31 -55 -62 -80 -94c-26 -33 -51 -66 -75 -100c-22 -32 -43 -64 -63 -95s-39 -63 -56 -96c-9 -17 -17 -33 -25 -50s-15 -34 -22 -51
c-7 -16 -12 -32 -17 -48c-5 -17 -10 -33 -16 -48c-1 -3 -2 -6 -3 -10c-1 -3 -3 -6 -5 -10c-1 -2 -3 -4 -6 -6c-3 0 -6 1 -9 4z" />
    <glyph glyph-name="zero" unicode="0" horiz-adv-x="708" 
d="M229 544c-1 1 -1 3 0 6s3 7 5 10c3 3 5 6 8 10c2 2 3 4 4 5c45 59 94 112 148 161c55 49 112 90 173 123c16 9 33 17 53 25c18 8 38 14 58 18c19 4 39 5 58 3s38 -9 55 -20c14 -9 25 -21 33 -35c8 -13 14 -28 17 -43s5 -31 4 -47c-1 -17 -3 -33 -6 -48
c-19 -86 -51 -167 -95 -244c-43 -77 -94 -148 -151 -214c-29 -33 -60 -65 -92 -95s-66 -58 -101 -85c-34 -25 -70 -48 -109 -70c-39 -20 -79 -35 -121 -43c-18 -3 -36 -3 -53 -3c-17 2 -33 5 -49 10c-14 5 -28 13 -40 24c-13 11 -23 25 -31 42c-9 20 -15 41 -17 62
c-3 22 -3 44 -2 66c2 22 6 44 10 65c6 21 11 42 17 61c13 42 28 83 46 122s38 78 61 115c21 36 44 71 70 104c24 33 52 65 82 95c26 26 54 50 83 73s61 41 95 55c1 1 2 1 4 2s3 0 4 -1s1 -3 0 -4c-2 -1 -3 -2 -4 -3c-9 -9 -19 -18 -28 -26c-9 -7 -19 -15 -28 -24
c-47 -42 -89 -88 -126 -136c-36 -50 -69 -100 -98 -153c-9 -15 -19 -36 -32 -61s-26 -54 -39 -84c-13 -32 -26 -64 -37 -98c-11 -33 -20 -66 -25 -97s-7 -60 -3 -87c2 -27 12 -48 27 -64c13 -15 29 -23 49 -24c18 -2 39 1 62 10c22 8 45 20 70 36c25 15 49 33 74 52
c25 20 49 41 72 62s45 42 64 61s36 37 50 53c15 15 26 27 33 35c29 33 57 67 82 101c25 36 49 72 70 110c6 10 14 24 23 40c10 18 20 36 30 56c11 20 21 41 30 62c10 22 18 43 24 64s10 40 11 57s-1 32 -7 43c-9 16 -23 25 -42 28c-18 2 -38 0 -62 -6
c-22 -7 -46 -16 -72 -29c-24 -13 -48 -26 -70 -40c-23 -14 -43 -27 -60 -39s-30 -21 -37 -26c-22 -17 -43 -34 -65 -51c-20 -17 -42 -35 -63 -52c-2 -2 -8 -7 -17 -15c-9 -9 -20 -18 -30 -27c-12 -9 -22 -17 -31 -25c-9 -6 -15 -9 -16 -8z" />
    <glyph glyph-name="one" unicode="1" horiz-adv-x="615" 
d="M743 861c6 -9 7 -17 4 -24s-8 -15 -13 -22c-17 -25 -35 -49 -53 -73c-18 -25 -36 -50 -55 -75c-25 -34 -49 -68 -74 -101c-24 -34 -49 -68 -74 -102c-50 -69 -100 -137 -150 -204s-101 -134 -153 -201c40 9 79 18 118 27c39 8 78 16 118 23c19 3 37 7 55 10s36 6 55 9
c9 1 17 2 25 4c8 0 16 1 25 1h5c3 0 5 0 8 -1c3 0 5 0 6 -2c2 0 2 -2 0 -4c-4 -5 -10 -10 -18 -12c-7 -4 -14 -6 -21 -9c-25 -9 -51 -18 -75 -26c-26 -8 -51 -16 -78 -24c-41 -12 -81 -23 -122 -33c-40 -11 -81 -21 -122 -30c-6 -1 -12 -2 -18 -4c-5 0 -11 -2 -16 -3
c-3 -1 -6 -2 -7 -4c-7 -7 -14 -15 -21 -23c-6 -8 -13 -16 -22 -23c-1 -1 -3 -3 -6 -3c-3 -2 -3 0 -2 4c1 7 4 14 8 21s8 13 11 19c-32 -7 -64 -13 -95 -18c-31 -6 -63 -12 -95 -17c-19 -3 -39 -5 -57 -7c-20 -3 -39 -5 -58 -6h-18c-7 -1 -14 -1 -22 0c-6 0 -13 0 -18 1
s-8 2 -8 4c-1 1 0 3 2 4s4 2 5 3c9 5 17 8 27 11c8 3 17 5 26 8c26 7 52 15 80 21c26 8 55 15 86 22s62 15 92 22c32 8 63 16 96 23l30 48c21 34 43 68 66 101c22 33 44 67 67 100c51 75 106 151 165 230c58 78 114 153 168 226c-41 -23 -86 -47 -135 -72
c-49 -26 -95 -48 -138 -67c-17 -7 -37 -15 -59 -23c-22 -9 -53 -20 -94 -34c-5 -1 -10 -3 -16 -4c-6 -2 -12 -2 -17 -1c-1 1 -1 2 1 3c1 2 3 4 5 6c2 1 4 3 7 4l3 2c4 2 8 4 13 7s12 7 22 13c10 5 24 13 41 22s41 22 70 37c36 19 72 39 107 59c35 19 71 40 107 61
c19 11 37 23 55 33c18 12 36 23 54 35c9 6 19 12 28 19c9 6 19 12 29 18c7 4 14 5 21 4c8 -2 14 -6 19 -13z" />
    <glyph glyph-name="two" unicode="2" horiz-adv-x="626" 
d="M746 797c1 -17 -2 -33 -10 -48c-9 -15 -18 -29 -27 -42c-26 -35 -54 -67 -84 -99c-30 -30 -61 -61 -92 -91c-32 -32 -64 -63 -97 -93c-32 -31 -65 -61 -99 -92c-63 -57 -127 -114 -191 -170c-65 -55 -130 -110 -197 -164l42 12c14 4 28 8 42 11c44 11 88 21 131 29
c44 10 88 18 132 27c41 7 82 15 122 23c42 9 84 15 128 20c4 1 8 1 13 2s9 0 13 -1s4 -3 0 -6s-7 -4 -8 -5c-11 -5 -22 -10 -33 -14s-24 -8 -37 -12c-14 -5 -30 -9 -46 -14c-18 -5 -37 -10 -58 -17c-43 -13 -86 -26 -129 -38s-86 -24 -130 -35s-87 -21 -130 -30
c-8 -1 -20 -4 -37 -7c-16 -3 -33 -6 -50 -9c-18 -3 -35 -4 -51 -4s-28 2 -35 7c-3 2 -5 4 -4 6c0 2 1 4 3 7c2 2 5 4 7 6c4 1 6 2 7 3c9 5 17 9 25 12l23 9l15 12c4 3 8 7 13 11s9 8 12 11c59 59 119 118 179 175c59 57 119 115 179 174c32 31 64 63 95 94
c32 31 64 63 95 96c32 32 63 65 93 99c6 7 14 16 25 28c11 11 21 24 33 37c10 13 20 27 29 39c9 14 14 24 16 33c1 7 -3 11 -13 13c-9 3 -20 4 -32 4c-13 0 -25 -1 -37 -2c-12 -2 -20 -3 -24 -4c-43 -9 -84 -22 -123 -40c-40 -18 -78 -39 -114 -62c-29 -17 -56 -37 -82 -58
c-25 -21 -51 -43 -78 -64c-2 -2 -4 -3 -5 -4s-2 -2 -3 -2s-1 1 0 2c5 14 13 29 26 45s27 32 42 48c16 16 32 31 48 45c16 15 30 27 42 37c33 26 67 49 104 69c37 21 75 37 116 48c20 5 41 9 62 12s43 2 64 -1c21 -4 39 -13 54 -25c16 -14 25 -31 26 -53z" />
    <glyph glyph-name="three" unicode="3" horiz-adv-x="689" 
d="M657 895c13 -1 25 -5 37 -9c11 -6 21 -12 29 -20c8 -9 14 -19 17 -30c4 -12 4 -25 1 -39c-4 -15 -11 -29 -19 -41c-10 -12 -20 -23 -32 -33s-25 -19 -38 -27c-14 -8 -27 -15 -40 -22c-39 -21 -80 -40 -120 -58c-42 -16 -83 -34 -124 -51l78 15c27 4 53 6 80 5
c25 0 50 -3 76 -9c25 -6 47 -18 66 -36c13 -12 22 -25 27 -40c5 -14 8 -29 9 -44c0 -16 -2 -32 -6 -48c-3 -16 -8 -31 -14 -46c-16 -38 -37 -72 -64 -103c-26 -31 -55 -59 -88 -84c-34 -26 -70 -49 -108 -69s-77 -38 -117 -53c-41 -16 -82 -30 -123 -41
c-42 -12 -84 -22 -127 -31c-40 -7 -80 -13 -121 -19c-40 -4 -80 -7 -121 -7c-8 0 -16 0 -23 1c-8 0 -15 0 -21 1s-11 1 -13 3c-4 0 -4 2 -1 3l9 3c2 0 4 0 7 1c19 3 39 7 59 10s40 7 59 11c42 9 84 20 125 30c42 12 84 24 125 38s82 30 122 46c40 18 79 37 117 58
c35 20 69 42 102 68c33 24 62 53 87 85c7 9 16 22 27 38c10 16 18 33 26 51c6 17 10 34 10 51s-7 30 -20 41c-15 12 -34 20 -54 24c-22 4 -43 7 -65 9c-22 1 -44 2 -67 1c-22 0 -44 -1 -66 -3c-21 -2 -42 -5 -64 -7c-20 -4 -42 -7 -63 -12c-3 -1 -7 -2 -11 -2
c-3 -1 -6 1 -9 5s-3 7 -1 11c3 2 6 5 9 6c11 4 21 8 31 12c11 4 21 8 31 12c41 17 82 36 121 56c39 21 78 43 116 67c17 11 34 23 52 35c16 12 33 25 49 38c4 3 10 9 19 16c8 7 16 15 22 23c8 8 12 16 14 23c1 8 -3 14 -12 18c-28 8 -58 9 -90 2c-31 -6 -63 -13 -95 -22
c-20 -7 -40 -14 -59 -22c-19 -7 -38 -16 -57 -26c-16 -8 -31 -17 -47 -26c-14 -10 -29 -20 -44 -30l-4 -4c-3 -2 -4 -3 -5 -2s1 5 5 12c6 6 12 13 18 20c8 7 14 14 22 21c6 7 11 11 13 13c31 27 64 50 99 70c36 20 73 36 112 47c20 6 40 11 62 14c20 3 42 4 63 2z" />
    <glyph glyph-name="four" unicode="4" horiz-adv-x="632" 
d="M788 747c3 -2 3 -7 0 -15c-2 -7 -5 -15 -10 -24c-5 -8 -9 -16 -14 -24c-4 -7 -7 -12 -8 -15c-26 -42 -54 -84 -84 -125c-31 -42 -64 -87 -101 -135c30 11 60 21 89 33c30 10 62 20 95 29c1 1 4 2 9 3c6 1 8 1 7 -2c-3 -4 -8 -7 -13 -10c-6 -3 -11 -5 -16 -8
c-18 -11 -36 -22 -54 -30c-19 -10 -37 -19 -56 -28c-18 -9 -36 -18 -54 -26c-18 -10 -37 -18 -56 -26c-1 -2 -3 -4 -6 -7c-2 -3 -4 -5 -5 -7c-29 -38 -58 -76 -87 -112c-29 -38 -58 -74 -88 -111c-13 -17 -27 -35 -42 -53c-14 -17 -28 -35 -42 -52c-13 -15 -26 -31 -38 -46
c-14 -15 -27 -30 -42 -43c-3 -3 -6 -5 -10 -7c-3 -1 -4 1 -2 7c2 8 5 16 10 23c5 8 9 16 13 23c33 54 69 108 106 161c37 54 78 113 123 176c-38 -15 -76 -30 -116 -45c-38 -15 -78 -27 -119 -36c-16 -3 -33 -6 -52 -9s-36 0 -51 7s-25 18 -28 32s-3 28 0 42
c11 42 28 83 54 121c24 40 51 79 80 119c28 38 56 75 86 111c28 37 59 73 90 108c25 27 51 53 76 79s52 52 81 77c7 7 14 10 19 11c2 0 3 -1 4 -3c0 -2 0 -4 -2 -6c0 -3 -2 -5 -3 -8c-1 -2 -2 -3 -2 -4c-15 -25 -31 -50 -49 -75c-19 -25 -38 -50 -57 -76
c-28 -38 -55 -75 -83 -112c-26 -37 -53 -74 -80 -112c-12 -18 -25 -37 -38 -56c-14 -19 -28 -39 -40 -59c-14 -20 -26 -40 -36 -62c-12 -20 -21 -42 -28 -64c28 1 55 6 82 13s54 15 81 23c32 9 64 19 96 30c32 10 63 22 93 35c25 30 49 61 72 95c23 32 48 66 76 101
c13 17 27 34 42 51c14 17 28 34 43 51c2 2 7 7 15 16s17 17 26 27c9 8 18 16 26 22c9 7 15 9 18 7z" />
    <glyph glyph-name="five" unicode="5" horiz-adv-x="679" 
d="M916 898c0 -1 -1 -3 -4 -5s-6 -4 -9 -5s-7 -3 -11 -4c-3 -1 -5 -2 -6 -2c-19 -7 -39 -14 -60 -20c-20 -5 -41 -12 -62 -19l-87 -27c-29 -8 -58 -16 -87 -25c-11 -3 -22 -7 -34 -9c-11 -4 -25 -7 -40 -11c-16 -4 -34 -9 -56 -13c-20 -6 -46 -11 -75 -18
c-29 -40 -59 -80 -89 -121s-58 -82 -83 -124c29 7 59 13 88 19c29 5 59 10 90 13c20 3 42 5 65 6c24 1 48 1 72 1c23 -2 46 -4 67 -7s40 -8 55 -15c16 -7 30 -18 40 -32c12 -13 18 -29 20 -46c1 -14 0 -28 -3 -42c-3 -13 -8 -27 -13 -40c-15 -38 -38 -72 -67 -102
c-29 -29 -61 -56 -94 -79c-35 -25 -72 -48 -111 -69c-38 -20 -77 -39 -117 -56c-79 -33 -159 -60 -241 -80c-19 -5 -38 -10 -58 -14c-18 -4 -38 -8 -57 -11c-18 -3 -36 -5 -53 -6c-3 -1 -7 -1 -12 -1s-9 1 -13 2c-1 1 0 2 5 4c5 3 10 5 16 8c7 3 13 5 18 8c6 2 10 3 11 4
l114 39c40 14 80 29 119 44s78 32 116 51c41 19 80 39 118 60c39 22 76 47 111 74c15 11 31 23 47 36c15 14 30 29 42 44c14 16 25 33 34 51c10 18 17 37 20 57c1 13 -4 24 -16 31c-10 7 -24 13 -39 15c-15 4 -31 5 -47 6c-17 1 -29 1 -38 1c-45 -1 -90 -4 -135 -10
s-89 -13 -133 -21c-11 -3 -21 -5 -31 -6c-10 -2 -20 -4 -31 -7c-7 -1 -15 -2 -22 -1c-7 0 -14 4 -19 11c-4 7 -4 15 -1 25s8 20 14 30c7 11 14 21 20 30l17 22c24 33 49 66 75 96c27 32 55 62 84 91c-22 -4 -44 -8 -64 -11c-22 -4 -43 -7 -64 -8h-24c-9 0 -16 2 -23 5
c-3 2 -5 4 -5 6c1 2 2 4 4 7c2 2 4 4 8 6c2 1 5 2 6 3c17 9 34 17 54 23c18 6 38 12 59 17c65 19 129 35 193 48c63 13 128 26 194 39c21 3 42 7 63 12c21 4 43 8 64 11c10 1 20 3 31 5c10 2 20 4 31 5c1 0 5 1 9 1c6 2 11 2 16 3c6 1 11 1 16 1c5 -1 7 -2 8 -4z" />
    <glyph glyph-name="six" unicode="6" horiz-adv-x="714" 
d="M838 803c3 -24 -1 -47 -12 -71c-10 -22 -22 -43 -37 -62c-14 -18 -30 -34 -48 -48c-1 -1 -5 -4 -10 -8s-9 -5 -10 -4s0 5 4 10s7 9 8 10c12 15 23 31 34 48c11 16 20 34 27 53c3 8 5 17 8 28s4 21 3 31c-1 11 -3 20 -9 28c-4 9 -13 14 -25 17c-17 4 -35 4 -54 -1
c-19 -4 -36 -9 -51 -15c-20 -8 -40 -17 -58 -29c-20 -10 -38 -22 -55 -35c-36 -26 -70 -54 -101 -85c-32 -30 -63 -62 -92 -95c-59 -67 -112 -137 -158 -212l90 51c31 16 62 32 94 47s64 29 98 43c32 12 66 23 100 31c20 5 41 8 63 9c22 2 43 -1 63 -8c19 -8 34 -21 42 -38
c10 -18 12 -37 9 -58c-3 -19 -9 -38 -17 -54c-9 -18 -18 -34 -29 -49c-9 -14 -19 -27 -29 -41c-9 -12 -19 -25 -30 -38c-55 -68 -119 -126 -192 -174c-36 -24 -74 -45 -114 -63c-41 -18 -83 -30 -126 -36c-25 -4 -52 -4 -79 -1c-27 4 -51 15 -71 33c-15 15 -26 31 -31 51
c-5 18 -7 38 -6 58c1 21 5 41 11 61c5 20 11 39 18 56l-48 -26c-16 -9 -32 -17 -49 -26c-6 -3 -12 -7 -18 -9c-6 -4 -12 -6 -19 -8c-5 -1 -7 0 -4 2c3 4 5 6 6 7c11 11 24 21 36 30c14 9 26 18 39 27s25 17 37 25s24 16 37 25c3 1 5 3 6 6s4 8 9 17c20 39 42 77 67 114
s51 72 79 106c28 35 57 68 88 100c30 32 62 62 96 91c33 28 67 54 104 79c36 25 75 44 116 58c19 7 39 13 60 15c21 4 41 3 61 0c19 -3 35 -12 47 -24c13 -14 20 -30 22 -49zM253 342c-15 -7 -30 -15 -45 -23l-44 -24c-5 -7 -10 -15 -14 -25c-3 -8 -7 -18 -11 -27
c-11 -25 -20 -52 -25 -80s-5 -53 0 -75c5 -23 18 -40 36 -52c20 -12 48 -15 85 -8c35 6 73 21 112 44s78 51 115 82c37 32 72 66 105 101s60 69 82 100c3 4 9 13 19 27c10 15 19 30 28 46c8 16 13 31 16 46c3 14 -1 23 -12 27c-17 6 -37 7 -62 3c-24 -3 -50 -10 -78 -19
s-57 -21 -86 -33c-30 -14 -59 -27 -86 -41c-28 -14 -54 -27 -77 -39c-23 -13 -43 -23 -58 -30z" />
    <glyph glyph-name="seven" unicode="7" horiz-adv-x="679" 
d="M941 866c3 -13 0 -24 -10 -33c-37 -34 -74 -69 -113 -104c-38 -35 -77 -71 -118 -108c-109 -99 -212 -192 -308 -277c-97 -85 -182 -159 -256 -222c-73 -63 -132 -111 -176 -145c-45 -34 -69 -49 -72 -46c-1 2 2 9 12 20c8 11 22 27 41 47c19 19 41 43 69 70
c26 27 57 58 92 92c111 107 228 215 351 324s244 217 363 326c-90 -19 -174 -37 -252 -54c-77 -17 -145 -30 -202 -42c-57 -10 -103 -18 -136 -24c-33 -4 -50 -5 -51 -2c-1 4 16 12 52 24c36 11 86 26 151 44c64 18 140 38 230 62c88 22 186 47 292 73c9 3 18 1 26 -3
c8 -6 13 -13 15 -22z" />
    <glyph glyph-name="eight" unicode="8" horiz-adv-x="642" 
d="M778 832c3 -14 2 -29 -2 -45c-3 -16 -9 -32 -16 -48c-8 -16 -17 -31 -26 -46s-18 -27 -27 -38c-24 -31 -51 -60 -81 -87c-31 -27 -63 -50 -98 -69c14 1 28 -1 41 -3c13 -4 25 -9 36 -16s19 -17 26 -28s11 -25 12 -41c1 -25 -3 -51 -12 -77c-9 -25 -21 -49 -34 -72
c-43 -74 -98 -141 -165 -200s-141 -107 -222 -142c-14 -6 -30 -12 -47 -17s-35 -9 -53 -12c-19 -3 -37 -3 -56 -2s-36 6 -52 13c-21 9 -36 23 -46 40c-8 17 -13 36 -14 57c0 21 3 41 8 63c5 20 12 40 19 57c17 40 39 78 64 113s53 69 83 100c28 29 58 56 90 82
c33 24 68 45 106 60c7 3 15 6 23 8c8 3 16 5 24 6c6 1 9 0 10 -1c0 -1 -1 -3 -3 -4c-1 -1 -3 -2 -4 -3l-18 -12c-17 -11 -32 -21 -48 -32c-14 -11 -30 -22 -45 -35c-33 -28 -63 -58 -91 -91c-28 -32 -54 -66 -77 -102c-3 -6 -9 -17 -19 -33c-8 -16 -18 -34 -28 -55
c-9 -20 -18 -41 -26 -63s-13 -43 -16 -61c-2 -20 0 -35 5 -48s17 -20 35 -21c19 -3 41 0 64 7c24 7 48 18 74 30c24 14 50 29 75 46c25 18 49 36 73 55c22 19 44 37 64 55c20 19 37 35 51 50c11 11 25 26 43 48c18 20 36 43 53 67s32 48 45 72c12 24 18 44 18 61
s-8 28 -26 34c-16 5 -46 2 -87 -9c-17 -5 -36 -12 -55 -20s-39 -17 -58 -25c-19 -10 -38 -19 -56 -29c-19 -10 -36 -19 -51 -28c-9 -5 -17 -9 -25 -14s-16 -9 -25 -14l-14 -8c-5 -3 -10 -5 -15 -6c-5 -2 -7 -1 -5 3c2 3 4 6 6 8c5 6 11 12 17 18c6 5 12 11 19 16
c31 27 64 51 99 74c34 22 70 41 108 56c-20 2 -37 10 -50 24c-13 13 -21 30 -24 50c-3 23 0 45 8 68c9 23 19 44 30 63c28 43 62 82 101 115s84 60 134 79c19 8 39 13 60 15c19 3 38 -1 57 -10s31 -25 36 -46zM662 706c6 10 13 21 20 34c7 12 14 24 20 37c5 13 9 25 11 35
c2 12 1 20 -3 28c-5 6 -13 11 -26 12s-31 -2 -55 -9c-37 -12 -69 -30 -97 -55c-29 -25 -55 -56 -78 -95c-3 -5 -8 -14 -13 -27c-5 -12 -11 -26 -16 -40c-5 -16 -10 -31 -13 -46c-3 -16 -4 -30 -2 -41c1 -11 6 -19 14 -25c8 -4 21 -4 38 2c20 7 40 17 58 31
c20 14 38 30 56 48c17 18 33 37 48 56s27 38 38 55z" />
    <glyph glyph-name="nine" unicode="9" horiz-adv-x="566" 
d="M748 661c1 -1 1 -3 -2 -7c-3 -2 -4 -5 -5 -6c-12 -13 -25 -26 -39 -38c-14 -13 -28 -25 -41 -36l-27 -21c-3 -5 -5 -10 -8 -15c-2 -4 -4 -8 -7 -13c-5 -10 -11 -20 -16 -29s-11 -19 -17 -28c-23 -37 -49 -73 -76 -106c-27 -34 -56 -67 -87 -99
c-59 -61 -122 -117 -191 -167c-69 -51 -142 -93 -220 -127c-17 -7 -35 -14 -52 -21c-18 -7 -36 -12 -55 -17c-4 -1 -8 -3 -13 -4s-9 -2 -13 -1c-3 1 -3 2 0 5s6 4 7 5c8 5 16 10 24 14c9 4 17 8 25 13c36 19 71 38 105 59c33 21 66 43 99 66c71 51 137 108 198 170
s116 129 164 202c-27 -17 -54 -32 -81 -46c-28 -14 -57 -26 -87 -37c-26 -9 -53 -17 -83 -23c-28 -5 -57 -4 -85 3c-13 3 -26 9 -37 15c-11 8 -21 17 -28 28c-9 17 -14 34 -14 53c-1 19 2 37 7 55c9 29 21 57 37 84c14 26 32 51 51 74c41 52 91 98 148 138
c35 25 73 46 112 63c19 8 39 15 59 20c21 5 42 8 63 8c19 0 38 -3 57 -11c19 -6 34 -18 46 -33c13 -17 22 -35 25 -55c3 -21 4 -41 2 -62s-6 -42 -12 -64c-6 -20 -13 -41 -21 -62l26 18c9 6 17 12 26 17c1 1 3 2 6 5l12 6c4 3 8 5 11 6s6 2 7 1zM549 539c4 3 9 11 16 24
s13 28 19 43c7 16 12 31 18 46c4 15 8 25 10 32c3 12 8 28 12 47c6 19 8 39 10 57c0 20 -2 36 -8 50s-18 22 -36 23c-17 1 -36 -1 -56 -7s-40 -14 -60 -26c-21 -10 -41 -24 -62 -38c-21 -16 -40 -31 -59 -47s-36 -32 -53 -49c-17 -16 -31 -31 -43 -44c-9 -9 -17 -19 -25 -28
c-7 -10 -15 -20 -22 -30c-3 -5 -9 -14 -16 -26c-7 -11 -15 -24 -22 -39s-14 -30 -19 -46s-8 -31 -9 -44c0 -13 4 -25 10 -34c8 -9 20 -15 37 -16c28 -2 58 2 91 11c33 10 65 23 98 39c32 16 63 33 92 51c30 19 56 36 77 51z" />
    <glyph glyph-name="Euro" unicode="&#x20ac;" horiz-adv-x="708" 
d="M795 476c0 -3 -5 -7 -15 -10c-11 -3 -23 -7 -36 -10c-14 -4 -27 -7 -40 -10s-21 -4 -26 -5c-38 -7 -76 -14 -114 -19c-38 -6 -76 -11 -114 -16c-15 -2 -32 -4 -50 -6l-54 -6c-19 -2 -37 -4 -55 -6c-18 -1 -34 -2 -49 -3c-3 -3 -6 -7 -10 -12c-3 -5 -11 -17 -22 -34
c14 1 31 3 50 5c20 2 41 4 64 6s47 4 72 6s51 4 77 6c5 0 13 0 23 1s20 1 31 1c11 1 20 1 29 0c9 0 15 -1 18 -3c1 -1 1 -2 -2 -3c-2 -1 -5 -3 -8 -4c-4 -2 -8 -4 -12 -4c-3 -2 -6 -2 -7 -3c-9 -3 -18 -5 -27 -7c-8 -2 -17 -4 -26 -5c-77 -15 -156 -26 -237 -33l-69 -6
c-7 -7 -15 -18 -24 -32c-8 -14 -16 -30 -22 -47c-8 -17 -13 -35 -18 -54s-7 -36 -8 -53c-1 -16 2 -30 6 -43c6 -13 14 -22 27 -27c19 -9 39 -11 63 -7c22 4 43 9 61 16c41 14 81 32 118 55c37 22 73 46 107 73c33 25 65 53 94 81c30 30 60 59 89 90c5 6 11 12 17 18
c5 6 11 12 17 17c1 1 3 3 5 3c3 2 3 0 2 -3c-10 -26 -25 -53 -44 -79c-19 -28 -41 -54 -65 -79s-49 -49 -75 -73c-25 -22 -49 -42 -72 -59c-34 -25 -70 -48 -108 -69c-37 -20 -77 -35 -118 -44c-16 -4 -33 -6 -50 -6c-17 -1 -34 1 -50 6c-16 4 -30 11 -43 21s-23 24 -30 41
c-9 20 -13 41 -13 64c2 22 5 43 10 64s12 42 20 62c9 20 18 40 28 59c-11 -1 -24 -1 -38 -3c-15 0 -30 -1 -45 -1s-30 1 -45 1c-15 2 -27 4 -38 7c-3 1 -4 3 -4 4c2 1 3 3 6 3c3 2 6 2 8 3c4 1 5 1 6 1c19 4 37 7 56 10c18 2 36 4 55 7c10 1 20 3 30 3c10 2 20 3 30 4
c5 9 11 17 16 26c5 8 11 16 16 25c-23 -1 -45 -1 -67 -1c-23 -1 -45 1 -67 4h-6c-3 1 -7 2 -10 2c-3 2 -6 3 -7 4c-2 1 -2 3 1 5c8 4 21 8 40 11c19 4 38 8 59 11c20 3 39 6 56 9c18 2 30 4 36 5c9 15 20 29 32 43c13 14 26 29 39 44c15 15 29 30 44 46c15 14 30 29 46 43
c33 28 68 54 105 78s77 42 119 53c19 5 39 7 59 8c22 0 40 -4 56 -10c17 -8 30 -18 39 -34c9 -14 12 -35 8 -61c-3 -19 -10 -38 -20 -55c-10 -18 -21 -35 -34 -50c-2 -3 -6 -7 -12 -12c-6 -6 -12 -12 -19 -17c-6 -5 -12 -10 -17 -13c-5 -4 -9 -5 -10 -4s0 4 3 10
c3 4 6 8 7 9c11 15 22 31 33 47c10 16 18 33 24 51c9 26 10 46 6 59c-6 14 -15 24 -28 28c-13 6 -30 6 -48 4c-20 -4 -38 -8 -56 -15c-20 -8 -39 -18 -58 -29s-37 -24 -54 -37c-34 -25 -66 -53 -96 -83c-29 -31 -57 -63 -84 -96c49 7 98 14 149 19s107 11 169 16
c27 2 53 4 80 6c26 2 52 3 79 3h7h12c5 -1 9 -1 12 -2s5 -2 5 -4z" />
    <glyph glyph-name="Oslash" unicode="&#xd8;" horiz-adv-x="835" 
d="M1124 796c15 7 24 12 30 13c4 1 6 1 5 -1c-1 -3 -5 -7 -11 -12c-7 -6 -14 -12 -22 -19s-16 -13 -24 -19c-9 -6 -17 -13 -25 -20c1 -1 1 -2 1 -3c3 -40 -2 -81 -14 -125c-11 -42 -27 -85 -48 -126c-20 -42 -43 -82 -68 -120c-25 -39 -50 -73 -75 -104
c-28 -37 -57 -71 -88 -104s-62 -64 -95 -94c-29 -26 -59 -52 -92 -79s-67 -51 -102 -73c-35 -23 -72 -42 -110 -59c-37 -17 -75 -28 -114 -34c-23 -3 -47 -3 -72 1c-25 3 -47 13 -66 29c-23 19 -38 42 -45 71c-13 -11 -26 -21 -39 -32c-13 -10 -26 -19 -39 -27
c-1 -1 -3 -2 -7 -5c-5 -2 -7 -1 -7 2c1 3 3 7 6 10c3 4 6 7 8 10c11 15 22 28 33 42l38 38c-2 21 -2 42 0 62c3 22 6 42 11 61c11 45 27 89 46 131s41 82 66 120c49 79 107 150 173 211c29 28 60 54 91 79s65 46 100 64c17 9 35 16 53 23s36 11 55 14c3 1 7 1 11 1
c5 1 8 0 11 -1s2 -3 -3 -5c-4 -2 -6 -3 -7 -4c-7 -4 -15 -8 -21 -11c-8 -3 -15 -7 -22 -11c-34 -19 -67 -42 -98 -67s-61 -52 -89 -81c-31 -31 -60 -63 -87 -97c-28 -34 -55 -69 -80 -106c-25 -38 -50 -77 -73 -117c-23 -39 -43 -81 -60 -125c-5 -12 -10 -26 -14 -41
s-7 -31 -10 -46c8 9 16 17 25 25l25 25c32 31 65 62 97 91c34 29 67 59 101 89c68 60 137 118 207 176c69 56 140 112 211 166c31 23 61 46 93 68c30 22 62 44 94 65c9 6 18 12 26 17c9 5 18 11 27 17c-1 15 -5 30 -9 43c-6 14 -14 27 -25 38c-17 15 -37 24 -57 29
c-22 5 -43 7 -64 6s-43 -4 -64 -9c-21 -4 -42 -9 -63 -15c-38 -13 -76 -28 -113 -45s-74 -37 -109 -59c-34 -21 -66 -43 -95 -67c-30 -25 -60 -51 -90 -79c-2 -1 -4 -3 -6 -5c-3 -2 -5 -3 -8 -4s-3 1 -2 4c2 4 3 7 4 8c13 26 30 50 50 74c20 22 40 43 60 61
c64 59 135 105 214 136c39 17 80 29 122 35c41 8 83 8 125 2c21 -3 41 -8 61 -15s38 -19 54 -34c11 -11 21 -23 29 -38s14 -30 17 -47c8 5 16 10 26 14c8 5 17 9 26 14zM1018 637c9 23 15 46 19 70l-30 -24c-10 -8 -20 -16 -31 -25c-35 -28 -69 -56 -103 -83
s-68 -55 -103 -84c-70 -59 -139 -117 -208 -175c-69 -57 -137 -115 -206 -173c-34 -29 -68 -57 -101 -85c-33 -29 -67 -57 -101 -85c-7 -7 -14 -13 -22 -19c2 -18 8 -34 16 -48c10 -13 24 -23 44 -30c23 -7 46 -9 68 -4c24 5 46 11 67 20c36 15 70 34 103 57s64 47 94 72
c44 37 90 78 138 125c49 47 96 96 140 150c46 52 87 108 124 166c38 57 69 116 92 175z" />
    <glyph glyph-name="oslash" unicode="&#xf8;" 
d="M427 319c1 1 3 2 6 3l10 4l9 3s4 0 5 -1s0 -3 -3 -6s-6 -6 -9 -8c-3 -4 -7 -6 -11 -8c-3 -3 -5 -4 -6 -5c-8 -5 -16 -11 -24 -17c-7 -6 -15 -12 -23 -17c2 -29 -5 -57 -21 -87c-16 -28 -37 -55 -62 -80s-53 -46 -82 -64c-30 -18 -57 -30 -81 -36c-18 -5 -35 -5 -51 0
c-11 5 -20 13 -27 24c-7 -5 -13 -9 -19 -14c-6 -4 -13 -8 -20 -12l-8 -5c-2 -2 -6 -3 -9 -4c-3 0 -3 1 -1 5c1 2 2 4 3 5c6 9 13 18 21 25c8 8 16 16 24 23c-1 3 -1 7 -2 11c0 3 0 7 1 10c1 17 5 34 12 50c7 15 15 31 24 46c8 13 19 28 33 44c13 16 28 32 45 48
c17 15 35 30 54 44c19 15 39 27 59 36c21 9 41 16 62 20c20 3 39 2 58 -3c9 -3 16 -7 22 -13c5 -7 8 -10 7 -9c-2 1 -5 1 -9 3c-3 0 -8 1 -15 2c-13 1 -26 0 -39 -4c-12 -3 -24 -8 -36 -16c-13 -6 -25 -15 -38 -24c-12 -10 -24 -20 -37 -31c-4 -3 -10 -9 -19 -17
c-8 -9 -17 -19 -27 -31s-20 -25 -31 -40s-20 -29 -29 -44c25 20 51 39 77 59c25 18 51 37 78 55c10 7 20 13 30 20c11 7 21 13 32 20c2 10 1 19 -2 28c-1 4 -2 6 -2 7c0 3 3 1 8 -4c5 -6 9 -13 12 -21c9 5 17 9 26 13zM117 45c17 3 36 11 57 23c22 14 44 29 64 48
c22 18 41 38 60 59c18 21 33 42 44 62c-11 -9 -22 -17 -32 -25c-11 -8 -21 -16 -32 -24c-27 -20 -53 -40 -80 -60c-26 -20 -52 -40 -79 -59c-1 -5 -2 -9 -2 -13v-11z" />
    <glyph glyph-name="slash" unicode="/" horiz-adv-x="661" 
d="M817 892l6 3s2 -1 1 -4c-1 -7 -4 -13 -7 -19s-7 -12 -10 -17c-17 -32 -36 -63 -57 -93c-20 -29 -40 -59 -61 -89c-22 -32 -44 -63 -67 -95c-22 -30 -45 -62 -68 -93c-39 -52 -79 -104 -118 -155c-40 -51 -80 -103 -121 -154c-19 -23 -39 -47 -59 -70
c-19 -24 -39 -48 -58 -71c-2 -2 -8 -8 -16 -19c-10 -11 -19 -22 -30 -34c-10 -11 -20 -21 -28 -30c-10 -9 -15 -12 -17 -10c-2 1 -2 5 1 11c2 6 5 12 9 19c4 6 8 12 11 18c4 6 7 10 8 11c9 15 18 29 28 43c8 14 18 28 27 41c21 32 43 63 65 93c21 31 43 61 65 92
c47 65 94 128 141 191c48 63 97 125 146 188c23 30 47 59 70 88c24 29 48 57 73 85c11 12 21 24 31 37c11 13 22 24 35 33z" />
    <glyph glyph-name="backslash" unicode="\" horiz-adv-x="490" 
d="M79 894c7 -11 13 -24 19 -37c4 -13 10 -26 15 -39c13 -30 25 -60 35 -90c12 -30 22 -60 33 -91c22 -65 43 -129 64 -193s41 -129 60 -194c9 -30 17 -58 23 -82c8 -26 14 -49 20 -70s11 -42 16 -61s9 -38 13 -57c0 -1 1 -5 3 -10c1 -6 2 -12 4 -19c0 -7 1 -13 2 -17
c0 -6 -1 -8 -3 -9c-3 -1 -7 4 -11 13c-6 10 -11 21 -16 34c-5 12 -10 24 -14 34c-5 12 -7 18 -8 21c-9 25 -19 49 -28 73l-27 75c-30 84 -59 168 -85 253c-28 84 -53 169 -77 255c-8 30 -16 60 -23 89c-7 30 -14 60 -19 90c-1 5 -3 11 -3 16c-2 6 -1 12 0 17c1 3 2 4 3 3z
" />
    <glyph glyph-name="period" unicode="." horiz-adv-x="347" 
d="M132 59c2 -5 2 -11 0 -16c-1 -5 -4 -11 -8 -15c-3 -6 -8 -10 -12 -14c-6 -4 -10 -7 -14 -9s-9 -4 -14 -5s-11 -2 -16 -2c-6 0 -11 1 -16 4c-5 2 -8 6 -10 11c-4 11 -3 21 4 31c7 9 14 17 23 22c4 2 9 4 15 6c7 1 13 2 20 2c6 0 12 -1 17 -3s9 -6 11 -12z" />
    <glyph glyph-name="colon" unicode=":" horiz-adv-x="409" 
d="M192 82c2 -5 2 -11 0 -16c-1 -5 -4 -10 -8 -16c-3 -4 -8 -9 -12 -13c-6 -4 -10 -7 -14 -9s-9 -4 -14 -5s-11 -2 -16 -2c-6 0 -11 1 -16 3c-5 3 -8 7 -10 12c-4 11 -3 21 4 30c7 10 14 18 23 23c4 2 9 4 15 5c7 2 13 3 20 3c6 0 12 -1 17 -3s9 -6 11 -12zM286 275
c2 -5 2 -11 0 -16c-1 -5 -4 -11 -8 -15c-3 -6 -8 -10 -12 -14c-6 -4 -10 -7 -14 -9s-9 -4 -14 -5s-11 -2 -16 -2c-6 0 -11 1 -16 4c-5 2 -8 6 -10 11c-4 11 -3 21 4 31c7 9 14 17 23 22c4 2 9 4 15 6c7 1 13 2 20 2c6 0 12 -1 17 -3s9 -6 11 -12z" />
    <glyph glyph-name="semicolon" unicode=";" horiz-adv-x="458" 
d="M19 -169c2 5 4 9 7 13c3 5 5 9 8 14c5 9 11 18 18 28c6 8 12 18 19 27s14 18 22 28s16 19 25 28s18 16 26 23c10 7 18 12 26 15c11 2 16 -1 14 -10c-1 -8 -4 -15 -10 -23c-4 -6 -9 -13 -14 -20c-23 -27 -46 -53 -71 -77s-50 -47 -77 -68c-1 -1 -2 0 -1 2s1 4 3 7
c0 3 2 5 3 8s2 4 2 5zM318 173c2 -5 2 -11 0 -16c-1 -5 -4 -11 -8 -15c-3 -6 -8 -10 -12 -14c-6 -4 -10 -7 -14 -9s-9 -4 -14 -5s-11 -2 -16 -2c-6 0 -11 1 -16 4c-5 2 -8 6 -10 11c-4 11 -3 21 4 31c7 9 14 17 23 22c4 2 9 4 15 6c7 1 13 2 20 2c6 0 12 -1 17 -3
s9 -6 11 -12z" />
    <glyph glyph-name="cent" unicode="&#xa2;" horiz-adv-x="534" 
d="M497 288c1 -1 1 -4 0 -8c-1 -3 -3 -7 -5 -12l-6 -12c-3 -3 -4 -6 -5 -7c-17 -25 -35 -50 -55 -73c-19 -23 -41 -45 -64 -65c-17 -15 -34 -28 -50 -41c-18 -12 -36 -23 -55 -34c-18 -10 -37 -19 -56 -26s-39 -12 -60 -15c-11 -1 -22 -1 -33 0c-5 -6 -10 -12 -14 -17
c-5 -6 -9 -12 -14 -18c-5 -5 -10 -11 -15 -16c-5 -6 -10 -12 -15 -17c-2 -2 -3 -2 -3 -1s1 3 1 6c2 2 3 4 4 8c1 2 2 4 3 5c5 9 10 19 15 27c6 10 12 19 17 28c-11 3 -22 9 -31 17c-15 12 -24 28 -28 49c-2 21 -2 40 1 58c4 21 10 42 19 62c8 19 17 38 28 57s22 38 34 55
c13 18 26 36 39 53c27 33 57 64 89 93s67 54 105 73c9 4 19 8 29 12c12 4 23 7 34 9c11 3 22 4 34 6c10 0 20 0 29 -2l9 9c3 3 6 5 9 8c3 2 5 4 9 5c2 2 4 1 3 -3c-1 -5 -2 -9 -4 -13c-2 -3 -4 -7 -6 -12c10 -3 17 -10 23 -22c4 -10 8 -22 9 -33c-1 -21 -8 -42 -19 -61
s-26 -35 -43 -48c-1 -1 -2 -2 -5 -4l-8 -4c-3 -2 -5 -3 -7 -4c-2 0 -3 1 -2 3c1 5 4 10 7 15l10 14c10 14 18 28 23 42c2 5 4 10 5 17c2 7 3 13 3 20s-1 13 -3 18c-3 5 -7 9 -14 11c-7 -11 -13 -21 -20 -32c-7 -10 -13 -20 -20 -30c-44 -66 -89 -131 -136 -194l-141 -192
c27 5 52 14 76 26s48 26 71 41c17 11 34 24 52 37c16 13 33 27 48 41c15 13 29 27 42 40l40 40c1 1 4 4 8 7c4 4 7 5 9 4zM110 178c-4 -9 -9 -20 -14 -32c-5 -14 -9 -26 -10 -40c-1 -12 0 -24 4 -35c5 -11 15 -18 30 -21c41 63 83 125 124 186c42 62 85 123 129 183
c10 14 20 28 30 41s20 27 31 40c-13 -3 -25 -7 -36 -12c-12 -5 -23 -11 -34 -17c-19 -11 -36 -24 -54 -37c-16 -14 -33 -29 -48 -44c-31 -31 -59 -64 -86 -99c-26 -35 -48 -73 -66 -113z" />
    <glyph glyph-name="sterling" unicode="&#xa3;" horiz-adv-x="642" 
d="M703 764c12 -3 21 -10 25 -19c6 -9 8 -20 8 -32c1 -12 0 -25 -3 -38s-6 -26 -9 -37c-3 -10 -7 -20 -12 -32c-5 -10 -11 -23 -18 -36c-3 -5 -4 -5 -5 -1s-1 7 -1 10c1 9 2 19 6 33c2 12 5 26 7 39s3 26 3 39s-3 23 -8 32c-2 3 -6 3 -10 2c-6 -2 -9 -4 -11 -5
c-28 -13 -53 -32 -76 -55c-23 -24 -44 -47 -65 -69c-30 -34 -60 -68 -90 -101s-60 -67 -90 -101c36 3 71 6 106 8s70 2 106 1h5c3 -1 5 -1 7 -2c3 -1 5 -2 6 -2c1 -2 1 -3 -1 -4c-4 -2 -13 -4 -29 -8c-14 -2 -32 -6 -52 -9s-41 -7 -64 -10s-43 -7 -62 -9
c-19 -4 -34 -6 -46 -8c-13 -3 -19 -5 -19 -6c-15 -17 -30 -34 -45 -52c-15 -16 -30 -34 -45 -51c-28 -34 -56 -68 -85 -102s-56 -70 -81 -109c17 1 34 4 51 8l51 15c57 15 112 33 167 53c54 21 108 41 163 61l27 9c8 3 16 6 25 9l13 5c4 2 9 2 12 1c-7 -7 -15 -13 -24 -17
c-10 -6 -20 -10 -29 -15c-55 -29 -111 -57 -169 -83c-56 -25 -115 -48 -174 -68c-19 -7 -40 -14 -61 -20c-21 -7 -43 -11 -64 -12c-6 0 -12 1 -19 2s-13 4 -18 7s-10 8 -12 13c-4 6 -4 13 -2 22c3 19 11 37 23 54s24 34 35 49c26 37 53 73 81 107c28 36 57 70 87 105
c-9 -1 -19 -2 -30 -3s-20 -2 -29 -3c-30 -3 -60 -7 -89 -11c-30 -3 -60 -5 -90 -5c-1 0 -4 1 -8 1c-5 2 -6 5 -5 10s6 9 13 10c7 2 14 4 19 6c37 9 76 17 117 24c40 7 87 14 142 19c16 17 31 34 44 49c11 13 22 25 34 37c10 12 18 20 22 24c29 32 58 64 88 95
c29 32 61 63 95 93c16 15 33 29 50 41c17 14 36 25 55 34c9 3 19 6 28 8c10 3 20 3 29 0z" />
    <glyph glyph-name="currency" unicode="&#xa4;" horiz-adv-x="486" 
d="M433 527c3 0 4 -1 4 -4s-1 -7 -5 -11c-2 -6 -6 -10 -10 -16c-3 -4 -7 -9 -10 -14l-9 -9l-12 -14c-4 -5 -9 -9 -14 -13c11 -17 17 -36 17 -57s-5 -40 -16 -59s-24 -35 -39 -49l9 -9c5 -5 10 -10 14 -16c6 -7 10 -13 14 -19s6 -11 6 -15s-2 -6 -6 -6s-9 2 -16 6
c-6 4 -12 8 -18 14c-6 4 -11 10 -16 14c-5 6 -8 9 -9 12c-21 -16 -45 -30 -69 -40c-26 -12 -51 -17 -77 -17c-7 0 -15 0 -21 1c-8 1 -14 2 -20 5c-1 0 -7 -6 -20 -19c-12 -13 -26 -27 -42 -42c-16 -16 -32 -30 -48 -44c-15 -12 -26 -19 -33 -19c-3 0 -4 1 -3 3
c5 8 12 18 23 30s22 24 34 38c12 12 24 25 36 38s22 24 29 33c-11 11 -16 26 -16 43c0 13 2 25 6 38c5 13 10 25 18 38c6 12 14 24 22 35c9 11 17 22 26 32c-3 3 -7 6 -12 11c-5 4 -9 8 -13 14c-4 4 -7 10 -11 15c-2 5 -4 10 -4 15c0 4 2 6 6 6c3 0 8 -2 14 -5
c5 -3 11 -7 16 -11c5 -5 10 -9 15 -14c5 -4 8 -7 10 -9c19 18 41 35 67 51c24 15 50 23 75 23c5 0 12 -1 19 -2s11 -5 11 -10c0 -2 -2 -4 -5 -6s-7 -4 -12 -7s-10 -5 -14 -7c-6 -2 -9 -4 -12 -6c-23 -13 -46 -30 -66 -50c-22 -20 -40 -41 -57 -64c-2 -3 -5 -8 -11 -15
c-4 -7 -9 -15 -14 -24c-5 -8 -9 -16 -12 -25c-4 -9 -6 -16 -6 -22c0 -7 4 -11 12 -13c8 -1 15 -2 20 -2c14 0 32 4 53 11s42 17 62 31c20 12 37 28 51 46c15 19 22 39 22 62c0 7 -1 16 -3 25c-2 -1 -6 -4 -11 -7c-6 -3 -11 -5 -15 -5c-6 0 -9 2 -9 5c1 4 2 8 6 14
c2 4 6 10 11 15s9 10 12 14c1 1 4 5 11 11s14 12 22 20c9 6 17 13 25 18c8 6 14 9 18 9z" />
    <glyph glyph-name="yen" unicode="&#xa5;" horiz-adv-x="652" 
d="M710 751c1 0 2 0 3 -1s2 -2 2 -3c0 -3 -2 -6 -5 -11c-4 -5 -8 -9 -12 -14c-5 -5 -9 -9 -14 -13l-8 -8c-29 -28 -60 -54 -94 -79c-32 -24 -65 -48 -96 -71c-16 -12 -33 -24 -50 -35s-35 -22 -53 -31c0 -1 1 -6 2 -15c1 -8 2 -16 2 -23c0 -8 -1 -12 -4 -12s-7 2 -9 5
c-4 4 -6 7 -7 9c-1 -4 -3 -8 -5 -11c-2 -4 -4 -8 -6 -11c27 7 54 13 82 19c26 5 54 11 82 16c14 3 28 5 43 8s30 4 47 4h5c2 -1 3 -2 3 -3c0 -2 -4 -5 -12 -9c-9 -3 -18 -7 -28 -11c-11 -4 -21 -7 -30 -11c-9 -2 -15 -4 -16 -5l-102 -33c-33 -11 -67 -20 -102 -27
c-3 -7 -7 -13 -10 -19c-4 -7 -8 -13 -12 -20c18 3 37 7 56 11c20 4 39 6 58 6c3 0 7 0 12 -1c4 -1 6 -2 6 -3c0 -2 -4 -5 -10 -9c-8 -3 -12 -5 -14 -6s-10 -4 -24 -9c-15 -5 -30 -10 -46 -15c-17 -5 -32 -10 -44 -15l-20 -7c-9 -15 -22 -36 -39 -63s-35 -56 -57 -89
c-20 -32 -43 -66 -68 -103s-50 -73 -76 -108c-4 -5 -8 -7 -14 -5c-4 3 -7 7 -7 12c0 7 2 16 7 26s9 19 12 26c23 50 48 98 76 144c26 45 55 91 86 137c-14 -3 -29 -7 -44 -11c-16 -5 -32 -9 -50 -13c-16 -4 -34 -7 -50 -10c-18 -3 -34 -4 -50 -4c-1 0 -4 0 -10 1
c-4 0 -7 1 -7 3c0 3 3 6 8 9c5 2 10 4 13 6c35 17 72 32 110 42c37 12 76 22 116 32c7 11 13 18 16 24c4 4 8 9 11 14c-37 -9 -73 -18 -110 -26c-37 -9 -74 -16 -112 -21c1 0 -1 0 -5 -1h-12c-5 -1 -9 -1 -13 -1s-6 1 -6 2c0 5 5 9 15 13c11 3 19 6 25 9c42 17 85 31 127 44
c44 13 87 25 132 36c11 13 19 25 26 33c7 10 14 18 21 26c-25 47 -45 95 -61 144l-6 18c-3 8 -5 17 -8 26s-5 19 -7 28c-2 10 -3 19 -3 26c0 3 0 6 1 10c1 2 2 4 3 4c2 0 5 -2 8 -5s6 -7 10 -11c2 -5 5 -9 8 -12c2 -4 3 -6 4 -7c15 -26 29 -54 42 -85c12 -30 23 -60 32 -91
c36 39 77 76 122 109s90 63 135 88c1 1 5 3 12 7s14 8 23 13c9 4 17 8 26 12c8 3 14 5 18 5z" />
    <glyph glyph-name="section" unicode="&#xa7;" horiz-adv-x="748" 
d="M954 470c0 -17 -4 -34 -11 -48c-7 -16 -17 -30 -29 -44c-11 -13 -24 -26 -39 -38s-29 -24 -44 -35c-38 -28 -77 -55 -117 -80c-39 -25 -79 -50 -119 -75c-46 -26 -93 -54 -141 -82c-47 -30 -96 -58 -146 -84c-50 -28 -101 -53 -154 -76c-52 -24 -105 -44 -160 -59
c-11 -3 -24 -7 -40 -11c-14 -3 -30 -5 -45 -5c-9 0 -17 1 -26 3c-9 3 -16 6 -23 12c-7 4 -12 11 -16 18c-5 8 -7 17 -7 28c0 17 5 35 15 52c9 17 19 33 28 46c4 7 10 16 18 27c7 11 15 23 24 33c9 12 17 21 25 28c8 8 14 12 19 12c1 0 1 0 1 -1c0 -5 -2 -11 -5 -16
c-4 -5 -8 -10 -11 -14c-5 -8 -12 -19 -21 -32c-8 -13 -16 -27 -24 -43c-9 -14 -16 -30 -22 -45s-9 -29 -9 -41c0 -9 2 -16 7 -18c4 -4 10 -5 19 -5c15 0 30 2 46 5c16 4 32 9 48 15s32 13 47 19c15 8 30 14 44 21c77 33 152 72 228 117c74 44 143 95 204 153
c6 6 14 15 25 25c11 12 21 24 31 36c10 14 19 27 26 40c8 13 12 26 12 37c0 13 -6 23 -16 29c-12 8 -31 11 -59 11c-27 0 -54 -2 -81 -5c-26 -4 -52 -8 -78 -13s-52 -9 -78 -13c-26 -3 -52 -5 -78 -5c-9 0 -20 1 -30 3c-12 1 -22 4 -30 8c-10 5 -17 11 -23 18s-9 17 -9 29
c0 13 3 25 8 37s12 24 20 34c8 12 17 22 27 32c10 9 20 18 29 26c40 37 84 69 133 96c49 28 98 54 149 78c19 9 39 19 58 30c20 10 40 19 61 28s42 16 64 22c22 5 45 8 68 8c9 0 17 -1 27 -2c8 -2 16 -5 24 -9c6 -4 12 -9 17 -15c5 -5 7 -12 7 -20c0 -7 -3 -16 -9 -26
c-6 -9 -13 -18 -21 -27c-9 -9 -18 -16 -28 -22c-9 -6 -18 -9 -26 -9v1v1c2 5 6 11 12 16l18 18c7 7 13 14 18 21s8 15 9 24c0 9 -9 13 -26 13c-9 0 -20 -1 -31 -3c-12 -2 -23 -4 -34 -7s-20 -5 -28 -8s-13 -4 -16 -5c-26 -11 -51 -23 -74 -37c-24 -14 -47 -29 -69 -45
c-21 -15 -41 -31 -63 -48c-20 -17 -38 -37 -52 -60c5 0 10 0 14 -1h15h23c7 1 16 1 25 1c49 5 96 10 143 15c46 4 94 6 144 6c20 0 41 -1 62 -4c22 -2 42 -6 60 -14c18 -6 33 -16 46 -30c12 -12 19 -30 20 -52zM792 354c6 5 14 11 26 20c10 8 21 17 32 27s20 20 28 31
s12 21 12 31s-4 18 -14 24c-8 6 -20 11 -33 15c-13 3 -28 6 -43 6c-15 2 -29 2 -41 2c-52 0 -105 -4 -158 -11s-106 -11 -159 -11c-7 0 -17 0 -28 1c-12 1 -24 3 -34 6c-12 3 -21 9 -29 15c-8 8 -12 18 -12 31c0 15 5 29 15 42c-15 -11 -32 -24 -50 -38
c-19 -14 -36 -29 -53 -43c-17 -16 -31 -31 -43 -46c-11 -16 -18 -31 -20 -45c1 -2 8 -3 21 -3c29 0 57 2 84 6c27 5 55 10 82 14c27 6 55 10 82 14c27 5 55 7 84 7c16 0 32 -1 49 -4c16 -3 30 -8 44 -15c12 -7 23 -17 31 -30c8 -12 12 -28 12 -47s-4 -39 -13 -57
c-9 -20 -19 -37 -30 -54c27 18 54 36 80 54c27 19 53 38 78 58z" />
    <glyph glyph-name="perthousand" unicode="&#x2030;" horiz-adv-x="812" 
d="M391 361c-15 -19 -31 -37 -45 -55c-16 -19 -31 -37 -46 -56l-84 -99s-57 -65 -87 -97c-9 -11 -20 -23 -33 -36s-26 -24 -41 -34c-5 -3 -7 -2 -5 4c1 5 4 12 8 21c5 9 9 17 14 25c5 9 8 14 9 15c23 36 47 71 73 105c24 35 50 69 75 104c27 36 54 71 81 106s55 69 84 103
c27 33 55 64 84 92c7 6 14 12 22 19c6 6 14 11 23 16c3 1 7 2 11 3s6 -2 7 -7c1 -7 -2 -17 -7 -28c-5 -12 -12 -24 -20 -36c-8 -13 -16 -24 -24 -36c-9 -10 -15 -19 -19 -25c-13 -17 -27 -35 -39 -52c-14 -17 -27 -35 -41 -52zM571 172c2 -13 1 -26 -5 -39
c-4 -13 -11 -24 -18 -35c-7 -10 -15 -20 -23 -29s-17 -18 -26 -25c-15 -12 -31 -22 -49 -30c-18 -9 -37 -13 -56 -12c-8 1 -16 3 -22 6c-8 3 -13 9 -18 16c-4 8 -6 16 -6 26c1 8 3 17 6 25c7 18 18 35 30 51c14 16 28 29 44 40c12 7 26 14 41 20c15 5 30 6 44 3
c3 -1 6 -2 11 -3c5 -2 7 -5 7 -9c-1 0 -2 1 -5 1c-2 2 -4 2 -7 2c-13 0 -26 -3 -39 -10s-24 -15 -33 -24c-13 -12 -24 -27 -34 -44c-4 -7 -8 -15 -11 -24c-4 -8 -6 -17 -7 -26c11 1 22 3 33 8s21 10 30 17c21 13 39 27 55 44c7 7 15 15 22 23s13 17 16 28c1 3 2 8 2 14
c0 3 1 5 4 4c4 -1 7 -4 9 -8c2 -3 4 -7 5 -10zM63 371c-9 6 -14 14 -15 25c-1 10 0 20 3 29c6 19 16 37 29 54c14 17 29 31 45 42c8 5 17 10 27 15c9 4 19 7 29 8c3 0 8 0 13 -1c6 -1 10 -3 11 -7c1 -3 0 -6 -5 -8s-8 -4 -10 -5c-17 -11 -34 -23 -48 -38
c-16 -15 -28 -31 -39 -48c-1 -1 -2 -3 -4 -7c-2 -3 -4 -7 -6 -11s-3 -8 -5 -11c0 -4 0 -6 2 -7c6 -3 15 -3 26 -1c11 4 20 6 26 9c9 3 17 8 26 13c9 6 16 13 23 20s12 16 15 24c3 10 4 19 2 30c0 1 0 2 -2 4c0 3 -1 5 -2 8c0 2 0 4 1 5s2 1 4 0c3 -1 6 -4 9 -7
c3 -4 5 -8 6 -11c5 -9 6 -19 6 -29c-2 -9 -4 -19 -9 -28c-9 -17 -21 -32 -39 -45c-16 -13 -34 -22 -52 -27c-11 -3 -22 -5 -34 -6c-13 0 -24 4 -33 11zM604 11c-9 6 -14 14 -15 25c-1 10 0 20 3 29c6 19 16 37 30 54c13 17 28 31 44 42c8 5 17 10 26 15c10 4 20 7 30 8
c3 0 8 0 14 -1c5 -1 9 -3 10 -7c1 -3 0 -6 -5 -8s-8 -4 -10 -5c-17 -11 -33 -23 -49 -38c-14 -15 -27 -31 -38 -48c-1 -1 -2 -3 -4 -7c-2 -3 -4 -7 -6 -11s-4 -8 -4 -11c-2 -4 -1 -6 1 -7c6 -3 15 -3 26 -1c11 4 20 6 26 9c9 3 17 8 26 13c9 6 16 13 23 20s12 16 15 24
c3 10 4 19 2 30c0 1 -1 2 -1 4c-2 3 -2 5 -2 8c-1 2 -1 4 0 5s2 1 4 0c3 -1 6 -4 9 -7c3 -4 5 -8 6 -11c5 -9 7 -19 5 -29c0 -9 -3 -19 -8 -28c-9 -17 -22 -32 -38 -45c-18 -13 -35 -22 -53 -27c-11 -3 -22 -5 -35 -6c-12 0 -23 4 -32 11z" />
    <glyph glyph-name="comma" unicode="," horiz-adv-x="304" 
d="M-22 -144c9 19 20 37 32 56c13 18 26 36 39 53c14 19 29 39 47 57c16 20 34 37 52 52c1 1 4 3 10 8s12 9 18 12c7 4 12 6 16 6c4 1 5 -3 3 -11c-3 -10 -7 -20 -14 -29c-7 -10 -13 -19 -20 -27c-25 -32 -51 -61 -78 -87c-27 -25 -52 -52 -75 -80c-6 -6 -13 -14 -22 -24
c-9 -9 -15 -14 -20 -15c-1 0 -2 1 0 3c0 3 2 6 3 9s3 7 5 10s3 6 4 7z" />
    <glyph glyph-name="parenright" unicode=")" horiz-adv-x="707" 
d="M676 896c5 -4 9 -9 11 -16s4 -13 5 -19c3 -15 4 -31 3 -48s-4 -34 -7 -51c-7 -34 -18 -68 -32 -102c-14 -35 -30 -69 -47 -103c-38 -71 -82 -141 -132 -210c-49 -68 -103 -133 -162 -194c-14 -15 -29 -30 -43 -44c-16 -14 -31 -28 -47 -41c-7 -7 -15 -13 -23 -19
c-7 -6 -15 -12 -24 -18c-1 0 -3 -1 -7 -4s-9 -5 -13 -9c-6 -2 -10 -5 -14 -7c-5 -2 -7 -2 -8 -1s-1 3 0 6c2 3 4 5 7 8l7 8l6 5c4 5 8 9 12 13l14 14c20 21 39 42 57 63c19 22 38 44 56 67s36 46 53 69c25 34 49 68 72 102s45 69 66 104c19 33 38 67 56 100
c17 33 33 67 48 101c15 36 28 70 39 103c5 17 10 33 13 49c3 17 7 33 12 50c1 2 2 5 2 9c2 4 3 7 4 11c2 2 4 5 7 6s6 1 9 -2z" />
    <glyph glyph-name="at" unicode="@" horiz-adv-x="922" 
d="M570 23c-12 -6 -25 -11 -40 -15c-15 -3 -28 -4 -41 -2c-13 3 -23 9 -31 19c-9 10 -13 26 -12 47c0 8 2 20 5 38c3 16 8 36 15 56c6 22 14 43 23 65s21 42 34 60c-22 -19 -43 -40 -64 -62s-44 -43 -69 -62c-9 -7 -20 -13 -33 -18s-25 -3 -36 4c-12 8 -18 19 -19 33
c0 13 2 26 6 37c9 27 23 54 44 81c20 26 43 50 68 73s52 43 81 61c29 17 56 31 82 41c8 3 17 5 27 8c11 3 21 4 32 5c10 1 20 0 30 -2c9 -2 18 -6 25 -13l3 -3c1 -2 2 -4 4 -5c0 -1 1 -3 0 -4c0 -1 -1 -2 -4 -1c-9 3 -18 5 -27 6c-30 -3 -58 -13 -83 -30
c-26 -17 -50 -35 -72 -54c-25 -21 -48 -44 -70 -67s-43 -48 -63 -75c-6 -8 -12 -16 -17 -24c-6 -9 -11 -18 -14 -27c19 9 37 19 52 27c16 10 31 19 44 28c14 10 27 20 40 32c13 10 26 23 40 36c1 1 6 5 13 11s16 13 27 21c10 7 21 15 33 24s24 16 35 24c11 6 22 12 30 16
c10 4 16 5 21 4c3 -1 4 -4 1 -8c-3 -5 -5 -8 -8 -10c-23 -17 -45 -39 -64 -64c-20 -25 -38 -52 -53 -79s-29 -55 -39 -81c-12 -28 -20 -52 -26 -73s-10 -39 -10 -52c-2 -13 0 -20 5 -19c11 1 23 5 37 14c15 8 29 18 44 28c15 12 28 23 41 34s23 20 30 26
c53 47 100 100 141 158c42 57 78 120 108 187c5 13 10 27 17 42s13 31 17 48c6 17 10 33 13 50s4 33 3 49c-2 15 -7 30 -14 42c-7 14 -19 25 -34 34c-13 7 -26 12 -40 14c-14 3 -28 4 -42 3c-46 -1 -92 -12 -140 -33c-46 -22 -92 -49 -136 -81c-43 -32 -84 -67 -122 -103
c-39 -38 -72 -72 -100 -103c-27 -30 -52 -61 -74 -93c-24 -32 -45 -65 -64 -100c-17 -30 -32 -62 -46 -95c-12 -33 -21 -67 -25 -101c-3 -23 -3 -45 1 -67c2 -22 11 -42 24 -61c9 -13 21 -24 36 -32c14 -7 29 -12 46 -16c17 -2 34 -4 51 -4s34 1 50 3c42 5 83 15 123 29
c40 13 79 28 118 45s77 35 114 53c37 20 75 39 112 60c25 13 50 28 77 43c1 1 4 3 9 5c6 4 12 7 18 10s12 6 17 8c5 3 8 4 9 3s0 -3 -2 -5c-3 -3 -6 -5 -8 -8c-4 -3 -6 -5 -10 -7c-2 -2 -4 -3 -5 -4l-48 -36c-17 -12 -35 -23 -52 -35c-17 -10 -35 -22 -53 -33
c-36 -22 -72 -43 -110 -63c-36 -19 -74 -37 -113 -53c-37 -16 -75 -31 -117 -43c-40 -14 -82 -20 -124 -20c-33 0 -63 4 -92 13c-28 9 -52 22 -72 39c-21 18 -36 40 -48 68c-10 26 -15 58 -13 94s9 70 19 104c12 32 25 65 40 97c32 64 70 124 114 180s92 108 144 156
c28 27 57 52 88 75c30 24 62 46 96 65c21 13 46 25 74 38c29 13 58 23 90 32c30 9 62 14 93 15c31 2 60 -2 87 -12c24 -9 46 -24 67 -44c21 -21 34 -44 40 -69c7 -28 10 -55 7 -81c-2 -26 -8 -52 -17 -78c-11 -33 -25 -64 -40 -95s-32 -60 -51 -89
c-41 -63 -88 -120 -140 -171c-51 -51 -114 -96 -188 -136z" />
    <glyph glyph-name="question" unicode="?" horiz-adv-x="451" 
d="M722 876c3 -9 4 -19 2 -28c-1 -9 -4 -19 -7 -28c-8 -21 -18 -40 -30 -59s-25 -37 -38 -54c-26 -36 -53 -71 -82 -106l-86 -104c-38 -46 -76 -92 -115 -137c-38 -46 -78 -90 -119 -133c-12 -13 -24 -25 -37 -37c-1 -1 -4 -4 -10 -8c-4 -5 -8 -6 -10 -5s-1 5 2 12
s6 11 7 12c5 9 9 17 14 25s10 16 15 23c34 54 70 107 108 159c37 51 75 103 114 154c16 21 35 44 56 68c21 25 43 50 65 75s43 51 63 77c20 25 36 50 49 73c1 1 1 2 3 5c0 2 2 4 2 6c2 2 2 4 3 6c1 1 1 2 0 1c-18 -5 -38 -14 -60 -25c-22 -12 -44 -25 -66 -38
s-43 -27 -64 -40c-21 -14 -39 -26 -55 -35c-2 -1 -8 -5 -16 -10c-10 -5 -20 -12 -32 -19c-13 -7 -26 -15 -40 -24c-14 -8 -27 -15 -39 -22c-12 -6 -22 -11 -31 -14c-8 -4 -12 -5 -13 -4s-1 2 1 4c0 1 2 3 4 4l4 4l3 3c13 13 27 26 41 39c15 12 29 24 44 35
c34 27 68 54 104 79c34 25 71 48 110 68c15 9 32 17 51 24c19 8 37 9 54 4c7 -2 14 -6 19 -11s9 -12 12 -19zM166 67c2 -5 2 -11 0 -16c-1 -5 -4 -11 -8 -15c-3 -6 -8 -10 -12 -14c-6 -4 -10 -7 -14 -9s-9 -4 -14 -5s-11 -2 -16 -2c-6 0 -11 1 -16 4c-5 2 -8 6 -10 11
c-4 11 -3 21 4 31c7 9 14 17 23 22c4 2 9 4 15 6c7 1 13 2 20 2c6 0 12 -1 17 -3s9 -6 11 -12z" />
    <glyph glyph-name="questiondown" unicode="&#xbf;" horiz-adv-x="700" 
d="M535 738c2 -1 1 -5 -2 -12s-6 -11 -7 -12c-14 -27 -30 -52 -46 -77c-18 -25 -35 -50 -52 -75c-43 -62 -88 -122 -132 -181c-46 -59 -91 -118 -137 -177c-8 -10 -18 -22 -29 -35s-23 -27 -34 -42c-12 -15 -23 -29 -33 -43c-10 -15 -18 -28 -23 -40c60 32 118 64 172 97
c56 33 113 67 174 102c3 2 7 5 14 9c7 3 14 7 21 10c7 4 14 7 19 10c6 2 9 2 10 1c1 -2 -2 -7 -12 -17c-8 -8 -19 -18 -31 -28s-23 -19 -35 -28c-10 -9 -17 -14 -19 -16c-33 -26 -67 -52 -102 -77s-72 -49 -112 -70c-15 -9 -32 -17 -51 -25c-19 -7 -37 -8 -55 -3
c-9 3 -16 7 -21 13c-5 7 -8 14 -9 22s-1 16 -1 26c2 8 3 17 6 25c8 21 18 40 30 59s25 37 38 54c49 69 102 136 156 200c56 66 111 130 167 193c13 15 27 30 39 45c14 14 27 28 40 42c6 7 12 13 18 19l18 18l8 8c5 4 9 6 12 5h1zM559 848c-2 5 -2 11 -1 16c2 5 5 10 8 16
c4 4 8 9 14 13c4 4 9 7 13 9s9 4 14 5s11 2 17 2c5 0 10 -1 15 -3c5 -3 8 -7 10 -12c4 -11 3 -21 -4 -30c-7 -10 -14 -18 -23 -23c-4 -2 -9 -4 -16 -6c-6 -2 -12 -3 -18 -3c-7 0 -13 1 -18 4c-5 2 -9 6 -11 12z" />
    <glyph glyph-name="Ccedilla" unicode="&#xc7;" horiz-adv-x="801" 
d="M924 737c0 -25 -5 -49 -14 -72s-21 -45 -34 -65c-21 -31 -44 -56 -70 -77c-1 -1 -2 -2 -6 -5c-2 -2 -6 -4 -10 -7s-8 -5 -10 -7c-4 -1 -5 -1 -6 0c-1 2 0 5 2 8c3 3 5 6 7 8c11 17 24 34 37 52c13 16 25 35 34 56c8 16 15 33 20 50c5 18 7 36 6 54c-1 20 -8 35 -20 44
c-13 10 -29 15 -50 15c-16 1 -32 -1 -47 -3c-15 -4 -31 -8 -46 -13c-52 -17 -101 -42 -146 -75s-87 -67 -126 -104c-55 -51 -105 -106 -153 -164c-46 -60 -88 -121 -125 -186c-7 -11 -15 -26 -25 -45s-20 -41 -30 -64c-11 -23 -20 -48 -29 -73c-9 -26 -15 -51 -18 -74
s-3 -45 1 -64c3 -20 12 -36 27 -47c15 -15 33 -23 55 -25c22 -1 46 2 72 8c25 8 52 18 79 31s53 27 78 42s47 29 68 43c21 13 37 24 50 32c31 20 60 41 89 64c29 22 57 45 85 70c37 32 71 66 103 101c33 35 66 70 100 104l4 4c1 2 3 4 5 6s4 3 6 5c2 0 4 0 5 -1
c0 -5 -2 -11 -5 -16l-9 -15c-16 -28 -34 -54 -53 -80c-19 -24 -39 -49 -60 -74c-23 -26 -46 -51 -71 -76s-50 -48 -77 -71c-28 -24 -57 -47 -87 -68s-61 -41 -93 -60c-30 -17 -61 -33 -93 -47c-33 -14 -66 -25 -100 -32c4 -13 5 -27 3 -40c-4 -28 -16 -53 -35 -76
c-20 -22 -41 -41 -63 -57c-12 -9 -25 -17 -37 -23c-14 -8 -27 -14 -40 -20c-22 -7 -39 -12 -51 -15s-19 -2 -20 2c-1 3 0 6 5 9c4 3 7 5 9 6c13 9 25 18 38 26c13 9 25 18 38 27c17 13 33 27 49 41c16 16 30 32 41 50c5 9 10 18 15 28s7 22 8 35c-26 -3 -52 -3 -78 1
s-49 15 -70 32c-12 9 -22 20 -30 33s-14 26 -18 41c-9 32 -11 65 -6 100c5 34 13 68 25 102s27 67 43 98c18 32 34 61 50 87c39 64 83 125 130 182s99 111 156 160c26 23 54 45 84 68c29 23 60 43 92 61c33 17 66 32 101 43s70 18 106 19c15 0 30 -1 45 -4
c15 -2 29 -7 43 -14c15 -9 27 -22 35 -38c7 -17 11 -34 12 -51z" />
    <glyph glyph-name="ccedilla" unicode="&#xe7;" horiz-adv-x="275" 
d="M430 206c2 -2 -2 -8 -12 -18c-10 -11 -21 -22 -34 -34s-25 -23 -36 -33c-12 -10 -18 -15 -19 -16c-17 -14 -35 -27 -52 -41c-17 -12 -36 -25 -55 -36c-11 -7 -24 -13 -36 -20c-14 -7 -27 -11 -41 -13c5 -7 7 -16 7 -27c1 -15 -3 -29 -10 -42s-17 -26 -28 -37
c-12 -11 -26 -21 -40 -30c-16 -9 -30 -15 -44 -20c-1 -1 -4 -2 -8 -3s-8 -3 -12 -4c-5 -1 -9 -2 -13 -2s-6 1 -7 3s1 4 6 7s8 5 9 6c13 9 27 18 39 28c14 9 26 20 37 31c7 7 14 15 21 23c6 7 11 16 15 25c5 9 7 18 7 26v6c-1 3 -1 5 -1 8c-2 1 -4 1 -6 1s-4 0 -7 1
c-10 3 -18 7 -24 13c-5 7 -9 14 -11 22c-2 9 -3 18 -1 27c0 9 2 18 5 26c5 20 13 39 23 57c11 19 22 36 34 52c12 17 25 32 40 46s30 27 46 40c16 12 33 24 50 34c18 12 37 20 57 25c8 3 17 4 25 3c10 -1 18 -3 24 -6c8 -4 13 -10 16 -17c4 -7 5 -17 2 -28
c-3 -9 -7 -18 -12 -26s-11 -16 -18 -23c-15 -15 -31 -29 -47 -40c-8 -6 -16 -12 -25 -18l-27 -15c-1 0 -3 -1 -6 -3c-3 -1 -5 -1 -4 0c1 2 5 7 13 16c9 9 18 19 28 30c11 12 20 24 30 38c8 12 14 24 16 34c-11 -5 -22 -12 -33 -19s-21 -15 -30 -23c-10 -8 -20 -16 -29 -24
c-10 -8 -20 -17 -29 -26c-18 -17 -36 -37 -55 -58c-18 -22 -32 -45 -41 -68c-1 -3 -3 -8 -5 -12c-1 -6 -1 -10 1 -13c1 -2 4 -3 7 -3c4 0 8 0 13 2c5 0 9 2 13 2c4 2 7 2 9 3c19 5 37 13 54 23c17 9 34 19 51 29c19 11 38 23 56 37c19 12 37 26 55 39l27 21l4 4c2 1 4 3 6 5
c3 2 5 3 8 5c2 0 3 1 4 0z" />
    <glyph glyph-name="braceleft" unicode="{" horiz-adv-x="0" 
d="M1088 -9h88h23c8 0 16 -1 23 -2c1 0 2 0 4 -1c1 0 1 0 0 -1c-3 -1 -5 -2 -8 -2s-5 0 -8 -1c-95 -13 -188 -23 -280 -30c-91 -7 -182 -12 -274 -16c-90 -3 -182 -6 -273 -9s-183 -7 -276 -12c-45 -3 -94 -5 -145 -8c-52 -3 -105 -5 -160 -9c-55 -2 -110 -5 -166 -8
c-57 -3 -112 -6 -168 -8c-54 -4 -108 -6 -160 -9c-51 -3 -100 -5 -145 -8c-56 -3 -105 -5 -149 -7c-42 -3 -82 -5 -119 -8c-37 -2 -72 -4 -106 -6c-34 -3 -70 -5 -108 -8c-38 -2 -80 -4 -125 -8c-45 -2 -98 -6 -157 -9c-28 -2 -55 -4 -82 -6s-57 -4 -90 -5c-4 0 -7 1 -9 4
c-1 2 -2 4 -2 8c0 2 1 5 3 8s5 4 9 4c24 3 46 6 67 7s43 4 66 7c121 13 244 26 371 36c127 12 255 21 385 29c91 5 182 11 271 16c90 5 181 10 272 14z" />
    <glyph glyph-name="braceright" unicode="}" horiz-adv-x="0" 
d="M922 -7c40 1 80 1 120 1c41 1 81 -1 121 -4h5h8c4 -1 6 -1 8 -2c3 -1 4 -1 4 -2s-1 -1 -3 -2s-4 -1 -7 -2h-8l-4 -1c-29 -4 -57 -7 -86 -9c-28 -3 -56 -5 -84 -6c-29 -2 -65 -4 -106 -6c-41 -3 -86 -5 -132 -8c-48 -3 -96 -5 -146 -8s-99 -5 -146 -8s-92 -5 -133 -8
c-41 -2 -77 -4 -106 -5c-26 -1 -62 -4 -107 -7s-96 -7 -153 -11s-117 -8 -181 -13l-189 -12c-63 -5 -123 -9 -181 -12c-57 -4 -108 -7 -153 -10c-45 -2 -81 -3 -109 -4s-43 0 -46 2c-4 3 -6 6 -7 8c-1 4 0 6 1 8s3 4 5 5s4 2 5 2c83 9 166 19 250 27c83 10 168 18 253 25
s172 14 261 21c89 6 180 11 273 15c29 1 65 3 106 5c41 1 86 3 133 4c48 2 97 4 148 6c50 2 99 4 146 6c47 1 92 2 133 4c41 0 77 1 107 1z" />
    <glyph glyph-name="bracketleft" unicode="[" horiz-adv-x="475" 
d="M771 845c0 -1 -2 -3 -7 -5c-4 -2 -9 -4 -14 -6s-11 -4 -16 -6c-5 -1 -8 -2 -9 -3c-40 -14 -80 -26 -121 -37c-1 0 -6 -1 -14 -2c-7 -2 -15 -4 -24 -6c-8 -1 -16 -3 -22 -4c-8 -2 -11 -3 -11 -4l-10 -18c-7 -12 -15 -27 -25 -46c-10 -18 -21 -38 -34 -60
c-13 -23 -25 -45 -38 -66c-12 -22 -23 -42 -34 -60c-10 -18 -18 -32 -23 -42c-45 -78 -92 -155 -139 -231s-96 -151 -146 -226c34 9 68 19 101 28s67 19 101 28c19 5 37 10 56 15c18 5 37 9 56 13c1 0 3 1 6 1c3 2 5 1 6 0s-2 -3 -8 -6c-5 -3 -12 -6 -19 -8
c-7 -4 -14 -6 -21 -9s-11 -4 -12 -5c-39 -17 -78 -33 -118 -48c-38 -15 -78 -31 -118 -46c-11 -4 -21 -8 -31 -12c-10 -3 -20 -7 -30 -11c-8 -3 -16 -6 -25 -9c-9 -2 -16 1 -23 10c-7 8 -8 16 -3 25s9 17 14 24c5 10 11 20 16 29c6 10 12 20 18 29l69 117
c23 38 47 76 71 114c24 39 48 77 72 114c25 37 50 75 75 113c8 11 17 25 29 41c10 17 22 34 34 52c12 17 24 35 36 52s23 33 32 46c9 14 17 25 22 34c6 8 9 12 8 12c-2 0 -10 -1 -23 -2c-13 -2 -27 -4 -43 -5c-14 -1 -28 -2 -40 -2c-13 0 -19 1 -18 4s3 5 6 7s7 4 12 6
s9 4 13 5l9 3c20 7 40 14 60 19c21 5 41 11 61 16c42 9 84 16 126 21c2 0 9 1 21 2c11 2 24 4 36 5c14 1 25 2 36 3c11 0 16 -1 17 -3z" />
    <glyph glyph-name="bracketright" unicode="]" horiz-adv-x="833" 
d="M908 840c0 -2 -3 -4 -8 -8c-5 -2 -12 -5 -19 -8s-14 -5 -21 -8c-7 -2 -11 -3 -14 -4c-19 -28 -38 -60 -60 -94c-20 -36 -42 -71 -64 -108c-21 -36 -42 -72 -64 -108c-20 -36 -40 -69 -58 -100c-23 -38 -46 -76 -70 -114c-22 -38 -46 -76 -70 -114c-3 -4 -8 -13 -16 -26
c-7 -13 -16 -28 -25 -42c-9 -16 -19 -29 -27 -42c-10 -13 -16 -20 -21 -22c-5 -3 -9 -5 -15 -6c-4 -1 -9 -3 -14 -4c-11 -3 -21 -6 -32 -9s-21 -6 -32 -9c-40 -11 -80 -22 -119 -32c-39 -11 -79 -20 -119 -27c-5 -1 -11 -3 -18 -4c-8 -1 -15 -1 -22 0c-1 0 -1 1 2 3
s6 4 10 6c3 3 7 5 10 7s5 3 6 3c17 8 35 16 52 22c17 8 35 15 53 22l120 45c3 1 10 4 19 7l30 12c12 4 24 9 37 14c5 8 8 14 11 18c2 3 5 8 9 15c23 39 47 77 70 115c23 39 47 77 72 115c15 25 34 53 55 85c21 31 44 64 66 96c24 34 46 66 68 98c23 32 43 60 61 86
c18 24 32 44 43 60c11 14 16 22 16 21c-25 -6 -50 -11 -75 -17c-25 -4 -50 -9 -75 -12c-22 -3 -45 -6 -70 -8c-24 -4 -48 -4 -72 -2h-6c-2 0 -3 1 -2 2s2 2 4 2c1 1 3 2 4 3c11 5 22 9 34 13c13 4 28 9 47 14c41 12 82 22 123 30c21 5 42 8 65 11s44 5 65 6c7 7 12 13 16 18
s10 9 17 14c1 0 0 -1 -1 -4s-3 -6 -5 -9s-4 -7 -7 -10c-2 -4 -3 -7 -4 -8h8c4 1 8 1 13 1s9 0 13 -1c3 -1 5 -2 6 -4z" />
    <glyph glyph-name="underscore" unicode="_" horiz-adv-x="582" 
d="M470 39c0 -3 -3 -5 -10 -9c-7 -2 -14 -5 -24 -8c-8 -2 -17 -4 -26 -6c-8 -2 -13 -3 -15 -4c-19 -4 -39 -8 -58 -10c-19 -4 -39 -6 -58 -9c-16 -2 -35 -4 -57 -7c-21 -3 -43 -5 -66 -6c-22 -1 -43 -2 -64 -1s-38 3 -52 8c-5 2 -7 4 -6 5c1 2 2 4 6 6c2 1 6 2 10 4
c4 0 7 1 8 2c29 7 59 13 88 17s58 8 87 11c43 5 85 9 128 12c17 1 33 2 51 4c16 0 33 -1 49 -4c1 -1 3 -1 5 -2c3 -1 4 -2 4 -3z" />
    <glyph glyph-name="hyphen" unicode="-" horiz-adv-x="528" 
d="M481 204c1 -3 -2 -5 -9 -8s-18 -7 -33 -12c-9 -3 -19 -6 -29 -8c-10 -3 -20 -5 -29 -8c-21 -5 -43 -10 -64 -14c-21 -3 -43 -6 -64 -8c-11 -1 -21 -2 -31 -2c-11 -1 -21 -1 -31 0h-13c-6 1 -10 2 -15 2c-5 2 -9 3 -13 4c-4 2 -7 5 -8 8c-2 5 1 9 10 12c9 4 19 8 32 10
c12 4 24 6 35 8s18 3 21 4c44 7 88 12 132 15c4 0 12 0 24 1c11 1 23 1 36 2c13 0 24 0 34 -1s15 -2 15 -5z" />
    <glyph glyph-name="plus" unicode="+" horiz-adv-x="663" 
d="M503 259c33 -1 49 -3 49 -6c1 -3 -1 -5 -6 -7c-5 -1 -8 -3 -9 -4c-23 -7 -41 -13 -53 -16s-23 -6 -32 -9l-26 -6c-9 -2 -17 -4 -26 -5c-21 -26 -42 -53 -65 -80c-11 -15 -23 -29 -35 -44c-13 -15 -26 -28 -41 -39l-5 -5c-3 -2 -5 -2 -6 -1s-2 3 0 7c0 3 2 7 4 11
s4 8 6 11c2 4 3 7 4 8c5 9 9 17 14 26l15 24c7 12 15 24 23 36c7 12 15 24 23 36c-16 -1 -33 -2 -51 -4c-18 0 -36 1 -53 4c-3 1 -7 3 -11 4c-5 1 -8 4 -9 7c-2 5 1 9 10 13c9 3 19 6 31 10c13 2 25 5 36 7s18 3 21 4c11 1 21 3 31 5c11 1 21 3 31 4c11 15 22 29 33 44
s23 29 34 43c7 8 14 16 22 23c6 8 14 16 21 23c6 6 13 12 20 19c7 6 15 10 23 13c5 1 7 1 8 -1c1 -3 0 -6 0 -10c-2 -3 -3 -7 -4 -10c-2 -4 -3 -7 -4 -8c-9 -17 -20 -34 -33 -52l-27 -39s-19 -26 -28 -39c25 2 46 3 65 3z" />
    <glyph glyph-name="equal" unicode="=" horiz-adv-x="648" 
d="M473 155c2 0 6 0 11 -1c5 0 8 -2 9 -5s-3 -6 -13 -9c-8 -4 -19 -8 -31 -12c-12 -3 -23 -6 -35 -9c-10 -3 -18 -4 -21 -5c-21 -5 -43 -10 -64 -14s-43 -7 -64 -9c-11 -1 -21 -2 -31 -3c-11 0 -21 0 -31 1c-3 0 -7 0 -11 1c-6 0 -10 0 -16 2c-4 0 -9 2 -13 4
c-4 1 -7 4 -9 7c-2 5 1 9 10 13s19 8 32 10c12 4 24 6 35 8s18 3 21 3c22 3 44 7 66 9c22 4 44 6 66 7c15 1 29 1 44 3c15 0 30 0 45 -1zM232 218c-3 1 -6 2 -10 4c-3 0 -5 3 -5 6c-1 5 4 9 15 13c10 4 22 8 35 11c13 4 26 7 38 10c12 2 20 3 23 4c23 4 46 8 70 11
c22 3 45 6 68 8c13 2 27 3 41 5c14 0 30 1 49 1c2 0 6 0 12 -1c5 0 7 -1 6 -4v-1c-1 -2 -4 -4 -10 -5l-10 -5c-29 -11 -60 -20 -94 -28c-45 -12 -91 -21 -137 -27c-14 -2 -29 -4 -45 -5c-15 -1 -31 0 -46 3zM574 286v-1v1z" />
    <glyph glyph-name="less" unicode="&#x3c;" horiz-adv-x="650" 
d="M517 569c1 -3 -11 -11 -34 -25c-11 -7 -25 -15 -41 -24c-17 -9 -36 -19 -57 -30s-45 -23 -69 -36c-26 -12 -52 -25 -80 -39c-28 -13 -57 -27 -87 -41c-30 -15 -61 -30 -93 -45c46 -23 88 -44 127 -64s73 -39 103 -56c36 -21 64 -38 83 -52s28 -23 26 -28
c-3 -4 -15 -3 -38 4s-53 18 -92 33c-38 15 -82 35 -133 58s-105 49 -164 78c-8 4 -13 10 -16 18c-3 9 -2 17 2 24c3 7 8 12 15 15c9 4 19 8 29 13c10 4 20 8 29 12c33 15 66 28 97 42c31 12 62 25 91 37c29 11 57 22 83 33c25 10 49 19 71 28c23 9 43 16 61 22
c17 6 32 11 45 15c26 8 40 11 42 8z" />
    <glyph glyph-name="greater" unicode="&#x3e;" horiz-adv-x="1081" 
d="M907 358c7 -4 12 -10 15 -18c3 -9 2 -17 -3 -24c-3 -5 -9 -11 -19 -17c-11 -6 -22 -12 -35 -17s-25 -10 -37 -14c-11 -5 -20 -8 -26 -11c-30 -13 -59 -26 -88 -37c-28 -12 -55 -23 -82 -34l-75 -30c-23 -9 -45 -18 -66 -25c-20 -7 -38 -14 -55 -19
c-16 -6 -30 -11 -41 -14c-24 -7 -37 -9 -38 -6s9 11 30 24c11 6 23 13 38 22c15 8 32 17 51 27s40 21 63 32s47 24 72 37s52 26 79 39c28 13 57 27 87 40c7 3 15 7 22 11c7 3 15 7 22 10c-34 19 -65 36 -94 54c-29 16 -54 32 -75 46c-27 17 -48 32 -62 44
c-14 13 -20 21 -18 25c2 3 12 3 30 -3c18 -4 42 -14 72 -27s65 -29 104 -48c40 -19 83 -42 129 -67z" />
    <glyph glyph-name="asterisk" unicode="*" horiz-adv-x="775" 
d="M521 570l-12 -4l-12 -4c14 -9 28 -19 43 -28c14 -9 28 -19 41 -29c9 -7 20 -15 33 -23c12 -10 22 -20 29 -31c-1 -2 -5 -2 -11 -1c-8 2 -15 5 -24 8c-9 4 -17 8 -24 11c-8 3 -13 5 -15 6c-19 9 -40 18 -62 29c-22 10 -41 19 -56 28l-7 -8c-5 -6 -10 -13 -16 -21
c-7 -8 -13 -16 -20 -25s-12 -16 -17 -21c-12 -15 -24 -29 -37 -44c-12 -15 -25 -28 -40 -40c-1 -1 -3 -3 -6 -5c-3 -4 -6 -4 -7 -2s-1 5 1 8c1 4 2 7 3 9c4 8 8 16 13 24c4 8 8 16 13 23c10 18 21 36 32 53l34 52c-17 -4 -33 -8 -49 -11s-32 -6 -49 -8c-8 -1 -16 -2 -23 -3
c-8 -1 -16 -1 -24 -1h-18c-8 0 -13 2 -16 7c-2 3 0 6 6 10s13 8 22 11c8 4 16 7 24 10c9 3 14 4 16 5c15 5 31 9 46 13l46 12c-12 9 -24 18 -36 28c-13 9 -23 20 -32 32c-3 3 -5 8 -6 14c-2 5 1 7 8 6s14 -2 21 -6c7 -2 13 -6 20 -9l28 -14c9 -5 19 -10 28 -15
c1 -1 4 -3 7 -4s7 -3 11 -5c5 -3 10 -5 15 -7c14 19 29 38 44 58c15 18 33 37 52 56c6 5 13 11 20 18s15 11 23 13c4 1 6 0 7 -3s0 -6 -1 -10s-3 -8 -5 -12s-3 -6 -4 -7c-10 -19 -21 -37 -33 -53c-12 -18 -24 -34 -36 -51c13 3 26 5 39 7c12 2 25 4 38 6c1 0 5 0 12 2
c6 0 12 2 20 2c6 2 13 2 18 2c6 0 10 -1 11 -3c1 -3 -2 -6 -9 -9c-6 -3 -10 -5 -11 -6c-12 -5 -23 -10 -34 -14c-12 -5 -24 -9 -36 -14z" />
    <glyph glyph-name="registered" unicode="&#xae;" horiz-adv-x="952" 
d="M824 739c5 -25 3 -48 -5 -71s-18 -44 -31 -65c-16 -27 -35 -53 -56 -77c-21 -23 -44 -45 -69 -65c3 -4 7 -8 14 -13c0 -1 0 -1 1 -1l2 -2c0 -1 -1 -2 -4 -1h-5c-5 2 -11 5 -17 10l-27 -21c-19 -13 -40 -25 -63 -37c-17 -8 -36 -15 -55 -20c-19 -6 -39 -7 -58 -2
c-21 4 -37 14 -47 31c-9 17 -14 35 -14 55c1 25 6 50 16 74c9 23 21 45 34 66c7 10 15 21 26 33c10 12 23 24 38 37s33 25 54 38c20 12 44 23 71 32c6 2 14 4 24 6c10 3 20 4 30 4c10 1 19 0 28 -3s15 -8 18 -17c3 -7 2 -15 -1 -23c-3 -9 -9 -17 -18 -23
c-9 -7 -17 -12 -25 -17c-30 -16 -62 -28 -97 -35c7 -23 15 -45 24 -68c8 -23 17 -45 28 -66c27 23 52 48 74 74c24 28 42 57 57 89c7 15 12 32 14 50s-2 35 -12 51c-7 11 -16 18 -27 23s-22 7 -34 7s-24 -1 -36 -4c-13 -3 -24 -6 -34 -10c-21 -9 -42 -19 -61 -30
c-19 -12 -38 -25 -56 -39c-10 -7 -20 -15 -29 -23c-10 -9 -20 -18 -29 -27c-8 -7 -16 -15 -23 -23c-8 -9 -16 -17 -24 -25c-3 -3 -6 -4 -8 -5c-1 0 -1 2 1 7s4 10 7 15c3 4 6 8 9 13c7 9 13 18 21 27c6 9 14 17 21 25c16 17 33 34 51 49s37 29 58 42s44 25 68 34
c25 9 50 13 75 12c26 -1 48 -10 67 -28c18 -16 29 -38 34 -63zM532 427c15 7 30 15 45 25c15 9 29 19 43 29c1 1 2 2 4 3c3 1 3 3 2 4c-4 6 -9 15 -16 28s-13 24 -18 34l-15 33s-9 22 -14 33l-24 -24c-8 -9 -16 -17 -24 -26c-9 -9 -17 -18 -25 -28c-9 -8 -17 -18 -26 -27
c-5 -6 -11 -12 -16 -19c-6 -6 -12 -12 -18 -17c-3 -3 -5 -6 -4 -9v-11c1 -11 5 -20 10 -29c6 -9 15 -14 28 -15c11 -1 23 0 34 3c12 3 23 8 34 13zM448 553c-10 -22 -17 -44 -21 -67c4 5 8 11 12 17s8 12 13 17c11 17 23 33 36 48l36 48c2 3 4 6 8 10c2 5 6 9 9 14
c3 4 6 8 9 10l3 5c0 1 -1 5 -2 11s-1 10 2 13s7 4 9 3c4 -2 6 -4 7 -7c12 13 24 25 37 37c-5 -1 -9 -3 -14 -4c-4 -2 -8 -4 -13 -6c-12 -5 -24 -12 -35 -21c-41 -35 -73 -78 -96 -128zM634 718h-2c-1 -1 -2 -1 -3 -1c3 -3 3 -7 3 -11c-2 -4 -3 -8 -6 -12c-3 -5 -6 -9 -8 -13
c-4 -4 -6 -7 -8 -9c9 3 18 7 27 11s18 8 27 13c5 3 11 6 16 9s10 7 14 12c-7 3 -16 5 -26 4c-11 -1 -22 -2 -34 -3z" />
    <glyph glyph-name="copyright" unicode="&#xa9;" horiz-adv-x="650" 
d="M575 739c3 -17 3 -33 1 -49c-4 -16 -9 -32 -16 -47c-11 -24 -24 -47 -39 -67c-15 -22 -32 -42 -49 -61c-38 -40 -79 -74 -124 -101c-20 -12 -42 -23 -66 -32c-24 -10 -48 -13 -73 -10c-19 3 -35 12 -47 24c-11 14 -18 30 -20 49c-3 25 0 50 9 75c9 24 19 47 32 68
c13 20 27 39 43 56c17 17 35 32 54 45l15 9s10 5 15 7c1 0 2 0 4 1s4 1 6 2c3 1 5 1 6 1s2 -1 1 -2c-3 -3 -6 -6 -11 -9c-4 -3 -8 -6 -11 -9c-4 -3 -8 -7 -13 -11c-4 -3 -8 -7 -12 -11c-37 -33 -65 -73 -84 -119c-5 -12 -10 -24 -12 -36c-4 -13 -6 -26 -7 -39
c-1 -11 1 -22 3 -34c4 -12 11 -20 22 -25c7 -3 16 -5 24 -4c10 1 18 2 28 5c8 3 17 6 26 10c8 4 16 8 23 11c23 13 45 27 66 43s40 33 59 52s36 40 52 61c17 21 31 44 42 69c7 16 12 33 14 51s-2 35 -12 50c-7 11 -16 18 -27 23s-22 7 -34 7s-24 -1 -37 -4
c-12 -3 -23 -6 -33 -10c-21 -9 -42 -19 -61 -30c-19 -12 -38 -25 -56 -39c-10 -7 -20 -15 -30 -23c-9 -9 -19 -18 -28 -27c-8 -7 -16 -15 -24 -23c-7 -9 -15 -17 -23 -25c-3 -3 -6 -4 -7 -5c-2 0 -2 2 0 7s4 10 7 15c3 4 6 8 9 13c7 9 14 18 20 27c8 9 15 17 22 25
c16 17 33 34 51 49c18 16 37 30 58 42c21 13 44 25 69 34c24 9 49 13 74 12c26 -1 48 -10 66 -28c19 -16 30 -38 35 -63zM362 612c5 7 11 13 16 19c6 6 12 12 17 18c5 7 10 13 15 21c4 6 8 14 11 21c-13 -7 -27 -15 -41 -25c-15 -11 -28 -22 -42 -35
c-12 -13 -24 -26 -36 -41c-10 -14 -19 -28 -26 -42l-6 -12c-2 -6 -2 -10 1 -11c1 -1 3 -2 7 -1c2 0 5 0 7 1c22 4 43 12 63 24s39 24 58 37c9 7 18 13 26 20c9 6 18 12 27 19l9 7c2 2 5 4 8 6c1 1 2 1 4 0c0 0 0 -1 -1 -2c-8 -9 -21 -22 -37 -37c-18 -15 -36 -31 -56 -45
c-20 -16 -40 -29 -59 -40c-19 -12 -35 -19 -48 -20c-11 -1 -21 1 -29 6c-8 6 -13 15 -14 27s0 24 6 36c4 12 10 23 15 33c13 22 27 42 45 60c16 17 35 33 56 47c9 7 20 13 32 19c11 5 23 9 35 10s21 -3 27 -12c7 -8 8 -18 3 -29c-4 -11 -11 -21 -20 -30s-19 -17 -28 -24
s-20 -14 -32 -21c-1 -1 -3 -2 -8 -4s-6 -2 -5 0z" />
    <glyph glyph-name="paragraph" unicode="&#xb6;" horiz-adv-x="833" 
d="M1198 925c0 -1 -2 -3 -6 -5s-9 -4 -14 -6s-10 -4 -16 -5c-4 -1 -8 -2 -9 -2c-30 -9 -60 -19 -89 -28c-30 -9 -61 -19 -93 -28c-20 -7 -36 -12 -47 -15c-11 -4 -20 -7 -26 -9c-5 -2 -9 -3 -10 -4c-2 -1 -3 -1 -3 -2c-4 -9 -9 -17 -15 -25c-5 -8 -11 -17 -17 -26
c-15 -21 -31 -42 -46 -62c-15 -21 -31 -41 -46 -61c-33 -42 -67 -83 -99 -125c-34 -40 -67 -82 -101 -123c15 3 31 7 47 11c15 4 31 8 46 13c13 3 25 7 37 11c12 5 24 9 37 12c6 1 8 0 6 -2c-1 -4 -3 -6 -6 -8c-5 -4 -11 -8 -16 -10c-6 -4 -12 -7 -17 -10
c-26 -13 -52 -25 -79 -36c-5 -2 -14 -5 -25 -10c-11 -4 -23 -8 -34 -12s-21 -8 -29 -10l-13 -5c-4 -5 -8 -11 -12 -15c-4 -6 -8 -11 -12 -16c-17 -20 -35 -40 -52 -62c-17 -20 -35 -41 -52 -61c-32 -39 -64 -77 -97 -115c-32 -38 -66 -75 -101 -111c-3 -4 -7 -8 -11 -12
c-5 -4 -9 -8 -13 -11c-2 -2 -4 -4 -7 -6c-2 -1 -4 -2 -7 -3c-2 -1 -3 0 -2 3s2 6 3 10c2 3 4 6 6 10l2 4c11 21 24 42 38 61c13 19 27 39 40 58c31 43 62 86 92 128c32 42 63 84 95 126c-3 -1 -9 -1 -17 -1c-9 -1 -15 -3 -18 -6c-18 -21 -36 -41 -53 -60
c-17 -18 -35 -38 -53 -59l-130 -144c-35 -38 -69 -76 -103 -115s-68 -77 -103 -116c-9 -9 -17 -18 -25 -28l-26 -26c-8 -10 -16 -18 -25 -24c-3 -6 -6 -9 -11 -9c-1 0 -1 1 -1 3c2 3 3 6 4 9c2 3 4 7 6 9l2 5c6 11 13 22 20 32s15 20 22 31c31 42 62 83 94 124
c33 41 66 81 99 121c35 41 69 82 104 123s70 81 105 122c-28 0 -58 2 -90 4c-32 4 -62 12 -91 25c-16 7 -29 16 -41 29c-10 12 -16 27 -15 44c1 15 6 29 15 42c8 13 17 26 26 37c17 19 36 37 57 52s42 30 64 44c23 14 46 28 69 41s48 26 73 38c48 25 97 47 145 68
c50 21 100 40 151 58c24 9 48 17 72 24c24 8 48 16 72 23c50 15 101 29 154 42s110 24 172 31c1 0 5 0 9 2c6 0 11 1 17 2h16s7 -1 7 -3zM770 756c6 7 12 13 17 19s11 12 17 19c-9 -3 -19 -7 -30 -10c-10 -4 -20 -8 -29 -13c-50 -19 -99 -38 -149 -59
c-48 -21 -98 -43 -147 -66c-24 -12 -48 -24 -72 -38c-24 -12 -48 -26 -71 -40c-23 -13 -45 -27 -67 -42s-43 -31 -62 -50c-8 -7 -16 -15 -23 -23c-8 -8 -14 -18 -17 -29c-1 -5 -1 -9 2 -12s6 -6 11 -8c4 -3 8 -5 14 -6c4 -2 9 -4 12 -5c27 -7 56 -13 84 -17
c30 -3 60 -5 91 -5c3 0 6 0 7 1c1 0 3 2 6 5c9 13 20 25 30 37c12 11 24 24 37 37c17 19 35 39 51 57c18 20 35 38 53 57c16 18 33 36 49 53c18 18 36 35 55 51c3 3 7 7 11 9c4 4 8 6 13 7c5 2 7 1 6 -3c-1 -5 -2 -8 -3 -11c-13 -19 -30 -41 -48 -66
c-20 -25 -40 -51 -60 -79c-22 -26 -42 -53 -64 -80c-20 -26 -40 -49 -58 -69c11 1 20 2 26 3c4 5 8 9 11 14c3 4 6 8 9 11c7 9 14 18 20 27c8 8 15 17 22 26c13 17 26 34 40 50c12 17 26 34 39 51c27 34 55 67 82 100s56 65 85 97z" />
    <glyph glyph-name="divide" unicode="&#xf7;" horiz-adv-x="528" 
d="M544 317c1 -3 -1 -5 -6 -7c-5 -1 -8 -3 -9 -4c-23 -7 -41 -13 -53 -16s-23 -6 -32 -9c-21 -5 -43 -10 -64 -13c-21 -4 -43 -7 -64 -9c-5 -1 -14 -1 -25 -2s-23 -1 -35 -1c-12 1 -23 2 -32 4c-10 2 -16 6 -19 11c-2 5 1 9 10 13c9 3 19 6 31 10c13 2 25 5 36 7s18 3 21 4
c44 7 88 12 132 15c10 1 21 2 33 2c13 1 31 1 56 1c2 -1 6 -1 12 -1c5 -1 8 -2 8 -5zM361 182c2 -5 2 -11 1 -16c-2 -5 -5 -10 -8 -16c-4 -4 -8 -9 -14 -13c-4 -4 -9 -7 -13 -9s-9 -4 -14 -5s-11 -2 -17 -2c-5 0 -10 1 -15 3c-5 3 -8 7 -10 12c-4 11 -3 21 4 30
c7 10 14 18 23 23c4 2 9 4 16 5c6 2 12 3 18 3c7 0 13 -1 18 -3s9 -6 11 -12zM485 440c2 -5 2 -11 1 -16c-2 -5 -5 -10 -8 -16c-4 -4 -8 -9 -14 -13c-4 -4 -9 -7 -13 -9s-9 -4 -14 -5s-11 -2 -17 -2c-5 0 -10 1 -15 3c-5 3 -8 7 -10 12c-4 11 -3 21 4 30c7 10 14 18 23 23
c4 2 9 4 16 5c6 2 12 3 18 3c7 0 13 -1 18 -3s9 -6 11 -12z" />
    <glyph glyph-name="trademark" unicode="&#x2122;" horiz-adv-x="743" 
d="M205 574l-18 -21s-12 -13 -17 -20l-42 -48c-6 -6 -12 -12 -18 -19c-5 -7 -12 -12 -19 -17c-5 -3 -7 -2 -4 5c5 13 12 24 21 36c8 10 16 22 23 34c25 35 50 70 76 104c26 35 53 68 82 100c-13 -3 -26 -5 -39 -8c-12 -2 -25 -4 -38 -6c-11 -1 -21 -3 -32 -4
c-10 -1 -20 -2 -31 -3c-5 -1 -12 -1 -21 -1c-9 -1 -17 -1 -25 0s-15 2 -21 3c-5 1 -8 3 -7 6s4 5 11 8c6 3 13 5 21 8s16 5 25 7c8 1 14 2 18 3c29 7 59 12 88 15s59 8 89 13c3 2 8 6 13 11c6 6 11 8 16 7c3 -1 3 -4 2 -9c-2 -4 -3 -7 -4 -8c9 1 18 2 28 3c8 1 18 1 27 2
c1 0 3 0 7 1h14h12c3 0 5 0 5 -1c-1 -1 -3 -3 -7 -6c9 1 16 -1 22 -7c6 -5 8 -12 7 -21c-3 -19 -9 -38 -17 -57c-9 -18 -18 -35 -27 -52c19 20 39 40 59 58c21 20 42 38 64 55c7 6 15 12 24 19s18 11 27 14c7 1 13 0 18 -3s9 -8 10 -15c0 -11 -2 -22 -7 -33s-9 -22 -14 -32
c-8 -19 -17 -37 -28 -55c-10 -17 -21 -34 -32 -51c-6 -9 -12 -17 -18 -25c-6 -9 -13 -17 -20 -24c-1 -1 -2 -4 -5 -7s-6 -7 -9 -10s-7 -6 -10 -9c-3 -2 -5 -2 -6 -1c-1 2 -1 5 0 9s2 7 3 8c5 12 11 24 17 36l19 38c9 18 19 36 27 54c10 19 18 37 26 56
c-35 -24 -70 -49 -104 -74c-34 -26 -66 -54 -97 -85c-1 -1 -2 -1 -3 -3l-6 -2c-1 -2 -2 -2 -4 -2c0 0 -1 1 -1 3c1 7 3 15 7 21c2 8 6 14 9 21c7 17 15 35 22 53c7 17 14 35 21 53l-9 -9c-3 -2 -5 -4 -8 -7c-32 -29 -63 -59 -93 -88c-31 -29 -62 -58 -94 -86l-9 -9
c-3 -2 -6 -4 -9 -7c-3 -2 -5 -4 -8 -7c-3 -2 -6 -4 -9 -5c-2 -1 -3 -1 -1 2c0 3 1 4 2 5c11 20 25 39 41 57s32 36 47 55c15 17 29 33 44 49l45 48l23 23c8 8 16 16 25 23c5 4 11 8 16 13c5 4 11 8 17 11c-4 -2 -8 -4 -12 -5c-5 -1 -10 -3 -15 -4c-9 -3 -19 -5 -29 -8
s-23 -6 -39 -10c-21 -28 -43 -56 -67 -84c-22 -29 -45 -56 -67 -82z" />
    <glyph glyph-name="asciitilde" unicode="~" horiz-adv-x="471" 
d="M411 349c1 -1 1 -3 0 -5c-1 -3 -3 -5 -5 -8s-4 -5 -6 -7l-4 -4c-15 -15 -32 -25 -52 -31s-40 -11 -60 -14c-28 -5 -56 -8 -82 -9c-28 -1 -55 -4 -82 -8c-12 -2 -24 -5 -35 -8s-23 -8 -34 -15c-5 -1 -9 -2 -14 -4c-5 0 -7 2 -7 9c-1 5 -1 11 2 16s6 10 9 14
c9 11 19 19 31 25s25 11 38 14s27 6 40 6c14 2 27 2 39 2c20 1 40 1 60 0s40 -1 60 0c17 1 31 3 44 6s23 6 32 9c10 3 19 7 26 12z" />
    <glyph glyph-name="circumflex" unicode="&#x2c6;" horiz-adv-x="276" 
d="M321 418v-4v-6c0 -3 0 -5 -1 -6c-1 -2 -1 -3 -2 -3c-3 1 -6 4 -9 7c-3 4 -5 7 -8 9c-13 17 -23 29 -29 35c-6 7 -13 11 -20 12c-25 -6 -51 -12 -78 -18c-26 -7 -52 -13 -78 -18c-15 -3 -30 -5 -44 -8l-42 -8c-2 0 -7 0 -14 -2c-7 0 -15 -2 -23 -3s-15 -2 -22 -3
s-10 0 -11 1c0 1 5 3 14 7c10 3 22 8 36 12c13 6 27 11 41 16s25 10 34 13c25 9 50 17 75 24s51 14 77 20l15 3l16 2c14 1 25 -1 34 -6c9 -6 16 -14 21 -22c5 -10 9 -19 12 -29s5 -18 6 -25z" />
    <glyph glyph-name="quoteleft" unicode="&#x2018;" horiz-adv-x="180" 
d="M401 646c9 19 20 37 33 56c12 18 25 36 38 53c14 19 30 39 46 57c18 20 35 37 53 52c1 1 4 3 10 8s12 9 19 12c6 4 11 6 15 6c4 1 5 -3 3 -11c-3 -10 -7 -20 -14 -29c-7 -10 -13 -19 -20 -27c-25 -32 -51 -61 -78 -87c-27 -25 -52 -52 -75 -80c-6 -6 -13 -14 -22 -24
c-9 -9 -15 -14 -20 -15c-1 0 -1 1 -1 3c2 3 3 6 4 9s3 7 5 10s3 6 4 7z" />
    <glyph glyph-name="endash" unicode="&#x2013;" horiz-adv-x="528" 
d="M492 323c1 -3 -1 -5 -6 -7c-5 -1 -8 -3 -9 -4c-45 -15 -89 -26 -132 -34c-43 -9 -86 -15 -130 -19c-5 -1 -14 -1 -25 -2s-23 -1 -35 -1c-12 1 -23 2 -33 4c-9 2 -15 6 -18 11c-2 5 1 9 10 13c9 3 19 6 32 10c12 2 24 5 35 7s18 3 21 4c11 2 24 4 40 6c17 2 34 4 50 6
c18 2 34 4 50 5c16 2 30 3 41 4c10 1 21 2 33 2c13 1 31 1 56 1c2 -1 6 -1 12 -1c5 -1 8 -2 8 -5z" />
    <glyph glyph-name="emdash" unicode="&#x2014;" horiz-adv-x="650" 
d="M593 335c1 -3 -1 -5 -6 -7c-5 -1 -8 -3 -9 -4c-61 -19 -122 -34 -182 -43s-120 -17 -181 -22c-5 -1 -14 -1 -25 -2s-23 -1 -35 -1c-12 1 -23 2 -33 4c-9 2 -15 6 -18 11c-2 5 1 9 10 13c9 3 19 6 32 10c12 2 24 5 35 7s18 3 21 4c7 1 18 3 33 5s31 4 50 6s38 4 58 7
s39 5 58 7s35 4 50 5l33 3c10 1 21 2 34 2c12 1 30 1 55 1c2 -1 6 -1 11 -1c6 -1 9 -2 9 -5z" />
    <glyph glyph-name="tilde" unicode="&#x2dc;" horiz-adv-x="271" 
d="M344 529c-5 -11 -13 -21 -22 -29c-10 -9 -21 -16 -33 -22s-25 -11 -37 -15c-14 -4 -26 -7 -37 -10c-27 -7 -54 -13 -79 -17c-26 -3 -52 -8 -78 -14c-4 -1 -10 -3 -17 -4s-15 -3 -25 -6c-8 -2 -17 -4 -26 -7s-16 -6 -22 -10c10 25 26 44 47 57c21 12 45 20 71 26
c27 4 54 7 82 8c27 1 53 2 76 5c15 3 29 7 42 11s23 8 32 12c10 5 19 10 26 15z" />
    <glyph glyph-name="bar" unicode="|" horiz-adv-x="439" 
d="M201 917c3 -13 5 -27 5 -41c0 -15 0 -29 1 -42l3 -96c0 -33 0 -65 -1 -98c-1 -68 -3 -136 -5 -203s-5 -135 -9 -203c-3 -48 -7 -95 -9 -141c-4 -46 -8 -92 -15 -137c0 -1 0 -5 -1 -11s-2 -12 -2 -19c-2 -6 -3 -12 -4 -16c-2 -6 -4 -8 -6 -8c-3 1 -5 6 -6 17
c-2 11 -3 23 -4 36s-1 26 -2 38v22c-1 26 -1 52 -2 79c0 26 0 52 1 78c0 57 1 113 2 168s3 111 6 168c3 66 7 132 12 197c3 31 5 61 9 92c2 31 7 61 12 91c1 5 2 11 3 16c1 6 2 11 5 16c1 3 3 3 4 2c1 -2 2 -4 3 -5z" />
    <glyph glyph-name="dieresis" unicode="&#xa8;" horiz-adv-x="257" 
d="M101 476c2 -5 3 -10 1 -14c0 -6 -3 -10 -6 -15s-7 -9 -11 -13c-4 -3 -8 -6 -12 -8c-7 -4 -16 -7 -27 -8c-12 -2 -20 2 -25 11c-4 9 -3 19 2 27c5 10 12 17 19 22c4 2 9 4 14 6s11 3 17 4s11 0 17 -2c4 -2 8 -5 11 -10zM225 491c4 -9 2 -19 -5 -29c-7 -9 -14 -16 -21 -20
s-17 -7 -27 -8c-12 -1 -19 2 -24 11c-4 9 -3 17 2 26s12 16 19 21c3 2 8 4 13 6s11 3 16 4s10 0 16 -2c4 -1 8 -4 11 -9z" />
    <glyph glyph-name="grave" unicode="`" horiz-adv-x="271" 
d="M268 454c10 -8 16 -15 18 -20c1 -5 0 -9 -3 -12s-8 -4 -15 -4c-7 -1 -13 0 -19 2c-12 2 -25 5 -39 10c-14 4 -28 9 -44 14c-14 5 -29 11 -44 16c-15 6 -28 11 -41 16s-26 10 -39 14c-13 6 -26 10 -38 14c-11 5 -21 9 -29 12s-13 6 -15 8c2 -1 10 -3 24 -5
c15 -2 32 -5 52 -8c21 -3 43 -7 68 -11c24 -5 47 -9 69 -14s42 -10 59 -16c17 -5 29 -11 36 -16z" />
    <glyph glyph-name="acute" unicode="&#xb4;" horiz-adv-x="275" 
d="M-26 438c5 6 18 13 37 20s42 15 68 22c26 8 54 16 83 24s56 15 82 22c24 6 46 11 63 16c17 4 27 7 29 8c-1 -1 -5 -4 -14 -8c-8 -5 -18 -10 -30 -15c-13 -5 -26 -11 -42 -18c-14 -7 -29 -13 -42 -19s-28 -12 -44 -20c-15 -6 -31 -13 -48 -20s-33 -13 -48 -19
c-16 -6 -31 -11 -44 -15c-7 -3 -16 -4 -24 -6c-10 0 -17 0 -24 1s-11 4 -12 9c-1 4 2 10 10 18z" />
    <glyph glyph-name="a" unicode="a" horiz-adv-x="330" 
d="M422 200c0 -1 -1 -2 -3 -5c-8 -8 -17 -16 -26 -23l-28 -22c-31 -22 -64 -48 -99 -77c-11 -8 -22 -17 -30 -25c-10 -10 -19 -19 -30 -28c-3 -2 -7 -5 -12 -10c-6 -4 -10 -7 -11 -8c-5 -5 -12 -7 -21 -6c-9 2 -15 6 -20 12c-5 7 -7 14 -6 22c2 8 5 16 8 23
c7 17 15 32 24 47c8 15 17 30 27 45c-10 -9 -20 -17 -29 -26s-19 -17 -28 -24c-15 -13 -29 -26 -44 -38s-30 -24 -46 -36c-4 -3 -9 -7 -14 -11c-6 -4 -12 -7 -18 -10c-5 -2 -11 -3 -17 -3s-12 2 -17 6c-7 5 -11 13 -12 22c0 9 1 18 4 25c7 23 18 46 32 70c16 22 31 44 47 62
c16 20 31 35 44 48s22 21 26 24c12 11 26 23 43 35c16 12 33 23 52 33c19 9 38 17 58 23c19 6 38 9 56 9c9 0 20 -1 31 -4s20 -8 25 -15c1 -1 2 -2 3 -5c1 -2 1 -3 -1 -2c-18 5 -35 5 -52 2s-33 -9 -49 -17s-31 -18 -46 -29c-15 -12 -29 -23 -43 -34
c-12 -10 -25 -22 -39 -36s-28 -30 -41 -46c-13 -18 -26 -36 -38 -54c-13 -20 -24 -39 -33 -59c27 17 55 37 85 59c29 23 58 44 86 65c13 11 28 23 44 33c15 12 30 23 45 35c4 3 9 7 15 13c7 4 13 9 20 14c6 4 12 8 16 12c6 3 9 5 11 5c5 1 10 0 13 -3c3 -4 4 -8 3 -13
c0 -1 -1 -4 -4 -7s-6 -7 -9 -11s-6 -8 -10 -11c-2 -3 -4 -6 -5 -7c-11 -12 -23 -26 -35 -42c-14 -16 -26 -31 -38 -47c-13 -14 -24 -28 -32 -39c-10 -11 -15 -19 -18 -22c6 4 14 9 24 16c11 7 19 12 25 17c19 13 38 25 57 36c19 12 39 23 60 34c1 1 5 3 10 6s9 3 10 2z" />
    <glyph glyph-name="Igrave" unicode="&#xcc;" horiz-adv-x="715" 
d="M1370 866c0 1 -1 2 -4 2c-3 1 -6 1 -8 1c-4 0 -6 0 -10 -1h-5c-39 -5 -76 -11 -113 -17s-73 -12 -109 -18s-72 -12 -109 -17c-36 -5 -73 -10 -111 -14c1 2 2 5 4 10s3 9 4 13s0 7 -1 9c-1 3 -5 3 -10 0c-9 -4 -18 -10 -26 -18c-9 -7 -17 -15 -24 -22c-1 0 -10 -1 -28 -4
c-17 -2 -40 -5 -69 -10c-29 -4 -61 -9 -97 -14c-37 -6 -74 -12 -112 -18c-38 -7 -75 -13 -111 -20c-36 -6 -68 -12 -96 -18c-6 -1 -14 -3 -23 -5c-10 -2 -20 -5 -30 -7c-10 -4 -19 -7 -28 -10c-8 -3 -14 -7 -17 -12c-3 -4 -3 -7 2 -8c5 -2 9 -3 13 -4c45 -3 89 -3 134 0
c44 3 88 8 132 14c44 7 88 14 132 22c44 9 88 17 132 24c-59 -67 -115 -134 -170 -202c-55 -69 -109 -138 -163 -209c-27 -35 -53 -71 -79 -105c-27 -36 -53 -71 -78 -107c-13 -17 -25 -35 -36 -51c-12 -18 -24 -35 -35 -52c-5 -7 -9 -15 -14 -22c-5 -8 -9 -16 -12 -23
c-1 -3 -3 -6 -3 -10c-2 -4 1 -5 6 -3c16 12 30 24 40 36c12 13 23 25 34 37c45 50 89 100 130 151c41 50 83 100 125 150c27 33 55 67 84 104c29 36 59 72 87 109c30 37 58 73 86 109c27 36 53 70 77 103c89 17 174 35 255 51c82 18 159 39 231 64c1 0 2 0 5 2c2 0 4 2 8 2
c2 2 5 3 7 4s3 3 3 4zM639 -46h-15c-5 -1 -12 -2 -20 -2c-9 -2 -20 -3 -32 -5c-14 -2 -30 -4 -50 -7c-55 -9 -109 -16 -163 -23l-162 -21s-108 -16 -161 -24c-54 -10 -108 -20 -161 -33c-10 -3 -20 -5 -29 -8c-10 -3 -20 -6 -29 -10l-6 -3c-3 -1 -5 -3 -8 -5s-5 -4 -5 -6
c-2 -2 -1 -4 2 -5c5 -3 12 -4 22 -6c10 0 20 -1 31 -2h31c10 1 18 1 24 2c54 4 108 10 164 18c54 9 109 18 164 30c54 10 108 22 162 35c53 13 106 26 157 39c2 1 8 2 18 5s21 6 32 9c11 4 21 8 31 12c8 3 13 6 12 8c0 1 -1 2 -4 2h-5zM798 989c-10 8 -16 15 -18 20
c-1 5 0 9 3 12s8 4 15 5c7 0 13 -1 19 -3c12 -2 25 -5 39 -9c14 -5 28 -10 44 -15c14 -5 29 -11 44 -17c15 -5 28 -10 41 -15l39 -15s26 -9 38 -14c11 -4 21 -8 29 -11s13 -6 15 -8c-2 1 -10 2 -24 5c-15 2 -32 5 -52 8c-21 3 -43 7 -68 12c-24 4 -47 8 -69 13
s-42 10 -59 15s-29 11 -36 17z" />
    <glyph glyph-name="Iacute" unicode="&#xcd;" horiz-adv-x="715" 
d="M1169 1032c-3 -6 -15 -14 -33 -24c-20 -9 -42 -19 -69 -29s-55 -20 -85 -30s-58 -19 -83 -27c-25 -7 -46 -13 -63 -17c-16 -4 -24 -5 -23 -3c16 11 37 23 63 36c26 14 53 28 82 42s57 27 86 40c28 13 53 23 74 32c7 3 14 5 22 7s15 3 21 1c6 0 10 -3 12 -8
c2 -4 1 -11 -4 -20zM1370 866c0 -1 -1 -3 -3 -4s-5 -2 -7 -4c-4 0 -6 -2 -8 -2c-3 -2 -4 -2 -5 -2c-72 -25 -149 -46 -231 -64c-81 -16 -166 -34 -255 -51c-24 -33 -50 -67 -77 -103c-28 -36 -56 -72 -86 -109c-28 -37 -58 -73 -87 -109c-29 -37 -57 -71 -84 -104
c-42 -50 -84 -100 -125 -150c-41 -51 -85 -101 -130 -151c-11 -12 -22 -24 -34 -37c-10 -12 -24 -24 -40 -36c-5 -2 -8 -1 -6 3c0 4 2 7 3 10c3 7 7 15 12 23c5 7 9 15 14 22c11 17 23 34 35 52c11 16 23 34 36 51c25 36 51 71 78 107c26 34 52 70 79 105
c54 71 108 140 163 209c55 68 111 135 170 202c-44 -7 -88 -15 -132 -24c-44 -8 -88 -15 -132 -22c-44 -6 -88 -11 -132 -14c-45 -3 -89 -3 -134 0c-4 1 -8 2 -13 4c-5 1 -5 4 -2 8c3 5 9 9 17 12c9 3 18 6 28 10c10 2 20 5 30 7c9 2 17 4 23 5c28 6 60 12 96 18
c36 7 73 13 111 20c38 6 75 12 112 18c36 5 68 10 97 14c29 5 52 8 69 10c18 3 27 4 28 4c7 7 15 15 24 22c8 8 17 14 26 18c5 3 9 3 10 0c1 -2 2 -5 1 -9s-2 -8 -4 -13s-3 -8 -4 -10c38 4 75 9 111 14c37 5 73 11 109 17s72 12 109 18s74 12 113 17h5c4 1 6 1 10 1
c2 0 5 0 8 -1c3 0 4 -1 4 -2zM639 -46h5c3 0 4 -1 4 -2c1 -2 -4 -5 -12 -8c-10 -4 -20 -8 -31 -12c-11 -3 -22 -6 -32 -9s-16 -4 -18 -5c-51 -13 -104 -26 -157 -39c-54 -13 -108 -25 -162 -35c-55 -12 -110 -21 -164 -30c-56 -8 -110 -14 -164 -18c-6 -1 -14 -1 -24 -2h-31
c-11 1 -21 2 -31 2c-10 2 -17 3 -22 6c-3 1 -4 3 -2 5c0 2 2 4 5 6s5 4 8 5l6 3c9 4 19 7 29 10c9 3 19 5 29 8c53 13 107 23 161 33c53 8 107 17 161 24l162 21s108 14 163 23c20 3 36 5 50 7c12 2 23 3 32 5c8 0 15 1 20 2h15z" />
    <glyph glyph-name="Icircumflex" unicode="&#xce;" horiz-adv-x="715" 
d="M1370 866c0 -1 -1 -3 -3 -4s-5 -2 -7 -4c-4 0 -6 -2 -8 -2c-3 -2 -4 -2 -5 -2c-72 -25 -149 -46 -231 -64c-81 -16 -166 -34 -255 -51c-24 -33 -50 -67 -77 -103c-28 -36 -56 -72 -86 -109c-28 -37 -58 -73 -87 -109c-29 -37 -57 -71 -84 -104
c-42 -50 -84 -100 -125 -150c-41 -51 -85 -101 -130 -151c-11 -12 -22 -24 -34 -37c-10 -12 -24 -24 -40 -36c-5 -2 -8 -1 -6 3c0 4 2 7 3 10c3 7 7 15 12 23c5 7 9 15 14 22c11 17 23 34 35 52c11 16 23 34 36 51c25 36 51 71 78 107c26 34 52 70 79 105
c54 71 108 140 163 209c55 68 111 135 170 202c-44 -7 -88 -15 -132 -24c-44 -8 -88 -15 -132 -22c-44 -6 -88 -11 -132 -14c-45 -3 -89 -3 -134 0c-4 1 -8 2 -13 4c-5 1 -5 4 -2 8c3 5 9 9 17 12c9 3 18 6 28 10c10 2 20 5 30 7c9 2 17 4 23 5c28 6 60 12 96 18
c36 7 73 13 111 20c38 6 75 12 112 18c36 5 68 10 97 14c29 5 52 8 69 10c18 3 27 4 28 4c7 7 15 15 24 22c8 8 17 14 26 18c5 3 9 3 10 0c1 -2 2 -5 1 -9s-2 -8 -4 -13s-3 -8 -4 -10c38 4 75 9 111 14c37 5 73 11 109 17s72 12 109 18s74 12 113 17h5c4 1 6 1 10 1
c2 0 5 0 8 -1c3 0 4 -1 4 -2zM639 -46h5c3 0 4 -1 4 -2c1 -2 -4 -5 -12 -8c-10 -4 -20 -8 -31 -12c-11 -3 -22 -6 -32 -9s-16 -4 -18 -5c-51 -13 -104 -26 -157 -39c-54 -13 -108 -25 -162 -35c-55 -12 -110 -21 -164 -30c-56 -8 -110 -14 -164 -18c-6 -1 -14 -1 -24 -2h-31
c-11 1 -21 2 -31 2c-10 2 -17 3 -22 6c-3 1 -4 3 -2 5c0 2 2 4 5 6s5 4 8 5l6 3c9 4 19 7 29 10c9 3 19 5 29 8c53 13 107 23 161 33c53 8 107 17 161 24l162 21s108 14 163 23c20 3 36 5 50 7c12 2 23 3 32 5c8 0 15 1 20 2h15zM1120 934v-4v-6c0 -3 0 -5 -1 -6
c-1 -2 -1 -3 -2 -3c-3 1 -6 4 -9 7c-3 4 -5 7 -8 9c-13 17 -23 29 -29 35c-6 7 -13 11 -20 12c-50 -11 -101 -22 -153 -35c-53 -13 -106 -21 -159 -24c20 7 43 16 69 27c26 10 53 20 80 30c28 9 56 18 83 26c27 7 53 12 76 14c14 1 25 -1 34 -6c9 -6 16 -14 21 -22
c5 -10 9 -19 12 -29s5 -18 6 -25z" />
    <glyph glyph-name="Idieresis" unicode="&#xcf;" horiz-adv-x="715" 
d="M1370 866c0 -1 -1 -3 -3 -4s-5 -2 -7 -4c-4 0 -6 -2 -8 -2c-3 -2 -4 -2 -5 -2c-72 -25 -149 -46 -231 -64c-81 -16 -166 -34 -255 -51c-24 -33 -50 -67 -77 -103c-28 -36 -56 -72 -86 -109c-28 -37 -58 -73 -87 -109c-29 -37 -57 -71 -84 -104
c-42 -50 -84 -100 -125 -150c-41 -51 -85 -101 -130 -151c-11 -12 -22 -24 -34 -37c-10 -12 -24 -24 -40 -36c-5 -2 -8 -1 -6 3c0 4 2 7 3 10c3 7 7 15 12 23c5 7 9 15 14 22c11 17 23 34 35 52c11 16 23 34 36 51c25 36 51 71 78 107c26 34 52 70 79 105
c54 71 108 140 163 209c55 68 111 135 170 202c-44 -7 -88 -15 -132 -24c-44 -8 -88 -15 -132 -22c-44 -6 -88 -11 -132 -14c-45 -3 -89 -3 -134 0c-4 1 -8 2 -13 4c-5 1 -5 4 -2 8c3 5 9 9 17 12c9 3 18 6 28 10c10 2 20 5 30 7c9 2 17 4 23 5c28 6 60 12 96 18
c36 7 73 13 111 20c38 6 75 12 112 18c36 5 68 10 97 14c29 5 52 8 69 10c18 3 27 4 28 4c7 7 15 15 24 22c8 8 17 14 26 18c5 3 9 3 10 0c1 -2 2 -5 1 -9s-2 -8 -4 -13s-3 -8 -4 -10c38 4 75 9 111 14c37 5 73 11 109 17s72 12 109 18s74 12 113 17h5c4 1 6 1 10 1
c2 0 5 0 8 -1c3 0 4 -1 4 -2zM639 -46h5c3 0 4 -1 4 -2c1 -2 -4 -5 -12 -8c-10 -4 -20 -8 -31 -12c-11 -3 -22 -6 -32 -9s-16 -4 -18 -5c-51 -13 -104 -26 -157 -39c-54 -13 -108 -25 -162 -35c-55 -12 -110 -21 -164 -30c-56 -8 -110 -14 -164 -18c-6 -1 -14 -1 -24 -2h-31
c-11 1 -21 2 -31 2c-10 2 -17 3 -22 6c-3 1 -4 3 -2 5c0 2 2 4 5 6s5 4 8 5l6 3c9 4 19 7 29 10c9 3 19 5 29 8c53 13 107 23 161 33c53 8 107 17 161 24l162 21s108 14 163 23c20 3 36 5 50 7c12 2 23 3 32 5c8 0 15 1 20 2h15zM959 960c2 -5 3 -10 1 -14
c0 -6 -3 -10 -6 -15s-7 -9 -11 -13c-4 -3 -8 -6 -12 -8c-7 -4 -16 -7 -27 -8c-12 -2 -20 2 -25 11c-4 9 -3 19 2 27c5 10 12 17 19 22c4 2 9 4 14 6s11 3 17 4s11 0 17 -2c4 -2 8 -5 11 -10zM1083 975c4 -9 2 -19 -5 -29c-7 -9 -14 -16 -21 -20s-17 -7 -27 -8
c-12 -1 -19 2 -24 11c-4 9 -3 17 2 26s12 16 19 21c3 2 8 4 13 6s11 3 16 4s10 0 16 -2c4 -1 8 -4 11 -9z" />
    <glyph glyph-name="Ntilde" unicode="&#xd1;" horiz-adv-x="729" 
d="M1407 1013c3 -1 4 -1 4 -3c0 0 -1 -2 -2 -2c-1 -2 -3 -2 -5 -4c-2 0 -3 -1 -4 -2c-3 -1 -7 -3 -10 -6c-3 -2 -7 -4 -10 -7l-21 -15c-7 -6 -14 -12 -21 -17c-14 -14 -28 -28 -43 -41c-15 -14 -29 -28 -42 -43c-59 -59 -115 -120 -170 -183s-110 -125 -167 -187
c-54 -63 -108 -126 -163 -188s-110 -124 -167 -187c-25 -29 -51 -57 -77 -85s-53 -55 -81 -81c-5 -5 -10 -10 -14 -15c-6 -5 -11 -9 -16 -12c-1 -1 -2 -2 -3 -2s-2 0 -3 -1s-2 0 -3 1c-3 3 -5 7 -5 10c-2 3 -3 7 -4 10c-4 18 -6 37 -6 56s1 38 2 57c3 39 8 78 17 116
s18 76 28 114c22 80 48 158 78 233l-3 -3l-4 -4c-57 -62 -114 -124 -168 -186c-56 -62 -110 -125 -164 -189c-53 -64 -104 -128 -154 -192c-51 -64 -101 -129 -151 -195c-11 -16 -23 -32 -35 -48c-13 -15 -25 -31 -38 -47c-3 -3 -6 -7 -8 -11l-9 -9c-5 -7 -10 -12 -15 -15
c-3 -1 -4 -1 -4 1c1 2 1 4 1 5c1 3 3 7 5 10c1 3 3 7 4 10c8 17 17 34 28 52c10 16 20 34 31 51c9 17 19 34 30 51s22 34 33 50c46 69 93 136 142 202c49 65 99 130 151 195c53 65 107 129 163 191c55 64 113 125 172 186c8 7 15 15 22 22c7 8 14 16 21 23c7 5 13 11 20 18
s14 11 22 12s15 0 23 -3c6 -4 11 -10 13 -17c3 -9 3 -19 -1 -28s-8 -18 -12 -26c-17 -38 -34 -76 -51 -115c-17 -38 -32 -77 -47 -117c-15 -38 -30 -76 -42 -114c-14 -38 -26 -76 -37 -115c-11 -38 -20 -76 -28 -112c-8 -38 -13 -75 -14 -113c1 5 3 10 7 15c2 5 6 9 9 12
c19 33 41 65 64 96s47 62 70 93c24 32 49 64 75 96c25 32 51 64 78 96c54 64 109 127 165 190s114 124 175 185c30 29 60 58 90 86s61 56 94 84c15 11 30 23 44 36c16 12 32 23 49 34c7 5 15 9 23 14c7 5 15 8 22 11c4 3 8 5 12 7c4 1 9 3 14 5c6 3 13 4 21 4zM1075 857
c-14 -23 -33 -41 -56 -53c-23 -11 -48 -20 -74 -25s-52 -9 -78 -11s-49 -5 -68 -9c-8 -1 -17 -3 -27 -5c-9 -3 -19 -6 -28 -9s-18 -7 -26 -11c-8 -3 -14 -7 -19 -11c10 25 26 44 47 57c21 12 45 20 72 26c26 4 53 7 80 8c28 1 54 2 77 5c15 3 29 7 42 11s23 8 32 12
c10 5 19 10 26 15z" />
    <glyph glyph-name="Ydieresis" unicode="&#x178;" horiz-adv-x="807" 
d="M1214 957c2 -1 2 -4 0 -9c-2 -4 -3 -7 -4 -8c-27 -59 -59 -117 -95 -173s-72 -114 -109 -174c-47 -76 -95 -150 -144 -223c-50 -73 -103 -144 -159 -213c-57 -70 -116 -137 -178 -201c-62 -63 -129 -122 -202 -175c-69 -51 -142 -94 -219 -131c-78 -37 -160 -59 -246 -68
c-25 -3 -50 -4 -76 -4c-24 1 -50 3 -75 8c-1 0 -2 0 -5 1c-2 1 -4 1 -6 3c-3 0 -5 1 -6 2c-2 1 -2 2 -1 3s5 3 9 3c6 2 11 2 16 3c6 1 12 1 17 2s9 1 12 1c41 5 82 12 121 20c40 10 79 21 118 36c81 31 157 72 228 122s137 105 200 165c66 63 128 128 186 197
c57 68 113 138 167 211c51 68 100 136 147 205c48 69 96 137 144 206c-19 -20 -39 -40 -58 -58c-20 -20 -40 -39 -60 -58c-65 -61 -132 -121 -199 -178c-67 -58 -136 -115 -206 -171c-52 -41 -105 -83 -159 -125c-55 -41 -112 -77 -172 -107c-7 -4 -15 -8 -24 -11
c-8 -3 -16 -6 -24 -6c-9 -2 -17 -1 -24 2c-8 2 -15 7 -21 15c-5 9 -8 19 -8 28s2 19 5 28c4 13 9 26 15 39c6 12 13 24 20 35c15 26 32 51 49 76c18 25 36 49 53 74c25 36 51 71 77 105c26 35 52 70 77 105c15 21 30 41 45 63c15 20 30 42 45 63s28 43 41 66s24 46 34 69
c3 9 6 18 8 26c1 10 1 18 -2 27c-1 2 -2 4 -2 7c-2 2 -2 4 -2 5c0 2 1 3 3 2s4 -1 5 -2c6 -3 10 -8 13 -15c3 -6 5 -13 5 -20c2 -7 2 -15 0 -22c0 -7 -1 -14 -2 -19c-8 -39 -22 -78 -42 -115c-21 -38 -41 -74 -62 -107c-35 -58 -72 -114 -110 -169s-76 -110 -114 -166
c-13 -19 -26 -37 -38 -56s-23 -38 -34 -57c25 14 50 29 75 45s49 32 73 49c99 67 195 136 288 208c94 72 187 146 278 222c48 40 96 81 142 122c48 41 91 86 132 134l14 16c5 5 10 11 15 16l5 5c3 2 5 2 6 1zM877 962c2 -5 3 -10 1 -14c0 -6 -3 -10 -6 -15s-7 -9 -11 -13
c-4 -3 -8 -6 -12 -8c-7 -4 -16 -7 -27 -8c-12 -2 -20 2 -25 11c-4 9 -3 19 2 27c5 10 12 17 19 22c4 2 9 4 14 6s11 3 17 4s11 0 17 -2c4 -2 8 -5 11 -10zM1001 977c4 -9 2 -19 -5 -29c-7 -9 -14 -16 -21 -20s-17 -7 -27 -8c-12 -1 -19 2 -24 11c-4 9 -3 17 2 26
s12 16 19 21c3 2 8 4 13 6s11 3 16 4s10 0 16 -2c4 -1 8 -4 11 -9z" />
    <glyph glyph-name="Yacute" unicode="&#xdd;" horiz-adv-x="807" 
d="M1214 957c2 -1 2 -4 0 -9c-2 -4 -3 -7 -4 -8c-27 -59 -59 -117 -95 -173s-72 -114 -109 -174c-47 -76 -95 -150 -144 -223c-50 -73 -103 -144 -159 -213c-57 -70 -116 -137 -178 -201c-62 -63 -129 -122 -202 -175c-69 -51 -142 -94 -219 -131c-78 -37 -160 -59 -246 -68
c-25 -3 -50 -4 -76 -4c-24 1 -50 3 -75 8c-1 0 -2 0 -5 1c-2 1 -4 1 -6 3c-3 0 -5 1 -6 2c-2 1 -2 2 -1 3s5 3 9 3c6 2 11 2 16 3c6 1 12 1 17 2s9 1 12 1c41 5 82 12 121 20c40 10 79 21 118 36c81 31 157 72 228 122s137 105 200 165c66 63 128 128 186 197
c57 68 113 138 167 211c51 68 100 136 147 205c48 69 96 137 144 206c-19 -20 -39 -40 -58 -58c-20 -20 -40 -39 -60 -58c-65 -61 -132 -121 -199 -178c-67 -58 -136 -115 -206 -171c-52 -41 -105 -83 -159 -125c-55 -41 -112 -77 -172 -107c-7 -4 -15 -8 -24 -11
c-8 -3 -16 -6 -24 -6c-9 -2 -17 -1 -24 2c-8 2 -15 7 -21 15c-5 9 -8 19 -8 28s2 19 5 28c4 13 9 26 15 39c6 12 13 24 20 35c15 26 32 51 49 76c18 25 36 49 53 74c25 36 51 71 77 105c26 35 52 70 77 105c15 21 30 41 45 63c15 20 30 42 45 63s28 43 41 66s24 46 34 69
c3 9 6 18 8 26c1 10 1 18 -2 27c-1 2 -2 4 -2 7c-2 2 -2 4 -2 5c0 2 1 3 3 2s4 -1 5 -2c6 -3 10 -8 13 -15c3 -6 5 -13 5 -20c2 -7 2 -15 0 -22c0 -7 -1 -14 -2 -19c-8 -39 -22 -78 -42 -115c-21 -38 -41 -74 -62 -107c-35 -58 -72 -114 -110 -169s-76 -110 -114 -166
c-13 -19 -26 -37 -38 -56s-23 -38 -34 -57c25 14 50 29 75 45s49 32 73 49c99 67 195 136 288 208c94 72 187 146 278 222c48 40 96 81 142 122c48 41 91 86 132 134l14 16c5 5 10 11 15 16l5 5c3 2 5 2 6 1zM1134 1021c-3 -7 -14 -15 -34 -24c-18 -9 -41 -19 -68 -29
s-55 -20 -85 -30s-58 -19 -83 -26c-25 -8 -46 -14 -62 -18c-17 -4 -25 -5 -24 -3c16 11 37 23 63 37c26 13 53 27 82 41s57 27 85 40c29 13 54 23 75 32c7 3 14 5 22 7s15 2 21 2c6 -2 10 -4 12 -8c2 -5 1 -12 -4 -21z" />
    <glyph glyph-name="Ograve" unicode="&#xd2;" horiz-adv-x="835" 
d="M890 999c-10 8 -16 15 -18 20c-1 5 0 9 3 12s8 4 15 5c7 0 13 -1 19 -3c12 -2 25 -5 39 -9c14 -5 28 -10 44 -15c14 -5 29 -11 44 -17c15 -5 28 -10 41 -15l39 -15s26 -9 38 -14c11 -4 21 -8 29 -11s13 -6 15 -8c-2 1 -10 2 -24 5c-15 2 -32 5 -52 8c-21 3 -43 7 -68 12
c-24 4 -47 8 -69 13s-42 10 -59 15c-17 6 -29 12 -36 17zM1069 723c-2 22 -7 43 -15 63c-9 20 -21 37 -36 52s-33 26 -52 33s-39 12 -58 15c-40 6 -80 6 -121 -2c-41 -6 -80 -18 -118 -33c-38 -16 -74 -35 -109 -57c-34 -23 -66 -49 -96 -78c-20 -19 -40 -40 -59 -63
s-36 -47 -49 -72c0 -1 -1 -3 -2 -6c-2 -3 -2 -5 1 -4c2 1 4 2 7 3c2 2 4 4 6 5c29 27 58 52 86 77c29 25 60 48 93 69c34 21 69 40 105 57c35 17 72 31 110 42c19 7 39 13 60 18c20 5 40 8 61 9s41 -1 61 -7c20 -4 38 -14 55 -29c13 -12 22 -26 27 -41c5 -16 8 -32 8 -50
c-1 -16 -3 -34 -8 -51c-4 -17 -9 -33 -15 -48c-23 -59 -52 -117 -89 -175c-36 -56 -76 -111 -120 -163c-43 -52 -88 -101 -134 -147c-47 -45 -91 -86 -134 -122c-29 -26 -60 -50 -90 -72c-32 -23 -65 -42 -100 -57c-20 -9 -41 -15 -64 -20c-22 -5 -44 -3 -65 4
c-22 7 -37 19 -46 36s-13 37 -13 58c-1 21 2 43 8 65c5 22 11 42 18 59c17 44 36 86 58 125s46 77 71 113c23 37 49 72 75 105c28 34 56 66 86 96c27 29 56 55 86 80s61 47 94 66c7 4 14 8 20 11c7 3 14 7 21 11c1 1 3 3 7 6c5 2 6 4 3 5s-6 2 -10 1c-4 0 -8 0 -11 -1
c-18 -3 -36 -9 -54 -16c-17 -7 -34 -15 -50 -22c-34 -19 -66 -40 -96 -64c-31 -24 -60 -50 -88 -79c-32 -29 -62 -61 -90 -96s-54 -71 -78 -109c-23 -38 -44 -78 -63 -119c-19 -42 -33 -85 -44 -129c-5 -20 -8 -41 -11 -62c-2 -21 -2 -42 0 -63s7 -40 14 -58
c8 -19 20 -35 36 -49c19 -15 40 -24 64 -27c22 -4 46 -4 69 0c37 6 74 17 111 33c36 16 71 35 106 57c34 22 67 46 98 72c31 27 61 53 88 79c32 30 63 61 92 93c30 32 58 66 85 102c23 31 47 65 72 103s47 78 67 119c19 41 35 83 46 126s16 84 13 123z" />
    <glyph glyph-name="Oacute" unicode="&#xd3;" horiz-adv-x="835" 
d="M1190 1088c-3 -7 -14 -15 -34 -24c-18 -9 -41 -19 -68 -29s-55 -20 -85 -30s-58 -19 -83 -27c-25 -7 -46 -13 -62 -17c-17 -4 -25 -5 -24 -3c16 11 37 23 63 36c26 14 53 28 82 42s57 27 85 40c29 13 54 23 75 32c7 3 14 5 22 7s15 3 21 1c6 0 10 -3 12 -8
c2 -4 1 -11 -4 -20zM1069 723c3 -39 -2 -80 -13 -123s-27 -85 -46 -126c-20 -41 -42 -81 -67 -119s-49 -72 -72 -103c-27 -36 -55 -70 -85 -102c-29 -32 -60 -63 -92 -93c-27 -26 -57 -52 -88 -79c-31 -26 -64 -50 -98 -72c-35 -22 -70 -41 -106 -57
c-37 -16 -74 -27 -111 -33c-23 -4 -47 -4 -69 0c-24 3 -45 12 -64 27c-16 14 -28 30 -36 49c-7 18 -12 37 -14 58s-2 42 0 63c3 21 6 42 11 62c11 44 25 87 44 129c19 41 40 81 63 119c24 38 50 74 78 109s58 67 90 96c28 29 57 55 88 79c30 24 62 45 96 64
c16 7 33 15 50 22c18 7 36 13 54 16c3 1 7 1 11 1c4 1 7 0 10 -1s2 -3 -3 -5c-4 -3 -6 -5 -7 -6c-7 -4 -14 -8 -21 -11c-6 -3 -13 -7 -20 -11c-33 -19 -64 -41 -94 -66s-59 -51 -86 -80c-30 -30 -58 -62 -86 -96c-26 -33 -52 -68 -75 -105c-25 -36 -49 -74 -71 -113
s-41 -81 -58 -125c-7 -17 -13 -37 -18 -59c-6 -22 -9 -44 -8 -65c0 -21 4 -41 13 -58s24 -29 46 -36c21 -7 43 -9 65 -4c23 5 44 11 64 20c35 15 68 34 100 57c30 22 61 46 90 72c43 36 87 77 134 122c46 46 91 95 134 147c44 52 84 107 120 163c37 58 66 116 89 175
c6 15 11 31 15 48c5 17 7 35 8 51c0 18 -3 34 -8 50c-5 15 -14 29 -27 41c-17 15 -35 25 -55 29c-20 6 -40 8 -61 7s-41 -4 -61 -9c-21 -5 -41 -11 -60 -18c-38 -11 -75 -25 -110 -42c-36 -17 -71 -36 -105 -57c-33 -21 -64 -44 -93 -69c-28 -25 -57 -50 -86 -77
c-2 -1 -4 -3 -6 -5c-3 -1 -5 -2 -7 -3c-3 -1 -3 1 -1 4c1 3 2 5 2 6c13 25 30 49 49 72s39 44 59 63c30 29 62 55 96 78c35 22 71 41 109 57c38 15 77 27 118 33c41 8 81 8 121 2c19 -3 39 -8 58 -15s37 -18 52 -33s27 -32 36 -52c8 -20 13 -41 15 -63z" />
    </font>
</defs>
</svg>
