<?xml version="1.0" standalone="no"?>
<!DOCTYPE svg PUBLIC "-//W3C//DTD SVG 20010904//EN"
 "http://www.w3.org/TR/2001/REC-SVG-20010904/DTD/svg10.dtd">
<svg version="1.0" xmlns="http://www.w3.org/2000/svg"
 width="815.000000pt" height="815.000000pt" viewBox="0 0 815.000000 815.000000"
 preserveAspectRatio="xMidYMid meet">
<metadata>
Created by potrace 1.14, written by Peter Selinger 2001-2017
</metadata>
<g transform="translate(0.000000,815.000000) scale(0.100000,-0.100000)"
fill="#000000" stroke="none">
<path d="M5758 8089 c-313 -46 -569 -245 -664 -517 -17 -47 -25 -56 -82 -89
-132 -77 -249 -209 -317 -356 -32 -69 -39 -78 -92 -107 -33 -18 -97 -72 -148
-124 -73 -74 -99 -108 -135 -181 -32 -65 -56 -98 -83 -118 -36 -26 -39 -27
-105 -16 -112 17 -504 23 -622 10 -482 -57 -918 -333 -1150 -731 -21 -36 -58
-81 -81 -100 -122 -96 -259 -252 -328 -374 -17 -29 -49 -66 -71 -81 -68 -47
-233 -227 -295 -321 -32 -49 -106 -139 -164 -199 -205 -213 -323 -442 -366
-707 -17 -109 -20 -352 -4 -464 38 -271 150 -512 323 -690 l71 -73 -34 -38
c-18 -21 -46 -61 -62 -89 -16 -28 -92 -119 -168 -204 -79 -86 -153 -178 -170
-210 -102 -190 -75 -413 68 -572 58 -65 227 -191 348 -260 272 -155 566 -240
936 -269 158 -13 395 -6 522 15 44 8 81 13 82 12 1 -1 -2 -31 -7 -66 -13 -86
-12 -537 0 -625 23 -158 127 -302 271 -374 118 -59 166 -64 588 -58 316 4 382
7 485 26 422 76 788 308 994 630 26 41 97 127 158 192 62 64 141 162 177 216
47 71 86 116 139 160 116 97 254 265 317 384 13 25 39 56 57 68 52 36 193 180
250 256 130 173 225 373 279 589 62 247 60 168 60 2071 l0 1740 -23 65 c-24
66 -71 145 -113 190 l-24 25 47 69 c103 150 144 303 135 510 -8 196 -53 329
-162 474 -175 232 -515 358 -837 311z m308 -424 c83 -24 165 -84 211 -153 51
-76 68 -142 67 -252 -2 -160 -71 -275 -204 -343 -92 -46 -169 -61 -276 -54
-231 16 -383 155 -401 369 -24 277 174 469 467 453 47 -2 108 -11 136 -20z
m-612 -674 c44 -64 123 -130 193 -163 59 -28 183 -57 247 -58 l29 0 -6 -58
c-3 -35 -16 -82 -33 -115 l-27 -57 -160 0 c-151 0 -163 -1 -201 -24 -41 -24
-86 -87 -86 -121 0 -46 -180 25 -255 100 -107 107 -141 283 -85 442 39 111
129 196 246 232 l59 19 25 -78 c14 -42 38 -96 54 -119z m-438 -452 c57 -113
181 -203 325 -237 l69 -16 0 -118 0 -118 -140 0 c-96 0 -151 -4 -173 -14 -37
-15 -97 -79 -97 -103 0 -23 -75 -11 -148 24 -168 79 -253 267 -211 465 31 143
120 241 263 289 l50 17 17 -68 c10 -37 30 -92 45 -121z m1254 -94 c16 -8 34
-24 40 -34 14 -27 14 -3326 -1 -3459 -53 -493 -319 -856 -732 -998 -165 -58
-234 -66 -615 -71 -374 -6 -397 -3 -427 41 -12 17 -15 70 -15 289 l0 269 29
29 c29 29 30 29 148 29 285 1 464 59 598 194 81 81 134 174 168 293 l22 78 5
1646 c5 1629 5 1647 25 1669 11 12 29 26 40 31 11 4 170 8 353 8 278 1 338 -1
362 -14z m-1726 -171 c3 -9 6 -26 6 -39 0 -13 10 -52 23 -87 l23 -63 -98 49
-98 50 22 24 c26 28 97 82 108 82 5 0 11 -7 14 -16z m-611 -94 c327 -23 521
-89 744 -257 125 -94 147 -137 101 -199 -33 -43 -330 -388 -343 -396 -25 -18
-74 -7 -113 25 -188 158 -450 211 -727 150 -100 -22 -148 -46 -207 -100 -137
-128 -111 -261 71 -352 111 -56 266 -98 456 -126 488 -71 778 -249 901 -555
82 -203 104 -497 53 -699 -80 -315 -357 -556 -752 -656 -300 -76 -719 -57
-1046 46 -171 55 -381 171 -506 281 -53 47 -60 87 -22 134 55 71 352 390 368
396 27 11 71 -6 124 -47 156 -119 430 -199 675 -198 356 2 582 192 476 401
-62 122 -183 170 -546 217 -531 67 -799 212 -946 510 -98 202 -120 494 -52
715 129 418 561 707 1073 718 39 1 137 -3 218 -8z m1474 -1622 c-3 -1300 -4
-1408 -21 -1478 -27 -117 -79 -215 -150 -285 -54 -53 -150 -117 -158 -105 -2
3 -1 731 2 1618 l5 1614 24 19 c20 17 40 19 162 19 l140 0 -4 -1402z m-456
1276 l39 -7 0 -118 0 -119 -106 0 -106 0 37 41 c55 61 79 121 70 177 -6 39 -5
44 10 38 9 -3 34 -9 56 -12z m39 -1701 c0 -758 -3 -1401 -6 -1430 -8 -64 -7
-63 -186 -70 l-138 -6 0 280 0 279 41 39 c61 60 154 187 188 257 57 120 82
230 88 379 14 347 -71 611 -262 818 l-56 59 3 355 c4 443 -10 415 206 416
l122 1 0 -1377z m-1005 1292 c87 -18 213 -80 285 -140 30 -25 61 -45 67 -45 7
0 13 -4 13 -8 0 -4 -49 -64 -109 -133 l-109 -126 -94 18 c-51 10 -136 24 -188
33 -192 31 -395 106 -440 163 -35 44 -27 86 28 142 75 77 182 107 382 110 52
0 127 -6 165 -14z m-1456 -61 c-7 -35 -9 -123 -6 -219 3 -129 9 -179 30 -256
66 -250 216 -437 446 -558 177 -92 334 -134 652 -175 310 -40 420 -82 461
-173 38 -87 3 -150 -115 -208 -127 -62 -266 -78 -452 -50 -192 29 -355 89
-459 170 -62 47 -104 65 -156 65 -53 0 -76 -12 -125 -65 l-40 -44 -68 30
c-257 114 -412 288 -478 534 -30 111 -38 368 -15 478 35 173 119 328 247 461
43 44 81 78 84 75 3 -3 0 -32 -6 -65z m2051 -415 c0 -83 -3 -149 -7 -147 -5 2
-56 27 -115 57 l-108 53 0 70 c0 60 3 72 25 93 22 23 32 25 115 25 l90 0 0
-151z m-2454 -1 c-36 -133 -33 -386 8 -542 68 -263 225 -456 468 -574 53 -26
96 -50 95 -54 -1 -3 -54 -63 -117 -132 -63 -70 -122 -141 -130 -159 -20 -43
-70 -97 -89 -97 -30 0 -215 99 -284 151 -222 168 -339 493 -297 819 28 214
103 370 258 532 77 81 99 94 88 56z m-426 -528 c-15 -78 -12 -305 5 -401 52
-297 212 -511 482 -647 112 -55 113 -56 95 -76 -10 -12 -66 -73 -123 -136 -58
-63 -112 -125 -121 -138 l-16 -23 -63 26 c-151 64 -311 199 -387 327 -76 128
-112 286 -112 488 0 165 26 287 90 414 35 71 148 231 157 222 2 -1 -1 -27 -7
-56z m958 -1254 c230 -153 512 -246 837 -276 294 -27 550 2 795 89 46 16 86
29 87 27 10 -9 -90 -140 -152 -200 -157 -153 -384 -258 -665 -308 -111 -19
-466 -17 -605 5 -301 47 -537 143 -753 307 -92 70 -113 101 -96 145 5 13 83
106 173 205 l164 180 58 -55 c33 -29 103 -83 157 -119z m1922 -290 l0 -244
-45 -22 c-34 -17 -53 -35 -75 -74 l-30 -51 0 -172 0 -173 -40 0 -40 0 0 331 0
330 44 63 c25 34 61 95 80 136 31 66 76 120 99 120 4 0 7 -110 7 -244z m-2459
-112 c254 -200 526 -309 889 -355 125 -16 434 -16 535 0 110 17 267 57 338 87
33 13 63 22 65 19 9 -9 -53 -90 -123 -161 -142 -145 -354 -251 -603 -304 -126
-27 -413 -38 -573 -21 -313 32 -580 124 -794 271 -126 87 -165 127 -165 164 0
40 10 53 194 254 l139 153 17 -29 c10 -15 46 -51 81 -78z m-416 -460 c193
-159 444 -274 719 -329 418 -83 843 -48 1138 95 53 26 57 26 47 8 -6 -12 -48
-59 -92 -105 -161 -168 -361 -269 -642 -325 -93 -19 -143 -23 -320 -22 -284 0
-460 27 -682 105 -160 57 -356 171 -460 267 -70 64 -65 77 84 242 119 132 129
140 143 123 8 -10 38 -37 65 -59z m2727 -317 c6 -76 26 -117 75 -154 l36 -28
401 0 c354 0 411 2 486 19 73 16 199 55 264 81 31 13 -57 -109 -138 -191 -152
-154 -358 -256 -600 -299 -115 -20 -791 -22 -817 -2 -36 27 -39 52 -39 307 0
264 5 294 47 319 10 6 77 11 149 11 l131 0 5 -63z m-418 -473 c8 -98 35 -149
96 -181 l45 -24 385 4 c423 4 481 11 661 77 l79 29 -17 -31 c-28 -49 -191
-211 -258 -255 -127 -85 -258 -139 -425 -175 -82 -17 -144 -21 -448 -25 -374
-6 -397 -3 -427 41 -12 17 -15 70 -15 289 l0 269 29 29 29 29 130 0 129 0 7
-76z m-414 -411 c0 -105 12 -151 47 -194 49 -58 58 -59 450 -59 446 0 552 14
762 104 l83 36 -33 -43 c-59 -76 -160 -167 -252 -227 -98 -65 -199 -108 -347
-148 -93 -25 -103 -26 -490 -30 l-395 -4 -25 27 -25 27 -3 253 c-4 340 -3 343
151 344 l77 1 0 -87z"/>
</g>
</svg>
