<?xml version="1.0" standalone="no"?>
<!DOCTYPE svg PUBLIC "-//W3C//DTD SVG 20010904//EN"
 "http://www.w3.org/TR/2001/REC-SVG-20010904/DTD/svg10.dtd">
<svg version="1.0" xmlns="http://www.w3.org/2000/svg"
 width="815.000000pt" height="815.000000pt" viewBox="0 0 815.000000 815.000000"
 preserveAspectRatio="xMidYMid meet">
<metadata>
Created by potrace 1.14, written by Peter Selinger 2001-2017
</metadata>
<g transform="translate(0.000000,815.000000) scale(0.100000,-0.100000)"
fill="#000000" stroke="none">
<path d="M5649 7995 c-232 -57 -398 -238 -427 -470 l-7 -59 -45 -11 c-101 -26
-224 -105 -286 -185 -50 -63 -91 -155 -106 -233 l-12 -67 -54 -16 c-164 -52
-301 -192 -354 -360 l-23 -76 -68 -35 c-37 -20 -93 -60 -123 -91 l-56 -54 -77
16 c-152 32 -259 40 -496 40 -210 0 -253 -3 -342 -22 -419 -91 -763 -343 -928
-682 -20 -40 -40 -64 -77 -90 -130 -89 -286 -265 -351 -396 -23 -47 -41 -69
-81 -95 -95 -63 -256 -235 -316 -338 -41 -70 -79 -117 -153 -189 -119 -116
-182 -198 -243 -315 -90 -173 -124 -319 -124 -526 1 -344 94 -587 301 -787 83
-79 132 -114 234 -168 39 -20 70 -41 70 -45 0 -5 -69 -84 -153 -176 -85 -93
-164 -190 -178 -218 -14 -27 -94 -124 -180 -219 -86 -93 -162 -186 -171 -206
-20 -47 -20 -127 0 -174 43 -101 331 -295 585 -393 119 -46 286 -88 437 -111
186 -28 569 -26 727 4 437 83 775 304 938 612 27 51 52 84 81 105 97 71 229
236 287 360 21 44 74 93 124 113 4 2 8 -109 8 -246 l0 -249 -49 -6 c-85 -10
-146 -50 -184 -122 -19 -35 -22 -59 -25 -207 l-4 -168 -127 0 c-119 0 -131 -2
-182 -27 -35 -18 -64 -43 -84 -71 -29 -42 -30 -48 -35 -185 l-5 -142 -100 -5
c-107 -6 -141 -18 -187 -67 -56 -58 -58 -75 -58 -413 0 -258 3 -317 16 -348
19 -47 58 -88 109 -115 37 -20 57 -22 312 -25 563 -8 777 26 1050 167 206 107
372 266 496 475 23 39 55 82 72 95 99 80 209 212 279 335 35 61 57 87 112 128
137 102 293 290 364 439 15 31 37 54 69 75 73 45 232 211 293 304 101 154 169
310 209 479 49 205 49 175 49 2120 0 1338 -3 1834 -11 1862 -16 51 -62 105
-112 131 -36 19 -62 23 -190 26 -126 4 -147 6 -143 19 4 8 14 53 23 99 l16 84
41 11 c23 6 76 29 118 51 221 114 329 366 273 633 -45 211 -212 374 -430 420
-86 18 -261 18 -336 0z m282 -99 c133 -24 252 -99 315 -198 82 -129 93 -333
24 -473 -54 -110 -128 -176 -255 -226 -53 -20 -77 -23 -200 -23 -157 0 -210
14 -313 82 -138 91 -213 274 -183 453 47 287 293 442 612 385z m-652 -583 c51
-230 267 -392 525 -393 l59 0 -5 -75 c-4 -60 -12 -90 -42 -150 l-37 -75 -175
0 c-154 0 -179 -2 -213 -20 -43 -21 -77 -68 -88 -122 l-8 -35 -63 13 c-166 34
-290 140 -341 292 -28 83 -29 225 -1 313 45 146 158 252 313 294 28 7 55 14
58 14 3 1 12 -25 18 -56z m-450 -510 c37 -204 198 -360 405 -396 l66 -11 0
-153 0 -153 -155 0 c-167 0 -202 -7 -242 -51 -12 -14 -29 -41 -37 -60 -15 -36
-16 -37 -59 -28 -97 18 -213 81 -268 148 -47 56 -87 149 -100 230 -31 186 59
390 209 478 35 21 138 60 163 62 3 1 11 -29 18 -66z m1386 -237 c19 -8 44 -30
55 -48 20 -33 20 -39 17 -1898 -2 -1755 -3 -1871 -20 -1960 -22 -115 -84 -304
-127 -391 -147 -294 -393 -504 -706 -602 -165 -52 -241 -59 -645 -64 -431 -6
-435 -5 -470 71 -17 37 -19 70 -19 314 0 227 3 280 16 307 26 54 58 63 249 69
283 8 443 63 580 201 85 84 135 175 173 313 l27 97 5 1760 c5 1683 6 1762 23
1789 35 53 50 55 445 56 294 0 369 -3 397 -14z m-2512 -286 c365 -25 589 -109
848 -318 144 -116 142 -128 -95 -403 -101 -118 -194 -223 -206 -234 -15 -13
-36 -20 -64 -20 -35 0 -51 8 -106 52 -78 64 -178 114 -285 145 -68 19 -102 22
-230 22 -275 -2 -424 -59 -502 -191 -72 -123 7 -234 224 -313 96 -34 256 -74
343 -85 287 -36 566 -127 730 -238 176 -120 302 -314 358 -550 23 -101 26
-132 26 -312 1 -227 -8 -280 -74 -421 -148 -320 -443 -521 -895 -611 -127 -25
-531 -25 -690 0 -347 55 -611 167 -856 363 -36 29 -72 66 -79 84 -24 59 -5 88
213 325 l203 220 55 0 c48 0 60 -5 108 -43 156 -124 456 -214 711 -216 371 -1
609 190 501 402 -58 114 -203 170 -541 211 -210 26 -340 51 -469 93 -363 116
-582 332 -663 655 -20 76 -23 114 -22 288 0 235 12 295 94 460 127 257 363
458 660 563 213 75 390 93 703 72z m1595 -1777 l-3 -1538 -23 -80 c-12 -44
-36 -109 -54 -145 -51 -106 -204 -244 -303 -274 -20 -6 -20 -2 -18 1722 1 950
5 1742 9 1761 3 20 19 47 36 63 l30 28 164 0 164 0 -2 -1537z m-448 -487 c0
-903 -4 -1545 -9 -1559 -8 -20 -20 -26 -80 -35 -38 -7 -120 -12 -180 -12
l-111 0 0 326 0 326 61 66 c189 206 264 406 263 702 -2 342 -96 612 -273 785
l-51 49 0 396 c0 378 1 396 20 428 32 52 66 61 223 62 l137 0 0 -1534z m-2624
1469 c-3 -8 -13 -54 -22 -102 -24 -130 -15 -362 20 -498 120 -464 475 -703
1156 -780 326 -37 472 -90 520 -190 43 -89 16 -173 -76 -234 -149 -98 -374
-124 -631 -72 -187 38 -321 95 -455 193 -43 31 -68 42 -105 45 -61 6 -94 -9
-152 -72 l-43 -47 -47 18 c-251 94 -441 272 -530 496 -52 130 -66 222 -66 418
0 206 16 284 91 439 58 122 122 208 235 315 86 82 118 104 105 71z m1522 -21
c97 -20 221 -77 293 -136 69 -56 90 -68 124 -68 21 0 24 -3 16 -17 -8 -16
-211 -255 -250 -295 -15 -16 -22 -16 -86 -2 -38 8 -115 21 -170 29 -308 46
-533 133 -581 227 -26 50 -11 92 54 158 47 46 69 60 127 78 135 43 337 54 473
26z m-1980 -550 c-17 -66 -21 -108 -22 -249 -1 -192 13 -281 68 -427 49 -129
91 -193 201 -303 102 -102 194 -165 315 -214 30 -13 59 -27 64 -32 5 -4 -36
-56 -95 -121 -150 -162 -186 -206 -193 -232 -3 -13 -25 -44 -48 -69 l-43 -46
-75 30 c-289 117 -480 330 -552 616 -20 76 -23 114 -22 288 0 176 2 210 22
280 31 112 110 266 186 361 58 74 203 211 212 201 2 -2 -6 -39 -18 -83z m342
-1688 c0 -37 204 -193 361 -275 186 -98 388 -162 624 -197 171 -26 531 -26
670 0 154 28 298 73 453 143 19 8 -20 -66 -81 -155 -209 -304 -640 -492 -1130
-492 -235 0 -496 38 -695 101 -196 63 -426 191 -556 310 -51 46 -56 55 -56 93
0 31 7 52 28 78 42 56 366 408 375 408 4 0 7 -6 7 -14z m-391 -594 c118 -116
361 -253 568 -321 229 -75 433 -105 718 -104 159 0 224 5 318 21 120 22 308
80 410 126 l57 26 -21 -43 c-144 -283 -448 -479 -874 -564 -127 -25 -531 -25
-690 0 -279 44 -492 121 -700 252 -125 79 -219 157 -235 195 -23 56 0 92 195
305 157 172 181 195 190 179 5 -11 34 -43 64 -72z m2543 -881 c3 -99 16 -127
78 -168 33 -23 35 -23 416 -23 219 0 416 5 460 11 116 16 255 54 347 94 45 20
88 39 95 42 22 9 -19 -63 -86 -153 -69 -93 -184 -204 -272 -264 -86 -58 -227
-124 -335 -155 -170 -49 -240 -55 -652 -55 l-383 0 -32 29 -33 29 -5 298 c-5
321 -3 338 46 371 23 15 56 19 183 23 86 4 159 7 163 8 3 1 8 -38 10 -87z
m-452 -499 c0 -109 24 -165 85 -200 l40 -23 415 4 c437 5 462 7 632 58 40 12
112 38 161 59 48 21 87 35 87 32 0 -2 -26 -43 -57 -91 -140 -210 -362 -373
-619 -454 -165 -52 -241 -59 -645 -64 -431 -6 -435 -5 -470 71 -17 37 -19 70
-19 314 0 375 -7 364 220 373 80 3 151 6 158 7 9 1 12 -21 12 -86z"/>
</g>
</svg>
