<svg id="Layer_1" data-name="Layer 1" xmlns="http://www.w3.org/2000/svg" xmlns:xlink="http://www.w3.org/1999/xlink" viewBox="0 0 979 91"><defs><style>.white{fill:#fff;}.white,.even-odd{fill-rule:evenodd;}.mask{mask:url(#mask);}.even-odd,.purple{fill:#502e91;}</style><mask id="mask" x="639.47" y="0.04" width="76.21" height="90.15" maskUnits="userSpaceOnUse"><g id="mask-2"><polygon id="path-1" class="white" points="639.47 0.04 715.68 0.04 715.68 90.13 639.47 90.13 639.47 0.04"/></g></mask></defs><g id="Page-1"><g id="Group"><g id="Group-3"><g class="mask"><path id="Fill-1" class="even-odd" d="M651.59,58.87S663,71.18,677.48,71.18c8.87,0,16.29-2.53,16.29-7.78,0-5.62-4-6.7-17-9.42-17-3.62-31.86-10.86-31.86-27.15C644.9,13.44,658.29,0,681.83,0a54.78,54.78,0,0,1,32.22,10.5L703.19,26.47s-9.78-7.42-21.36-7.42c-8.15,0-15.57,2.89-15.57,8.14s5.79,6.52,20.27,9.59c17,3.62,29.15,9.23,29.15,27,0,14.66-15.57,26.43-37.48,26.43-25.16,0-38.73-15.57-38.73-15.57l12.12-15.75"/></g></g><path id="Fill-4" class="even-odd" d="M545.74,57.54V2.11h21.67V51.59c0,12.64,6,18,17,18a21.94,21.94,0,0,0,17-7.82V2.11H623v85.8H601.33V75.24a27,27,0,0,1-24.17,14.62c-16.43,0-31.42-11.74-31.42-32.32"/><path id="Fill-5" class="even-odd" d="M524,32.69V87.91H502.27V38.3c0-11.76-4.53-18.1-15.39-18.1-11.41,0-16.83,6.56-16.83,6.56V87.91H448.32V38.3c0-11.76-4.52-18.1-15.39-18.1-11.4,0-16.83,6.56-16.83,6.56V87.91H394.38V2.1h21.77V14.62A26.16,26.16,0,0,1,440-.07c20.64,0,26.61,15,26.61,15s7.24-15,27.34-15C511.32-.07,524,12.05,524,32.69"/><polygon id="Fill-6" class="even-odd" points="347.49 87.91 369.22 87.91 369.22 2.1 347.49 2.1 347.49 87.91"/><polyline id="Fill-7" class="even-odd" points="308.37 55.02 332.21 87.92 306.81 87.92 295.7 72.56 308.37 55.02"/><polyline id="Fill-8" class="even-odd" points="308.36 34.93 332.22 2.1 306.92 2.1 295.78 17.48 308.36 34.93"/><polyline id="Fill-9" class="even-odd" points="270.04 2.1 244.74 2.1 275.78 45.01 244.69 87.92 269.86 87.92 288.48 62.34 301.11 45.01 270.04 2.1"/><path id="Fill-10" class="even-odd" d="M130.69,32.69V87.9H109V38.3c0-11.77-4.53-18.1-15.39-18.1-11.4,0-16.83,6.45-16.83,6.45V87.9H55V38.3c0-11.77-4.52-18.1-15.38-18.1-11.41,0-16.84,6.63-16.84,6.63V87.9H1.08V2.1H22.81V14.59A26.27,26.27,0,0,1,46.7-.07c20.63,0,26.61,15,26.61,15s7.24-15,27.33-15c17.38,0,30.05,12.12,30.05,32.76"/><path id="Fill-11" class="even-odd" d="M207.86,13.9V2.11h21.78V87.92H207.86V76.24s-7.14,13.85-23.19,13.85c-19.95,0-37.47-18.64-37.47-45.07S164.72-.06,184.67-.06c16.54,0,23.19,14,23.19,14l.07,13.47s-5.08-7.16-17.57-7.16c-13.13,0-21,10.68-21,24.81s7.83,24.79,21,24.79c12.49,0,17.57-7.23,17.57-7.23V27.37l-.07-13.47"/></g></g><path class="purple" d="M751,87.38V29.85H770V87.38Z"/><path class="purple" d="M822.3,45.44a15.15,15.15,0,0,0-2.48-.46c-.81-.07-1.6-.11-2.37-.11A13.53,13.53,0,0,0,811,46.25a13,13,0,0,0-4.16,3.34,12.68,12.68,0,0,0-2.25,4.26,14.05,14.05,0,0,0-.7,4V87.38H785V29.91h18.26v8.32h.23A18.74,18.74,0,0,1,809.71,31a16.05,16.05,0,0,1,9.36-2.79c.77,0,1.52,0,2.25.11a9.13,9.13,0,0,1,1.79.35Z"/><path class="purple" d="M887.93,88.54,880,80.41a32.87,32.87,0,0,1-9.84,7q-5.84,2.76-14.55,2.77a42.15,42.15,0,0,1-11.08-1.48,28.28,28.28,0,0,1-9.6-4.59,23.68,23.68,0,0,1-6.72-7.78,22.67,22.67,0,0,1-2.53-11,21.91,21.91,0,0,1,1.42-8A22.31,22.31,0,0,1,831,50.83a27.07,27.07,0,0,1,5.6-4.94,45.42,45.42,0,0,1,6.6-3.66A32.71,32.71,0,0,1,836.91,34a21,21,0,0,1-2.35-9.9,18.74,18.74,0,0,1,2.35-9.66A20.88,20.88,0,0,1,843,7.83a25.38,25.38,0,0,1,8.37-3.77,37.79,37.79,0,0,1,9.25-1.18,35.37,35.37,0,0,1,9.3,1.24A24.79,24.79,0,0,1,878.09,8a19.59,19.59,0,0,1,5.78,6.6A19.71,19.71,0,0,1,886,24.09a19.37,19.37,0,0,1-1.29,7.24,20.75,20.75,0,0,1-3.59,5.9A29.11,29.11,0,0,1,875.79,42a59.42,59.42,0,0,1-6.48,3.89L879.8,56.61l8.37-12.85h21.44l-18,24.16,20.74,20.62Zm-34-35.23a19.1,19.1,0,0,0-6.19,3.95C845.93,59,845,61.36,845,64.5a9.5,9.5,0,0,0,1,4.42,10.55,10.55,0,0,0,2.59,3.3,11.24,11.24,0,0,0,3.59,2.06,12.35,12.35,0,0,0,4.12.71,14.46,14.46,0,0,0,7-1.65,15.88,15.88,0,0,0,5.3-4.71Zm14.85-28.63a7.48,7.48,0,0,0-7.9-7.66,8,8,0,0,0-5.71,2.18,7.24,7.24,0,0,0-2.3,5.48,11,11,0,0,0,1.59,5.65,19.44,19.44,0,0,0,4.65,5.19,21.72,21.72,0,0,0,6.84-4.36A8.7,8.7,0,0,0,868.73,24.68Z"/><path class="purple" d="M959.72,87.38V79.87h-.24a17.84,17.84,0,0,1-7.91,6.76,26.94,26.94,0,0,1-22.47-.17,26.51,26.51,0,0,1-8.61-6.76,29.59,29.59,0,0,1-5.37-9.76,36.11,36.11,0,0,1-1.85-11.56,34.55,34.55,0,0,1,1.91-11.49,29.92,29.92,0,0,1,5.43-9.65,25.28,25.28,0,0,1,19.81-9,22,22,0,0,1,10.75,2.42A23.94,23.94,0,0,1,958,36h.23V0h18.95V87.38ZM959,58.5a15.64,15.64,0,0,0-1-5.43,15.39,15.39,0,0,0-2.77-4.74A14,14,0,0,0,950.94,45a12.76,12.76,0,0,0-5.78-1.27A12.93,12.93,0,0,0,939.27,45a13.26,13.26,0,0,0-6.88,8,17.42,17.42,0,0,0-.87,5.43,17.89,17.89,0,0,0,.87,5.49,14.12,14.12,0,0,0,2.6,4.8A13.26,13.26,0,0,0,939.27,72a12.93,12.93,0,0,0,5.89,1.27A12.76,12.76,0,0,0,950.94,72a14,14,0,0,0,4.33-3.35A15.39,15.39,0,0,0,958,63.93,15.64,15.64,0,0,0,959,58.5Z"/></svg>
