<?xml version="1.0" encoding="utf-8"?>
<!-- Generator: Adobe Illustrator 25.3.1, SVG Export Plug-In . SVG Version: 6.00 Build 0)  -->
<svg version="1.1" xmlns="http://www.w3.org/2000/svg" xmlns:xlink="http://www.w3.org/1999/xlink" x="0px" y="0px"
	 viewBox="0 0 823 684" style="enable-background:new 0 0 823 684;" xml:space="preserve">
<style type="text/css">
	.st0{fill:none;stroke:#43C6EE;stroke-width:2;stroke-miterlimit:10;}
	.st1{fill:#231F20;}
	.st2{fill:#EEE6DC;}
	.st3{fill:#FDF38B;}
	.st4{fill:#74C7CD;}
	.st5{fill:#E292BE;}
	.st6{fill:#181915;}
	.st7{fill:#F2F0EC;}
	.st8{fill:#30332A;}
	.st9{fill:#E292BF;stroke:#31342B;stroke-width:2;stroke-miterlimit:10;}
	.st10{fill:#FDF38B;stroke:#31342B;stroke-width:2;stroke-miterlimit:10;}
	.st11{fill:#74C7CD;stroke:#31342B;stroke-width:2;stroke-miterlimit:10;}
	.st12{fill:#FDF38B;stroke:#31342B;stroke-width:1.5;stroke-miterlimit:10;}
	.st13{fill:#E292BF;stroke:#31342B;stroke-miterlimit:10;}
	.st14{fill:#74C7CD;stroke:#31342B;stroke-width:1.5;stroke-miterlimit:10;}
	.st15{fill:#11311D;}
	.st16{fill:#E54825;}
	.st17{clip-path:url(#SVGID_2_);}
	.st18{fill:none;stroke:#FDF38B;stroke-width:2;stroke-miterlimit:10;}
	.st19{fill:#D1B099;}
	.st20{fill:#C6DCE8;}
	.st21{fill:#C3D8E4;}
	.st22{fill:#292827;}
	.st23{fill:#633E17;}
	.st24{fill:#B7CBD6;}
	.st25{fill:#A8544A;}
	.st26{fill:#74C7CD;stroke:#181915;stroke-width:2;stroke-miterlimit:10;}
	.st27{fill:#E292BE;stroke:#181915;stroke-width:2;stroke-miterlimit:10;}
	.st28{clip-path:url(#SVGID_4_);fill:#F2F0EC;}
	.st29{fill:#FFFFFF;}
	.st30{fill:#555689;}
	.st31{fill-rule:evenodd;clip-rule:evenodd;fill:#FFFFFF;}
	.st32{fill:none;stroke:#E292BE;stroke-width:2;stroke-miterlimit:10;}
	.st33{fill:none;stroke:#000000;stroke-miterlimit:10;}
	.st34{fill:#E292BE;stroke:#181915;stroke-width:4;stroke-miterlimit:10;}
	.st35{fill:#FDF38B;stroke:#181915;stroke-width:4;stroke-miterlimit:10;}
	.st36{clip-path:url(#SVGID_6_);fill:#F2F0EC;}
	.st37{clip-path:url(#SVGID_8_);fill:#F2F0EC;}
	.st38{fill:#15100E;}
	.st39{fill:none;}
	.st40{font-family:'Abside-Round1';}
	.st41{font-size:18px;}
	.st42{letter-spacing:29;}
	.st43{clip-path:url(#SVGID_10_);fill:#F2F0EC;}
	.st44{font-size:38px;}
</style>
<g id="lunchlaunch_1_">
	<g>
		
			<rect x="485.64" y="444.36" transform="matrix(-5.476911e-07 1 -1 -5.476911e-07 1159.9644 85.6729)" class="st6" width="103" height="356.91"/>
		
			<rect x="475.69" y="429.86" transform="matrix(-5.476911e-07 1 -1 -5.476911e-07 1135.5126 81.1199)" class="st27" width="103" height="356.91"/>
	</g>
	<g>
		
			<rect x="148.53" y="332.35" transform="matrix(-5.476911e-07 1 -1 -5.476911e-07 710.8421 310.7692)" class="st6" width="103" height="356.91"/>
		<g>
			<rect x="12.63" y="445.8" class="st3" width="354.91" height="101"/>
			<path class="st6" d="M366.54,446.8l0,99l-352.91,0l0-99H366.54 M368.54,444.8H11.63l0,103l356.91,0L368.54,444.8L368.54,444.8z"
				/>
		</g>
	</g>
	<g id="circle">
		<circle class="st6" cx="197.62" cy="279.2" r="167.02"/>
		<circle class="st26" cx="185.85" cy="257.01" r="167.02"/>
	</g>
	<g>
		<rect x="578.1" y="39.19" class="st6" width="223.01" height="412.74"/>
		<rect x="558.7" y="21.41" class="st27" width="223.01" height="412.74"/>
		<rect x="570.43" y="34.67" class="st39" width="199.54" height="434.63"/>
		<text transform="matrix(1 0 0 1 570.4325 47.8426)"><tspan x="0" y="0" class="st40 st41">In 2014, I had the </tspan><tspan x="0" y="21.6" class="st40 st41">opportunity to attend  </tspan><tspan x="0" y="43.2" class="st40 st41 st42">			</tspan><tspan x="108" y="43.2" class="st40 st41">  Summer </tspan><tspan x="0" y="64.8" class="st40 st41">Academy in San </tspan><tspan x="0" y="86.4" class="st40 st41">Francisco, learn </tspan><tspan x="0" y="108" class="st40 st41">objective-C, design </tspan><tspan x="0" y="129.6" class="st40 st41">and program a mobile </tspan><tspan x="0" y="151.2" class="st40 st41">app from scratch, and </tspan><tspan x="0" y="172.8" class="st40 st41">ship it to the AppStore.</tspan><tspan x="0" y="216" class="st40 st41">Over the course of </tspan><tspan x="0" y="237.6" class="st40 st41">writing this game, I </tspan><tspan x="0" y="259.2" class="st40 st41">started to get a feel </tspan><tspan x="0" y="280.8" class="st40 st41">for retro aesthetics and </tspan><tspan x="0" y="302.4" class="st40 st41">single screen layouts, </tspan><tspan x="0" y="324" class="st40 st41">which I’m now realizing </tspan><tspan x="0" y="345.6" class="st40 st41">I’ve developed rather a </tspan><tspan x="0" y="367.2" class="st40 st41">soft spot for.</tspan></text>
		<text transform="matrix(1 0 0 1 570.8109 91.0668)" class="st40 st41">MakeSchool’s</text>
	</g>
	<g id="triangle_1_">
		<polygon class="st6" points="326.8,675.44 278.5,577.46 228.18,635.9 		"/>
		<g>
			<polygon class="st3" points="227.63,621.57 276.05,565.34 322.53,659.62 			"/>
			<path class="st6" d="M275.82,567.14l44.66,90.58l-91.18-36.56L275.82,567.14 M276.28,563.54l-50.32,58.44l98.62,39.54
				L276.28,563.54L276.28,563.54z"/>
		</g>
	</g>
	<g id="text_1">
		<rect x="125.51" y="203.39" class="st6" width="432.88" height="401.45"/>
		<g>
			<rect x="107.31" y="187.23" class="st7" width="437.41" height="397.45"/>
			<path class="st6" d="M542.72,189.23v393.45H109.31V189.23H542.72 M546.72,185.23H105.31v401.45h441.41V185.23L546.72,185.23z"/>
		</g>
		<polygon class="st39" points="532.17,572.86 121.88,572.86 121.88,308.48 173.42,308.48 173.42,200.38 532.17,200.38 		"/>
		<text transform="matrix(1 0 0 1 173.4178 213.5545)"><tspan x="0" y="0" class="st40 st41">Pitch: It’s lunchtime in the cafeteria, and </tspan><tspan x="0" y="21.6" class="st40 st41">you’ve got to feed all the hungry kids. </tspan><tspan x="0" y="43.2" class="st40 st41">But none of them will come up to get </tspan><tspan x="0" y="64.8" class="st40 st41">their food, so you have to fling the sloppy </tspan><tspan x="0" y="86.4" class="st40 st41">joes at them. Hurry, before they start </tspan><tspan x="-51.54" y="108" class="st40 st41">crying, and careful not to overfeed anyone, </tspan><tspan x="-51.54" y="129.6" class="st40 st41">they’ll explode! Can you survive long enough to </tspan><tspan x="-51.54" y="151.2" class="st40 st41">make it to the lunch rush bonus round? </tspan><tspan x="-51.54" y="194.4" class="st40 st41">My priority here was UX. Did users understand </tspan><tspan x="-51.54" y="216" class="st40 st41">how to play it without a lengthy explanation? </tspan><tspan x="-51.54" y="237.6" class="st40 st41">Was it different from the other games on their </tspan><tspan x="-51.54" y="259.2" class="st40 st41">phone? Did they want to play it again? Ensuring </tspan><tspan x="-51.54" y="280.8" class="st40 st41">a game is fun isn’t exactly a concrete goal, so </tspan><tspan x="-51.54" y="302.4" class="st40 st41">the only way I could determine its level of </tspan><tspan x="-51.54" y="324" class="st40 st41">funness was to make everyone I knew playtest </tspan><tspan x="-51.54" y="345.6" class="st40 st41">it. If you knew me that summer, I’m sorry.</tspan></text>
	</g>
	<g id="Z_1_">
		<polygon class="st6" points="45.05,603.97 70.95,590.79 108.39,607.65 96.42,644.36 135.05,658.4 109.15,670.7 68.32,657.53 
			81.93,618.01 		"/>
		<polygon class="st11" points="38.01,595.38 63.91,582.21 101.34,599.06 89.37,635.77 128.01,649.82 102.11,662.11 61.28,648.94 
			74.89,609.43 		"/>
	</g>
	<g id="zigzag_1_">
		<polygon class="st6" points="514.25,165.86 532.17,155.49 504.06,148.53 511.11,120.47 482.1,114.03 489.18,85.23 461.05,78.76 
			468.68,51.25 450.25,62.1 443.51,89.34 472.12,96.31 465.15,124.91 494.38,130.41 486.9,159.8 		"/>
		<polygon class="st11" points="506.39,157.38 524.32,147 496.2,140.05 503.26,111.98 474.25,105.54 481.32,76.74 453.2,70.28 
			460.83,42.77 442.4,53.62 435.66,80.85 464.27,87.82 457.3,116.43 486.52,121.93 479.04,151.32 		"/>
	</g>
	<g id="logo_1_">
		<rect x="593.15" y="490.59" class="st6" width="141.7" height="141.7"/>
		<g>
			<defs>
				<rect id="SVGID_9_" x="593.15" y="490.59" width="141.7" height="141.7"/>
			</defs>
			<clipPath id="SVGID_2_">
				<use xlink:href="#SVGID_9_"  style="overflow:visible;"/>
			</clipPath>
			<path style="clip-path:url(#SVGID_2_);fill:#F2F0EC;" d="M477.76,560.12L572.18,633h-7.66l-94.42-72.88H477.76z M507.69,560.12
				L602.11,633h7.67l-94.42-72.88H507.69z M526.49,560.12L620.91,633h7.66l-94.42-72.88H526.49z M545.29,560.12L639.71,633h7.66
				l-94.42-72.88H545.29z M564.09,560.12L658.5,633h7.66l-94.42-72.88H564.09z M488.9,560.12L583.31,633h7.67l-94.42-72.88H488.9z
				 M582.74,560.12L677.15,633h7.66l-94.42-72.88H582.74z M620.33,560.12L714.75,633h7.67L628,560.12H620.33z M639.13,560.12
				L733.54,633h7.66l-94.42-72.88H639.13z M657.93,560.12L752.34,633h7.66l-94.42-72.88H657.93z M676.72,560.12L771.14,633h7.66
				l-94.42-72.88H676.72z M601.53,560.12L695.95,633h7.67l-94.42-72.88H601.53z M694.98,560.12L789.38,633h7.66l-94.4-72.88H694.98z
				 M732.55,560.12l94.4,72.88h7.66l-94.4-72.88H732.55z M751.34,560.12l94.4,72.88h7.66L759,560.12H751.34z M770.13,560.12
				L864.53,633h7.66l-94.4-72.88H770.13z M788.91,560.12L883.32,633h7.66l-94.4-72.88H788.91z M713.77,560.12l94.4,72.88h7.66
				l-94.4-72.88H713.77z M807.55,560.12L901.96,633h7.66l-94.4-72.88H807.55z M845.12,560.12l94.4,72.88h7.66l-94.4-72.88H845.12z
				 M863.91,560.12l94.4,72.88h7.66l-94.41-72.88H863.91z M882.7,560.12L977.1,633h7.66l-94.4-72.88H882.7z M901.49,560.12
				L995.89,633h7.66l-94.4-72.88H901.49z M826.34,560.12l94.4,72.88h7.66L834,560.12H826.34z M506.96,487.24l94.41,72.88h7.66
				l-94.4-72.88H506.96z M544.53,487.24l94.4,72.88h7.66l-94.4-72.88H544.53z M563.32,487.24l94.4,72.88h7.66l-94.41-72.88H563.32z
				 M582.1,487.24l94.41,72.88h7.66l-94.4-72.88H582.1z M600.89,487.24l94.41,72.88h7.66l-94.4-72.88H600.89z M525.74,487.24
				l94.4,72.88h7.66l-94.4-72.88H525.74z M619.53,487.24l94.41,72.88h7.66l-94.4-72.88H619.53z M657.1,487.24l94.4,72.88h7.66
				l-94.4-72.88H657.1z M675.89,487.24l94.4,72.88h7.66l-94.41-72.88H675.89z M694.68,487.24l94.41,72.88h7.66l-94.4-72.88H694.68z
				 M713.46,487.24l94.41,72.88h7.66l-94.4-72.88H713.46z M638.32,487.24l94.4,72.88h7.66l-94.4-72.88H638.32z"/>
		</g>
		<g>
			<rect x="577.85" y="476.82" class="st7" width="139.7" height="139.7"/>
			<path class="st6" d="M716.55,477.82v137.7h-137.7v-137.7H716.55 M718.55,475.82h-141.7v141.7h141.7V475.82L718.55,475.82z"/>
		</g>
		
			<image style="overflow:visible;" width="398" height="362" xlink:href="../assets/lunch-launch-logo.png" transform="matrix(0.2802 0 0 0.2802 592.0801 494.9485)">
		</image>
	</g>
	<g id="circles2_2_">
		<g>
			<circle class="st12" cx="418.8" cy="126.36" r="6.59"/>
			<circle class="st12" cx="399.99" cy="126.36" r="6.59"/>
			<circle class="st12" cx="381.19" cy="126.36" r="6.59"/>
			<circle class="st12" cx="362.38" cy="126.36" r="6.59"/>
			<circle class="st12" cx="343.58" cy="126.36" r="6.59"/>
			<circle class="st12" cx="324.77" cy="126.36" r="6.59"/>
			<circle class="st12" cx="305.96" cy="126.36" r="6.59"/>
			<circle class="st12" cx="287.16" cy="126.36" r="6.59"/>
			<circle class="st12" cx="268.35" cy="126.36" r="6.59"/>
			<circle class="st12" cx="249.55" cy="126.36" r="6.59"/>
			<circle class="st12" cx="230.74" cy="126.36" r="6.59"/>
		</g>
		<g>
			<circle class="st12" cx="391.29" cy="156.65" r="6.59"/>
			<circle class="st12" cx="372.48" cy="156.65" r="6.59"/>
			<circle class="st12" cx="353.67" cy="156.65" r="6.59"/>
			<circle class="st12" cx="334.87" cy="156.65" r="6.59"/>
			<circle class="st12" cx="316.06" cy="156.65" r="6.59"/>
			<circle class="st12" cx="297.26" cy="156.65" r="6.59"/>
		</g>
		<g>
			<circle class="st12" cx="458.39" cy="186.94" r="6.59"/>
			<circle class="st12" cx="439.58" cy="186.94" r="6.59"/>
			<circle class="st12" cx="420.78" cy="186.94" r="6.59"/>
			<circle class="st12" cx="401.97" cy="186.94" r="6.59"/>
			<circle class="st12" cx="383.16" cy="186.94" r="6.59"/>
			<circle class="st12" cx="364.36" cy="186.94" r="6.59"/>
		</g>
		<g>
			<circle class="st12" cx="369.99" cy="96.07" r="6.59"/>
			<circle class="st12" cx="351.19" cy="96.07" r="6.59"/>
			<circle class="st12" cx="332.38" cy="96.07" r="6.59"/>
			<circle class="st12" cx="313.58" cy="96.07" r="6.59"/>
			<circle class="st12" cx="294.77" cy="96.07" r="6.59"/>
			<circle class="st12" cx="275.96" cy="96.07" r="6.59"/>
		</g>
	</g>
	
		<image style="overflow:visible;" width="168" height="299" xlink:href="../assets/lunch-launch-mockup.png" transform="matrix(0.7949 0 0 0.7949 25.878 66.1024)">
	</image>
	<g id="circles1_1_">
		<g>
			<circle class="st14" cx="759.89" cy="458.53" r="6.59"/>
			<circle class="st14" cx="759.89" cy="477.34" r="6.59"/>
			<circle class="st14" cx="759.89" cy="496.15" r="6.59"/>
			<circle class="st14" cx="759.89" cy="514.95" r="6.59"/>
			<circle class="st14" cx="759.89" cy="533.76" r="6.59"/>
			<circle class="st14" cx="759.89" cy="552.56" r="6.59"/>
			<circle class="st14" cx="759.89" cy="571.37" r="6.59"/>
			<circle class="st14" cx="759.89" cy="590.18" r="6.59"/>
			<circle class="st14" cx="759.89" cy="608.98" r="6.59"/>
			<circle class="st14" cx="759.89" cy="627.79" r="6.59"/>
			<circle class="st14" cx="759.89" cy="646.59" r="6.59"/>
		</g>
		<g>
			<circle class="st14" cx="780.05" cy="447.8" r="6.59"/>
			<circle class="st14" cx="780.05" cy="466.61" r="6.59"/>
			<circle class="st14" cx="780.05" cy="485.41" r="6.59"/>
			<circle class="st14" cx="780.05" cy="504.22" r="6.59"/>
			<circle class="st14" cx="780.05" cy="523.03" r="6.59"/>
			<circle class="st14" cx="780.05" cy="541.83" r="6.59"/>
			<circle class="st14" cx="780.05" cy="560.64" r="6.59"/>
			<circle class="st14" cx="780.05" cy="579.44" r="6.59"/>
			<circle class="st14" cx="780.05" cy="598.25" r="6.59"/>
			<circle class="st14" cx="780.05" cy="617.06" r="6.59"/>
			<circle class="st14" cx="780.05" cy="635.86" r="6.59"/>
		</g>
	</g>
</g>
</svg>
