<svg xmlns="http://www.w3.org/2000/svg" xmlns:xlink="http://www.w3.org/1999/xlink" viewBox="0 0 823 684">
    <defs>
        <style>
            .no-fill{fill:none;}.black{fill:#181915;}.clip-path{clip-path:url(#clip-path);}.pure-white{fill:#fff;}.pure-white,.even-odd{fill-rule:evenodd;}.even-odd,.purple-maximus{fill:#513091;}
        </style>
        <clipPath id="clip-path">
            <rect class="no-fill" x="46.46" y="135.17" width="273.28" height="68.68"/>
        </clipPath>
    </defs>
    <g id="maximus">
        <g id="ird_rect">
            <g id="maximus_rect">
                <rect class="black" x="46.46" y="135.17" width="273.28" height="68.68"/>
                <g class="clip-path">
                    <path class="pure-white"
                          d="M-111.72,133.9l91.52,70.64h-7.43l-91.52-70.64Zm29,0L8.81,204.54h7.43L-75.28,133.9Zm18.22,0L27,204.54h7.43L-57.06,133.9Zm18.22,0,91.53,70.64h7.42L-38.84,133.9Zm18.23,0,91.52,70.64h7.43L-20.61,133.9Zm-72.89,0,91.52,70.64H-2L-93.5,133.9Zm91,0,91.52,70.64H89L-2.54,133.9Zm36.44,0L118,204.54h7.43L33.9,133.9Zm18.23,0,91.52,70.64h7.43L52.13,133.9Zm18.22,0,91.52,70.64h7.43L70.35,133.9Zm18.22,0,91.52,70.64h7.43L88.57,133.9Zm-72.89,0,91.52,70.64h7.43L15.68,133.9Zm90.58,0,91.51,70.64h7.43L106.26,133.9Zm36.42,0,91.51,70.64h7.43L142.68,133.9Zm18.22,0L245,204.54h7.42L160.89,133.9Zm18.21,0,91.51,70.64h7.42L179.1,133.9Zm18.21,0,91.51,70.64h7.42L197.31,133.9Zm-72.85,0,91.51,70.64H216L124.47,133.9Zm90.91,0,91.51,70.64h7.43L215.38,133.9Zm36.42,0,91.51,70.64h7.43L251.8,133.9Zm18.22,0,91.5,70.64h7.43L270,133.9Zm18.21,0,91.51,70.64h7.42L288.22,133.9Zm18.21,0,91.51,70.64h7.42L306.43,133.9Zm-72.85,0,91.51,70.64h7.43L233.59,133.9ZM-83.42,63.25,8.09,133.9h7.42L-76,63.25Zm36.42,0L44.51,133.9h7.42L-39.58,63.25Zm18.21,0L62.72,133.9h7.42L-21.37,63.25Zm18.21,0L80.93,133.9h7.42L-3.15,63.25Zm18.21,0L99.14,133.9h7.43L15.06,63.25Zm-72.84,0L26.3,133.9h7.42L-57.79,63.25Zm90.91,0,91.51,70.65h7.42L33.12,63.25Zm36.42,0,91.51,70.65h7.42L69.54,63.25Zm18.21,0,91.51,70.65h7.42L87.75,63.25Zm18.21,0,91.51,70.65h7.42L106,63.25Zm18.21,0,91.51,70.65h7.43L124.18,63.25Zm-72.84,0,91.51,70.65h7.42L51.33,63.25Z"/>
                </g>
                <rect class="pure-white" x="25.57" y="118.4" width="277.37" height="70.13"/>
                <path class="black" d="M301.94,119.4v68.14H26.57V119.4H301.94m2-2H24.57v72.14H303.94V117.4Z"/>
            </g>
            <g id="ird_logo">
                <g id="mask">
                    <g id="mask-2">
                        <polygon id="path-1" class="pure-white"
                                 points="203.39 143.12 223.22 143.12 223.22 166.57 203.39 166.57 203.39 143.12"/>
                    </g>
                </g>
                <g id="Page-1">
                    <g id="Group">
                        <g id="Group-3">
                            <path id="Fill-1" class="even-odd"
                                  d="M206.54,158.43s3,3.21,6.74,3.21c2.31,0,4.24-.66,4.24-2s-1-1.74-4.43-2.45c-4.42-.94-8.29-2.83-8.29-7.07,0-3.48,3.48-7,9.61-7a14.28,14.28,0,0,1,8.39,2.73L220,150a10.36,10.36,0,0,0-5.56-1.93c-2.12,0-4,.75-4,2.12s1.51,1.69,5.28,2.49c4.42.95,7.58,2.41,7.58,7,0,3.82-4.05,6.88-9.75,6.88a13.92,13.92,0,0,1-10.08-4.05l3.15-4.1"/>
                        </g>
                        <path id="Fill-4" class="even-odd"
                              d="M179,158.09V143.66h5.64v12.88c0,3.29,1.56,4.68,4.42,4.68a5.72,5.72,0,0,0,4.43-2V143.66h5.62V166h-5.64v-3.3a7,7,0,0,1-6.29,3.81,8,8,0,0,1-8.18-8.41"/>
                        <path id="Fill-5" class="even-odd"
                              d="M173.33,151.62V166h-5.66V153.08c0-3.06-1.17-4.71-4-4.71a5.79,5.79,0,0,0-4.38,1.71V166h-5.66V153.08c0-3.06-1.17-4.71-4-4.71a5.79,5.79,0,0,0-4.38,1.71V166h-5.66V143.66h5.67v3.26a6.81,6.81,0,0,1,6.21-3.83c5.37,0,6.92,3.91,6.92,3.91a7.83,7.83,0,0,1,7.12-3.91c4.52,0,7.82,3.16,7.82,8.53"/>
                        <polygon id="Fill-6" class="even-odd"
                                 points="127.39 165.99 133.04 165.99 133.04 143.66 127.39 143.66 127.39 165.99"/>
                        <polyline id="Fill-7" class="even-odd"
                                  points="117.2 157.43 123.41 166 116.8 166 113.91 162 117.2 157.43"/>
                        <polyline id="Fill-8" class="even-odd"
                                  points="117.2 152.2 123.41 143.66 116.83 143.66 113.93 147.66 117.2 152.2"/>
                        <polyline id="Fill-9" class="even-odd"
                                  points="107.23 143.66 100.64 143.66 108.72 154.83 100.63 166 107.18 166 112.03 159.34 115.31 154.83 107.23 143.66"/>
                        <path id="Fill-10" class="even-odd"
                              d="M71,151.62V166H65.31V153.08c0-3.06-1.18-4.71-4-4.71a5.83,5.83,0,0,0-4.38,1.68V166H51.26V153.08c0-3.06-1.18-4.71-4-4.71a5.78,5.78,0,0,0-4.38,1.72V166H37.22V143.66h5.66v3.25a6.83,6.83,0,0,1,6.22-3.82C54.47,143.09,56,147,56,147a7.83,7.83,0,0,1,7.12-3.91c4.52,0,7.82,3.16,7.82,8.53"/>
                        <path id="Fill-11" class="even-odd"
                              d="M91,146.73v-3.07h5.67V166H91v-3a7.08,7.08,0,0,1-6,3.61c-5.2,0-9.76-4.85-9.76-11.73s4.56-11.74,9.76-11.74a6.86,6.86,0,0,1,6,3.65l0,3.5a5.58,5.58,0,0,0-4.57-1.86c-3.42,0-5.47,2.78-5.47,6.46s2,6.45,5.47,6.45a5.56,5.56,0,0,0,4.57-1.88v-9.18l0-3.5"/>
                    </g>
                </g>
                <path class="purple-maximus" d="M232.42,165.85v-15h4.94v15Z"/>
                <path class="purple-maximus"
                      d="M251,154.94a3.44,3.44,0,0,0-.64-.12l-.62,0a3.32,3.32,0,0,0-3.35,2.34,3.6,3.6,0,0,0-.18,1v7.68h-4.91V150.9H246v2.16h.06a4.82,4.82,0,0,1,1.62-1.88,4.21,4.21,0,0,1,2.43-.73,3.82,3.82,0,0,1,.59,0,3.89,3.89,0,0,1,.47.09Z"/>
                <path class="purple-maximus"
                      d="M268.06,166.16,266,164a8.42,8.42,0,0,1-2.56,1.82,8.8,8.8,0,0,1-3.79.72,11.22,11.22,0,0,1-2.88-.38,7.32,7.32,0,0,1-2.5-1.2,6.29,6.29,0,0,1-1.75-2,6.08,6.08,0,0,1-.66-2.87,5.92,5.92,0,0,1,.37-2.08,5.82,5.82,0,0,1,1-1.69,6.93,6.93,0,0,1,1.46-1.29,12.41,12.41,0,0,1,1.71-1,8.54,8.54,0,0,1-1.63-2.14,5.39,5.39,0,0,1-.61-2.58,4.81,4.81,0,0,1,.61-2.51,5.42,5.42,0,0,1,1.58-1.72,6.5,6.5,0,0,1,2.18-1,9.83,9.83,0,0,1,2.41-.31,9.4,9.4,0,0,1,2.42.32,6.84,6.84,0,0,1,2.13,1,5.18,5.18,0,0,1,1.5,1.72,5.69,5.69,0,0,1,.22,4.35,5.18,5.18,0,0,1-.94,1.54A7.38,7.38,0,0,1,264.9,154a14.5,14.5,0,0,1-1.69,1l2.73,2.8,2.18-3.35h5.58L269,160.79l5.4,5.37ZM259.21,157a4.85,4.85,0,0,0-1.61,1,2.46,2.46,0,0,0-.72,1.89,2.55,2.55,0,0,0,.26,1.15,2.85,2.85,0,0,0,.68.86,3,3,0,0,0,.93.53,3.06,3.06,0,0,0,1.07.19,3.88,3.88,0,0,0,1.83-.43A4.27,4.27,0,0,0,263,161Zm3.86-7.46a1.94,1.94,0,0,0-1.89-2H261a2.11,2.11,0,0,0-1.49.57,1.9,1.9,0,0,0-.6,1.42,2.82,2.82,0,0,0,.42,1.47,4.9,4.9,0,0,0,1.21,1.36,5.88,5.88,0,0,0,1.78-1.14,2.28,2.28,0,0,0,.72-1.69Z"/>
                <path class="purple-maximus"
                      d="M286.74,165.85V163.9h-.06a4.64,4.64,0,0,1-2.06,1.76,6.81,6.81,0,0,1-8.09-1.8,7.85,7.85,0,0,1-1.4-2.55,9.56,9.56,0,0,1-.48-3,9.2,9.2,0,0,1,.5-3,7.93,7.93,0,0,1,1.41-2.52,6.58,6.58,0,0,1,5.16-2.34,5.8,5.8,0,0,1,2.8.63,6.3,6.3,0,0,1,1.78,1.39h.06v-9.37h4.93v22.74Zm-.18-7.51a4.3,4.3,0,0,0-.26-1.42,3.93,3.93,0,0,0-.73-1.23,3.76,3.76,0,0,0-1.11-.87,3.43,3.43,0,0,0-1.51-.33,3.38,3.38,0,0,0-1.53.33,3.44,3.44,0,0,0-1.79,2.09,4.48,4.48,0,0,0-.23,1.41,4.65,4.65,0,0,0,.23,1.43,3.63,3.63,0,0,0,.68,1.25,3.33,3.33,0,0,0,1.11.85,3.38,3.38,0,0,0,1.53.33,3.29,3.29,0,0,0,1.51-.33,3.53,3.53,0,0,0,1.12-.87,4.14,4.14,0,0,0,1-2.64Z"/>
            </g>
        </g>
    </g>
</svg>
