<svg id="Layer_1" data-name="Layer 1" xmlns="http://www.w3.org/2000/svg" viewBox="0 0 640.1 684"><defs><style>.cls-1,.cls-3{fill:#40c6ee;}.cls-2{fill:none;stroke:#40c6ee;}.cls-10,.cls-11,.cls-2,.cls-3,.cls-4,.cls-5,.cls-6,.cls-9{stroke-miterlimit:10;}.cls-10,.cls-2,.cls-9{stroke-width:2px;}.cls-10,.cls-11,.cls-3,.cls-4,.cls-5,.cls-6,.cls-9{stroke:#30332a;}.cls-3,.cls-4,.cls-5,.cls-6{stroke-width:3px;}.cls-4{fill:#fff;}.cls-10,.cls-11,.cls-5{fill:#fdf388;}.cls-6,.cls-7{font-size:170px;font-family:Streamster;}.cls-12,.cls-6,.cls-8{fill:#30332a;}.cls-7,.cls-9{fill:#ed5858;}.cls-12{font-size:19.62px;font-family:Abside-Round1, Abside;}</style></defs><path class="cls-1" d="M487,641.86l5.25-4q8.39-6.31,16.76-12.66l-.55-5.94-27,20.41Z"/><path class="cls-1" d="M475.13,637.27l2.55-1.92,30.18-22.76-.6-6.53L469,634.92Z"/><path class="cls-1" d="M462.75,632.5l7-5.3q13.43-10.14,26.83-20.3l10-7.57-.63-6.75L456.39,630Z"/><path class="cls-1" d="M511.43,651.28l-.5-5.48-4.63,3.5Z"/><path class="cls-1" d="M499.19,646.55l11-8.33-.58-6.25-16.33,12.32Z"/><path class="cls-1" d="M364.2,594.48l21.12-15.94q13.53-10.2,27.06-20.38l25.53-19.26L456.35,525l30-22.71,10.54-8-.56-6.08q-7.29,5.49-14.57,11l-48.28,36.49-11.4,8.61L360,592.86Z"/><path class="cls-1" d="M462.78,603.87q15-11.31,30-22.65,5.72-4.34,11.44-8.64l-.56-6.08-3.07,2.32q-27.23,20.56-54.46,41.1l-14.15,10.69,5.73,2.21Z"/><path class="cls-1" d="M437,574.77q-19.66,14.85-39.35,29.67l-2.59,2,6,2.3,24.16-18.28q18-13.63,36.11-27.24l32.88-24.87q3.18-2.38,6.35-4.78l-.58-6.27c-7.33,5.54-14.7,11-22,16.59Q457.48,559.3,437,574.77Z"/><path class="cls-1" d="M450.08,627.61l.4-.3,19.19-14.48,35.72-27-.6-6.52Q474.37,602.27,444,625.25Z"/><path class="cls-1" d="M469.36,536.59Q454.24,548,439.11,559.45l-30.43,23-25.61,19.34,5.74,2.21,1-.72,34.87-26.33q15.42-11.62,30.81-23.28l28.83-21.75,15.08-11.38-.56-6.12Z"/><path class="cls-1" d="M433.84,549.14q-16.27,12.27-32.52,24.56l-30.77,23.23,6.2,2.39,31.83-24,42-31.67q16.54-12.48,33.09-25,7.26-5.49,14.55-11l-.61-6.61-24.09,18.18Z"/><path class="cls-1" d="M453.9,596.82q16.86-12.74,33.75-25.46L503,559.76l-.61-6.62-12.84,9.7q-23.29,17.6-46.62,35.17L419.4,615.77l6.23,2.41Z"/><path class="cls-1" d="M437.22,595.14q10.68-8.05,21.36-16.15,10.91-8.24,21.84-16.46l21.33-16.12-.57-6.14-37,28q-22.83,17.24-45.67,34.47l-11.18,8.43,5.74,2.21,5.24-4C424.6,604.62,430.92,599.9,437.22,595.14Z"/><line class="cls-2" x1="42.6" y1="94.38" x2="129.83" y2="410.06"/><line class="cls-2" x1="101.17" y1="78.2" x2="188.4" y2="393.88"/><line class="cls-2" x1="159.74" y1="62.01" x2="246.97" y2="377.69"/><line class="cls-2" x1="218.3" y1="45.83" x2="305.53" y2="361.51"/><line class="cls-2" x1="276.87" y1="29.65" x2="364.1" y2="345.33"/><line class="cls-2" x1="335.43" y1="13.46" x2="422.66" y2="329.14"/><line class="cls-2" x1="388.18" y1="42.81" x2="20.87" y2="144.3"/><line class="cls-2" x1="404.36" y1="101.37" x2="37.05" y2="202.87"/><line class="cls-2" x1="420.55" y1="159.94" x2="53.24" y2="261.43"/><line class="cls-2" x1="436.73" y1="218.51" x2="69.42" y2="320"/><line class="cls-2" x1="452.91" y1="277.07" x2="85.6" y2="378.57"/><rect class="cls-3" x="284.26" y="171.49" width="252.88" height="384.7" transform="translate(-26.19 31.91) rotate(-4.31)"/><polygon class="cls-4" points="166.15 103.69 293.46 619.98 592 361.83 166.15 103.69"/><polygon class="cls-5" points="135.85 105.69 263.17 621.98 561.71 363.83 135.85 105.69"/><text class="cls-6" transform="matrix(0.98, -0.19, 0.19, 0.98, 135.22, 367.84)">Sam</text><text class="cls-7" transform="matrix(0.98, -0.19, 0.19, 0.98, 132.69, 361.8)">Sam</text><text class="cls-6" transform="translate(96.14 457.99) rotate(-10.96)">Jimenez</text><text class="cls-7" transform="translate(93.92 452.99) rotate(-10.96)">Jimenez</text><path class="cls-8" d="M558.37,392.16l25.16-5.6-.34-1L557.66,390l-25.51,4.53-51,9.07-51,9.2-50.91,9.36c-17,3.13-34,6.07-51,9.07s-33.91,6.35-50.7,10-33.53,7.5-50.19,11.56-33.25,8.35-49.66,13.17l.34,1c7.06-.76,14.09-1.62,21.11-2.54q-11.08,2.81-22.13,5.74c34.49-4.57,68.64-10.17,102.69-16.08s67.94-12.3,101.74-19,67.46-13.75,101-21.2,67-15.3,100-24.15q-18.91,2.5-37.7,5.38Z"/><path class="cls-1" d="M552.16,389.68l25.15-5.6-.33-1-25.53,4.45L525.94,392l-51,9.07-51,9.2-50.91,9.36c-17,3.13-34,6.07-51,9.08s-33.9,6.34-50.7,10-33.52,7.49-50.18,11.56-33.25,8.34-49.66,13.17l.34,1q10.59-1.15,21.1-2.55-11.07,2.81-22.12,5.74c34.49-4.57,68.64-10.17,102.69-16.07s67.94-12.3,101.73-19,67.47-13.74,101-21.2,67-15.3,100-24.14q-18.91,2.49-37.7,5.38Z"/><circle class="cls-8" cx="179.79" cy="547.61" r="30.62"/><circle class="cls-9" cx="174.3" cy="542.34" r="30.62"/><polygon class="cls-8" points="513.41 63.32 489.71 144.06 543.71 138.79 513.41 63.32"/><polygon class="cls-9" points="504.19 56.73 480.49 137.47 534.49 132.21 504.19 56.73"/><polygon class="cls-8" points="555.78 497.48 593.83 502.17 586.22 525 597.93 527.19 586.8 549 596.57 550.94 550.51 616.9 556.15 563.2 544.07 561.29 553.79 537.96 539.98 535.53 555.78 497.48"/><polygon class="cls-10" points="550.29 493.53 588.34 498.22 580.73 521.04 592.44 523.24 581.32 545.04 591.08 546.99 545.02 612.95 550.66 559.24 538.59 557.34 548.31 534 534.49 531.58 550.29 493.53"/><polygon class="cls-8" points="48.9 176.67 74.8 163.5 112.24 180.35 100.27 217.06 138.9 231.11 113 243.41 72.17 230.24 85.78 190.72 48.9 176.67"/><polygon class="cls-3" points="45.85 170.09 71.76 156.92 109.19 173.77 97.22 210.48 135.85 224.53 109.95 236.82 69.12 223.65 82.73 184.14 45.85 170.09"/><polygon class="cls-8" points="547.31 269.2 564.87 280.18 557.84 252.08 585.94 245.16 578.04 216.52 606.79 209.28 599.33 181.4 627.21 175.25 608.99 164.06 581.77 170.86 589.01 199.4 560.48 206.64 569.32 235.04 539.84 242.2 547.31 269.2"/><polygon class="cls-3" points="541.82 262.09 559.38 273.07 552.36 244.97 580.45 238.06 572.55 209.41 601.31 202.16 593.84 174.29 621.72 168.14 603.5 156.95 576.28 163.75 583.53 192.29 554.99 199.53 563.83 227.93 534.36 235.09 541.82 262.09"/><circle class="cls-11" cx="408.62" cy="580.19" r="6.59"/><circle class="cls-11" cx="389.82" cy="580.65" r="6.59"/><circle class="cls-11" cx="371.02" cy="581.1" r="6.59"/><circle class="cls-11" cx="352.22" cy="581.56" r="6.59"/><circle class="cls-11" cx="333.42" cy="582.01" r="6.59"/><circle class="cls-11" cx="314.62" cy="582.47" r="6.59"/><circle class="cls-11" cx="295.81" cy="582.92" r="6.59"/><circle class="cls-11" cx="277.01" cy="583.37" r="6.59"/><circle class="cls-11" cx="258.21" cy="583.83" r="6.59"/><circle class="cls-11" cx="239.41" cy="584.28" r="6.59"/><circle class="cls-11" cx="220.61" cy="584.74" r="6.59"/><circle class="cls-11" cx="381.84" cy="611.14" r="6.59"/><circle class="cls-11" cx="363.04" cy="611.6" r="6.59"/><circle class="cls-11" cx="344.24" cy="612.05" r="6.59"/><circle class="cls-11" cx="325.44" cy="612.51" r="6.59"/><circle class="cls-11" cx="306.64" cy="612.96" r="6.59"/><circle class="cls-11" cx="287.84" cy="613.41" r="6.59"/><circle class="cls-11" cx="449.66" cy="639.81" r="6.59"/><circle class="cls-11" cx="430.86" cy="640.26" r="6.59"/><circle class="cls-11" cx="412.06" cy="640.71" r="6.59"/><circle class="cls-11" cx="393.26" cy="641.17" r="6.59"/><circle class="cls-11" cx="374.46" cy="641.62" r="6.59"/><circle class="cls-11" cx="355.65" cy="642.08" r="6.59"/><circle class="cls-11" cx="359.09" cy="551.09" r="6.59"/><circle class="cls-11" cx="340.29" cy="551.54" r="6.59"/><circle class="cls-11" cx="321.49" cy="552" r="6.59"/><circle class="cls-11" cx="302.69" cy="552.45" r="6.59"/><circle class="cls-11" cx="283.89" cy="552.91" r="6.59"/><circle class="cls-11" cx="265.09" cy="553.36" r="6.59"/><circle class="cls-11" cx="435.72" cy="112.27" r="6.59"/><circle class="cls-11" cx="416.92" cy="112.73" r="6.59"/><circle class="cls-11" cx="398.12" cy="113.18" r="6.59"/><circle class="cls-11" cx="379.32" cy="113.64" r="6.59"/><circle class="cls-11" cx="360.52" cy="114.09" r="6.59"/><circle class="cls-11" cx="341.72" cy="114.54" r="6.59"/><circle class="cls-11" cx="322.92" cy="115" r="6.59"/><circle class="cls-11" cx="304.12" cy="115.45" r="6.59"/><circle class="cls-11" cx="285.32" cy="115.91" r="6.59"/><circle class="cls-11" cx="266.52" cy="116.36" r="6.59"/><circle class="cls-11" cx="247.72" cy="116.82" r="6.59"/><circle class="cls-11" cx="446.94" cy="132.17" r="6.59"/><circle class="cls-11" cx="428.14" cy="132.62" r="6.59"/><circle class="cls-11" cx="409.34" cy="133.08" r="6.59"/><circle class="cls-11" cx="390.54" cy="133.53" r="6.59"/><circle class="cls-11" cx="371.74" cy="133.99" r="6.59"/><circle class="cls-11" cx="352.94" cy="134.44" r="6.59"/><circle class="cls-11" cx="334.14" cy="134.89" r="6.59"/><circle class="cls-11" cx="315.33" cy="135.35" r="6.59"/><circle class="cls-11" cx="296.53" cy="135.8" r="6.59"/><circle class="cls-11" cx="277.73" cy="136.26" r="6.59"/><circle class="cls-11" cx="258.93" cy="136.71" r="6.59"/><text class="cls-12" transform="translate(251.22 487.74) rotate(-10.96)">ui designer &amp;</text><text class="cls-12" transform="translate(254.96 507.06) rotate(-10.96)">frontend engineer</text></svg>