<svg id="Layer_1" data-name="Layer 1" xmlns="http://www.w3.org/2000/svg" viewBox="0 0 151 151"><defs><style>.cls-1{fill:#181914;}</style></defs><rect class="cls-1" x="5.35" y="45.37" width="15.15" height="15.15" rx="4.49"/><rect class="cls-1" x="59.86" y="62.74" width="15.15" height="15.15" rx="4.49" transform="translate(164.7 64.71) rotate(130.5)"/><rect class="cls-1" x="24.33" y="46.98" width="15.15" height="15.15" rx="4.49" transform="translate(56.31 112.86) rotate(-172.38)"/><rect class="cls-1" x="43.11" y="52.55" width="15.15" height="15.15" rx="4.49" transform="translate(125.53 35.96) rotate(112.24)"/><rect class="cls-1" x="90.56" y="130.81" width="15.15" height="15.15" rx="4.49" transform="translate(-40.25 236.52) rotate(-90)"/><rect class="cls-1" x="73.19" y="76.3" width="15.15" height="15.15" rx="4.49" transform="translate(196.66 95.2) rotate(139.5)"/><rect class="cls-1" x="88.95" y="111.82" width="15.15" height="15.15" rx="4.49" transform="translate(202.08 7.89) rotate(82.38)"/><rect class="cls-1" x="83.39" y="93.04" width="15.15" height="15.15" rx="4.49" transform="translate(213.24 159.33) rotate(157.76)"/></svg>