<svg id="Layer_1" data-name="Layer 1" xmlns="http://www.w3.org/2000/svg" viewBox="0 0 225 225">
    <text class="cls-1" transform="translate(20.52 73.28) rotate(-90)">Contact</text>
    <text class="cls-1" transform="translate(107.55 101) rotate(-49.5)">Maximus</text>
    <text class="cls-1" transform="matrix(0.13, -0.99, 0.99, 0.13, 50.7, 76.06)">About Me</text>
    <text class="cls-1" transform="translate(80.78 83.35) rotate(-67.76)">Home</text>
    <text class="cls-1" transform="translate(150.06 213.99)">LunchLaunch</text>
    <text class="cls-1" transform="translate(128.39 126.94) rotate(-40.5)">DSA</text>
    <text class="cls-1" transform="translate(150.06 182.97) rotate(-7.62)">Accomplish</text>
    <text class="cls-1" transform="translate(143.04 152.38) rotate(-22.24)">Quidditch</text>
    <rect class="cls-2" x="5.37" y="79.91" width="21.09" height="21.09" rx="6.26"/>
    <rect class="cls-2" x="81.25" y="104.09" width="21.09" height="21.09" rx="6.26"
          transform="translate(238.58 119.28) rotate(130.5)"/>
    <rect class="cls-2" x="31.79" y="82.14" width="21.09" height="21.09" rx="6.26"
          transform="translate(72.02 190.18) rotate(-172.38)"/>
    <rect class="cls-2" x="57.94" y="89.9" width="21.09" height="21.09" rx="6.26"
          transform="translate(187.38 75.07) rotate(112.24)"/>
    <rect class="cls-2" x="123.99" y="198.85" width="21.09" height="21.09" rx="6.26"
          transform="translate(-74.86 343.94) rotate(-90)"/>
    <rect class="cls-2" x="99.82" y="122.96" width="21.09" height="21.09" rx="6.26"
          transform="translate(281 163.35) rotate(139.5)"/>
    <rect class="cls-2" x="121.76" y="172.42" width="21.09" height="21.09" rx="6.26"
          transform="translate(296.12 27.58) rotate(82.38)"/>
    <rect class="cls-2" x="114" y="146.27" width="21.09" height="21.09" rx="6.26"
          transform="translate(299.19 254.84) rotate(157.76)"/>
</svg>